<?xml version="1.0" encoding="UTF-8" standalone="no"?>
<!-- Created with Inkscape (http://www.inkscape.org/) -->

<svg
   width="15.24mm"
   height="128.5mm"
   viewBox="0 0 15.24 128.5"
   version="1.1"
   id="svg1"
   inkscape:version="1.3 (0e150ed6c4, 2023-07-21)"
   sodipodi:docname="Accent.svg"
   xmlns:inkscape="http://www.inkscape.org/namespaces/inkscape"
   xmlns:sodipodi="http://sodipodi.sourceforge.net/DTD/sodipodi-0.dtd"
   xmlns="http://www.w3.org/2000/svg"
   xmlns:svg="http://www.w3.org/2000/svg">
  <sodipodi:namedview
     id="namedview1"
     pagecolor="#505050"
     bordercolor="#ffffff"
     borderopacity="1"
     inkscape:showpageshadow="0"
     inkscape:pageopacity="0"
     inkscape:pagecheckerboard="1"
     inkscape:deskcolor="#505050"
     inkscape:document-units="mm"
     showgrid="false"
     inkscape:zoom="5.481467"
     inkscape:cx="6.567585"
     inkscape:cy="396.70038"
     inkscape:window-width="1920"
     inkscape:window-height="991"
     inkscape:window-x="-9"
     inkscape:window-y="-9"
     inkscape:window-maximized="1"
     inkscape:current-layer="layer2">
    <inkscape:grid
       id="grid1"
       units="mm"
       originx="0"
       originy="0"
       spacingx="1"
       spacingy="1"
       empcolor="#0099e5"
       empopacity="0.30196078"
       color="#0099e5"
       opacity="0.14901961"
       empspacing="5"
       dotted="false"
       gridanglex="30"
       gridanglez="30"
       visible="false" />
  </sodipodi:namedview>
  <defs
     id="defs1">
    <rect
       x="16.88126"
       y="442.32944"
       width="32.284557"
       height="22.984785"
       id="rect5" />
    <rect
       x="16.88126"
       y="442.32944"
       width="60.439163"
       height="14.624552"
       id="rect5-6" />
    <rect
       x="16.88126"
       y="442.32944"
       width="60.439163"
       height="14.624552"
       id="rect5-6-3" />
  </defs>
  <g
     inkscape:label="Layer 1"
     inkscape:groupmode="layer"
     id="layer1">
    <rect
       style="fill:#7add55;fill-opacity:1;stroke-width:0.264585"
       id="rect1"
       width="15.235825"
       height="128.5"
       x="0.0041754646"
       y="-6.9467002e-15"
       ry="0"
       rx="0" />
    <rect
       style="fill:#ff63e9;fill-opacity:1;stroke-width:0.302914"
       id="rect4"
       width="10.776912"
       height="13.189312"
       x="2.2875245"
       y="101.55885"
       ry="1.4404136" />
    <rect
       style="display:inline;fill:#000000;fill-opacity:1;stroke-width:0.112685"
       id="rect2-2-1-5"
       width="13.632296"
       height="0.66399997"
       x="0.80385202"
       y="116.732"
       ry="0.27390954" />
    <path
       d="m 7.0179704,122.70896 -0.316948,-0.72347 q -0.04479,-0.10335 -0.125745,-0.15503 -0.07924,-0.0534 -0.187758,-0.0534 h -0.08096 v 0.93189 h -0.423746 v -2.25136 h 0.656289 q 0.186035,0 0.337619,0.0327 0.151584,0.031 0.258381,0.10508 0.106798,0.0741 0.163642,0.19292 0.05857,0.11886 0.05857,0.29111 0,0.12403 -0.03617,0.22049 -0.03617,0.0965 -0.10163,0.16709 -0.06546,0.0689 -0.156752,0.11196 -0.08957,0.0431 -0.19637,0.0603 0.08268,0.0172 0.151584,0.0947 0.0689,0.0758 0.137804,0.22049 l 0.360011,0.75447 z m -0.105075,-1.58818 q 0,-0.16537 -0.105075,-0.23772 -0.105075,-0.0723 -0.315226,-0.0723 h -0.186034 v 0.63562 h 0.172254 q 0.09818,0 0.177422,-0.0207 0.08096,-0.0207 0.137804,-0.062 0.05684,-0.0413 0.08785,-0.10163 0.03101,-0.062 0.03101,-0.14124 z m 2.44429,0.90778 q 0,0.18431 -0.0689,0.32039 -0.06718,0.13608 -0.189479,0.22565 -0.122301,0.0879 -0.29111,0.13092 -0.16881,0.0431 -0.368625,0.0431 -0.177422,0 -0.342786,-0.0207 -0.165364,-0.0207 -0.327283,-0.0689 v -0.41858 q 0.07924,0.0276 0.165364,0.0517 0.08613,0.0241 0.172254,0.0431 0.08785,0.0172 0.173977,0.0276 0.08613,0.0103 0.167087,0.0103 0.120578,0 0.204983,-0.0207 0.08441,-0.0207 0.137803,-0.0568 0.0534,-0.0362 0.07751,-0.0861 0.02412,-0.0499 0.02412,-0.11024 0,-0.0827 -0.04823,-0.1378 -0.04651,-0.0569 -0.124023,-0.0999 -0.07751,-0.0431 -0.177422,-0.0775 -0.09818,-0.0345 -0.201538,-0.0741 -0.10163,-0.0396 -0.201537,-0.0896 -0.09818,-0.05 -0.1757,-0.12402 -0.07751,-0.0741 -0.125746,-0.1757 -0.04651,-0.10335 -0.04651,-0.24805 0,-0.13263 0.04823,-0.25149 0.04823,-0.11885 0.151584,-0.2067 0.103353,-0.0896 0.265272,-0.14125 0.161919,-0.0534 0.391018,-0.0534 0.06718,0 0.139526,0.007 0.07407,0.005 0.144693,0.0155 0.07235,0.009 0.137804,0.0224 0.06718,0.0121 0.1223,0.0258 v 0.38758 q -0.05512,-0.0207 -0.120578,-0.0379 -0.06546,-0.0172 -0.136081,-0.0293 -0.0689,-0.0138 -0.139526,-0.0207 -0.07062,-0.007 -0.134358,-0.007 -0.111965,0 -0.18948,0.019 -0.07751,0.0172 -0.127468,0.0499 -0.04995,0.031 -0.07235,0.0775 -0.02239,0.0465 -0.02239,0.10336 0,0.0706 0.04651,0.1223 0.04823,0.0499 0.125746,0.0913 0.07924,0.0396 0.177422,0.0758 0.09991,0.0344 0.20326,0.0758 0.105075,0.0396 0.20326,0.0913 0.09991,0.0517 0.177422,0.12575 0.07924,0.0741 0.125746,0.1757 0.04823,0.0999 0.04823,0.23771 z"
       id="text5"
       style="font-weight:bold;font-size:3.52777px;line-height:0.9;font-family:Consolas;-inkscape-font-specification:'Consolas Bold';text-align:center;text-anchor:middle;stroke-width:0.264583"
       aria-label="RS" />
    <rect
       style="display:inline;fill:#000000;fill-opacity:1;stroke-width:0.112685"
       id="rect2-2-1-5-9-1"
       width="13.632296"
       height="0.66399997"
       x="0.80385208"
       y="11.149"
       ry="0.27390954" />
    <rect
       style="display:inline;fill:#7add55;fill-opacity:1;stroke:#000000;stroke-width:0.29287;stroke-opacity:1"
       id="rect6-7"
       width="10.086574"
       height="39.418713"
       x="2.4402006"
       y="40.741863"
       ry="1.3439928" />
    <path
       style="font-weight:bold;font-size:6.35px;line-height:0.9;font-family:Consolas;-inkscape-font-specification:'Consolas Bold';text-align:center;letter-spacing:0px;text-anchor:middle;stroke:#000000;stroke-width:0.264583;stroke-opacity:0"
       d="M 4.8895428,10.277935 4.6663006,9.4779839 H 3.2524335 L 3.0229901,10.277935 H 2.2664471 L 3.4663739,6.2254693 H 4.5329754 L 5.7329022,10.277935 Z M 3.9686688,6.9696099 3.435368,8.8547661 h 1.0604004 z m 4.889624,3.1501951 q -0.2697509,0.108521 -0.523999,0.161231 -0.2511474,0.05271 -0.523999,0.05271 -0.4371826,0 -0.7751465,-0.127124 Q 6.7002851,10.076397 6.4677411,9.8221489 6.2382978,9.5679009 6.1173749,9.19273 5.9995527,8.8144585 5.9995527,8.3152642 q 0,-0.5115967 0.1302246,-0.9084717 Q 6.2600019,7.0068169 6.5018476,6.7339654 6.7436933,6.4580132 7.0878583,6.3153863 7.4351239,6.1696587 7.8661054,6.1696587 q 0.1395263,0 0.2604492,0.0062 0.1240234,0.0062 0.2418457,0.024805 0.1178222,0.015503 0.2387451,0.043408 0.1209228,0.027905 0.2511474,0.071313 V 7.0719292 Q 8.594743,6.9479058 8.3559979,6.8951958 q -0.2387451,-0.05271 -0.434082,-0.05271 -0.2883545,0 -0.4929931,0.1054199 Q 7.2242841,7.0502251 7.0909589,7.2393609 6.9607343,7.425396 6.8987226,7.6858452 q -0.062012,0.2573487 -0.062012,0.5674072 0,0.3286621 0.062012,0.5891114 0.065112,0.2573486 0.1984375,0.4371826 0.1333252,0.179834 0.3410644,0.2759521 0.2077393,0.093018 0.4929932,0.093018 0.1023193,0 0.2201416,-0.018603 0.1209228,-0.021704 0.2418457,-0.05271 0.1240234,-0.034106 0.2418457,-0.077515 0.1209228,-0.046509 0.2232421,-0.093018 z m 3.4912602,0 q -0.269751,0.108521 -0.523999,0.161231 -0.251148,0.05271 -0.523999,0.05271 -0.437183,0 -0.775147,-0.127124 Q 10.191545,10.076397 9.9590009,9.8221489 9.7295576,9.5679009 9.6086347,9.19273 9.4908125,8.8144585 9.4908125,8.3152642 q 0,-0.5115967 0.1302246,-0.9084717 0.1302246,-0.3999756 0.3720703,-0.6728271 0.2418456,-0.2759522 0.5860106,-0.4185791 0.347266,-0.1457276 0.778247,-0.1457276 0.139527,0 0.260449,0.0062 0.124024,0.0062 0.241846,0.024805 0.117822,0.015503 0.238745,0.043408 0.120923,0.027905 0.251148,0.071313 v 0.7565429 q -0.26355,-0.1240234 -0.502295,-0.1767334 -0.238745,-0.05271 -0.434082,-0.05271 -0.288355,0 -0.492993,0.1054199 -0.204639,0.1023193 -0.337964,0.2914551 -0.130225,0.1860351 -0.192237,0.4464843 -0.06201,0.2573487 -0.06201,0.5674072 0,0.3286621 0.06201,0.5891114 0.06511,0.2573486 0.198438,0.4371826 0.133325,0.179834 0.341064,0.2759521 0.20774,0.093018 0.492993,0.093018 0.10232,0 0.220142,-0.018603 0.120923,-0.021704 0.241846,-0.05271 0.124023,-0.034106 0.241845,-0.077515 0.120923,-0.046509 0.223243,-0.093018 z"
       id="text1"
       aria-label="ACC" />
    <rect
       style="display:inline;fill:#ff63e9;fill-opacity:1;stroke-width:0.302914"
       id="rect4-2"
       width="10.776912"
       height="13.189312"
       x="2.2875204"
       y="86.712273"
       ry="1.4404136" />
    <text
       xml:space="preserve"
       style="font-size:3.52777px;line-height:0.9;font-family:Arial;-inkscape-font-specification:Arial;text-align:center;letter-spacing:0px;text-anchor:middle;fill:#000000;stroke:#000000;stroke-width:0.264583;stroke-opacity:0"
       x="12.481845"
       y="46.75655"
       id="text3"><tspan
         sodipodi:role="line"
         id="tspan1"
         style="stroke-width:0.264583"
         x="12.481845"
         y="46.75655" /></text>
    <path
       d="M 5.2082907,38.422298 H 4.9206259 v -2.525249 h 0.3100579 v 0.90089 q 0.19637,-0.246323 0.5012603,-0.246323 0.1688093,0 0.3186706,0.0689 0.1515839,0.06718 0.2480463,0.191203 0.098185,0.1223 0.1533064,0.296277 0.055121,0.173977 0.055121,0.37207 0,0.470254 -0.2325434,0.726913 -0.2325434,0.256659 -0.5581042,0.256659 -0.3238383,0 -0.5081505,-0.270439 z m -0.00345,-0.928451 q 0,0.329006 0.089572,0.475422 0.1464162,0.239434 0.3961851,0.239434 0.2032602,0 0.351399,-0.1757 0.1481388,-0.177422 0.1481388,-0.527098 0,-0.358289 -0.1429712,-0.528821 -0.1412486,-0.170532 -0.3427862,-0.170532 -0.2032602,0 -0.351399,0.177422 -0.1481388,0.1757 -0.1481388,0.509873 z m 1.446937,0.971515 0.7320811,-2.611377 h 0.2480464 l -0.7303587,2.611377 z m 1.2126709,-0.04306 V 36.592957 H 8.141783 v 0.256659 q 0.086127,-0.134359 0.2290984,-0.215318 0.1429711,-0.08268 0.3255608,-0.08268 0.2032602,0 0.332451,0.0844 0.1309133,0.0844 0.1843122,0.235989 0.2170405,-0.320393 0.5649944,-0.320393 0.2721622,0 0.4185782,0.151584 0.146416,0.149861 0.146416,0.463364 v 1.255734 h -0.308335 v -1.152381 q 0,-0.186035 -0.03101,-0.266995 -0.029283,-0.08268 -0.1085202,-0.132636 -0.079237,-0.04995 -0.1860348,-0.04995 -0.1929249,0 -0.3203931,0.12919 -0.1274683,0.127469 -0.1274683,0.409966 v 1.062809 H 8.9513787 v -1.188555 q 0,-0.206705 -0.075792,-0.310058 -0.075792,-0.103352 -0.2480464,-0.103352 -0.1309133,0 -0.2428787,0.0689 -0.1102428,0.0689 -0.1601966,0.201538 -0.049954,0.132636 -0.049954,0.382405 v 0.949121 z"
       id="text4-8"
       style="display:inline;font-size:3.52777px;line-height:0.9;font-family:Arial;-inkscape-font-specification:Arial;text-align:center;letter-spacing:0px;text-anchor:middle;stroke:#000000;stroke-width:0.264583;stroke-opacity:0"
       aria-label="b/m" />
    <path
       d="m 4.8277541,98.431664 v -0.230821 q -0.173977,0.272162 -0.5115956,0.272162 -0.2187631,0 -0.4030753,-0.120579 -0.1825896,-0.120578 -0.2842197,-0.335896 -0.099908,-0.21704 -0.099908,-0.497815 0,-0.273884 0.091295,-0.496092 0.091295,-0.223931 0.2738845,-0.342787 0.1825897,-0.118855 0.408243,-0.118855 0.1653642,0 0.294555,0.07062 0.1291908,0.0689 0.2101503,0.180867 v -0.906058 h 0.3083354 v 2.52525 z M 3.8476265,97.518715 q 0,0.351399 0.1481388,0.525376 0.1481388,0.173977 0.3496765,0.173977 0.2032601,0 0.3445087,-0.165364 0.1429712,-0.167087 0.1429712,-0.508151 0,-0.375514 -0.1446937,-0.551214 -0.1446937,-0.175699 -0.3565666,-0.175699 -0.2067053,0 -0.3462313,0.168809 -0.1378036,0.168809 -0.1378036,0.532266 z m 1.6398619,-0.0017 q 0,-0.508151 0.2824972,-0.752752 0.2359886,-0.20326 0.5753297,-0.20326 0.3772371,0 0.6166708,0.248046 0.2394336,0.246324 0.2394336,0.682128 0,0.353121 -0.1067978,0.556381 -0.1050751,0.201538 -0.3083353,0.313503 -0.2015377,0.111966 -0.4409713,0.111966 -0.3841273,0 -0.6218384,-0.246324 -0.2359885,-0.246324 -0.2359885,-0.709688 z m 0.3186707,0 q 0,0.351399 0.1533064,0.527098 0.1533064,0.173977 0.3858498,0.173977 0.2308209,0 0.3841273,-0.175699 0.1533064,-0.1757 0.1533064,-0.535712 0,-0.339341 -0.1550289,-0.513318 -0.1533064,-0.175699 -0.3824048,-0.175699 -0.2325434,0 -0.3858498,0.173977 -0.1533064,0.173977 -0.1533064,0.525376 z m 2.096336,0.914671 -0.5598268,-1.829342 h 0.3203932 l 0.2911099,1.055919 0.1085203,0.39274 q 0.00689,-0.02928 0.09474,-0.377237 l 0.2911099,-1.071422 h 0.3186707 l 0.2738845,1.061087 0.091295,0.349676 0.1050752,-0.353121 0.313503,-1.057642 H 9.8524149 L 9.2805303,98.431664 H 8.9584145 L 8.6673046,97.336126 8.5966803,97.024345 8.2263334,98.431664 Z m 2.2100239,0 v -1.829342 h 0.279052 v 0.260104 q 0.201538,-0.301445 0.58222,-0.301445 0.165364,0 0.303168,0.06029 0.139526,0.05857 0.208427,0.155029 0.0689,0.09646 0.09646,0.229098 0.01722,0.08613 0.01722,0.301445 v 1.124822 H 11.289016 V 97.3189 q 0,-0.18948 -0.03617,-0.282497 -0.03617,-0.09474 -0.129191,-0.149861 -0.0913,-0.05684 -0.215318,-0.05684 -0.198092,0 -0.342786,0.125745 -0.142971,0.125746 -0.142971,0.477145 v 0.999076 z"
       id="text6"
       style="display:inline;font-size:3.52777px;line-height:0.9;font-family:Arial;-inkscape-font-specification:Arial;text-align:center;letter-spacing:0px;text-anchor:middle;stroke:#000000;stroke-width:0.264583;stroke-opacity:0"
       aria-label="down" />
    <path
       d="m 5.4237563,113.22623 q -0.1722544,0.14641 -0.332451,0.2067 -0.158474,0.0603 -0.3410637,0.0603 -0.3014452,0 -0.4633643,-0.14641 -0.1619192,-0.14814 -0.1619192,-0.37724 0,-0.13436 0.060289,-0.2446 0.062012,-0.11197 0.1601966,-0.17915 0.099907,-0.0672 0.2239307,-0.10163 0.091295,-0.0241 0.275607,-0.0465 0.3755146,-0.0448 0.5529366,-0.10679 0.00172,-0.0637 0.00172,-0.081 0,-0.18948 -0.08785,-0.267 -0.1188555,-0.10507 -0.3531215,-0.10507 -0.2187631,0 -0.3238383,0.0775 -0.1033526,0.0758 -0.1533064,0.27044 l -0.3031677,-0.0413 q 0.041341,-0.19465 0.136081,-0.3135 0.09474,-0.12058 0.2738845,-0.18431 0.1791445,-0.0655 0.4151331,-0.0655 0.2342659,0 0.3806822,0.0551 0.1464162,0.0551 0.215318,0.13953 0.068902,0.0827 0.096462,0.21015 0.015503,0.0792 0.015503,0.28594 v 0.41341 q 0,0.43236 0.018948,0.54777 0.020671,0.11369 0.079237,0.21876 H 5.4857679 q -0.048231,-0.0965 -0.062012,-0.22565 z m -0.025838,-0.69246 q -0.1688093,0.0689 -0.5064279,0.11713 -0.1912024,0.0276 -0.2704394,0.062 -0.079237,0.0345 -0.1223006,0.10163 -0.043064,0.0655 -0.043064,0.14642 0,0.12402 0.093017,0.2067 0.09474,0.0827 0.275607,0.0827 0.1791446,0 0.3186706,-0.0775 0.1395261,-0.0792 0.2049828,-0.21532 0.049954,-0.10507 0.049954,-0.31006 z m 1.9878158,0.24804 0.3048903,0.0396 q -0.049954,0.31523 -0.2566591,0.49437 -0.2049827,0.17742 -0.5047054,0.17742 -0.3755145,0 -0.6046129,-0.2446 -0.2273758,-0.24632 -0.2273758,-0.70452 0,-0.29628 0.098185,-0.51848 0.098185,-0.22221 0.2980001,-0.33246 0.2015377,-0.11196 0.4375262,-0.11196 0.2980001,0 0.4874799,0.15158 0.1894799,0.14986 0.2428787,0.42719 l -0.3014452,0.0465 q -0.043064,-0.18431 -0.1533064,-0.27733 -0.1085203,-0.093 -0.2635492,-0.093 -0.234266,0 -0.3806822,0.1688 -0.1464163,0.16709 -0.1464163,0.53055 0,0.36862 0.1412486,0.53571 0.1412486,0.16709 0.3686244,0.16709 0.1825897,0 0.3048903,-0.11197 0.1223007,-0.11196 0.155029,-0.34451 z m 1.7638849,0 0.3048903,0.0396 q -0.049954,0.31523 -0.2566591,0.49437 -0.2049827,0.17742 -0.5047054,0.17742 -0.3755145,0 -0.6046129,-0.2446 -0.2273758,-0.24632 -0.2273758,-0.70452 0,-0.29628 0.098185,-0.51848 0.098185,-0.22221 0.2980001,-0.33246 0.2015377,-0.11196 0.4375262,-0.11196 0.2980001,0 0.4874799,0.15158 0.1894799,0.14986 0.2428787,0.42719 l -0.3014452,0.0465 q -0.043064,-0.18431 -0.1533064,-0.27733 -0.1085203,-0.093 -0.2635492,-0.093 -0.234266,0 -0.3806822,0.1688 -0.1464163,0.16709 -0.1464163,0.53055 0,0.36862 0.1412486,0.53571 0.1412486,0.16709 0.3686244,0.16709 0.1825897,0 0.3048903,-0.11197 0.1223007,-0.11196 0.155029,-0.34451 z m 0.4461389,0.12402 0.3066128,-0.0482 q 0.025838,0.18432 0.1429715,0.2825 0.118855,0.0982 0.330728,0.0982 0.213596,0 0.316948,-0.0861 0.103353,-0.0878 0.103353,-0.20498 0,-0.10508 -0.0913,-0.16537 -0.06373,-0.0413 -0.316948,-0.10507 -0.341064,-0.0861 -0.4736997,-0.14814 -0.1309133,-0.0637 -0.1998151,-0.17398 -0.067179,-0.11196 -0.067179,-0.24632 0,-0.1223 0.055121,-0.22566 0.056844,-0.10507 0.1533064,-0.17397 0.072347,-0.0534 0.1963702,-0.0896 0.125746,-0.0379 0.268717,-0.0379 0.215318,0 0.377237,0.062 0.163641,0.062 0.241156,0.16881 0.07751,0.10507 0.106798,0.2825 l -0.303168,0.0413 q -0.02067,-0.14125 -0.120578,-0.22049 -0.09818,-0.0792 -0.279052,-0.0792 -0.213596,0 -0.304891,0.0706 -0.091294,0.0706 -0.091294,0.16536 0,0.0603 0.037896,0.10852 0.037896,0.05 0.1188554,0.0827 0.04651,0.0172 0.273885,0.0792 0.329006,0.0878 0.458196,0.1447 0.130914,0.0551 0.204983,0.16192 0.07407,0.10679 0.07407,0.26527 0,0.15503 -0.09129,0.29283 -0.08957,0.13608 -0.260105,0.21187 -0.170531,0.0741 -0.385849,0.0741 -0.356567,0 -0.5443243,-0.14814 -0.1860347,-0.14814 -0.237711,-0.43925 z"
       id="text6-8"
       style="display:inline;font-size:3.52777px;line-height:0.9;font-family:Arial;-inkscape-font-specification:Arial;text-align:center;letter-spacing:0px;text-anchor:middle;stroke:#000000;stroke-width:0.264583;stroke-opacity:0"
       aria-label="accs" />
    <path
       d="m 2.9717111,83.91353 q -0.1722544,0.146416 -0.332451,0.206705 -0.158474,0.06029 -0.3410637,0.06029 -0.3014451,0 -0.4633643,-0.146416 -0.1619191,-0.148139 -0.1619191,-0.377237 0,-0.134359 0.060289,-0.244602 0.062012,-0.111965 0.1601966,-0.179144 0.099908,-0.06718 0.2239307,-0.10163 0.091295,-0.02412 0.2756071,-0.04651 0.3755145,-0.04479 0.5529366,-0.106798 0.00172,-0.06373 0.00172,-0.08096 0,-0.18948 -0.08785,-0.266994 -0.1188556,-0.105076 -0.3531215,-0.105076 -0.2187631,0 -0.3238383,0.07751 -0.1033526,0.07579 -0.1533064,0.270439 l -0.3031678,-0.04134 q 0.041341,-0.194647 0.136081,-0.313503 0.09474,-0.120578 0.2738845,-0.184312 0.1791446,-0.06546 0.4151331,-0.06546 0.234266,0 0.3806822,0.05512 0.1464163,0.05512 0.215318,0.139526 0.068902,0.08268 0.096462,0.21015 0.015503,0.07924 0.015503,0.285942 v 0.413411 q 0,0.432359 0.018948,0.547769 0.020671,0.113688 0.079237,0.218763 H 3.0337227 Q 2.9854915,84.042721 2.9717111,83.91353 Z M 2.945873,83.221067 q -0.1688093,0.0689 -0.506428,0.117133 -0.1912023,0.02756 -0.2704394,0.06201 -0.079237,0.03445 -0.1223006,0.10163 -0.043064,0.06546 -0.043064,0.146416 0,0.124023 0.093017,0.206705 0.09474,0.08268 0.275607,0.08268 0.1791446,0 0.3186707,-0.07751 0.139526,-0.07924 0.2049827,-0.215318 0.049954,-0.105075 0.049954,-0.310058 z m 1.9878157,0.248046 0.3048903,0.03962 q -0.049954,0.315225 -0.256659,0.49437 -0.2049828,0.177422 -0.5047054,0.177422 -0.3755146,0 -0.6046129,-0.244601 -0.2273759,-0.246324 -0.2273759,-0.704521 0,-0.296277 0.098185,-0.518485 0.098185,-0.222209 0.2980001,-0.332451 0.2015376,-0.111966 0.4375261,-0.111966 0.2980001,0 0.48748,0.151584 0.1894798,0.149861 0.2428787,0.427191 l -0.3014452,0.04651 q -0.043064,-0.184312 -0.1533064,-0.27733 -0.1085203,-0.09302 -0.2635493,-0.09302 -0.2342659,0 -0.3806822,0.168809 -0.1464162,0.167087 -0.1464162,0.530544 0,0.368624 0.1412486,0.535711 0.1412486,0.167087 0.3686244,0.167087 0.1825897,0 0.3048903,-0.111966 0.1223006,-0.111965 0.1550289,-0.344509 z m 1.7638849,0 0.3048903,0.03962 q -0.049954,0.315225 -0.256659,0.49437 -0.2049828,0.177422 -0.5047054,0.177422 -0.3755146,0 -0.6046129,-0.244601 -0.2273758,-0.246324 -0.2273758,-0.704521 0,-0.296277 0.098185,-0.518485 0.098185,-0.222209 0.2980001,-0.332451 Q 6.0068335,82.2685 6.242822,82.2685 q 0.2980001,0 0.48748,0.151584 0.1894798,0.149861 0.2428787,0.427191 l -0.3014452,0.04651 q -0.043064,-0.184312 -0.1533064,-0.27733 -0.1085203,-0.09302 -0.2635493,-0.09302 -0.2342659,0 -0.3806822,0.168809 -0.1464162,0.167087 -0.1464162,0.530544 0,0.368624 0.1412486,0.535711 0.1412486,0.167087 0.3686244,0.167087 0.1825897,0 0.3048903,-0.111966 0.1223006,-0.111965 0.1550289,-0.344509 z m 1.8224516,0.08096 0.3203931,0.03962 q -0.075792,0.280774 -0.2807746,0.435803 -0.2049828,0.155029 -0.5236534,0.155029 -0.4013527,0 -0.6373413,-0.246324 -0.2342659,-0.248046 -0.2342659,-0.694185 0,-0.461642 0.237711,-0.716578 0.2377111,-0.254937 0.6166708,-0.254937 0.3669018,0 0.5994453,0.249769 0.2325434,0.249769 0.2325434,0.702798 0,0.02756 -0.00172,0.08268 H 7.4847762 q 0.017226,0.301445 0.1705319,0.461642 0.1533064,0.160197 0.3824047,0.160197 0.1705319,0 0.29111,-0.08957 0.1205781,-0.08957 0.1912024,-0.285942 z m -1.0180235,-0.50126 h 1.0214685 q -0.02067,-0.230821 -0.1171329,-0.346232 -0.1481388,-0.179144 -0.3841274,-0.179144 -0.2135954,0 -0.3600116,0.142971 -0.1446937,0.142971 -0.1601966,0.382405 z m 1.7277115,1.09037 v -1.829342 h 0.2790521 v 0.260104 Q 9.7103029,82.2685 10.090985,82.2685 q 0.165364,0 0.303168,0.06029 0.139526,0.05857 0.208428,0.155029 0.0689,0.09646 0.09646,0.229099 0.01723,0.08613 0.01723,0.301445 v 1.124821 H 10.406211 V 83.02642 q 0,-0.18948 -0.03617,-0.282498 -0.03617,-0.09474 -0.129191,-0.149861 -0.09129,-0.05684 -0.215318,-0.05684 -0.1980921,0 -0.3427858,0.125746 -0.1429711,0.125746 -0.1429711,0.477145 v 0.999075 z m 2.6389378,-0.27733 0.04479,0.273885 q -0.130913,0.02756 -0.234266,0.02756 -0.168809,0 -0.261827,-0.0534 -0.09302,-0.0534 -0.130913,-0.139526 -0.0379,-0.08785 -0.0379,-0.366902 v -1.052474 h -0.227376 v -0.241157 h 0.227376 v -0.453029 l 0.308335,-0.186034 v 0.639063 h 0.311781 v 0.241157 H 11.55687 v 1.069699 q 0,0.132636 0.0155,0.170532 0.01723,0.0379 0.0534,0.06029 0.0379,0.02239 0.106798,0.02239 0.05168,0 0.136081,-0.01206 z m 0.179144,-0.268716 0.306613,-0.04823 q 0.02584,0.184313 0.142971,0.282498 0.118856,0.09819 0.330729,0.09819 0.213595,0 0.316948,-0.08613 0.103352,-0.08785 0.103352,-0.204982 0,-0.105076 -0.09129,-0.165365 -0.06373,-0.04134 -0.316948,-0.105075 -0.341064,-0.08613 -0.4737,-0.148139 -0.130913,-0.06373 -0.199815,-0.173976 -0.06718,-0.111966 -0.06718,-0.246324 0,-0.122301 0.05512,-0.225654 0.05684,-0.105075 0.153306,-0.173976 0.07235,-0.0534 0.19637,-0.08957 0.125746,-0.0379 0.268717,-0.0379 0.215318,0 0.377237,0.06201 0.163642,0.06201 0.241157,0.168809 0.07751,0.105075 0.106797,0.282497 l -0.303167,0.04134 q -0.02067,-0.141248 -0.120578,-0.220485 -0.09819,-0.07924 -0.279053,-0.07924 -0.213595,0 -0.30489,0.07062 -0.0913,0.07062 -0.0913,0.165364 0,0.06029 0.0379,0.108521 0.0379,0.04995 0.118856,0.08268 0.04651,0.01723 0.273884,0.07924 0.329006,0.08785 0.458197,0.144693 0.130913,0.05512 0.204983,0.16192 0.07407,0.106797 0.07407,0.265271 0,0.155029 -0.09129,0.292833 -0.08957,0.136081 -0.260104,0.211873 -0.170532,0.07407 -0.38585,0.07407 -0.356566,0 -0.544324,-0.148139 -0.186034,-0.148138 -0.237711,-0.439248 z"
       id="text4"
       style="display:inline;font-size:3.52777px;line-height:0.9;font-family:Arial;-inkscape-font-specification:Arial;text-align:center;letter-spacing:0px;text-anchor:middle;stroke:#000000;stroke-width:0.264583;stroke-opacity:0"
       aria-label="accents" />
    <path
       d="m 3.5926921,25.972586 v -2.530417 h 0.2824972 v 0.237711 q 0.099908,-0.139526 0.2256532,-0.208427 0.1257457,-0.07062 0.3048903,-0.07062 0.234266,0 0.4134106,0.120578 0.1791445,0.120578 0.2704394,0.341064 0.091295,0.218763 0.091295,0.48059 0,0.280775 -0.1016301,0.506428 -0.099908,0.223931 -0.2928325,0.344509 -0.1912024,0.118855 -0.4030753,0.118855 -0.1550289,0 -0.2790521,-0.06546 Q 3.981987,25.181939 3.90275,25.082031 v 0.890555 z m 0.2807746,-1.605411 q 0,0.353122 0.1429712,0.521931 0.1429711,0.16881 0.3462313,0.16881 0.2067053,0 0.3531215,-0.173977 0.1481388,-0.1757 0.1481388,-0.542602 0,-0.349676 -0.1446937,-0.523653 -0.1429711,-0.173977 -0.3427862,-0.173977 -0.1980926,0 -0.351399,0.186035 -0.1515839,0.184312 -0.1515839,0.537433 z m 2.8800936,0.904336 v -0.268717 q -0.2135955,0.310058 -0.5804974,0.310058 -0.1619191,0 -0.3031677,-0.06201 -0.1395261,-0.06201 -0.2084278,-0.155029 -0.067179,-0.09474 -0.09474,-0.230821 -0.018948,-0.09129 -0.018948,-0.289388 v -1.133434 h 0.3100579 v 1.014579 q 0,0.242878 0.018948,0.327283 0.029283,0.122301 0.1240231,0.192925 0.09474,0.0689 0.234266,0.0689 0.1395261,0 0.2618267,-0.07062 0.1223006,-0.07235 0.1722544,-0.194648 0.051676,-0.124023 0.051676,-0.358289 v -0.980128 h 0.3100579 v 1.829342 z m 0.7561968,0 V 22.746262 H 7.819815 v 2.525249 z m 0.6666244,-0.546046 0.3066129,-0.04823 q 0.025838,0.184313 0.1429711,0.282498 0.1188555,0.09818 0.3307285,0.09818 0.2135954,0 0.316948,-0.08613 0.1033527,-0.08785 0.1033527,-0.204982 0,-0.105075 -0.091295,-0.165365 -0.063734,-0.04134 -0.3169481,-0.105075 -0.3410637,-0.08613 -0.4736996,-0.148138 -0.1309134,-0.06373 -0.1998151,-0.173977 -0.067179,-0.111966 -0.067179,-0.246324 0,-0.122301 0.055121,-0.225653 0.056844,-0.105076 0.1533064,-0.173977 0.072347,-0.0534 0.19637,-0.08957 0.1257457,-0.0379 0.2687168,-0.0379 0.215318,0 0.3772372,0.06201 0.1636417,0.06201 0.2411561,0.168809 0.077515,0.105075 0.1067978,0.282497 l -0.3031678,0.04134 q -0.02067,-0.141248 -0.1205781,-0.220485 -0.098185,-0.07924 -0.2790521,-0.07924 -0.2135954,0 -0.3048903,0.07062 -0.091295,0.07062 -0.091295,0.165364 0,0.06029 0.037896,0.108521 0.037896,0.04995 0.1188555,0.08268 0.046509,0.01722 0.2738845,0.07924 0.3290059,0.08785 0.4581967,0.144693 0.1309133,0.05512 0.2049827,0.16192 0.074069,0.106797 0.074069,0.265271 0,0.155029 -0.091295,0.292833 -0.089572,0.136081 -0.2601042,0.211873 -0.1705318,0.07407 -0.3858498,0.07407 -0.3565666,0 -0.5443239,-0.148139 -0.1860347,-0.148138 -0.2377111,-0.439248 z m 3.1401975,-0.04306 0.320393,0.03962 q -0.07579,0.280774 -0.280774,0.435803 -0.204983,0.155029 -0.523654,0.155029 -0.401352,0 -0.637341,-0.246324 -0.2342659,-0.248046 -0.2342659,-0.694185 0,-0.461642 0.2377109,-0.716578 0.237711,-0.254937 0.616671,-0.254937 0.366902,0 0.599445,0.249769 0.232544,0.249769 0.232544,0.702798 0,0.02756 -0.0017,0.08268 H 10.28133 q 0.01723,0.301445 0.170532,0.461642 0.153307,0.160197 0.382405,0.160197 0.170532,0 0.29111,-0.08957 0.120578,-0.08957 0.191202,-0.285942 z m -1.018023,-0.50126 h 1.021468 q -0.02067,-0.230821 -0.117133,-0.346232 -0.148138,-0.179144 -0.384127,-0.179144 -0.213595,0 -0.360012,0.142971 -0.144693,0.142971 -0.160196,0.382405 z"
       id="text7"
       style="font-size:3.52777px;line-height:0.9;font-family:Arial;-inkscape-font-specification:Arial;text-align:center;letter-spacing:0px;text-anchor:middle;stroke:#000000;stroke-width:0.264583;stroke-opacity:0"
       aria-label="pulse" />
  </g>
  <g
     inkscape:groupmode="layer"
     id="layer2"
     inkscape:label="components"
     style="display:none">
    <circle
       style="display:inline;fill:#ff00ff;fill-opacity:1;stroke-width:0.24249"
       id="path2-2-1-6"
       cx="3.8329985"
       cy="71.4617"
       r="0.31200001"
       inkscape:label="acc4" />
    <circle
       style="display:inline;fill:#ff00ff;fill-opacity:1;stroke-width:0.24249"
       id="path2-2-1"
       cx="3.8329985"
       cy="61.822968"
       r="0.31200001"
       inkscape:label="acc3" />
    <circle
       style="display:inline;fill:#ff00ff;fill-opacity:1;stroke-width:0.24249"
       id="path2-2"
       cx="3.8329983"
       cy="52.184238"
       r="0.31200001"
       inkscape:label="acc2" />
    <circle
       style="display:inline;fill:#ff00ff;fill-opacity:1;stroke-width:0.24249"
       id="path2"
       cx="3.8329983"
       cy="42.545506"
       r="0.31200001"
       inkscape:label="acc1" />
    <circle
       style="fill:#00ff00;fill-opacity:1;stroke-width:0.256914"
       id="path2-6"
       cx="7.6263981"
       cy="17.466335"
       r="3.1535001"
       inkscape:label="pulse" />
    <circle
       style="display:inline;fill:#ff0000;fill-opacity:1;stroke-width:0.256914"
       id="path2-6-0-0-5-3-8"
       cx="7.6199961"
       cy="74.9272"
       r="3.1535001"
       inkscape:label="accent4" />
    <circle
       style="display:inline;fill:#ff0000;fill-opacity:1;stroke-width:0.256914"
       id="path2-6-0-0-5-3-4-7"
       cx="7.6199999"
       cy="65.288467"
       r="3.1535001"
       inkscape:label="accent3" />
    <circle
       style="display:inline;fill:#ff0000;fill-opacity:1;stroke-width:0.256914"
       id="path2-6-0-0-5-3-4"
       cx="7.6199999"
       cy="55.649738"
       r="3.1535001"
       inkscape:label="accent2" />
    <circle
       style="display:inline;fill:#ff0000;fill-opacity:1;stroke-width:0.256914"
       id="path2-6-0-0-5-3"
       cx="7.5640187"
       cy="46.011005"
       r="3.1535001"
       inkscape:label="accent1" />
    <circle
       style="display:inline;fill:#ff0000;fill-opacity:1;stroke-width:0.256914"
       id="path2-6-0-0-5-3-1"
       cx="7.6258812"
       cy="30.551434"
       r="3.1535001"
       inkscape:label="Length" />
    <circle
       style="fill:#0000ff;fill-opacity:1;stroke-width:0.256914"
       id="path2-6-1"
       cx="7.6199999"
       cy="106.08863"
       r="3.1535001"
       inkscape:label="accents" />
    <circle
       style="display:inline;fill:#0000ff;fill-opacity:1;stroke-width:0.256914"
       id="path2-6-1-5"
       cx="7.6199961"
       cy="91.24205"
       r="3.1535001"
       inkscape:label="Downbeat" />
  </g>
</svg>
