<?xml version="1.0" encoding="UTF-8" standalone="no"?>
<!-- Created with Inkscape (http://www.inkscape.org/) -->

<svg
   width="15.24mm"
   height="128.5mm"
   viewBox="0 0 15.24 128.5"
   version="1.1"
   id="svg1"
   inkscape:version="1.3 (0e150ed6c4, 2023-07-21)"
   sodipodi:docname="Balance.svg"
   xmlns:inkscape="http://www.inkscape.org/namespaces/inkscape"
   xmlns:sodipodi="http://sodipodi.sourceforge.net/DTD/sodipodi-0.dtd"
   xmlns="http://www.w3.org/2000/svg"
   xmlns:svg="http://www.w3.org/2000/svg">
  <sodipodi:namedview
     id="namedview1"
     pagecolor="#505050"
     bordercolor="#ffffff"
     borderopacity="1"
     inkscape:showpageshadow="0"
     inkscape:pageopacity="0"
     inkscape:pagecheckerboard="1"
     inkscape:deskcolor="#505050"
     inkscape:document-units="mm"
     showgrid="false"
     inkscape:zoom="6.757967"
     inkscape:cx="14.871336"
     inkscape:cy="88.26619"
     inkscape:window-width="1920"
     inkscape:window-height="991"
     inkscape:window-x="-9"
     inkscape:window-y="-9"
     inkscape:window-maximized="1"
     inkscape:current-layer="layer2">
    <inkscape:grid
       id="grid1"
       units="mm"
       originx="0"
       originy="0"
       spacingx="1"
       spacingy="1"
       empcolor="#0099e5"
       empopacity="0.30196078"
       color="#0099e5"
       opacity="0.14901961"
       empspacing="5"
       dotted="false"
       gridanglex="30"
       gridanglez="30"
       visible="false" />
  </sodipodi:namedview>
  <defs
     id="defs1">
    <rect
       x="16.88126"
       y="442.32944"
       width="32.284557"
       height="22.984785"
       id="rect5" />
    <rect
       x="16.88126"
       y="442.32944"
       width="60.439163"
       height="14.624552"
       id="rect5-6" />
    <rect
       x="16.88126"
       y="442.32944"
       width="60.439163"
       height="14.624552"
       id="rect5-6-3" />
  </defs>
  <g
     inkscape:label="Layer 1"
     inkscape:groupmode="layer"
     id="layer1">
    <rect
       style="fill:#7add55;fill-opacity:1;stroke-width:0.264585"
       id="rect1"
       width="15.235825"
       height="128.5"
       x="0.0041754646"
       y="-6.9467002e-15"
       ry="0"
       rx="0" />
    <rect
       style="fill:#ff63e9;fill-opacity:1;stroke-width:0.471275"
       id="rect4"
       width="10.776912"
       height="31.925049"
       x="2.2875245"
       y="82.823112"
       ry="1.1106483" />
    <rect
       style="display:inline;fill:#000000;fill-opacity:1;stroke-width:0.112685"
       id="rect2-2-1-5"
       width="13.632296"
       height="0.66399997"
       x="0.80385202"
       y="116.732"
       ry="0.27390954" />
    <path
       d="M 2.779985,10.277935 V 6.2254693 h 1.3084473 q 0.6914306,0 1.0355957,0.2418457 0.3472656,0.2418457 0.3472656,0.7317382 0,0.1519287 -0.037207,0.2976563 Q 5.3999801,7.6393364 5.325566,7.7602593 5.251152,7.8811821 5.1395309,7.9741997 5.0279098,8.0672173 4.8759811,8.1199272 q 0.1519287,0.024805 0.2883545,0.099219 0.1395263,0.071314 0.2418457,0.1891357 0.1054199,0.1147217 0.164331,0.2728516 0.062012,0.1581299 0.062012,0.3534668 0,0.6201172 -0.4154785,0.9332763 Q 4.801567,10.277935 4.0171188,10.277935 Z M 4.6775436,7.3323784 q 0,-0.1147216 -0.037207,-0.2077392 Q 4.6031295,7.0316216 4.5194137,6.9665093 4.4387985,6.901397 4.3085739,6.8672905 4.1814498,6.8300835 3.9985153,6.8300835 H 3.536528 v 1.0728027 h 0.4619873 q 0.1860351,0 0.3131592,-0.043408 Q 4.4418991,7.8129692 4.5225143,7.7354546 4.6062301,7.6548394 4.6403366,7.55252 4.6775436,7.4502007 4.6775436,7.3323784 Z M 4.0698288,9.6547173 q 0.1829345,0 0.3193603,-0.046509 0.1395264,-0.046509 0.2325439,-0.127124 0.093018,-0.083716 0.1395264,-0.195337 0.049609,-0.111621 0.049609,-0.2387451 0,-0.2635498 -0.1984375,-0.4123779 Q 4.4170944,8.4857964 4.0109176,8.4857964 H 3.536528 V 9.6547173 Z M 8.5067673,10.277935 8.2835251,9.4779839 H 6.8696579 L 6.6402146,10.277935 H 5.8836716 L 7.0835983,6.2254693 H 8.1501999 L 9.3501266,10.277935 Z M 7.5858933,6.9696099 7.0525925,8.8547661 H 8.1129929 Z M 9.9733445,10.277935 V 6.2254693 h 0.7751465 v 3.3982421 h 1.711523 v 0.6542236 z"
       id="text2"
       style="font-weight:bold;font-size:6.35px;line-height:0.9;font-family:Consolas;-inkscape-font-specification:'Consolas Bold';text-align:center;letter-spacing:0px;text-anchor:middle;stroke:#ff63e9;stroke-width:0.264583;stroke-opacity:0"
       aria-label="BAL" />
    <path
       d="m 7.0179704,122.70896 -0.316948,-0.72347 q -0.04479,-0.10335 -0.125745,-0.15503 -0.07924,-0.0534 -0.187758,-0.0534 h -0.08096 v 0.93189 h -0.423746 v -2.25136 h 0.656289 q 0.186035,0 0.337619,0.0327 0.151584,0.031 0.258381,0.10508 0.106798,0.0741 0.163642,0.19292 0.05857,0.11886 0.05857,0.29111 0,0.12403 -0.03617,0.22049 -0.03617,0.0965 -0.10163,0.16709 -0.06546,0.0689 -0.156752,0.11196 -0.08957,0.0431 -0.19637,0.0603 0.08268,0.0172 0.151584,0.0947 0.0689,0.0758 0.137804,0.22049 l 0.360011,0.75447 z m -0.105075,-1.58818 q 0,-0.16537 -0.105075,-0.23772 -0.105075,-0.0723 -0.315226,-0.0723 h -0.186034 v 0.63562 h 0.172254 q 0.09818,0 0.177422,-0.0207 0.08096,-0.0207 0.137804,-0.062 0.05684,-0.0413 0.08785,-0.10163 0.03101,-0.062 0.03101,-0.14124 z m 2.44429,0.90778 q 0,0.18431 -0.0689,0.32039 -0.06718,0.13608 -0.189479,0.22565 -0.122301,0.0879 -0.29111,0.13092 -0.16881,0.0431 -0.368625,0.0431 -0.177422,0 -0.342786,-0.0207 -0.165364,-0.0207 -0.327283,-0.0689 v -0.41858 q 0.07924,0.0276 0.165364,0.0517 0.08613,0.0241 0.172254,0.0431 0.08785,0.0172 0.173977,0.0276 0.08613,0.0103 0.167087,0.0103 0.120578,0 0.204983,-0.0207 0.08441,-0.0207 0.137803,-0.0568 0.0534,-0.0362 0.07751,-0.0861 0.02412,-0.0499 0.02412,-0.11024 0,-0.0827 -0.04823,-0.1378 -0.04651,-0.0569 -0.124023,-0.0999 -0.07751,-0.0431 -0.177422,-0.0775 -0.09818,-0.0345 -0.201538,-0.0741 -0.10163,-0.0396 -0.201537,-0.0896 -0.09818,-0.05 -0.1757,-0.12402 -0.07751,-0.0741 -0.125746,-0.1757 -0.04651,-0.10335 -0.04651,-0.24805 0,-0.13263 0.04823,-0.25149 0.04823,-0.11885 0.151584,-0.2067 0.103353,-0.0896 0.265272,-0.14125 0.161919,-0.0534 0.391018,-0.0534 0.06718,0 0.139526,0.007 0.07407,0.005 0.144693,0.0155 0.07235,0.009 0.137804,0.0224 0.06718,0.0121 0.1223,0.0258 v 0.38758 q -0.05512,-0.0207 -0.120578,-0.0379 -0.06546,-0.0172 -0.136081,-0.0293 -0.0689,-0.0138 -0.139526,-0.0207 -0.07062,-0.007 -0.134358,-0.007 -0.111965,0 -0.18948,0.019 -0.07751,0.0172 -0.127468,0.0499 -0.04995,0.031 -0.07235,0.0775 -0.02239,0.0465 -0.02239,0.10336 0,0.0706 0.04651,0.1223 0.04823,0.0499 0.125746,0.0913 0.07924,0.0396 0.177422,0.0758 0.09991,0.0344 0.20326,0.0758 0.105075,0.0396 0.20326,0.0913 0.09991,0.0517 0.177422,0.12575 0.07924,0.0741 0.125746,0.1757 0.04823,0.0999 0.04823,0.23771 z"
       id="text5"
       style="font-weight:bold;font-size:3.52777px;line-height:0.9;font-family:Consolas;-inkscape-font-specification:'Consolas Bold';text-align:center;text-anchor:middle;stroke-width:0.264583"
       aria-label="RS" />
    <rect
       style="display:inline;fill:#000000;fill-opacity:1;stroke-width:0.112685"
       id="rect2-2-1-5-9-1"
       width="13.632296"
       height="0.66399997"
       x="0.80385208"
       y="11.149"
       ry="0.27390954" />
    <text
       xml:space="preserve"
       style="font-size:3.52777px;line-height:0.9;font-family:Arial;-inkscape-font-specification:Arial;text-align:center;letter-spacing:0px;text-anchor:middle;fill:#000000;stroke:#000000;stroke-width:0.264583;stroke-opacity:0"
       x="12.481845"
       y="46.75655"
       id="text3"><tspan
         sodipodi:role="line"
         id="tspan1"
         style="stroke-width:0.264583"
         x="12.481845"
         y="46.75655" /></text>
    <path
       d="M 6.6960728,43.090766 V 42.7342 h 0.3100579 v 0.356566 z m 0,2.168683 v -1.829342 h 0.3100579 v 1.829342 z m 0.782035,0 v -1.829342 h 0.2790521 v 0.260104 q 0.2015376,-0.301445 0.5822198,-0.301445 0.1653643,0 0.3031678,0.06029 0.139526,0.05857 0.2084278,0.155029 0.068902,0.09646 0.096462,0.229099 0.017225,0.08613 0.017225,0.301445 v 1.124821 H 8.6546053 v -1.112763 q 0,-0.18948 -0.036173,-0.282498 -0.036173,-0.09474 -0.1291908,-0.149861 -0.091295,-0.05684 -0.215318,-0.05684 -0.1980926,0 -0.3427863,0.125746 -0.1429711,0.125746 -0.1429711,0.477145 v 0.999075 z"
       id="text8-8-4"
       style="font-size:3.52777px;line-height:0.9;font-family:Arial;-inkscape-font-specification:Arial;text-align:center;letter-spacing:0px;text-anchor:middle;stroke:#ff63e9;stroke-width:0.264583;stroke-opacity:0"
       aria-label="in" />
    <path
       d="m 5.2394439,112.4636 q 0,-0.50815 0.2824972,-0.75275 0.2359886,-0.20326 0.5753297,-0.20326 0.3772371,0 0.6166708,0.24805 0.2394336,0.24632 0.2394336,0.68212 0,0.35313 -0.1067978,0.55639 -0.1050751,0.20153 -0.3083353,0.3135 -0.2015377,0.11196 -0.4409713,0.11196 -0.3841273,0 -0.6218384,-0.24632 -0.2359885,-0.24632 -0.2359885,-0.70969 z m 0.3186707,0 q 0,0.3514 0.1533064,0.5271 0.1533064,0.17398 0.3858498,0.17398 0.2308209,0 0.3841273,-0.1757 0.1533064,-0.1757 0.1533064,-0.53571 0,-0.33934 -0.1550289,-0.51332 -0.1533064,-0.1757 -0.3824048,-0.1757 -0.2325434,0 -0.3858498,0.17398 -0.1533064,0.17397 -0.1533064,0.52537 z m 2.957608,0.91467 v -0.26871 q -0.2135955,0.31005 -0.5804974,0.31005 -0.1619191,0 -0.3031677,-0.062 -0.1395261,-0.062 -0.2084278,-0.15503 -0.067179,-0.0947 -0.09474,-0.23082 -0.018948,-0.0913 -0.018948,-0.28938 v -1.13344 h 0.3100579 v 1.01458 q 0,0.24288 0.018948,0.32728 0.029283,0.1223 0.1240232,0.19293 0.09474,0.0689 0.2342659,0.0689 0.1395261,0 0.2618267,-0.0706 0.1223006,-0.0724 0.1722544,-0.19465 0.051676,-0.12403 0.051676,-0.35829 v -0.98013 h 0.3100579 v 1.82934 z m 1.4400467,-0.27733 0.044786,0.27389 q -0.1309129,0.0276 -0.2342655,0.0276 -0.1688093,0 -0.2618267,-0.0534 -0.093017,-0.0534 -0.1309133,-0.13953 -0.037896,-0.0879 -0.037896,-0.3669 v -1.05247 H 9.1082777 v -0.24116 h 0.2273758 v -0.45303 l 0.3083354,-0.18603 v 0.63906 h 0.3117804 v 0.24116 H 9.6439889 v 1.0697 q 0,0.13263 0.015503,0.17053 0.017225,0.0379 0.053399,0.0603 0.037896,0.0224 0.1067978,0.0224 0.051676,0 0.1360809,-0.0121 z"
       id="text8"
       style="font-size:3.52777px;line-height:0.9;font-family:Arial;-inkscape-font-specification:Arial;text-align:center;letter-spacing:0px;text-anchor:middle;stroke:#ff63e9;stroke-width:0.264583;stroke-opacity:0"
       aria-label="out" />
    <path
       d="M 5.7932381,80.117233 H 5.5055733 v -2.525249 h 0.3100579 v 0.90089 q 0.19637,-0.246323 0.5012603,-0.246323 0.1688093,0 0.3186706,0.0689 0.1515839,0.06718 0.2480463,0.191203 0.098185,0.1223 0.1533065,0.296277 0.055121,0.173977 0.055121,0.37207 0,0.470254 -0.2325435,0.726913 -0.2325434,0.256659 -0.5581042,0.256659 -0.3238383,0 -0.5081505,-0.270439 z m -0.00345,-0.928451 q 0,0.329006 0.089572,0.475422 0.1464162,0.239434 0.3961851,0.239434 0.2032602,0 0.351399,-0.1757 0.1481388,-0.177422 0.1481388,-0.527098 0,-0.358289 -0.1429712,-0.528821 -0.1412486,-0.170532 -0.3427862,-0.170532 -0.2032602,0 -0.351399,0.177422 -0.1481388,0.1757 -0.1481388,0.509873 z m 2.8732034,0.702798 q -0.1722544,0.146416 -0.332451,0.206705 -0.1584741,0.06029 -0.3410637,0.06029 -0.3014452,0 -0.4633643,-0.146416 -0.1619192,-0.148139 -0.1619192,-0.377237 0,-0.134358 0.060289,-0.244601 0.062012,-0.111966 0.1601966,-0.179145 0.099908,-0.06718 0.2239307,-0.10163 0.091295,-0.02412 0.275607,-0.04651 0.3755146,-0.04479 0.5529366,-0.106797 0.00172,-0.06373 0.00172,-0.08096 0,-0.18948 -0.08785,-0.266994 -0.1188555,-0.105075 -0.3531215,-0.105075 -0.2187631,0 -0.3238383,0.07751 -0.1033526,0.07579 -0.1533064,0.270439 l -0.3031677,-0.04134 q 0.041341,-0.194647 0.136081,-0.313503 0.09474,-0.120578 0.2738845,-0.184312 0.1791445,-0.06546 0.4151331,-0.06546 0.2342659,0 0.3806822,0.05512 0.1464162,0.05512 0.215318,0.139526 0.068902,0.08268 0.096462,0.21015 0.015503,0.07924 0.015503,0.285943 v 0.41341 q 0,0.432359 0.018948,0.547769 0.02067,0.113688 0.079237,0.218763 H 8.725008 q -0.048231,-0.09646 -0.062012,-0.225653 z m -0.025838,-0.692463 q -0.1688093,0.0689 -0.5064279,0.117133 -0.1912024,0.02756 -0.2704394,0.06201 -0.079237,0.03445 -0.1223006,0.10163 -0.043064,0.06546 -0.043064,0.146416 0,0.124023 0.093017,0.206706 0.09474,0.08268 0.2756071,0.08268 0.1791446,0 0.3186706,-0.07751 0.1395261,-0.07924 0.2049827,-0.215318 0.049954,-0.105075 0.049954,-0.310058 z m 0.7872026,0.918116 v -2.525249 h 0.3100579 v 2.525249 z"
       id="text8-8-4-2"
       style="font-size:3.52777px;line-height:0.9;font-family:Arial;-inkscape-font-specification:Arial;text-align:center;letter-spacing:0px;text-anchor:middle;stroke:#ff63e9;stroke-width:0.264583;stroke-opacity:0"
       aria-label="bal" />
    <rect
       style="display:inline;fill:#7add55;fill-opacity:1;stroke:#000000;stroke-width:0.246817;stroke-opacity:1"
       id="rect6-7"
       width="10.132627"
       height="27.869173"
       x="2.561656"
       y="13.193521"
       ry="0.95020783" />
    <rect
       style="display:inline;fill:#7add55;fill-opacity:1;stroke:#000000;stroke-width:0.246817;stroke-opacity:1"
       id="rect6-7-6"
       width="10.132627"
       height="27.869173"
       x="2.5536866"
       y="48.192654"
       ry="0.95020783" />
  </g>
  <g
     inkscape:groupmode="layer"
     id="layer2"
     inkscape:label="components"
     style="display:none">
    <circle
       style="display:inline;fill:#ff00ff;fill-opacity:1;stroke-width:0.24249"
       id="path2-2"
       cx="3.9373331"
       cy="23.44544"
       r="0.31200001"
       inkscape:label="in2" />
    <circle
       style="display:inline;fill:#ff00ff;fill-opacity:1;stroke-width:0.24249"
       id="path2-2-9"
       cx="3.9373331"
       cy="14.331811"
       r="0.31200001"
       inkscape:label="in1" />
    <circle
       style="display:inline;fill:#ff00ff;fill-opacity:1;stroke-width:0.24249"
       id="path2"
       cx="3.9453025"
       cy="32.559071"
       r="0.31200001"
       inkscape:label="in3" />
    <circle
       style="fill:#00ff00;fill-opacity:1;stroke-width:0.256914"
       id="path2-6"
       cx="7.6199999"
       cy="27.128107"
       r="3.1535001"
       inkscape:label="in2" />
    <circle
       style="display:inline;fill:#00ff00;fill-opacity:1;stroke-width:0.256914"
       id="path2-6-0"
       cx="7.6279693"
       cy="36.241737"
       r="3.1535001"
       inkscape:label="in3" />
    <circle
       style="display:inline;fill:#00ff00;fill-opacity:1;stroke-width:0.256914"
       id="path2-6-9"
       cx="7.6199999"
       cy="18.014477"
       r="3.1535001"
       inkscape:label="in1" />
    <circle
       style="display:inline;fill:#ff0000;fill-opacity:1;stroke-width:0.256914"
       id="path2-6-0-0-5-3-1"
       cx="7.6120305"
       cy="62.127239"
       r="3.1535001"
       inkscape:label="bal2" />
    <circle
       style="display:inline;fill:#ff0000;fill-opacity:1;stroke-width:0.256914"
       id="path2-6-0-0-5-3-1-6"
       cx="7.6120305"
       cy="53.013611"
       r="3.1535001"
       inkscape:label="bal1" />
    <circle
       style="display:inline;fill:#ff0000;fill-opacity:1;stroke-width:0.256914"
       id="path2-6-0-0-5-3-1-0"
       cx="7.6200013"
       cy="71.240868"
       r="3.1535001"
       inkscape:label="bal3" />
    <circle
       style="fill:#0000ff;fill-opacity:1;stroke-width:0.256914"
       id="path2-6-1"
       cx="7.6199999"
       cy="106.08863"
       r="3.1535001"
       inkscape:label="o3" />
    <circle
       style="display:inline;fill:#0000ff;fill-opacity:1;stroke-width:0.256914"
       id="path2-6-1-6"
       cx="7.6199999"
       cy="96.99427"
       r="3.1535001"
       inkscape:label="o2" />
    <circle
       style="display:inline;fill:#0000ff;fill-opacity:1;stroke-width:0.256914"
       id="path2-6-1-6-4"
       cx="7.6199999"
       cy="87.880638"
       r="3.1535001"
       inkscape:label="o1" />
  </g>
</svg>
