<?xml version="1.0" encoding="UTF-8" standalone="no"?>
<!-- Created with Inkscape (http://www.inkscape.org/) -->

<svg
   width="15.24mm"
   height="128.5mm"
   viewBox="0 0 15.24 128.5"
   version="1.1"
   id="svg1"
   inkscape:version="1.3 (0e150ed6c4, 2023-07-21)"
   sodipodi:docname="FlipFlop.svg"
   xmlns:inkscape="http://www.inkscape.org/namespaces/inkscape"
   xmlns:sodipodi="http://sodipodi.sourceforge.net/DTD/sodipodi-0.dtd"
   xmlns="http://www.w3.org/2000/svg"
   xmlns:svg="http://www.w3.org/2000/svg">
  <sodipodi:namedview
     id="namedview1"
     pagecolor="#505050"
     bordercolor="#ffffff"
     borderopacity="1"
     inkscape:showpageshadow="0"
     inkscape:pageopacity="0"
     inkscape:pagecheckerboard="1"
     inkscape:deskcolor="#505050"
     inkscape:document-units="mm"
     showgrid="false"
     inkscape:zoom="3.9156336"
     inkscape:cx="35.498725"
     inkscape:cy="151.31651"
     inkscape:window-width="1920"
     inkscape:window-height="991"
     inkscape:window-x="-9"
     inkscape:window-y="-9"
     inkscape:window-maximized="1"
     inkscape:current-layer="layer2">
    <inkscape:grid
       id="grid1"
       units="mm"
       originx="0"
       originy="0"
       spacingx="1"
       spacingy="1"
       empcolor="#0099e5"
       empopacity="0.30196078"
       color="#0099e5"
       opacity="0.14901961"
       empspacing="5"
       dotted="false"
       gridanglex="30"
       gridanglez="30"
       visible="false" />
  </sodipodi:namedview>
  <defs
     id="defs1">
    <rect
       x="16.88126"
       y="442.32944"
       width="32.284557"
       height="22.984785"
       id="rect5" />
    <rect
       x="16.88126"
       y="442.32944"
       width="60.439163"
       height="14.624552"
       id="rect5-6" />
    <rect
       x="16.88126"
       y="442.32944"
       width="60.439163"
       height="14.624552"
       id="rect5-6-3" />
  </defs>
  <g
     inkscape:label="Layer 1"
     inkscape:groupmode="layer"
     id="layer1">
    <rect
       style="fill:#7add55;fill-opacity:1;stroke-width:0.264585"
       id="rect1"
       width="15.235825"
       height="128.5"
       x="0.0041754646"
       y="-6.9467002e-15"
       ry="0"
       rx="0" />
    <rect
       style="fill:#ff63e9;fill-opacity:1;stroke-width:0.302914"
       id="rect4"
       width="10.776912"
       height="13.189312"
       x="2.2875245"
       y="92.613106"
       ry="1.4404136" />
    <path
       style="font-size:3.52777px;line-height:0.9;font-family:Arial;-inkscape-font-specification:Arial;text-align:center;text-anchor:middle;stroke-width:0.264583"
       d="m 6.4915859,46.386172 v -0.356567 h 0.310058 v 0.356567 z m 0,2.168683 v -1.829342 h 0.310058 v 1.829342 z m 0.782035,0 V 46.725513 H 7.552673 v 0.260104 q 0.2015377,-0.301445 0.5822199,-0.301445 0.1653642,0 0.3031677,0.06029 0.1395261,0.05857 0.2084279,0.155029 0.068902,0.09646 0.096462,0.229098 0.017226,0.08613 0.017226,0.301446 v 1.124821 h -0.310058 v -1.112764 q 0,-0.189479 -0.036173,-0.282497 -0.036173,-0.09474 -0.1291908,-0.149861 -0.091295,-0.05684 -0.215318,-0.05684 -0.1980925,0 -0.3427862,0.125746 -0.1429712,0.125745 -0.1429712,0.477144 v 0.999076 z"
       id="text4-3-1"
       aria-label="in" />
    <path
       style="font-size:3.52777px;line-height:0.9;font-family:Arial;-inkscape-font-specification:Arial;text-align:center;text-anchor:middle;stroke-width:0.264583"
       d="m 5.1834613,103.55011 q 0,-0.50815 0.2824972,-0.75275 0.2359886,-0.20326 0.5753297,-0.20326 0.3772372,0 0.6166708,0.24804 0.2394336,0.24633 0.2394336,0.68213 0,0.35312 -0.1067978,0.55638 -0.1050751,0.20154 -0.3083353,0.31351 -0.2015377,0.11196 -0.4409713,0.11196 -0.3841273,0 -0.6218383,-0.24632 -0.2359886,-0.24633 -0.2359886,-0.70969 z m 0.3186707,0 q 0,0.3514 0.1533064,0.5271 0.1533064,0.17397 0.3858498,0.17397 0.2308209,0 0.3841273,-0.1757 0.1533064,-0.17569 0.1533064,-0.53571 0,-0.33934 -0.1550289,-0.51331 -0.1533064,-0.1757 -0.3824048,-0.1757 -0.2325434,0 -0.3858498,0.17397 -0.1533064,0.17398 -0.1533064,0.52538 z m 2.957608,0.91467 v -0.26872 q -0.2135955,0.31006 -0.5804973,0.31006 -0.1619192,0 -0.3031678,-0.062 -0.139526,-0.062 -0.2084278,-0.15503 -0.067179,-0.0947 -0.09474,-0.23082 -0.018948,-0.0913 -0.018948,-0.28939 v -1.13343 H 7.564017 v 1.01458 q 0,0.24288 0.018948,0.32728 0.029283,0.1223 0.1240232,0.19292 0.09474,0.0689 0.2342659,0.0689 0.1395261,0 0.2618267,-0.0706 0.1223006,-0.0723 0.1722544,-0.19465 0.051676,-0.12402 0.051676,-0.35828 v -0.98013 h 0.310058 v 1.82934 z m 1.4400468,-0.27733 0.044786,0.27388 q -0.1309133,0.0276 -0.234266,0.0276 -0.1688093,0 -0.2618267,-0.0534 -0.093017,-0.0534 -0.1309133,-0.13953 -0.037896,-0.0879 -0.037896,-0.3669 v -1.05248 H 9.0522951 v -0.24115 h 0.2273758 v -0.45303 l 0.3083354,-0.18604 v 0.63907 h 0.3117805 v 0.24115 H 9.5880063 v 1.0697 q 0,0.13264 0.015503,0.17054 0.017225,0.0379 0.053399,0.0603 0.037896,0.0224 0.1067977,0.0224 0.051676,0 0.136081,-0.0121 z"
       id="text4-3-1-5-5-5"
       aria-label="out" />
    <rect
       style="display:inline;fill:#000000;fill-opacity:1;stroke-width:0.112685"
       id="rect2-2-1-5"
       width="13.632296"
       height="0.66399997"
       x="0.80385202"
       y="109.8532"
       ry="0.27390954" />
    <rect
       style="display:inline;fill:#000000;fill-opacity:1;stroke-width:0.112685"
       id="rect2-2-1-5-9"
       width="13.632296"
       height="0.66399997"
       x="0.80385208"
       y="87.898323"
       ry="0.27390954" />
    <path
       d="m 7.0179704,122.70896 -0.316948,-0.72347 q -0.04479,-0.10335 -0.125745,-0.15503 -0.07924,-0.0534 -0.187758,-0.0534 h -0.08096 v 0.93189 h -0.423746 v -2.25136 h 0.656289 q 0.186035,0 0.337619,0.0327 0.151584,0.031 0.258381,0.10508 0.106798,0.0741 0.163642,0.19292 0.05857,0.11886 0.05857,0.29111 0,0.12403 -0.03617,0.22049 -0.03617,0.0965 -0.10163,0.16709 -0.06546,0.0689 -0.156752,0.11196 -0.08957,0.0431 -0.19637,0.0603 0.08268,0.0172 0.151584,0.0947 0.0689,0.0758 0.137804,0.22049 l 0.360011,0.75447 z m -0.105075,-1.58818 q 0,-0.16537 -0.105075,-0.23772 -0.105075,-0.0723 -0.315226,-0.0723 h -0.186034 v 0.63562 h 0.172254 q 0.09818,0 0.177422,-0.0207 0.08096,-0.0207 0.137804,-0.062 0.05684,-0.0413 0.08785,-0.10163 0.03101,-0.062 0.03101,-0.14124 z m 2.44429,0.90778 q 0,0.18431 -0.0689,0.32039 -0.06718,0.13608 -0.189479,0.22565 -0.122301,0.0879 -0.29111,0.13092 -0.16881,0.0431 -0.368625,0.0431 -0.177422,0 -0.342786,-0.0207 -0.165364,-0.0207 -0.327283,-0.0689 v -0.41858 q 0.07924,0.0276 0.165364,0.0517 0.08613,0.0241 0.172254,0.0431 0.08785,0.0172 0.173977,0.0276 0.08613,0.0103 0.167087,0.0103 0.120578,0 0.204983,-0.0207 0.08441,-0.0207 0.137803,-0.0568 0.0534,-0.0362 0.07751,-0.0861 0.02412,-0.0499 0.02412,-0.11024 0,-0.0827 -0.04823,-0.1378 -0.04651,-0.0569 -0.124023,-0.0999 -0.07751,-0.0431 -0.177422,-0.0775 -0.09818,-0.0345 -0.201538,-0.0741 -0.10163,-0.0396 -0.201537,-0.0896 -0.09818,-0.05 -0.1757,-0.12402 -0.07751,-0.0741 -0.125746,-0.1757 -0.04651,-0.10335 -0.04651,-0.24805 0,-0.13263 0.04823,-0.25149 0.04823,-0.11885 0.151584,-0.2067 0.103353,-0.0896 0.265272,-0.14125 0.161919,-0.0534 0.391018,-0.0534 0.06718,0 0.139526,0.007 0.07407,0.005 0.144693,0.0155 0.07235,0.009 0.137804,0.0224 0.06718,0.0121 0.1223,0.0258 v 0.38758 q -0.05512,-0.0207 -0.120578,-0.0379 -0.06546,-0.0172 -0.136081,-0.0293 -0.0689,-0.0138 -0.139526,-0.0207 -0.07062,-0.007 -0.134358,-0.007 -0.111965,0 -0.18948,0.019 -0.07751,0.0172 -0.127468,0.0499 -0.04995,0.031 -0.07235,0.0775 -0.02239,0.0465 -0.02239,0.10336 0,0.0706 0.04651,0.1223 0.04823,0.0499 0.125746,0.0913 0.07924,0.0396 0.177422,0.0758 0.09991,0.0344 0.20326,0.0758 0.105075,0.0396 0.20326,0.0913 0.09991,0.0517 0.177422,0.12575 0.07924,0.0741 0.125746,0.1757 0.04823,0.0999 0.04823,0.23771 z"
       id="text5"
       style="font-weight:bold;font-size:3.52777px;line-height:0.9;font-family:Consolas;-inkscape-font-specification:'Consolas Bold';text-align:center;text-anchor:middle;stroke-width:0.264583"
       aria-label="RS" />
    <path
       d="m 2.4780514,7.3261483 v 0.9976989 h 1.3615008 v 0.556727 H 2.4780514 V 10.355074 H 1.7890329 V 6.7528848 H 3.9167222 V 7.3261483 Z M 4.9282015,10.355074 V 6.7528848 h 0.6890186 v 3.0206575 h 1.521353 V 10.355074 Z M 7.9020057,7.3068557 V 6.7528848 H 10.178523 V 7.3068557 H 9.3847737 V 9.7955908 H 10.178523 V 10.355074 H 7.9020057 V 9.7955908 H 8.6957551 V 7.3068557 Z m 5.5617573,0.592556 q 0,0.2811196 -0.09371,0.5208981 -0.09371,0.2370224 -0.278364,0.410655 -0.184657,0.1736327 -0.460264,0.2700953 -0.275608,0.096463 -0.63941,0.096463 H 11.64751 V 10.355074 H 10.964004 V 6.7528848 h 1.055576 q 0.350022,0 0.617361,0.07717 0.270095,0.074414 0.451996,0.2204859 0.184657,0.146072 0.278364,0.3610458 0.09646,0.2122177 0.09646,0.4878251 z m -0.711067,0.046853 q 0,-0.1433159 -0.04685,-0.259071 -0.0441,-0.1185112 -0.137804,-0.2011934 -0.09095,-0.082682 -0.23151,-0.1267794 -0.14056,-0.044097 -0.333485,-0.044097 H 11.64751 v 1.3201596 h 0.377582 q 0.176389,0 0.311437,-0.046853 0.135047,-0.049609 0.225998,-0.1405598 0.09371,-0.09095 0.14056,-0.2177299 0.04961,-0.1267794 0.04961,-0.2838756 z"
       id="text2"
       style="font-weight:bold;font-size:5.64444px;line-height:0.9;font-family:Consolas;-inkscape-font-specification:'Consolas Bold';text-align:center;letter-spacing:0px;text-anchor:middle;stroke-width:0.264583"
       aria-label="FLIP" />
    <path
       d="m 2.4716532,113.53322 v 0.9977 H 3.833154 v 0.55673 H 2.4716532 v 1.4745 H 1.7826347 v -3.60219 H 3.910324 v 0.57326 z m 2.4501501,3.02893 v -3.60219 h 0.6890186 v 3.02066 h 1.521353 v 0.58153 z m 5.5617577,-1.81625 q 0,0.49058 -0.115755,0.84611 -0.112999,0.35553 -0.314192,0.58429 -0.1984377,0.22875 -0.468533,0.339 -0.2673392,0.11024 -0.5732634,0.11024 -0.7110672,0 -1.0693568,-0.47129 -0.3582897,-0.47404 -0.3582897,-1.37528 0,-0.49058 0.112999,-0.84612 0.1157552,-0.35553 0.3141925,-0.58428 0.2011934,-0.22876 0.4685326,-0.339 0.2700953,-0.11024 0.5760196,-0.11024 0.7110671,0 1.0693572,0.47129 0.358289,0.47128 0.358289,1.37528 z m -0.7165791,0.0331 q 0,-0.63941 -0.1708766,-0.9536 -0.1708766,-0.3142 -0.5622391,-0.3142 -0.1956813,0 -0.333485,0.0827 -0.1378037,0.0799 -0.2287542,0.23702 -0.088194,0.1571 -0.1295355,0.38861 -0.041341,0.22875 -0.041341,0.52641 0,0.63941 0.1708766,0.9536 0.1736327,0.31419 0.5622392,0.31419 0.1956813,0 0.333485,-0.0799 0.1405598,-0.0827 0.2287541,-0.23977 0.088194,-0.1571 0.1295355,-0.38585 0.041341,-0.23152 0.041341,-0.52917 z m 3.6903831,-0.67248 q 0,0.28112 -0.09371,0.52089 -0.09371,0.23703 -0.278363,0.41066 -0.184657,0.17363 -0.460264,0.2701 -0.275608,0.0965 -0.63941,0.0965 h -0.344509 v 1.15755 h -0.683506 v -3.60219 h 1.055576 q 0.350021,0 0.617361,0.0772 0.270095,0.0744 0.451996,0.22049 0.184657,0.14607 0.278363,0.36104 0.09646,0.21222 0.09646,0.48783 z m -0.711067,0.0469 q 0,-0.14332 -0.04685,-0.25907 -0.0441,-0.11851 -0.137804,-0.20119 -0.09095,-0.0827 -0.23151,-0.12678 -0.14056,-0.0441 -0.333485,-0.0441 h -0.355534 v 1.32016 h 0.377582 q 0.176389,0 0.311437,-0.0469 0.135047,-0.0496 0.225998,-0.14056 0.09371,-0.091 0.140559,-0.21773 0.04961,-0.12678 0.04961,-0.28388 z"
       id="text2-9"
       style="font-weight:bold;font-size:5.64444px;line-height:0.9;font-family:Consolas;-inkscape-font-specification:'Consolas Bold';text-align:center;letter-spacing:0px;text-anchor:middle;stroke-width:0.264583"
       aria-label="FLOP" />
    <path
       style="font-size:3.52777px;line-height:0.9;font-family:Arial;-inkscape-font-specification:Arial;text-align:center;letter-spacing:0px;text-anchor:middle;stroke-width:0.264583"
       d="m 2.6849112,85.518294 0.044786,0.273885 q -0.1309134,0.02756 -0.234266,0.02756 -0.1688093,0 -0.2618267,-0.0534 -0.093017,-0.0534 -0.1309133,-0.139527 -0.037896,-0.08785 -0.037896,-0.366901 V 84.207438 H 1.8374196 v -0.241156 h 0.2273758 v -0.453029 l 0.3083354,-0.186035 v 0.639064 h 0.3117804 v 0.241156 H 2.3731308 v 1.0697 q 0,0.132636 0.015503,0.170532 0.017225,0.0379 0.053399,0.06029 0.037896,0.02239 0.1067978,0.02239 0.051676,0 0.1360809,-0.01206 z m 0.2997227,0.27733 V 83.966282 H 3.263686 v 0.27733 q 0.1067977,-0.194648 0.19637,-0.256659 0.091295,-0.06201 0.1998151,-0.06201 0.1567515,0 0.3186707,0.09991 L 3.871744,84.312513 q -0.1136879,-0.06718 -0.2273758,-0.06718 -0.1016301,0 -0.1825896,0.06201 -0.08096,0.06029 -0.1154105,0.168809 -0.051676,0.165364 -0.051676,0.361734 v 0.957735 z m 1.1799426,-2.168683 v -0.356567 h 0.3100579 v 0.356567 z m 0,2.168683 v -1.829342 h 0.3100579 v 1.829342 z m 0.7251912,0.151584 0.3014451,0.04479 q 0.018948,0.139526 0.1050752,0.20326 0.1154105,0.08613 0.3152256,0.08613 0.215318,0 0.332451,-0.08613 0.117133,-0.08613 0.158474,-0.241156 0.024116,-0.09474 0.022393,-0.397908 -0.2032602,0.239434 -0.5064279,0.239434 -0.3772372,0 -0.5839425,-0.272162 -0.2067052,-0.272162 -0.2067052,-0.652844 0,-0.261827 0.09474,-0.482313 0.09474,-0.222208 0.2738845,-0.342786 0.1808671,-0.120578 0.4237458,-0.120578 0.3238383,0 0.5339886,0.261827 v -0.220486 h 0.2859423 v 1.581295 q 0,0.427191 -0.08785,0.604613 -0.086127,0.179145 -0.2756071,0.282498 -0.1877572,0.103352 -0.4633643,0.103352 -0.3272833,0 -0.528821,-0.148139 -0.2015376,-0.146416 -0.1946474,-0.442693 z m 0.256659,-1.098983 q 0,0.360011 0.1429712,0.525376 0.1429711,0.165364 0.3582891,0.165364 0.2135955,0 0.3582891,-0.163642 0.1446937,-0.165364 0.1446937,-0.516763 0,-0.335896 -0.1498613,-0.506428 Q 5.8526697,84.1816 5.6425194,84.1816 q -0.2067053,0 -0.351399,0.168809 -0.1446937,0.167087 -0.1446937,0.497816 z m 1.7053184,1.098983 0.3014452,0.04479 q 0.018948,0.139526 0.1050752,0.20326 0.1154105,0.08613 0.3152256,0.08613 0.215318,0 0.3324509,-0.08613 0.117133,-0.08613 0.1584741,-0.241156 0.024116,-0.09474 0.022393,-0.397908 -0.2032602,0.239434 -0.506428,0.239434 -0.3772371,0 -0.5839424,-0.272162 -0.2067052,-0.272162 -0.2067052,-0.652844 0,-0.261827 0.09474,-0.482313 0.09474,-0.222208 0.2738845,-0.342786 0.1808671,-0.120578 0.4237458,-0.120578 0.3238382,0 0.5339886,0.261827 v -0.220486 h 0.2859423 v 1.581295 q 0,0.427191 -0.08785,0.604613 -0.086127,0.179145 -0.2756071,0.282498 -0.1877573,0.103352 -0.4633643,0.103352 -0.3272834,0 -0.528821,-0.148139 Q 6.844855,86.243485 6.8517451,85.947208 Z m 0.2566591,-1.098983 q 0,0.360011 0.1429711,0.525376 0.1429712,0.165364 0.3582892,0.165364 0.2135954,0 0.3582891,-0.163642 0.1446937,-0.165364 0.1446937,-0.516763 0,-0.335896 -0.1498613,-0.506428 Q 7.8146472,84.1816 7.6044968,84.1816 q -0.2067052,0 -0.3513989,0.168809 -0.1446937,0.167087 -0.1446937,0.497816 z m 3.0144518,0.358289 0.320393,0.03962 q -0.07579,0.280775 -0.280774,0.435804 -0.2049832,0.155029 -0.5236538,0.155029 -0.4013528,0 -0.6373413,-0.246324 -0.234266,-0.248046 -0.234266,-0.694185 0,-0.461642 0.2377111,-0.716578 0.2377111,-0.254937 0.6166707,-0.254937 0.3669019,0 0.5994453,0.249769 0.232543,0.249769 0.232543,0.702798 0,0.02756 -0.0017,0.08268 H 9.0876071 q 0.017225,0.301445 0.1705319,0.461642 0.1533064,0.160196 0.3824047,0.160196 0.1705319,0 0.29111,-0.08957 0.1205783,-0.08957 0.1912023,-0.285942 z M 9.1048325,84.705253 h 1.0214685 q -0.02067,-0.23082 -0.117133,-0.346231 -0.1481387,-0.179144 -0.3841272,-0.179144 -0.2135954,0 -0.3600117,0.142971 -0.1446937,0.142971 -0.1601966,0.382404 z m 1.7242665,1.090371 v -1.829342 h 0.279052 v 0.27733 q 0.106798,-0.194648 0.19637,-0.256659 0.0913,-0.06201 0.199815,-0.06201 0.156752,0 0.318671,0.09991 l -0.106798,0.287664 q -0.113688,-0.06718 -0.227376,-0.06718 -0.10163,0 -0.182589,0.06201 -0.08096,0.06029 -0.115411,0.168809 -0.05168,0.165364 -0.05168,0.361734 v 0.957735 z m 1.054197,-0.546047 0.306613,-0.04823 q 0.02584,0.184312 0.142971,0.282497 0.118856,0.09819 0.330728,0.09819 0.213596,0 0.316949,-0.08613 0.103352,-0.08785 0.103352,-0.204983 0,-0.105075 -0.0913,-0.165364 -0.06373,-0.04134 -0.316948,-0.105075 -0.341063,-0.08613 -0.473699,-0.148139 -0.130914,-0.06373 -0.199815,-0.173977 -0.06718,-0.111965 -0.06718,-0.246324 0,-0.1223 0.05512,-0.225653 0.05684,-0.105075 0.153306,-0.173977 0.07235,-0.0534 0.19637,-0.08957 0.125746,-0.0379 0.268717,-0.0379 0.215318,0 0.377237,0.06201 0.163642,0.06201 0.241156,0.168809 0.07752,0.105075 0.106798,0.282497 L 13.03051,84.4796 q -0.02067,-0.141248 -0.120578,-0.220485 -0.09818,-0.07924 -0.279052,-0.07924 -0.213595,0 -0.30489,0.07062 -0.09129,0.07062 -0.09129,0.165364 0,0.06029 0.0379,0.10852 0.0379,0.04995 0.118855,0.08268 0.04651,0.01723 0.273885,0.07924 0.329006,0.08785 0.458197,0.144694 0.130913,0.05512 0.204982,0.161919 0.07407,0.106798 0.07407,0.265272 0,0.155029 -0.0913,0.292833 -0.08957,0.136081 -0.260104,0.211872 -0.170532,0.07407 -0.38585,0.07407 -0.356567,0 -0.544324,-0.148139 -0.186035,-0.148139 -0.237711,-0.439249 z"
       id="text3"
       aria-label="triggers" />
    <rect
       style="display:inline;fill:#ff63e9;fill-opacity:1;stroke-width:0.302914"
       id="rect4-9"
       width="10.776912"
       height="13.189312"
       x="2.2875242"
       y="17.450294"
       ry="1.4404136" />
    <rect
       style="display:inline;fill:#000000;fill-opacity:1;stroke-width:0.112685"
       id="rect2-2-1-5-5"
       width="13.632296"
       height="0.66399997"
       x="0.80385184"
       y="34.690399"
       ry="0.27390954" />
    <rect
       style="display:inline;fill:#000000;fill-opacity:1;stroke-width:0.112685"
       id="rect2-2-1-5-9-1"
       width="13.632296"
       height="0.66399997"
       x="0.80385208"
       y="12.735515"
       ry="0.27390954" />
    <path
       style="display:inline;font-size:3.52777px;line-height:0.9;font-family:Arial;-inkscape-font-specification:Arial;text-align:center;text-anchor:middle;stroke-width:0.264583"
       d="m 5.1834612,28.387299 q 0,-0.50815 0.2824972,-0.75275 0.2359886,-0.20326 0.5753297,-0.20326 0.3772372,0 0.6166708,0.24804 0.2394336,0.24633 0.2394336,0.68213 0,0.35312 -0.1067978,0.55638 -0.1050751,0.20154 -0.3083353,0.31351 -0.2015377,0.11196 -0.4409713,0.11196 -0.3841273,0 -0.6218383,-0.24632 -0.2359886,-0.24633 -0.2359886,-0.70969 z m 0.3186707,0 q 0,0.3514 0.1533064,0.5271 0.1533064,0.17397 0.3858498,0.17397 0.2308209,0 0.3841273,-0.1757 0.1533064,-0.17569 0.1533064,-0.53571 0,-0.33934 -0.1550289,-0.51331 -0.1533064,-0.1757 -0.3824048,-0.1757 -0.2325434,0 -0.3858498,0.17397 -0.1533064,0.17398 -0.1533064,0.52538 z m 2.957608,0.91467 v -0.26872 q -0.213595,0.31006 -0.580497,0.31006 -0.161919,0 -0.3031681,-0.062 -0.139526,-0.062 -0.2084278,-0.15503 -0.067179,-0.0947 -0.09474,-0.23082 -0.018948,-0.0913 -0.018948,-0.28939 v -1.13343 h 0.3100579 v 1.01458 q 0,0.24288 0.018948,0.32728 0.029283,0.1223 0.124023,0.19292 0.09474,0.0689 0.234266,0.0689 0.139526,0 0.261827,-0.0706 0.1223,-0.0723 0.172254,-0.19465 0.05168,-0.12402 0.05168,-0.35828 v -0.98013 h 0.310058 v 1.82934 z m 1.440047,-0.27733 0.04479,0.27388 q -0.130913,0.0276 -0.234266,0.0276 -0.168809,0 -0.261827,-0.0534 -0.09302,-0.0534 -0.130913,-0.13953 -0.0379,-0.0879 -0.0379,-0.3669 v -1.05248 h -0.227376 v -0.24115 h 0.227376 v -0.45303 l 0.308335,-0.18604 v 0.63907 h 0.311781 v 0.24115 h -0.311781 v 1.0697 q 0,0.13264 0.0155,0.17054 0.01722,0.0379 0.0534,0.0603 0.0379,0.0224 0.106798,0.0224 0.05168,0 0.136081,-0.0121 z"
       id="text4-3-1-5-5-5-7"
       aria-label="out" />
    <rect
       style="fill:#7add55;fill-opacity:1;stroke-width:0.264583;stroke:#000000;stroke-opacity:1"
       id="rect6"
       width="10.068081"
       height="32.231373"
       x="2.5859594"
       y="50.070122"
       ry="1.0989382" />
  </g>
  <g
     inkscape:groupmode="layer"
     id="layer2"
     inkscape:label="components"
     style="display:none">
    <circle
       style="fill:#00ff00;fill-opacity:1;stroke-width:0.256914"
       id="path2-6"
       cx="7.6263981"
       cy="40.749691"
       r="3.1535001"
       inkscape:label="signal" />
    <circle
       style="display:inline;fill:#00ff00;fill-opacity:1;stroke-width:0.256914"
       id="path2-6-0"
       cx="7.6199999"
       cy="54.086285"
       r="3.1535001"
       inkscape:label="trig1" />
    <circle
       style="display:inline;fill:#00ff00;fill-opacity:1;stroke-width:0.256914"
       id="path2-6-0-0"
       cx="7.6220875"
       cy="62.133331"
       r="3.1535001"
       inkscape:label="trig2" />
    <circle
       style="display:inline;fill:#00ff00;fill-opacity:1;stroke-width:0.256914"
       id="path2-6-0-0-5"
       cx="7.6199999"
       cy="70.180374"
       r="3.1535001"
       inkscape:label="trig3" />
    <circle
       style="display:inline;fill:#00ff00;fill-opacity:1;stroke-width:0.256914"
       id="path2-6-0-0-5-3"
       cx="7.6199999"
       cy="78.227417"
       r="3.1535001"
       inkscape:label="trig4" />
    <circle
       style="fill:#0000ff;fill-opacity:1;stroke-width:0.256914"
       id="path2-6-1"
       cx="7.6199999"
       cy="97.142906"
       r="3.1535001"
       inkscape:label="flopout" />
    <circle
       style="display:inline;fill:#0000ff;fill-opacity:1;stroke-width:0.256914"
       id="path2-6-1-8"
       cx="7.6199999"
       cy="21.980095"
       r="3.1535001"
       inkscape:label="flipout" />
    <circle
       style="fill:#ff00ff;fill-opacity:1;stroke-width:0.24249"
       id="path2"
       cx="7.6199999"
       cy="32.665001"
       r="0.31200001"
       inkscape:label="flip" />
    <circle
       style="display:inline;fill:#ff00ff;fill-opacity:1;stroke-width:0.24249"
       id="path2-0"
       cx="7.6199999"
       cy="107.82781"
       r="0.31200001"
       inkscape:label="flop" />
  </g>
</svg>
