<?xml version="1.0" encoding="UTF-8" standalone="no"?>
<!-- Created with Inkscape (http://www.inkscape.org/) -->

<svg
   width="15.24mm"
   height="128.5mm"
   viewBox="0 0 15.24 128.5"
   version="1.1"
   id="svg1"
   inkscape:version="1.3 (0e150ed6c4, 2023-07-21)"
   sodipodi:docname="FlopFlip.svg"
   xmlns:inkscape="http://www.inkscape.org/namespaces/inkscape"
   xmlns:sodipodi="http://sodipodi.sourceforge.net/DTD/sodipodi-0.dtd"
   xmlns="http://www.w3.org/2000/svg"
   xmlns:svg="http://www.w3.org/2000/svg">
  <sodipodi:namedview
     id="namedview1"
     pagecolor="#505050"
     bordercolor="#ffffff"
     borderopacity="1"
     inkscape:showpageshadow="0"
     inkscape:pageopacity="0"
     inkscape:pagecheckerboard="1"
     inkscape:deskcolor="#505050"
     inkscape:document-units="mm"
     showgrid="false"
     inkscape:zoom="2.8450273"
     inkscape:cx="-7.3813"
     inkscape:cy="321.78953"
     inkscape:window-width="1920"
     inkscape:window-height="991"
     inkscape:window-x="-9"
     inkscape:window-y="-9"
     inkscape:window-maximized="1"
     inkscape:current-layer="layer2">
    <inkscape:grid
       id="grid1"
       units="mm"
       originx="0"
       originy="0"
       spacingx="1"
       spacingy="1"
       empcolor="#0099e5"
       empopacity="0.30196078"
       color="#0099e5"
       opacity="0.14901961"
       empspacing="5"
       dotted="false"
       gridanglex="30"
       gridanglez="30"
       visible="false" />
  </sodipodi:namedview>
  <defs
     id="defs1">
    <rect
       x="16.88126"
       y="442.32944"
       width="32.284557"
       height="22.984785"
       id="rect5" />
    <rect
       x="16.88126"
       y="442.32944"
       width="60.439163"
       height="14.624552"
       id="rect5-6" />
    <rect
       x="16.88126"
       y="442.32944"
       width="60.439163"
       height="14.624552"
       id="rect5-6-3" />
  </defs>
  <g
     inkscape:label="Layer 1"
     inkscape:groupmode="layer"
     id="layer1">
    <rect
       style="fill:#7add55;fill-opacity:1;stroke-width:0.264585"
       id="rect1"
       width="15.235825"
       height="128.5"
       x="0.0041754646"
       y="-6.9467002e-15"
       ry="0"
       rx="0" />
    <path
       style="font-size:3.52777px;line-height:0.9;font-family:Arial;-inkscape-font-specification:Arial;text-align:center;text-anchor:middle;stroke-width:0.264583"
       d="m 6.4857029,68.167945 v -0.356567 h 0.310058 v 0.356567 z m 0,2.168683 v -1.829342 h 0.310058 v 1.829342 z m 0.782035,0 v -1.829342 h 0.279052 v 0.260104 q 0.201538,-0.301445 0.582221,-0.301445 0.165364,0 0.303168,0.06029 0.139526,0.05857 0.208428,0.155029 0.0689,0.09646 0.09646,0.229098 0.01723,0.08613 0.01723,0.301446 v 1.124821 h -0.310058 v -1.112764 q 0,-0.189479 -0.03617,-0.282497 -0.03617,-0.09474 -0.129192,-0.149861 -0.0913,-0.05684 -0.215318,-0.05684 -0.198092,0 -0.342786,0.125746 -0.142971,0.125745 -0.142971,0.477144 v 0.999076 z"
       id="text4-3-1-9"
       aria-label="in" />
    <rect
       style="display:inline;fill:#000000;fill-opacity:1;stroke-width:0.112685"
       id="rect2-2-1-5"
       width="13.632296"
       height="0.66399997"
       x="0.80385202"
       y="116.73234"
       ry="0.27390954" />
    <rect
       style="display:inline;fill:#000000;fill-opacity:1;stroke-width:0.112685"
       id="rect2-2-1-5-9"
       width="13.632296"
       height="0.66399997"
       x="0.80385208"
       y="102.715"
       ry="0.27390954" />
    <path
       d="m 7.0179704,122.70896 -0.316948,-0.72347 q -0.04479,-0.10335 -0.125745,-0.15503 -0.07924,-0.0534 -0.187758,-0.0534 h -0.08096 v 0.93189 h -0.423746 v -2.25136 h 0.656289 q 0.186035,0 0.337619,0.0327 0.151584,0.031 0.258381,0.10508 0.106798,0.0741 0.163642,0.19292 0.05857,0.11886 0.05857,0.29111 0,0.12403 -0.03617,0.22049 -0.03617,0.0965 -0.10163,0.16709 -0.06546,0.0689 -0.156752,0.11196 -0.08957,0.0431 -0.19637,0.0603 0.08268,0.0172 0.151584,0.0947 0.0689,0.0758 0.137804,0.22049 l 0.360011,0.75447 z m -0.105075,-1.58818 q 0,-0.16537 -0.105075,-0.23772 -0.105075,-0.0723 -0.315226,-0.0723 h -0.186034 v 0.63562 h 0.172254 q 0.09818,0 0.177422,-0.0207 0.08096,-0.0207 0.137804,-0.062 0.05684,-0.0413 0.08785,-0.10163 0.03101,-0.062 0.03101,-0.14124 z m 2.44429,0.90778 q 0,0.18431 -0.0689,0.32039 -0.06718,0.13608 -0.189479,0.22565 -0.122301,0.0879 -0.29111,0.13092 -0.16881,0.0431 -0.368625,0.0431 -0.177422,0 -0.342786,-0.0207 -0.165364,-0.0207 -0.327283,-0.0689 v -0.41858 q 0.07924,0.0276 0.165364,0.0517 0.08613,0.0241 0.172254,0.0431 0.08785,0.0172 0.173977,0.0276 0.08613,0.0103 0.167087,0.0103 0.120578,0 0.204983,-0.0207 0.08441,-0.0207 0.137803,-0.0568 0.0534,-0.0362 0.07751,-0.0861 0.02412,-0.0499 0.02412,-0.11024 0,-0.0827 -0.04823,-0.1378 -0.04651,-0.0569 -0.124023,-0.0999 -0.07751,-0.0431 -0.177422,-0.0775 -0.09818,-0.0345 -0.201538,-0.0741 -0.10163,-0.0396 -0.201537,-0.0896 -0.09818,-0.05 -0.1757,-0.12402 -0.07751,-0.0741 -0.125746,-0.1757 -0.04651,-0.10335 -0.04651,-0.24805 0,-0.13263 0.04823,-0.25149 0.04823,-0.11885 0.151584,-0.2067 0.103353,-0.0896 0.265272,-0.14125 0.161919,-0.0534 0.391018,-0.0534 0.06718,0 0.139526,0.007 0.07407,0.005 0.144693,0.0155 0.07235,0.009 0.137804,0.0224 0.06718,0.0121 0.1223,0.0258 v 0.38758 q -0.05512,-0.0207 -0.120578,-0.0379 -0.06546,-0.0172 -0.136081,-0.0293 -0.0689,-0.0138 -0.139526,-0.0207 -0.07062,-0.007 -0.134358,-0.007 -0.111965,0 -0.18948,0.019 -0.07751,0.0172 -0.127468,0.0499 -0.04995,0.031 -0.07235,0.0775 -0.02239,0.0465 -0.02239,0.10336 0,0.0706 0.04651,0.1223 0.04823,0.0499 0.125746,0.0913 0.07924,0.0396 0.177422,0.0758 0.09991,0.0344 0.20326,0.0758 0.105075,0.0396 0.20326,0.0913 0.09991,0.0517 0.177422,0.12575 0.07924,0.0741 0.125746,0.1757 0.04823,0.0999 0.04823,0.23771 z"
       id="text5"
       style="font-weight:bold;font-size:3.52777px;line-height:0.9;font-family:Consolas;-inkscape-font-specification:'Consolas Bold';text-align:center;text-anchor:middle;stroke-width:0.264583"
       aria-label="RS" />
    <path
       d="m 2.3617802,98.270322 v 0.9977 H 3.723281 v 0.556727 H 2.3617802 v 1.474511 H 1.6727617 V 97.697059 H 3.800451 v 0.573263 z m 2.4501501,3.028938 v -3.602201 h 0.6890186 v 3.020661 h 1.521353 v 0.58154 z M 7.7857345,98.25103 V 97.697059 H 10.062252 V 98.25103 H 9.2685025 v 2.48874 h 0.7937495 v 0.55949 H 7.7857345 v -0.55949 h 0.7937494 v -2.48874 z m 5.5617575,0.592556 q 0,0.28112 -0.09371,0.520899 -0.09371,0.237022 -0.278364,0.410655 -0.184657,0.173633 -0.460264,0.27009 -0.275608,0.0965 -0.63941,0.0965 h -0.344505 v 1.15756 h -0.683506 v -3.602191 h 1.055576 q 0.350022,0 0.617361,0.07717 0.270095,0.07441 0.451996,0.220486 0.184657,0.146072 0.278364,0.361046 0.09646,0.212218 0.09646,0.487825 z m -0.711067,0.04685 q 0,-0.143316 -0.04685,-0.259071 -0.0441,-0.118511 -0.137804,-0.201193 -0.09095,-0.08268 -0.23151,-0.12678 -0.14056,-0.0441 -0.333485,-0.0441 h -0.355537 v 1.32016 h 0.377582 q 0.176389,0 0.311437,-0.04685 0.135047,-0.04961 0.225998,-0.14056 0.09371,-0.09095 0.14056,-0.21773 0.04961,-0.12678 0.04961,-0.283876 z"
       id="text2"
       style="font-weight:bold;font-size:5.64444px;line-height:0.9;font-family:Consolas;-inkscape-font-specification:'Consolas Bold';text-align:center;letter-spacing:0px;text-anchor:middle;stroke-width:0.264583"
       aria-label="FLIP" />
    <path
       d="m 2.4177606,74.277331 v 0.997694 h 1.3615008 v 0.556727 H 2.4177606 v 1.474491 H 1.7287421 v -3.602169 h 2.1276893 v 0.573257 z m 2.4501501,3.028912 v -3.602169 h 0.6890186 v 3.020642 h 1.521353 v 0.581527 z m 5.5617573,-1.816238 q 0,0.490577 -0.115755,0.846104 -0.112999,0.355527 -0.3141916,0.584287 -0.1984377,0.228747 -0.468533,0.338997 -0.2673392,0.11024 -0.5732634,0.11024 -0.7110672,0 -1.0693568,-0.471287 -0.3582897,-0.474037 -0.3582897,-1.375271 0,-0.49058 0.112999,-0.846117 0.1157552,-0.355527 0.3141925,-0.584277 0.2011934,-0.228757 0.4685326,-0.338997 0.2700953,-0.11024 0.5760196,-0.11024 0.7110671,0 1.0693568,0.471287 0.358289,0.471277 0.358289,1.375274 z m -0.7165787,0.0331 q 0,-0.639407 -0.1708766,-0.953597 -0.1708766,-0.314197 -0.5622391,-0.314197 -0.1956813,0 -0.333485,0.0827 -0.1378037,0.0799 -0.2287542,0.237017 -0.088194,0.1571 -0.1295355,0.38861 -0.041341,0.228747 -0.041341,0.526407 0,0.639404 0.1708766,0.953594 0.1736327,0.314187 0.5622392,0.314187 0.1956813,0 0.333485,-0.0799 0.1405598,-0.0827 0.2287541,-0.239767 0.088194,-0.1571 0.1295355,-0.385847 0.041341,-0.23152 0.041341,-0.529167 z m 3.6903827,-0.672477 q 0,0.281117 -0.09371,0.520887 -0.09371,0.237027 -0.278363,0.410657 -0.184657,0.17363 -0.460264,0.2701 -0.275608,0.0965 -0.63941,0.0965 h -0.344509 v 1.157551 H 10.90371 v -3.602176 h 1.055576 q 0.350021,0 0.617361,0.0772 0.270095,0.0744 0.451996,0.220487 0.184657,0.14607 0.278363,0.36104 0.09646,0.212217 0.09646,0.487827 z m -0.711067,0.0469 q 0,-0.14332 -0.04685,-0.25907 -0.0441,-0.11851 -0.137804,-0.201187 -0.09095,-0.0827 -0.23151,-0.12678 -0.14056,-0.0441 -0.333485,-0.0441 h -0.355534 v 1.320151 h 0.377582 q 0.176389,0 0.311437,-0.0469 0.135047,-0.0496 0.225998,-0.14056 0.09371,-0.091 0.140559,-0.21773 0.04961,-0.12678 0.04961,-0.283877 z"
       id="text2-9"
       style="font-weight:bold;font-size:5.64444px;line-height:0.9;font-family:Consolas;-inkscape-font-specification:'Consolas Bold';text-align:center;letter-spacing:0px;text-anchor:middle;stroke-width:0.264583"
       aria-label="FLOP" />
    <path
       style="font-size:3.52777px;line-height:0.9;font-family:Arial;-inkscape-font-specification:Arial;text-align:center;letter-spacing:0px;text-anchor:middle;stroke-width:0.264583"
       d="m 2.6849048,54.237961 0.04479,0.273885 q -0.130913,0.02756 -0.234266,0.02756 -0.16881,0 -0.261827,-0.0534 -0.09302,-0.0534 -0.130913,-0.139527 -0.0379,-0.08785 -0.0379,-0.366901 v -1.052473 h -0.227376 v -0.241156 h 0.227376 V 52.23292 l 0.308335,-0.186035 v 0.639064 h 0.311781 v 0.241156 h -0.311781 v 1.0697 q 0,0.132636 0.0155,0.170532 0.01722,0.0379 0.0534,0.06029 0.0379,0.02239 0.106798,0.02239 0.05168,0 0.136081,-0.01206 z m 0.299723,0.27733 v -1.829342 h 0.279052 v 0.27733 q 0.106798,-0.194648 0.19637,-0.256659 0.09129,-0.06201 0.199815,-0.06201 0.156752,0 0.318671,0.09991 l -0.106798,0.28766 Q 3.7580498,52.965 3.6443618,52.965 q -0.10163,0 -0.182589,0.06201 -0.08096,0.06029 -0.115411,0.168809 -0.05168,0.165364 -0.05168,0.361734 v 0.957735 z m 1.179943,-2.168683 v -0.356567 h 0.310058 v 0.356567 z m 0,2.168683 v -1.829342 h 0.310058 v 1.829342 z m 0.725192,0.151584 0.301445,0.04479 q 0.01895,0.139526 0.105075,0.20326 0.115411,0.08613 0.315226,0.08613 0.215318,0 0.332451,-0.08613 0.117133,-0.08613 0.158474,-0.241156 0.02412,-0.09474 0.02239,-0.397908 -0.20326,0.239434 -0.506428,0.239434 -0.377237,0 -0.583943,-0.272162 -0.206705,-0.272162 -0.206705,-0.652844 0,-0.261827 0.09474,-0.482313 0.09474,-0.222208 0.273884,-0.342786 0.180868,-0.120578 0.423747,-0.120578 0.323838,0 0.533988,0.261827 v -0.220486 h 0.285943 v 1.581295 q 0,0.427191 -0.08785,0.604613 -0.08613,0.179145 -0.275607,0.282498 -0.187758,0.103352 -0.463365,0.103352 -0.327283,0 -0.528821,-0.148139 -0.201535,-0.146416 -0.194645,-0.442693 z m 0.256659,-1.098983 q 0,0.360011 0.142971,0.525376 0.142971,0.165364 0.358289,0.165364 0.213596,0 0.35829,-0.163642 0.144693,-0.165364 0.144693,-0.516763 0,-0.335896 -0.149861,-0.506428 -0.148139,-0.170532 -0.358289,-0.170532 -0.206706,0 -0.351399,0.168809 -0.144694,0.167087 -0.144694,0.497816 z m 1.705319,1.098983 0.301445,0.04479 q 0.01895,0.139526 0.105076,0.20326 0.11541,0.08613 0.315226,0.08613 0.215318,0 0.332451,-0.08613 0.117133,-0.08613 0.158474,-0.241156 0.02412,-0.09474 0.02239,-0.397908 -0.20326,0.239434 -0.506428,0.239434 -0.377238,0 -0.583943,-0.272162 -0.206706,-0.272162 -0.206706,-0.652844 0,-0.261827 0.09474,-0.482313 0.09474,-0.222208 0.273884,-0.342786 0.180867,-0.120578 0.423746,-0.120578 0.323839,0 0.533989,0.261827 v -0.220486 h 0.285942 v 1.581295 q 0,0.427191 -0.08785,0.604613 -0.08613,0.179145 -0.275607,0.282498 -0.187757,0.103352 -0.463364,0.103352 -0.327284,0 -0.528822,-0.148139 -0.201537,-0.14642 -0.194647,-0.442697 z m 0.256659,-1.098983 q 0,0.360011 0.142971,0.525376 0.142972,0.165364 0.35829,0.165364 0.213595,0 0.358289,-0.163642 0.144694,-0.165364 0.144694,-0.516763 0,-0.335896 -0.149861,-0.506428 -0.148139,-0.170532 -0.35829,-0.170532 -0.206705,0 -0.351399,0.168809 -0.144694,0.167087 -0.144694,0.497816 z m 3.0144542,0.358289 0.320392,0.03962 q -0.07579,0.280775 -0.280773,0.435804 -0.2049842,0.155029 -0.5236542,0.155029 -0.401353,0 -0.637342,-0.246324 -0.234266,-0.248046 -0.234266,-0.694185 0,-0.461642 0.237711,-0.716578 0.237711,-0.254937 0.616671,-0.254937 0.366902,0 0.5994462,0.249769 0.232542,0.249769 0.232542,0.702798 0,0.02756 -0.0017,0.08268 H 9.0876038 q 0.01722,0.301445 0.170532,0.461642 0.153307,0.160196 0.382405,0.160196 0.170532,0 0.29111,-0.08957 0.1205792,-0.08957 0.1912032,-0.285942 z M 9.1048298,53.42492 h 1.0214692 q -0.02067,-0.23082 -0.117133,-0.346231 -0.1481392,-0.179144 -0.3841282,-0.179144 -0.213595,0 -0.360012,0.142971 -0.144693,0.142971 -0.160196,0.382404 z m 1.7242662,1.090371 v -1.829342 h 0.279052 v 0.27733 q 0.106798,-0.194648 0.19637,-0.256659 0.0913,-0.06201 0.199815,-0.06201 0.156752,0 0.318671,0.09991 l -0.106798,0.287664 q -0.113688,-0.06718 -0.227376,-0.06718 -0.10163,0 -0.182589,0.06201 -0.08096,0.06029 -0.115411,0.168809 -0.05168,0.165364 -0.05168,0.361734 v 0.957735 z m 1.054197,-0.546047 0.306613,-0.04823 q 0.02584,0.184312 0.142971,0.282497 0.118856,0.09819 0.330728,0.09819 0.213596,0 0.316949,-0.08613 0.103352,-0.08785 0.103352,-0.204983 0,-0.105075 -0.0913,-0.165364 -0.06373,-0.04134 -0.316948,-0.105075 -0.341063,-0.08613 -0.473699,-0.148139 -0.130914,-0.06373 -0.199815,-0.173977 -0.06718,-0.111965 -0.06718,-0.246324 0,-0.1223 0.05512,-0.225653 0.05684,-0.105075 0.153306,-0.173977 0.07235,-0.0534 0.19637,-0.08957 0.125746,-0.0379 0.268717,-0.0379 0.215318,0 0.377237,0.06201 0.163642,0.06201 0.241156,0.168809 0.07752,0.105075 0.106798,0.282497 l -0.303161,0.04134 q -0.02067,-0.141248 -0.120578,-0.220485 -0.09818,-0.07924 -0.279052,-0.07924 -0.213595,0 -0.30489,0.07062 -0.09129,0.07062 -0.09129,0.165364 0,0.06029 0.0379,0.10852 0.0379,0.04995 0.118855,0.08268 0.04651,0.01723 0.273885,0.07924 0.329006,0.08785 0.458197,0.144694 0.130913,0.05512 0.204982,0.161919 0.07407,0.106798 0.07407,0.265272 0,0.155029 -0.0913,0.292833 -0.08957,0.136081 -0.260104,0.211872 -0.170532,0.07407 -0.38585,0.07407 -0.356567,0 -0.544324,-0.148139 -0.186035,-0.148139 -0.237711,-0.439249 z"
       id="text3-3"
       aria-label="triggers" />
    <rect
       style="display:inline;fill:#ff63e9;fill-opacity:1;stroke-width:0.302914"
       id="rect4-9"
       width="10.776912"
       height="13.189312"
       x="2.2336318"
       y="80.938698"
       ry="1.4404136" />
    <rect
       style="display:inline;fill:#000000;fill-opacity:1;stroke-width:0.112685"
       id="rect2-2-1-5-5"
       width="13.632296"
       height="0.66399997"
       x="0.80385184"
       y="71.732101"
       ry="0.27390954" />
    <rect
       style="display:inline;fill:#000000;fill-opacity:1;stroke-width:0.112685"
       id="rect2-2-1-5-9-1"
       width="13.632296"
       height="0.66399997"
       x="0.80385184"
       y="11.149"
       ry="0.27390954" />
    <rect
       style="display:inline;fill:#000000;fill-opacity:1;stroke-width:0.112685"
       id="rect2-2-1-5-9-1-0"
       width="13.632296"
       height="0.66399997"
       x="0.8038516"
       y="57.065464"
       ry="0.27390954" />
    <path
       style="font-size:3.52777px;line-height:0.9;font-family:Arial;-inkscape-font-specification:Arial;text-align:center;text-anchor:middle;display:inline;stroke-width:0.264583"
       d="m 5.1295689,91.875697 q 0,-0.50815 0.2824972,-0.75275 0.2359886,-0.20326 0.5753297,-0.20326 0.3772372,0 0.6166708,0.24804 0.2394336,0.24633 0.2394336,0.68213 0,0.35312 -0.1067978,0.55638 -0.1050751,0.20154 -0.3083353,0.31351 -0.2015377,0.11196 -0.4409713,0.11196 -0.3841273,0 -0.6218383,-0.24632 -0.2359886,-0.24633 -0.2359886,-0.70969 z m 0.3186707,0 q 0,0.3514 0.1533064,0.5271 0.1533064,0.17397 0.3858498,0.17397 0.2308209,0 0.3841273,-0.1757 0.1533064,-0.17569 0.1533064,-0.53571 0,-0.33934 -0.1550289,-0.51331 -0.1533064,-0.1757 -0.3824048,-0.1757 -0.2325434,0 -0.3858498,0.17397 -0.1533064,0.17398 -0.1533064,0.52538 z m 2.957608,0.91467 v -0.26872 q -0.213595,0.31006 -0.580497,0.31006 -0.161919,0 -0.3031681,-0.062 -0.139526,-0.062 -0.2084278,-0.15503 -0.067179,-0.0947 -0.09474,-0.23082 -0.018948,-0.0913 -0.018948,-0.28939 v -1.13343 h 0.3100579 v 1.01458 q 0,0.24288 0.018948,0.32728 0.029283,0.1223 0.124023,0.19292 0.09474,0.0689 0.234266,0.0689 0.139526,0 0.261827,-0.0706 0.1223,-0.0723 0.172254,-0.19465 0.05168,-0.12402 0.05168,-0.35828 v -0.98013 h 0.310058 v 1.82934 z m 1.440047,-0.27733 0.04479,0.27388 q -0.130913,0.0276 -0.234266,0.0276 -0.168809,0 -0.261827,-0.0534 -0.09302,-0.0534 -0.130913,-0.13953 -0.0379,-0.0879 -0.0379,-0.3669 v -1.05248 h -0.227376 v -0.24115 h 0.227376 v -0.45303 l 0.308335,-0.18604 v 0.63907 h 0.311781 v 0.24115 h -0.311781 v 1.0697 q 0,0.13264 0.0155,0.17054 0.01722,0.0379 0.0534,0.0603 0.0379,0.0224 0.106798,0.0224 0.05168,0 0.136081,-0.0121 z"
       id="text4-3-1-5-5-5-7"
       aria-label="out" />
    <rect
       style="display:inline;fill:#7add55;fill-opacity:1;stroke:#000000;stroke-width:0.281607;stroke-opacity:1"
       id="rect6-7"
       width="10.110326"
       height="36.359493"
       x="2.5648372"
       y="13.721774"
       ry="1.2396879" />
    <path
       style="display:inline;font-size:3.52777px;line-height:0.9;font-family:Arial;-inkscape-font-specification:Arial;text-align:center;text-anchor:middle;stroke-width:0.264583"
       d="m 6.4857029,104.65341 v -0.35657 h 0.310058 v 0.35657 z m 0,2.16868 v -1.82934 h 0.310058 v 1.82934 z m 0.782035,0 v -1.82934 h 0.279052 v 0.2601 q 0.201538,-0.30144 0.582221,-0.30144 0.165364,0 0.303168,0.0603 0.139526,0.0586 0.208428,0.15502 0.0689,0.0965 0.09646,0.2291 0.01723,0.0861 0.01723,0.30145 v 1.12482 h -0.310058 v -1.11276 q 0,-0.18948 -0.03617,-0.2825 -0.03617,-0.0947 -0.129192,-0.14986 -0.0913,-0.0568 -0.215318,-0.0568 -0.198092,0 -0.342786,0.12574 -0.142971,0.12575 -0.142971,0.47715 v 0.99907 z"
       id="text4-3-1-9-8"
       aria-label="in" />
  </g>
  <g
     inkscape:groupmode="layer"
     id="layer2"
     inkscape:label="components"
     style="display:none">
    <circle
       style="fill:#00ff00;fill-opacity:1;stroke-width:0.256914"
       id="path2-6"
       cx="7.6199999"
       cy="62.830967"
       r="3.1535001"
       inkscape:label="flop" />
    <circle
       style="display:inline;fill:#00ff00;fill-opacity:1;stroke-width:0.256914"
       id="path2-6-3"
       cx="7.6199999"
       cy="111.77724"
       r="3.1535001"
       inkscape:label="flip" />
    <circle
       style="display:inline;fill:#00ff00;fill-opacity:1;stroke-width:0.256914"
       id="path2-6-0-0-5-1-5"
       cx="7.6199989"
       cy="44.756004"
       r="3.1535001"
       inkscape:label="trig4" />
    <circle
       style="display:inline;fill:#00ff00;fill-opacity:1;stroke-width:0.256914"
       id="path2-6-0-0-5-1"
       cx="7.6199994"
       cy="36.186348"
       r="3.1535001"
       inkscape:label="trig3" />
    <circle
       style="display:inline;fill:#00ff00;fill-opacity:1;stroke-width:0.256914"
       id="path2-6-0-0-5-3-5"
       cx="7.6199994"
       cy="27.616692"
       r="3.1535001"
       inkscape:label="trig2" />
    <circle
       style="display:inline;fill:#00ff00;fill-opacity:1;stroke-width:0.256914"
       id="path2-6-0-0-5-3-5-2"
       cx="7.6199994"
       cy="19.047035"
       r="3.1535001"
       inkscape:label="trig1" />
    <circle
       style="display:inline;fill:#0000ff;fill-opacity:1;stroke-width:0.256914"
       id="path2-6-1-8"
       cx="7.5661073"
       cy="85.468498"
       r="3.1535001"
       inkscape:label="out" />
    <circle
       style="fill:#ff00ff;fill-opacity:1;stroke-width:0.24249"
       id="path2"
       cx="7.5661073"
       cy="79.154167"
       r="0.31200001"
       inkscape:label="flop" />
    <circle
       style="display:inline;fill:#ff00ff;fill-opacity:1;stroke-width:0.24249"
       id="path2-0"
       cx="7.5101271"
       cy="95.912537"
       r="0.31200001"
       inkscape:label="flip" />
  </g>
</svg>
