<?xml version="1.0" encoding="UTF-8" standalone="no"?>
<!-- Created with Inkscape (http://www.inkscape.org/) -->

<svg
   width="30.48mm"
   height="128.5mm"
   viewBox="0 0 30.48 128.5"
   version="1.1"
   id="svg1"
   inkscape:version="1.3 (0e150ed6c4, 2023-07-21)"
   sodipodi:docname="Tempinator_Dependence.svg"
   xmlns:inkscape="http://www.inkscape.org/namespaces/inkscape"
   xmlns:sodipodi="http://sodipodi.sourceforge.net/DTD/sodipodi-0.dtd"
   xmlns="http://www.w3.org/2000/svg"
   xmlns:svg="http://www.w3.org/2000/svg">
  <sodipodi:namedview
     id="namedview1"
     pagecolor="#505050"
     bordercolor="#ffffff"
     borderopacity="1"
     inkscape:showpageshadow="0"
     inkscape:pageopacity="0"
     inkscape:pagecheckerboard="1"
     inkscape:deskcolor="#505050"
     inkscape:document-units="mm"
     showgrid="false"
     inkscape:zoom="1.8820159"
     inkscape:cx="14.877664"
     inkscape:cy="127.25716"
     inkscape:window-width="1920"
     inkscape:window-height="991"
     inkscape:window-x="-9"
     inkscape:window-y="-9"
     inkscape:window-maximized="1"
     inkscape:current-layer="layer1">
    <inkscape:grid
       id="grid1"
       units="mm"
       originx="0"
       originy="0"
       spacingx="1"
       spacingy="1"
       empcolor="#0099e5"
       empopacity="0.30196078"
       color="#0099e5"
       opacity="0.14901961"
       empspacing="5"
       dotted="false"
       gridanglex="30"
       gridanglez="30"
       visible="false" />
  </sodipodi:namedview>
  <defs
     id="defs1">
    <rect
       x="16.88126"
       y="442.32944"
       width="32.284557"
       height="22.984785"
       id="rect5" />
    <rect
       x="16.88126"
       y="442.32944"
       width="60.439163"
       height="14.624552"
       id="rect5-6" />
    <rect
       x="16.88126"
       y="442.32944"
       width="60.439163"
       height="14.624552"
       id="rect5-6-3" />
  </defs>
  <g
     inkscape:label="Layer 1"
     inkscape:groupmode="layer"
     id="layer1">
    <rect
       style="fill:#7add55;fill-opacity:1;stroke-width:0.374206"
       id="rect1"
       width="30.475824"
       height="128.5"
       x="0.0041754646"
       y="-6.9467002e-15"
       ry="0"
       rx="0"
       sodipodi:insensitive="true" />
    <rect
       style="fill:#ff63e9;fill-opacity:1;stroke-width:0.306973"
       id="rect4"
       width="10.776912"
       height="13.545129"
       x="18.522635"
       y="103.72562"
       ry="1.4792725" />
    <rect
       style="display:inline;fill:#000000;fill-opacity:1;stroke-width:0.164662"
       id="rect2-2-1"
       width="29.108772"
       height="0.66399997"
       x="0.68561363"
       y="10.761159"
       ry="0.27390954" />
    <rect
       style="display:inline;fill:#000000;fill-opacity:1;stroke-width:0.164662"
       id="rect2-2-1-2"
       width="29.108772"
       height="0.66399997"
       x="0.68561316"
       y="27.739862"
       ry="0.27390954" />
    <rect
       style="display:inline;fill:#000000;fill-opacity:1;stroke-width:0.164662"
       id="rect2-2-1-2-2"
       width="29.108772"
       height="0.66399997"
       x="0.67855144"
       y="52.096657"
       ry="0.27390954" />
    <rect
       style="display:inline;fill:#000000;fill-opacity:1;stroke-width:0.164662"
       id="rect2-2-1-2-2-1"
       width="29.108772"
       height="0.66399997"
       x="0.6785512"
       y="82.443092"
       ry="0.27390954" />
    <path
       d="m 2.8044903,116.09753 v -1.82934 h 0.279053 v 0.27733 q 0.106797,-0.19465 0.19637,-0.25666 0.09129,-0.062 0.199815,-0.062 0.156751,0 0.31867,0.0999 l -0.106797,0.28767 q -0.113688,-0.0672 -0.227376,-0.0672 -0.10163,0 -0.18259,0.062 -0.08096,0.0603 -0.11541,0.16881 -0.05168,0.16536 -0.05168,0.36173 v 0.95773 z m 2.43051,-0.58911 0.320393,0.0396 q -0.07579,0.28078 -0.280775,0.43581 -0.204982,0.15503 -0.523653,0.15503 -0.401353,0 -0.637341,-0.24633 -0.234266,-0.24804 -0.234266,-0.69418 0,-0.46164 0.237711,-0.71658 0.237711,-0.25494 0.616671,-0.25494 0.366902,0 0.599445,0.24977 0.232543,0.24977 0.232543,0.7028 0,0.0276 -0.0017,0.0827 h -1.364255 q 0.01722,0.30144 0.170532,0.46164 0.153306,0.1602 0.382405,0.1602 0.170532,0 0.29111,-0.0896 0.120578,-0.0896 0.191202,-0.28594 z m -1.018024,-0.50126 h 1.021469 q -0.02067,-0.23082 -0.117133,-0.34623 -0.148139,-0.17914 -0.384127,-0.17914 -0.213596,0 -0.360012,0.14297 -0.144694,0.14297 -0.160197,0.3824 z m 1.603689,0.54433 0.306613,-0.0482 q 0.02584,0.18431 0.142971,0.28249 0.118855,0.0982 0.330728,0.0982 0.213596,0 0.316948,-0.0861 0.103353,-0.0879 0.103353,-0.20498 0,-0.10507 -0.09129,-0.16536 -0.06373,-0.0413 -0.316948,-0.10508 -0.341064,-0.0861 -0.473699,-0.14814 -0.130914,-0.0637 -0.199816,-0.17397 -0.06718,-0.11197 -0.06718,-0.24633 0,-0.1223 0.05512,-0.22565 0.05684,-0.10508 0.153306,-0.17398 0.07235,-0.0534 0.19637,-0.0896 0.125746,-0.0379 0.268717,-0.0379 0.215318,0 0.377237,0.062 0.163642,0.062 0.241156,0.16881 0.07752,0.10508 0.106798,0.2825 l -0.303168,0.0413 q -0.02067,-0.14125 -0.120578,-0.22049 -0.09818,-0.0792 -0.279052,-0.0792 -0.213595,0 -0.30489,0.0706 -0.09129,0.0706 -0.09129,0.16537 0,0.0603 0.0379,0.10852 0.0379,0.05 0.118855,0.0827 0.04651,0.0172 0.273885,0.0792 0.329006,0.0878 0.458197,0.14469 0.130913,0.0551 0.204982,0.16192 0.07407,0.1068 0.07407,0.26527 0,0.15503 -0.0913,0.29283 -0.08957,0.13608 -0.260104,0.21188 -0.170532,0.0741 -0.38585,0.0741 -0.356567,0 -0.544324,-0.14814 -0.186035,-0.14814 -0.237711,-0.43925 z m 3.1401983,-0.0431 0.320393,0.0396 q -0.07579,0.28077 -0.280775,0.4358 -0.204983,0.15503 -0.523653,0.15503 -0.401353,0 -0.637342,-0.24632 -0.234266,-0.24805 -0.234266,-0.69419 0,-0.46164 0.237712,-0.71658 0.237711,-0.25493 0.61667,-0.25493 0.366902,0 0.599446,0.24976 0.232543,0.24977 0.232543,0.7028 0,0.0276 -0.0017,0.0827 h -1.364277 q 0.01722,0.30145 0.170532,0.46164 0.153306,0.1602 0.382404,0.1602 0.170532,0 0.29111,-0.0896 0.120578,-0.0896 0.191203,-0.28594 z m -1.018024,-0.50126 h 1.021469 q -0.02067,-0.23083 -0.117133,-0.34624 -0.148139,-0.17914 -0.384128,-0.17914 -0.213595,0 -0.360011,0.14297 -0.144694,0.14297 -0.160197,0.38241 z m 2.4046714,0.81304 0.04479,0.27388 q -0.130914,0.0276 -0.234266,0.0276 -0.1688104,0 -0.2618274,-0.0534 -0.09302,-0.0534 -0.130913,-0.13952 -0.0379,-0.0878 -0.0379,-0.36691 v -1.05247 h -0.227376 v -0.24116 h 0.227376 v -0.45303 l 0.3083354,-0.18603 v 0.63906 h 0.31178 v 0.24116 h -0.31178 v 1.0697 q 0,0.13264 0.0155,0.17053 0.01722,0.0379 0.0534,0.0603 0.0379,0.0224 0.106797,0.0224 0.05168,0 0.136081,-0.0121 z"
       id="text9-4"
       style="font-size:3.52777px;line-height:0.9;font-family:Arial;-inkscape-font-specification:Arial;text-align:center;letter-spacing:0px;text-anchor:middle;stroke:#000000;stroke-width:0.264583;stroke-opacity:0"
       aria-label="reset" />
    <path
       d="m 14.63797,122.70896 -0.316948,-0.72347 q -0.04479,-0.10335 -0.125745,-0.15503 -0.07924,-0.0534 -0.187758,-0.0534 h -0.08096 v 0.93189 h -0.423746 v -2.25136 h 0.656289 q 0.186035,0 0.337619,0.0327 0.151584,0.031 0.258381,0.10508 0.106798,0.0741 0.163642,0.19292 0.05857,0.11886 0.05857,0.29111 0,0.12403 -0.03617,0.22049 -0.03617,0.0965 -0.10163,0.16709 -0.06546,0.0689 -0.156752,0.11196 -0.08957,0.0431 -0.19637,0.0603 0.08268,0.0172 0.151584,0.0947 0.0689,0.0758 0.137804,0.22049 l 0.360011,0.75447 z m -0.105075,-1.58818 q 0,-0.16537 -0.105075,-0.23772 -0.105075,-0.0723 -0.315226,-0.0723 H 13.92656 v 0.63562 h 0.172254 q 0.09818,0 0.177422,-0.0207 0.08096,-0.0207 0.137804,-0.062 0.05684,-0.0413 0.08785,-0.10163 0.03101,-0.062 0.03101,-0.14124 z m 2.44429,0.90778 q 0,0.18431 -0.0689,0.32039 -0.06718,0.13608 -0.189479,0.22565 -0.122301,0.0879 -0.29111,0.13092 -0.16881,0.0431 -0.368625,0.0431 -0.177422,0 -0.342786,-0.0207 -0.165364,-0.0207 -0.327283,-0.0689 v -0.41858 q 0.07924,0.0276 0.165364,0.0517 0.08613,0.0241 0.172254,0.0431 0.08785,0.0172 0.173977,0.0276 0.08613,0.0103 0.167087,0.0103 0.120578,0 0.204983,-0.0207 0.08441,-0.0207 0.137803,-0.0568 0.0534,-0.0362 0.07751,-0.0861 0.02412,-0.0499 0.02412,-0.11024 0,-0.0827 -0.04823,-0.1378 -0.04651,-0.0569 -0.124023,-0.0999 -0.07751,-0.0431 -0.177422,-0.0775 -0.09818,-0.0345 -0.201538,-0.0741 -0.10163,-0.0396 -0.201537,-0.0896 -0.09818,-0.05 -0.1757,-0.12402 -0.07751,-0.0741 -0.125746,-0.1757 -0.04651,-0.10335 -0.04651,-0.24805 0,-0.13263 0.04823,-0.25149 0.04823,-0.11885 0.151584,-0.2067 0.103353,-0.0896 0.265272,-0.14125 0.161919,-0.0534 0.391018,-0.0534 0.06718,0 0.139526,0.007 0.07407,0.005 0.144693,0.0155 0.07235,0.009 0.137804,0.0224 0.06718,0.0121 0.1223,0.0258 v 0.38758 q -0.05512,-0.0207 -0.120578,-0.0379 -0.06546,-0.0172 -0.136081,-0.0293 -0.0689,-0.0138 -0.139526,-0.0207 -0.07062,-0.007 -0.134358,-0.007 -0.111965,0 -0.18948,0.019 -0.07751,0.0172 -0.127468,0.0499 -0.04995,0.031 -0.07235,0.0775 -0.02239,0.0465 -0.02239,0.10336 0,0.0706 0.04651,0.1223 0.04823,0.0499 0.125746,0.0913 0.07924,0.0396 0.177422,0.0758 0.09991,0.0344 0.20326,0.0758 0.105075,0.0396 0.20326,0.0913 0.09991,0.0517 0.177422,0.12575 0.07924,0.0741 0.125746,0.1757 0.04823,0.0999 0.04823,0.23771 z"
       id="text5"
       style="font-weight:bold;font-size:3.52777px;line-height:0.9;font-family:Consolas;-inkscape-font-specification:'Consolas Bold';text-align:center;text-anchor:middle;stroke-width:0.264583"
       aria-label="RS" />
    <path
       d="M 3.3348252,6.6583259 V 9.3158731 H 2.7271102 V 6.6583259 H 1.8637691 V 6.1639546 H 4.1981663 V 6.6583259 Z M 6.858125,7.9026947 q 0,0.060289 -0.00482,0.1567518 -0.00241,0.096463 -0.00965,0.1808676 h -1.610927 q 0,0.161575 0.048231,0.2845649 0.050643,0.12299 0.1398709,0.2073948 0.091639,0.081993 0.217041,0.1254015 0.1278131,0.043408 0.2821534,0.043408 0.178456,0 0.3810277,-0.026527 0.2049832,-0.028939 0.4244358,-0.091639 v 0.467844 q -0.094051,0.026527 -0.2049832,0.048231 -0.1109321,0.021704 -0.2266873,0.038585 -0.1157553,0.016881 -0.2339221,0.024116 -0.1181668,0.00965 -0.2290989,0.00965 -0.2797418,0 -0.501606,-0.079582 Q 5.1073271,9.2121757 4.9529868,9.0578354 4.7986465,8.9010836 4.7166532,8.6719847 4.6346599,8.4428858 4.6346599,8.1414398 q 0,-0.2990343 0.081993,-0.5426026 Q 4.7986465,7.3528573 4.9481637,7.1792245 5.0976808,7.00318 5.3098988,6.9091289 q 0.2146295,-0.096463 0.4774903,-0.096463 0.2604493,0 0.4606094,0.081993 0.2001601,0.079582 0.3352078,0.2242758 0.1350478,0.144694 0.2049833,0.3448541 0.069935,0.2001601 0.069935,0.4389053 z M 6.2600563,7.8182898 q 0.00241,-0.144694 -0.036173,-0.250803 -0.038585,-0.1085205 -0.106109,-0.178456 -0.065112,-0.069935 -0.1543403,-0.1036974 -0.086816,-0.033762 -0.1881022,-0.033762 -0.2218642,0 -0.3641467,0.1495172 Q 5.2689021,7.5481943 5.2423749,7.8182898 Z M 9.1684065,9.3158731 V 7.6470685 q 0,-0.091639 -0.00482,-0.1591634 -0.00482,-0.069935 -0.019293,-0.1157553 -0.014469,-0.04582 -0.043408,-0.067524 -0.026527,-0.024116 -0.074759,-0.024116 -0.074759,0 -0.1471056,0.1012858 -0.072347,0.1012858 -0.1639866,0.3448541 V 9.3158731 H 8.2110142 V 7.6470685 q 0,-0.091639 -0.00482,-0.1591634 -0.00482,-0.069935 -0.019293,-0.1157553 -0.014469,-0.04582 -0.043408,-0.067524 -0.028939,-0.024116 -0.07717,-0.024116 -0.062701,0 -0.1398709,0.1012858 -0.07717,0.1012858 -0.1712213,0.3448541 V 9.3158731 H 7.2463873 V 6.8657207 H 7.682881 l 0.00965,0.356912 q 0.053055,-0.1085206 0.106109,-0.1856907 0.053055,-0.07717 0.1133437,-0.1254015 0.060289,-0.050643 0.127813,-0.072347 0.069935,-0.021704 0.1567519,-0.021704 0.2049833,0 0.3110922,0.1085206 0.1085205,0.1061089 0.12299,0.2966228 0.057878,-0.1085206 0.1133436,-0.1856907 0.057878,-0.07717 0.1181668,-0.1254015 0.062701,-0.050643 0.1326362,-0.072347 0.072347,-0.021704 0.1591635,-0.021704 0.2676839,0 0.395497,0.1881023 0.1278131,0.1856907 0.1278131,0.5522489 V 9.3158731 Z M 12.35891,8.0473887 q 0,0.3376194 -0.09646,0.5835993 -0.09405,0.2459799 -0.265273,0.4099665 -0.16881,0.161575 -0.40032,0.2411567 -0.23151,0.07717 -0.504018,0.07717 -0.09164,0 -0.183279,-0.012058 -0.09164,-0.012058 -0.166398,-0.03135 V 10.273265 H 10.154738 V 6.8657207 h 0.50884 l 0.01447,0.3617351 q 0.07476,-0.094051 0.15434,-0.1712213 0.08199,-0.07717 0.176045,-0.1302246 0.09405,-0.055466 0.202571,-0.084405 0.108521,-0.028939 0.243568,-0.028939 0.217042,0 0.385851,0.086816 0.16881,0.086817 0.282154,0.2483915 0.115755,0.1591634 0.176044,0.3882623 0.06029,0.2266874 0.06029,0.5112523 z m -0.617361,0.024116 q 0,-0.2025717 -0.02894,-0.3448542 -0.02894,-0.1422824 -0.08441,-0.233922 -0.05305,-0.09164 -0.132636,-0.1326362 -0.07717,-0.043408 -0.178456,-0.043408 -0.149517,0 -0.286976,0.1205784 -0.135048,0.1205783 -0.286977,0.3279731 v 1.0707359 q 0.06994,0.026527 0.171221,0.043408 0.103698,0.016881 0.209807,0.016881 0.139871,0 0.253214,-0.057878 0.115756,-0.057878 0.195337,-0.1639866 0.08199,-0.1061089 0.125402,-0.2580377 0.04341,-0.1543403 0.04341,-0.3448541 z M 14.31228,6.195305 q 0,0.079582 -0.02894,0.1495171 -0.02894,0.069935 -0.08199,0.12299 -0.05064,0.050643 -0.120578,0.081993 -0.06994,0.028939 -0.151929,0.028939 -0.08199,0 -0.15434,-0.028939 -0.06993,-0.03135 -0.12299,-0.081993 -0.05064,-0.053055 -0.07958,-0.12299 -0.02894,-0.069935 -0.02894,-0.1495171 0,-0.079582 0.02894,-0.1495172 0.02894,-0.069936 0.07958,-0.1229899 0.05306,-0.053055 0.12299,-0.081993 0.07235,-0.03135 0.15434,-0.03135 0.08199,0 0.151929,0.03135 0.06993,0.028939 0.120578,0.081993 0.05306,0.053054 0.08199,0.1229899 0.02894,0.069935 0.02894,0.1495172 z m -0.651124,1.1286135 h -0.69212 V 6.8657207 h 1.295012 v 1.9919546 h 0.706589 V 9.3158731 H 12.884632 V 8.8576753 h 0.776524 z m 3.385841,1.9919546 V 7.7194155 q 0,-0.4027317 -0.299035,-0.4027317 -0.149517,0 -0.286976,0.1205784 -0.135048,0.1205783 -0.286977,0.3279731 V 9.3158731 H 15.585587 V 6.8657207 h 0.50884 l 0.01447,0.3617351 q 0.07476,-0.094051 0.15434,-0.1712213 0.08199,-0.07717 0.176045,-0.1302246 0.09405,-0.055466 0.202571,-0.084405 0.108521,-0.028939 0.243569,-0.028939 0.188102,0 0.327973,0.062701 0.139871,0.060289 0.233922,0.1736328 0.09405,0.1109321 0.139871,0.2700956 0.04823,0.1567518 0.04823,0.3520888 v 1.6446889 z m 2.790184,0 -0.01447,-0.3207384 q -0.07717,0.081993 -0.161575,0.1519287 -0.08441,0.067524 -0.18569,0.1181668 -0.101286,0.050643 -0.221865,0.07717 -0.118166,0.028939 -0.260449,0.028939 -0.188102,0 -0.330385,-0.055466 -0.142282,-0.055466 -0.238745,-0.1543403 -0.09646,-0.098874 -0.147105,-0.2387451 -0.04823,-0.1398709 -0.04823,-0.3086807 0,-0.1736328 0.07235,-0.3207384 0.07476,-0.1471056 0.224276,-0.2532146 0.151929,-0.106109 0.376205,-0.1663981 0.226687,-0.060289 0.530544,-0.060289 h 0.320739 V 7.6663611 q 0,-0.094051 -0.02653,-0.1688098 -0.02653,-0.07717 -0.08682,-0.1302246 -0.05788,-0.053055 -0.151929,-0.081993 -0.09405,-0.028939 -0.23151,-0.028939 -0.217041,0 -0.429259,0.050643 -0.209806,0.048231 -0.407555,0.1374594 V 6.9742412 q 0.176044,-0.069935 0.405143,-0.1157552 0.231511,-0.04582 0.479902,-0.04582 0.272507,0 0.467844,0.053055 0.195337,0.050643 0.320739,0.1543403 0.127813,0.1036974 0.188102,0.2604493 0.06029,0.1543403 0.06029,0.3617351 v 1.6736277 z m -0.08441,-1.0827937 h -0.359324 q -0.149517,0 -0.253214,0.028939 -0.103698,0.028939 -0.16881,0.079582 -0.06511,0.050643 -0.09646,0.1181668 -0.02894,0.065112 -0.02894,0.1398709 0,0.1495172 0.09646,0.2290989 0.09646,0.07717 0.262861,0.07717 0.12299,0 0.255626,-0.089228 0.132636,-0.089228 0.2918,-0.2556261 z m 3.284553,1.0586781 q -0.159163,0.036174 -0.320738,0.057878 -0.161575,0.021704 -0.306269,0.021704 -0.241157,0 -0.417201,-0.050643 Q 21.819488,9.2700534 21.703733,9.166356 21.590389,9.0626586 21.534923,8.9034951 21.481868,8.7419201 21.481868,8.5200559 V 7.3239185 H 20.82351 V 6.8657207 h 0.658358 V 6.2387132 L 22.08476,6.0819613 v 0.7837594 h 0.952569 V 7.3239185 H 22.08476 v 1.1527292 q 0,0.2098064 0.09646,0.3183269 0.09646,0.106109 0.32315,0.106109 0.144694,0 0.282153,-0.024116 0.13746,-0.024116 0.250803,-0.055466 z m 2.901116,-1.2202531 q 0,0.2893881 -0.08199,0.5305448 -0.08199,0.2387452 -0.236333,0.4099665 -0.154341,0.1712212 -0.378616,0.2652724 -0.224276,0.094051 -0.511253,0.094051 -0.272507,0 -0.487136,-0.079582 -0.21463,-0.079582 -0.364147,-0.2363336 -0.149517,-0.1591635 -0.229099,-0.3954971 -0.07958,-0.2387451 -0.07958,-0.5546605 0,-0.2917996 0.08199,-0.5305448 0.0844,-0.2387452 0.238745,-0.4075549 0.156752,-0.1688097 0.381027,-0.2604493 0.224276,-0.094051 0.50643,-0.094051 0.274918,0 0.489548,0.081993 0.214629,0.079582 0.364146,0.2387452 0.149518,0.1591634 0.226688,0.395497 0.07958,0.2339221 0.07958,0.5426027 z m -0.612538,0.014469 q 0,-0.3810277 -0.144694,-0.5715415 -0.142282,-0.1929254 -0.422024,-0.1929254 -0.15434,0 -0.262861,0.060289 -0.10852,0.060289 -0.178456,0.1663982 -0.06994,0.1036974 -0.103697,0.2435683 -0.03135,0.1398709 -0.03135,0.2990343 0,0.3834392 0.154341,0.5787762 0.15434,0.1929254 0.422024,0.1929254 0.147106,0 0.255626,-0.057878 0.108521,-0.060289 0.176045,-0.1639866 0.06752,-0.106109 0.101285,-0.2483915 0.03376,-0.1422824 0.03376,-0.306269 z m 2.698545,-0.267684 q 0.0048,-0.1374593 -0.01447,-0.233922 -0.01688,-0.096463 -0.05788,-0.1591635 -0.03859,-0.062701 -0.09646,-0.091639 -0.05788,-0.028939 -0.132636,-0.028939 -0.130225,0 -0.270096,0.1085205 -0.137459,0.106109 -0.303857,0.3520888 V 9.3158731 H 26.546161 V 6.8657207 h 0.532956 l 0.02171,0.356912 q 0.06029,-0.094051 0.135047,-0.1688098 0.07717,-0.074758 0.16881,-0.127813 0.09405,-0.055466 0.207395,-0.084405 0.113344,-0.028939 0.248391,-0.028939 0.185691,0 0.327973,0.065112 0.144695,0.062701 0.241157,0.1881023 0.09887,0.1254015 0.144694,0.3159153 0.04823,0.1881023 0.041,0.4364937 z"
       id="text6"
       style="font-weight:bold;font-size:4.93889px;line-height:0.9;font-family:Consolas;-inkscape-font-specification:'Consolas Bold';text-align:center;letter-spacing:0px;text-anchor:middle;stroke:#000000;stroke-width:0.264583;stroke-opacity:0"
       aria-label="Tempinator" />
    <path
       d="M 5.6385318,31.241206 H 5.4524963 v -1.185459 q -0.067179,0.06408 -0.1767336,0.128158 -0.1085207,0.06408 -0.1953373,0.09612 v -0.179836 q 0.1560631,-0.07338 0.272852,-0.177767 0.1167889,-0.104387 0.1653649,-0.202572 h 0.1198895 z"
       id="text7-7"
       style="font-size:2.11667px;line-height:0.9;font-family:Arial;-inkscape-font-specification:Arial;text-align:center;letter-spacing:0px;text-anchor:middle;stroke:#000000;stroke-width:0.264583;stroke-opacity:0"
       aria-label="1" />
    <path
       d="m 7.3792041,49.650259 v -0.23151 l 1.3380741,-0.564996 v 0.246669 l -1.0610886,0.43546 1.0610886,0.439594 v 0.246668 z"
       id="text7-7-4"
       style="font-size:2.82222px;line-height:0.9;font-family:Arial;-inkscape-font-specification:Arial;text-align:center;letter-spacing:0px;text-anchor:middle;stroke:#000000;stroke-width:0.264583;stroke-opacity:0"
       aria-label="&lt;" />
    <path
       d="m 23.10045,49.650259 -1.338074,0.571885 v -0.246668 l 1.059711,-0.439594 -1.059711,-0.43546 v -0.246669 l 1.338074,0.564996 z"
       id="text7-7-4-2"
       style="font-size:2.82222px;line-height:0.9;font-family:Arial;-inkscape-font-specification:Arial;text-align:center;letter-spacing:0px;text-anchor:middle;stroke:#000000;stroke-width:0.264583;stroke-opacity:0"
       aria-label="&gt;" />
    <path
       d="m 11.732722,49.816312 q 0,-0.406521 0.225999,-0.602202 0.188791,-0.162608 0.460264,-0.162608 0.30179,0 0.493337,0.198437 0.191547,0.197059 0.191547,0.545703 0,0.282497 -0.08544,0.445106 -0.08406,0.16123 -0.246668,0.250802 -0.161231,0.08957 -0.352778,0.08957 -0.307302,0 -0.497471,-0.197059 -0.188792,-0.19706 -0.188792,-0.567752 z m 0.254937,0 q 0,0.28112 0.122646,0.42168 0.122645,0.139181 0.30868,0.139181 0.184657,0 0.307302,-0.140559 0.122646,-0.14056 0.122646,-0.42857 0,-0.271473 -0.124024,-0.410655 -0.122645,-0.14056 -0.305924,-0.14056 -0.186035,0 -0.30868,0.139182 -0.122646,0.139182 -0.122646,0.420301 z m 1.406976,0.731738 v -1.463476 h 0.223242 v 0.208084 q 0.161231,-0.241156 0.465777,-0.241156 0.132291,0 0.242534,0.04823 0.111621,0.04685 0.166743,0.124023 0.05512,0.07717 0.07717,0.183279 0.01378,0.0689 0.01378,0.241157 v 0.899858 h -0.248046 v -0.890212 q 0,-0.151584 -0.02894,-0.225998 -0.02894,-0.07579 -0.103353,-0.119889 -0.07304,-0.04548 -0.172254,-0.04548 -0.158475,0 -0.27423,0.100597 -0.114377,0.100597 -0.114377,0.381716 v 0.799262 z m 1.38355,0.03445 0.585665,-2.089104 h 0.198438 L 14.978,50.582501 Z m 0.877809,-0.766189 q 0,-0.406521 0.225998,-0.602202 0.188792,-0.162608 0.460265,-0.162608 0.30179,0 0.493337,0.198437 0.191547,0.197059 0.191547,0.545703 0,0.282497 -0.08544,0.445106 -0.08406,0.16123 -0.246669,0.250802 -0.16123,0.08957 -0.352777,0.08957 -0.307302,0 -0.497472,-0.197059 -0.188791,-0.19706 -0.188791,-0.567752 z m 0.254937,0 q 0,0.28112 0.122646,0.42168 0.122645,0.139181 0.30868,0.139181 0.184657,0 0.307302,-0.140559 0.122645,-0.14056 0.122645,-0.42857 0,-0.271473 -0.124023,-0.410655 -0.122645,-0.14056 -0.305924,-0.14056 -0.186035,0 -0.30868,0.139182 -0.122646,0.139182 -0.122646,0.420301 z m 1.466232,0.731738 V 49.2775 h -0.219108 v -0.192926 h 0.219108 v -0.155718 q 0,-0.14745 0.02618,-0.219108 0.03583,-0.09646 0.125402,-0.155718 0.09095,-0.06063 0.253559,-0.06063 0.10473,0 0.23151,0.0248 l -0.03721,0.216352 q -0.07717,-0.01378 -0.146072,-0.01378 -0.112999,0 -0.159852,0.04823 -0.04685,0.04823 -0.04685,0.180523 v 0.135047 h 0.285254 V 49.2775 h -0.285254 v 1.27055 z m 0.733116,0 V 49.2775 h -0.219108 v -0.192926 h 0.219108 v -0.155718 q 0,-0.14745 0.02618,-0.219108 0.03583,-0.09646 0.125402,-0.155718 0.09095,-0.06063 0.253559,-0.06063 0.10473,0 0.23151,0.0248 l -0.03721,0.216352 q -0.07717,-0.01378 -0.146072,-0.01378 -0.112999,0 -0.159852,0.04823 -0.04685,0.04823 -0.04685,0.180523 v 0.135047 h 0.285254 V 49.2775 h -0.285254 v 1.27055 z"
       id="text7-7-4-2-8"
       style="font-size:2.82222px;line-height:0.9;font-family:Arial;-inkscape-font-specification:Arial;text-align:center;letter-spacing:0px;text-anchor:middle;stroke:#000000;stroke-width:0.264583;stroke-opacity:0"
       aria-label="on/off" />
    <path
       d="m 20.057874,65.786452 h -0.287666 v -2.525256 h 0.310058 v 0.900893 q 0.196371,-0.246325 0.501262,-0.246325 0.168811,0 0.318672,0.0689 0.151584,0.06718 0.248047,0.191203 0.09818,0.122301 0.153307,0.296279 0.05512,0.173977 0.05512,0.37207 0,0.470256 -0.232544,0.726916 -0.232544,0.25666 -0.558106,0.25666 -0.323839,0 -0.508152,-0.270441 z m -0.0034,-0.928453 q 0,0.329006 0.08957,0.475423 0.146416,0.239434 0.396186,0.239434 0.203261,0 0.3514,-0.1757 0.148139,-0.177422 0.148139,-0.5271 0,-0.35829 -0.142971,-0.528822 -0.141249,-0.170532 -0.342788,-0.170532 -0.20326,0 -0.3514,0.177422 -0.148139,0.1757 -0.148139,0.509875 z m 2.931778,0.339342 0.320394,0.03962 q -0.07579,0.280776 -0.280775,0.435805 -0.204983,0.15503 -0.523655,0.15503 -0.401354,0 -0.637343,-0.246325 -0.234267,-0.248047 -0.234267,-0.694187 0,-0.461643 0.237712,-0.71658 0.237712,-0.254938 0.616673,-0.254938 0.366903,0 0.599447,0.24977 0.232544,0.24977 0.232544,0.7028 0,0.02756 -0.0017,0.08268 h -1.364327 q 0.01722,0.301446 0.170532,0.461643 0.153307,0.160197 0.382407,0.160197 0.170532,0 0.29111,-0.08957 0.120579,-0.08957 0.191203,-0.285943 z m -1.018026,-0.501262 h 1.021471 q -0.02067,-0.230822 -0.117133,-0.346232 -0.148139,-0.179145 -0.384128,-0.179145 -0.213596,0 -0.360013,0.142971 -0.144694,0.142972 -0.160197,0.382406 z m 2.921442,0.86472 q -0.172255,0.146416 -0.332452,0.206705 -0.158474,0.06029 -0.341065,0.06029 -0.301445,0 -0.463365,-0.146417 -0.161919,-0.148139 -0.161919,-0.377238 0,-0.134359 0.06029,-0.244602 0.06201,-0.111966 0.160197,-0.179145 0.09991,-0.06718 0.223933,-0.101631 0.09129,-0.02411 0.275607,-0.04651 0.375516,-0.04479 0.552939,-0.106799 0.0017,-0.06373 0.0017,-0.08096 0,-0.189481 -0.08785,-0.266995 -0.118857,-0.105076 -0.353122,-0.105076 -0.218764,0 -0.323839,0.07752 -0.103353,0.07579 -0.153307,0.27044 l -0.30317,-0.04134 q 0.04134,-0.194648 0.136082,-0.313504 0.09474,-0.120578 0.273886,-0.184313 0.179145,-0.06546 0.415134,-0.06546 0.234266,0 0.380683,0.05512 0.146417,0.05512 0.215319,0.139526 0.0689,0.08268 0.09646,0.210151 0.0155,0.07924 0.0155,0.285943 v 0.413412 q 0,0.43236 0.01895,0.547771 0.02067,0.113688 0.07924,0.218763 h -0.323863 q -0.04823,-0.09646 -0.06201,-0.225653 z m -0.02588,-0.692465 q -0.16881,0.0689 -0.50643,0.117133 -0.191203,0.02756 -0.27044,0.06201 -0.07924,0.03445 -0.122301,0.10163 -0.04306,0.06546 -0.04306,0.146417 0,0.124023 0.09302,0.206706 0.09474,0.08268 0.275608,0.08268 0.179145,0 0.318671,-0.07752 0.139527,-0.07924 0.204984,-0.215318 0.04995,-0.105076 0.04995,-0.310059 z m 1.471057,0.640788 0.04479,0.273885 q -0.130914,0.02756 -0.234266,0.02756 -0.168811,0 -0.261828,-0.0534 -0.09302,-0.0534 -0.130914,-0.139526 -0.0379,-0.08785 -0.0379,-0.366903 V 64.19826 H 25.48735 v -0.241156 h 0.227377 v -0.453031 l 0.308336,-0.186035 v 0.639066 h 0.311781 v 0.241156 h -0.311781 v 1.069703 q 0,0.132636 0.0155,0.170533 0.01723,0.0379 0.0534,0.06029 0.0379,0.02239 0.106798,0.02239 0.05168,0 0.136082,-0.01206 z m 0.179144,-0.268718 0.306614,-0.04823 q 0.02584,0.184313 0.142972,0.282498 0.118856,0.09819 0.33073,0.09819 0.213595,0 0.316949,-0.08613 0.103352,-0.08785 0.103352,-0.204983 0,-0.105076 -0.09129,-0.165365 -0.06373,-0.04134 -0.316949,-0.105076 -0.341065,-0.08613 -0.473701,-0.148139 -0.130914,-0.06373 -0.199815,-0.173977 -0.06718,-0.111966 -0.06718,-0.246325 0,-0.122301 0.05512,-0.225654 0.05684,-0.105075 0.153308,-0.173977 0.07235,-0.0534 0.196371,-0.08957 0.125745,-0.0379 0.268718,-0.0379 0.215317,0 0.377237,0.06201 0.163642,0.06201 0.241157,0.16881 0.07751,0.105075 0.106799,0.282498 l -0.303169,0.04134 q -0.02067,-0.141249 -0.120578,-0.220486 -0.09819,-0.07924 -0.279053,-0.07924 -0.213596,0 -0.304892,0.07062 -0.09129,0.07062 -0.09129,0.165365 0,0.06029 0.0379,0.10852 0.0379,0.04995 0.118856,0.08268 0.04651,0.01722 0.273886,0.07924 0.329006,0.08785 0.458198,0.144694 0.130913,0.05512 0.204983,0.16192 0.07407,0.106798 0.07407,0.265272 0,0.15503 -0.0913,0.292833 -0.08957,0.136082 -0.260104,0.211874 -0.170533,0.07407 -0.385851,0.07407 -0.356568,0 -0.544326,-0.14814 -0.186035,-0.148139 -0.237712,-0.43925 z"
       id="text7-7-4-2-8-2"
       style="font-size:3.52778px;line-height:0.9;font-family:Arial;-inkscape-font-specification:Arial;text-align:center;letter-spacing:0px;text-anchor:middle;white-space:pre;inline-size:36.7005;stroke:#000000;stroke-width:0.264583;stroke-opacity:0"
       aria-label="beats" />
    <path
       d="m 2.7638511,65.786452 h -0.287666 v -2.525256 h 0.310058 v 0.900893 q 0.196371,-0.246325 0.501262,-0.246325 0.168811,0 0.318672,0.0689 0.151584,0.06718 0.248047,0.191203 0.09818,0.122301 0.153307,0.296279 0.05512,0.173977 0.05512,0.37207 0,0.470256 -0.232544,0.726916 -0.232544,0.25666 -0.558106,0.25666 -0.323839,0 -0.508152,-0.270441 z m -0.0034,-0.928453 q 0,0.329006 0.08957,0.475423 0.146416,0.239434 0.396186,0.239434 0.203261,0 0.3514,-0.1757 0.148139,-0.177422 0.148139,-0.5271 0,-0.35829 -0.142971,-0.528822 -0.141249,-0.170532 -0.342788,-0.170532 -0.20326,0 -0.3514,0.177422 -0.148139,0.1757 -0.148139,0.509875 z m 2.931778,0.339342 0.320394,0.03962 q -0.07579,0.280776 -0.280775,0.435805 -0.204983,0.15503 -0.523655,0.15503 -0.401354,0 -0.637343,-0.246325 -0.234267,-0.248047 -0.234267,-0.694187 0,-0.461643 0.237712,-0.71658 0.237712,-0.254938 0.616673,-0.254938 0.366903,0 0.599447,0.24977 0.232544,0.24977 0.232544,0.7028 0,0.02756 -0.0017,0.08268 h -1.364327 q 0.01722,0.301446 0.170532,0.461643 0.153307,0.160197 0.382407,0.160197 0.170532,0 0.29111,-0.08957 0.120579,-0.08957 0.191203,-0.285943 z m -1.018026,-0.501262 h 1.021471 q -0.02067,-0.230822 -0.117133,-0.346232 -0.148139,-0.179145 -0.384128,-0.179145 -0.213596,0 -0.360013,0.142971 -0.144694,0.142972 -0.160197,0.382406 z m 2.921442,0.86472 q -0.172255,0.146416 -0.332452,0.206705 -0.158474,0.06029 -0.341065,0.06029 -0.301445,0 -0.463365,-0.146417 -0.161919,-0.148139 -0.161919,-0.377238 0,-0.134359 0.06029,-0.244602 0.06201,-0.111966 0.160197,-0.179145 0.09991,-0.06718 0.223933,-0.101631 0.09129,-0.02411 0.275607,-0.04651 0.375516,-0.04479 0.552939,-0.106799 0.0017,-0.06373 0.0017,-0.08096 0,-0.189481 -0.08785,-0.266995 -0.118857,-0.105076 -0.353122,-0.105076 -0.218764,0 -0.323839,0.07752 -0.103353,0.07579 -0.153307,0.27044 l -0.30317,-0.04134 q 0.04134,-0.194648 0.136082,-0.313504 0.09474,-0.120578 0.273886,-0.184313 0.179145,-0.06546 0.415134,-0.06546 0.234266,0 0.380683,0.05512 0.146417,0.05512 0.215319,0.139526 0.0689,0.08268 0.09646,0.210151 0.0155,0.07924 0.0155,0.285943 v 0.413412 q 0,0.43236 0.01895,0.547771 0.02067,0.113688 0.07924,0.218763 h -0.323863 q -0.04823,-0.09646 -0.06201,-0.225653 z m -0.02588,-0.692465 q -0.16881,0.0689 -0.50643,0.117133 -0.191203,0.02756 -0.27044,0.06201 -0.07924,0.03445 -0.122301,0.10163 -0.04306,0.06546 -0.04306,0.146417 0,0.124023 0.09302,0.206706 0.09474,0.08268 0.275608,0.08268 0.179145,0 0.318671,-0.07752 0.139527,-0.07924 0.204984,-0.215318 0.04995,-0.105076 0.04995,-0.310059 z m 1.471057,0.640788 0.04479,0.273885 q -0.130914,0.02756 -0.234266,0.02756 -0.168811,0 -0.261828,-0.0534 -0.09302,-0.0534 -0.130914,-0.139526 -0.0379,-0.08785 -0.0379,-0.366903 V 64.19826 h -0.227377 v -0.241156 h 0.227377 v -0.453031 l 0.308336,-0.186035 v 0.639066 h 0.311781 v 0.241156 h -0.311781 v 1.069703 q 0,0.132636 0.0155,0.170533 0.01723,0.0379 0.0534,0.06029 0.0379,0.02239 0.106798,0.02239 0.05168,0 0.136082,-0.01206 z m 0.179144,-0.268718 0.306614,-0.04823 q 0.02584,0.184313 0.142972,0.282498 0.118856,0.09819 0.3307299,0.09819 0.213595,0 0.316949,-0.08613 0.103352,-0.08785 0.103352,-0.204983 0,-0.105076 -0.09129,-0.165365 -0.06373,-0.04134 -0.316949,-0.105076 -0.3410649,-0.08613 -0.4737009,-0.148139 -0.130914,-0.06373 -0.199815,-0.173977 -0.06718,-0.111966 -0.06718,-0.246325 0,-0.122301 0.05512,-0.225654 0.05684,-0.105075 0.153308,-0.173977 0.07235,-0.0534 0.196371,-0.08957 0.125745,-0.0379 0.268718,-0.0379 0.2153169,0 0.3772369,0.06201 0.163642,0.06201 0.241157,0.16881 0.07751,0.105075 0.106799,0.282498 l -0.303169,0.04134 q -0.02067,-0.141249 -0.120578,-0.220486 -0.09819,-0.07924 -0.2790529,-0.07924 -0.213596,0 -0.304892,0.07062 -0.09129,0.07062 -0.09129,0.165365 0,0.06029 0.0379,0.10852 0.0379,0.04995 0.118856,0.08268 0.04651,0.01722 0.2738859,0.07924 0.329006,0.08785 0.458198,0.144694 0.130913,0.05512 0.204983,0.16192 0.07407,0.106798 0.07407,0.265272 0,0.15503 -0.0913,0.292833 -0.08957,0.136082 -0.260104,0.211874 -0.170533,0.07407 -0.385851,0.07407 -0.3565679,0 -0.5443259,-0.14814 -0.186035,-0.148139 -0.237712,-0.43925 z"
       id="text7-7-4-2-8-2-3"
       style="font-size:3.52778px;line-height:0.9;font-family:Arial;-inkscape-font-specification:Arial;text-align:center;letter-spacing:0px;text-anchor:middle;white-space:pre;inline-size:36.7005;stroke:#000000;stroke-width:0.264583;stroke-opacity:0"
       aria-label="beats" />
    <text
       xml:space="preserve"
       style="font-style:normal;font-variant:normal;font-weight:normal;font-stretch:normal;font-size:2.11667px;line-height:0.9;font-family:Arial;-inkscape-font-specification:Arial;text-align:center;letter-spacing:0px;text-anchor:middle;fill:#000000;fill-opacity:1;stroke:#000000;stroke-width:0.264583;stroke-opacity:0"
       x="3.8656204"
       y="33.513172"
       id="text7-7-6"><tspan
         sodipodi:role="line"
         id="tspan6-8-7"
         style="font-size:2.11667px;stroke-width:0.264583"
         x="3.8656204"
         y="33.513172" /></text>
    <path
       d="m 8.6833134,31.062406 v 0.1788 H 7.6818226 q -0.00207,-0.06718 0.021704,-0.129191 0.038241,-0.102319 0.1219565,-0.201538 0.08475,-0.09922 0.2439132,-0.229444 0.2470137,-0.202572 0.3338302,-0.320394 0.086817,-0.118856 0.086817,-0.224276 0,-0.110588 -0.079582,-0.186036 -0.078548,-0.07648 -0.2056725,-0.07648 -0.1343589,0 -0.2149743,0.08061 -0.080615,0.08062 -0.081649,0.223243 L 7.7169626,30.15806 q 0.019637,-0.213941 0.1477948,-0.325562 0.1281577,-0.112655 0.3441656,-0.112655 0.2180748,0 0.345199,0.120923 0.1271243,0.120923 0.1271243,0.299724 0,0.09095 -0.037207,0.1788 -0.037207,0.08785 -0.1240236,0.185002 -0.085783,0.09715 -0.2862879,0.266651 -0.1674319,0.14056 -0.2149743,0.191203 -0.047542,0.04961 -0.078548,0.100253 z"
       id="text7-7-9"
       style="font-size:2.11667px;line-height:0.9;font-family:Arial;-inkscape-font-specification:Arial;text-align:center;letter-spacing:0px;text-anchor:middle;stroke:#000000;stroke-width:0.264583;stroke-opacity:0"
       aria-label="2" />
    <path
       d="m 10.497811,30.827795 0.186036,-0.02481 q 0.03204,0.15813 0.108521,0.22841 0.07751,0.06925 0.188102,0.06925 0.131258,0 0.221176,-0.09095 0.09095,-0.09095 0.09095,-0.225309 0,-0.128158 -0.08372,-0.210841 -0.08372,-0.08372 -0.212907,-0.08372 -0.05271,0 -0.131258,0.02067 l 0.02067,-0.163298 q 0.0186,0.0021 0.02997,0.0021 0.118856,0 0.21394,-0.06201 0.09509,-0.06201 0.09509,-0.191204 0,-0.102319 -0.06925,-0.169498 -0.06925,-0.06718 -0.178801,-0.06718 -0.108521,0 -0.180868,0.06821 -0.07235,0.06821 -0.09302,0.204639 l -0.186035,-0.03307 q 0.03411,-0.187069 0.15503,-0.289388 0.120923,-0.103353 0.300757,-0.103353 0.124023,0 0.22841,0.05374 0.104387,0.05271 0.159164,0.144694 0.05581,0.09199 0.05581,0.195338 0,0.09819 -0.05271,0.1788 -0.05271,0.08062 -0.156063,0.128158 0.134359,0.03101 0.208773,0.129191 0.07442,0.09715 0.07442,0.243913 0,0.198438 -0.144695,0.336931 -0.144694,0.13746 -0.365869,0.13746 -0.199472,0 -0.331764,-0.118856 -0.131258,-0.118856 -0.149862,-0.307992 z"
       id="text7-7-9-0"
       style="font-size:2.11667px;line-height:0.9;font-family:Arial;-inkscape-font-specification:Arial;text-align:center;letter-spacing:0px;text-anchor:middle;stroke:#000000;stroke-width:0.264583;stroke-opacity:0"
       aria-label="3" />
    <path
       d="m 13.961824,31.238107 v -0.362769 h -0.657325 v -0.170533 l 0.691431,-0.981853 h 0.151929 v 0.981853 h 0.204639 v 0.170533 h -0.204639 v 0.362769 z m 0,-0.533302 v -0.683163 l -0.47439,0.683163 z"
       id="text7-7-9-0-1"
       style="font-size:2.11667px;line-height:0.9;font-family:Arial;-inkscape-font-specification:Arial;text-align:center;letter-spacing:0px;text-anchor:middle;stroke:#000000;stroke-width:0.264583;stroke-opacity:0"
       aria-label="4" />
    <path
       d="m 16.166997,30.817977 0.195338,-0.01654 q 0.0217,0.142628 0.100252,0.214975 0.07958,0.07131 0.191203,0.07131 0.134359,0 0.227377,-0.101286 0.09302,-0.101286 0.09302,-0.268717 0,-0.159164 -0.08992,-0.251148 -0.08888,-0.09198 -0.233577,-0.09198 -0.08992,0 -0.162265,0.04134 -0.07235,0.04031 -0.113688,0.10542 l -0.174667,-0.02274 0.146762,-0.778248 h 0.753443 V 29.89813 H 16.49566 l -0.08165,0.407211 q 0.136426,-0.09509 0.286288,-0.09509 0.198438,0 0.334864,0.13746 0.136426,0.137459 0.136426,0.353467 0,0.205673 -0.11989,0.355534 -0.145728,0.183969 -0.397909,0.183969 -0.206706,0 -0.337964,-0.115756 Q 16.1856,31.00917 16.166996,30.817967 Z"
       id="text7-7-9-0-1-8"
       style="font-size:2.11667px;line-height:0.9;font-family:Arial;-inkscape-font-specification:Arial;text-align:center;letter-spacing:0px;text-anchor:middle;stroke:#000000;stroke-width:0.264583;stroke-opacity:0"
       aria-label="5" />
    <path
       d="m 21.863526,29.91157 v -0.1788 h 0.98082 v 0.144694 q -0.144694,0.153996 -0.287322,0.409278 -0.141593,0.255282 -0.219108,0.525033 -0.05581,0.19017 -0.07131,0.416513 h -0.191203 q 0.0031,-0.178801 0.07028,-0.432016 0.06718,-0.253215 0.192237,-0.487826 0.126091,-0.235645 0.267684,-0.396876 z"
       id="text7-7-9-0-1-8-2"
       style="font-size:2.11667px;line-height:0.9;font-family:Arial;-inkscape-font-specification:Arial;text-align:center;letter-spacing:0px;text-anchor:middle;stroke:#000000;stroke-width:0.264583;stroke-opacity:0"
       aria-label="7" />
    <path
       d="m 24.909683,30.406631 q -0.115755,-0.04237 -0.171566,-0.120923 -0.05581,-0.07855 -0.05581,-0.188102 0,-0.165365 0.118856,-0.27802 0.118856,-0.112655 0.31626,-0.112655 0.198438,0 0.319361,0.115756 0.120923,0.114722 0.120923,0.280087 0,0.10542 -0.05581,0.183968 -0.05478,0.07751 -0.167432,0.119889 0.139527,0.04548 0.211874,0.146762 0.07338,0.101286 0.07338,0.241846 0,0.194303 -0.13746,0.326595 -0.13746,0.132292 -0.361736,0.132292 -0.224276,0 -0.361735,-0.132292 -0.13746,-0.133325 -0.13746,-0.331763 0,-0.147795 0.07441,-0.247014 0.07545,-0.100252 0.21394,-0.136426 z m -0.03721,-0.315226 q 0,0.107487 0.06925,0.1757 0.06925,0.06821 0.179834,0.06821 0.107487,0 0.1757,-0.06718 0.06925,-0.06821 0.06925,-0.166398 0,-0.102319 -0.07131,-0.171566 -0.07028,-0.07028 -0.1757,-0.07028 -0.106454,0 -0.176734,0.06821 -0.07028,0.06821 -0.07028,0.163298 z m -0.05995,0.6997 q 0,0.07958 0.03721,0.153996 0.03824,0.07441 0.112654,0.115755 0.07441,0.04031 0.160197,0.04031 0.133326,0 0.220142,-0.08578 0.08682,-0.08578 0.08682,-0.218075 0,-0.134359 -0.08992,-0.222209 -0.08888,-0.08785 -0.223243,-0.08785 -0.131258,0 -0.218075,0.08682 -0.08578,0.08682 -0.08578,0.217042 z"
       id="text7-7-9-0-1-8-2-0"
       style="font-size:2.11667px;line-height:0.9;font-family:Arial;-inkscape-font-specification:Arial;text-align:center;letter-spacing:0px;text-anchor:middle;stroke:#000000;stroke-width:0.264583;stroke-opacity:0"
       aria-label="8" />
    <path
       d="m 19.947269,30.08417 -0.185002,0.01447 q -0.0248,-0.109554 -0.07028,-0.159163 -0.07545,-0.07958 -0.186035,-0.07958 -0.08888,0 -0.156063,0.04961 -0.08785,0.06408 -0.138493,0.187069 -0.05064,0.12299 -0.05271,0.350367 0.06718,-0.102319 0.164331,-0.151929 0.09715,-0.04961 0.203606,-0.04961 0.186035,0 0.31626,0.137459 0.131258,0.136426 0.131258,0.353468 0,0.142627 -0.06201,0.265617 -0.06098,0.121956 -0.168465,0.187069 -0.107487,0.06511 -0.243913,0.06511 -0.232545,0 -0.379306,-0.170532 -0.146761,-0.171566 -0.146761,-0.564308 0,-0.43925 0.162264,-0.638721 0.141594,-0.173634 0.381373,-0.173634 0.178801,0 0.292489,0.100253 0.114722,0.100252 0.137459,0.276986 z m -0.759644,0.653191 q 0,0.09612 0.04031,0.183968 0.04134,0.08785 0.114722,0.134359 0.07338,0.04548 0.153996,0.04548 0.117823,0 0.202572,-0.09509 0.08475,-0.09509 0.08475,-0.258383 0,-0.157096 -0.08372,-0.247013 -0.08372,-0.09095 -0.210841,-0.09095 -0.12609,0 -0.21394,0.09095 -0.08785,0.08992 -0.08785,0.236678 z"
       id="text7-7-9-0-1-8-2-4"
       style="font-size:2.11667px;line-height:0.9;font-family:Arial;-inkscape-font-specification:Arial;text-align:center;letter-spacing:0px;text-anchor:middle;stroke:#000000;stroke-width:0.264583;stroke-opacity:0"
       aria-label="6" />
    <path
       d="m 16.421936,58.009886 h -2.334397 v -0.405143 h 2.334397 z m 0,1.073148 h -2.334397 v -0.405143 h 2.334397 z"
       id="text8"
       style="font-size:4.93889px;line-height:0.9;font-family:Arial;-inkscape-font-specification:Arial;text-align:center;letter-spacing:0px;text-anchor:middle;stroke:#000000;stroke-width:0.264583;stroke-opacity:0"
       aria-label="=" />
    <path
       d="m 3.516622,96.528412 v -2.525249 h 0.3100579 v 0.906058 q 0.2170405,-0.251492 0.547769,-0.251492 0.2032602,0 0.3531215,0.08096 0.1498613,0.07924 0.2135954,0.220486 0.065457,0.141248 0.065457,0.409965 v 1.159272 H 4.6965646 V 95.36914 q 0,-0.232543 -0.1016301,-0.337618 -0.099907,-0.106798 -0.2842198,-0.106798 -0.1378035,0 -0.2601041,0.07235 -0.1205781,0.07062 -0.1722544,0.192925 -0.051676,0.1223 -0.051676,0.337618 v 1.000798 z m 1.8465671,-0.914671 q 0,-0.50815 0.2824972,-0.752751 0.2359886,-0.203261 0.5753297,-0.203261 0.3772372,0 0.6166708,0.248047 0.2394336,0.246324 0.2394336,0.682127 0,0.353122 -0.1067977,0.556382 -0.1050752,0.201538 -0.3083354,0.313503 -0.2015377,0.111965 -0.4409713,0.111965 -0.3841273,0 -0.6218383,-0.246324 -0.2359886,-0.246323 -0.2359886,-0.709688 z m 0.3186707,0 q 0,0.351399 0.1533064,0.527099 0.1533064,0.173977 0.3858498,0.173977 0.2308209,0 0.3841273,-0.1757 0.1533064,-0.175699 0.1533064,-0.535711 0,-0.339341 -0.1550289,-0.513318 -0.1533064,-0.175699 -0.3824048,-0.175699 -0.2325434,0 -0.3858498,0.173976 -0.1533064,0.173977 -0.1533064,0.525376 z m 1.7518272,0.914671 v -2.525249 h 0.3100579 v 2.525249 z m 1.9774804,0 v -0.230821 q -0.1739769,0.272162 -0.5115955,0.272162 -0.2187631,0 -0.4030753,-0.120578 -0.1825897,-0.120578 -0.2842198,-0.335896 -0.099908,-0.21704 -0.099908,-0.497815 0,-0.273885 0.091295,-0.496093 0.091295,-0.22393 0.2738845,-0.342786 0.1825897,-0.118856 0.4082429,-0.118856 0.1653642,0 0.294555,0.07062 0.1291908,0.0689 0.2101504,0.180867 V 94.003158 H 9.698832 v 2.525249 z M 8.4310399,95.615464 q 0,0.351399 0.1481388,0.525376 0.1481388,0.173977 0.3496764,0.173977 0.2032602,0 0.3445088,-0.165364 0.1429712,-0.167087 0.1429712,-0.508151 0,-0.375515 -0.1446937,-0.551214 -0.1446937,-0.175699 -0.3565666,-0.175699 -0.2067053,0 -0.3462314,0.168809 -0.1378035,0.168809 -0.1378035,0.532266 z"
       id="text9"
       style="font-size:3.52777px;line-height:0.9;font-family:Arial;-inkscape-font-specification:Arial;text-align:center;letter-spacing:0px;text-anchor:middle;stroke:#000000;stroke-width:0.264583;stroke-opacity:0"
       aria-label="hold" />
    <rect
       style="fill:#000000;fill-opacity:1;stroke:#000000;stroke-width:0.0855715;stroke-opacity:1"
       id="rect8-8-5-9"
       width="0.01442842"
       height="6.0184374"
       x="14.106975"
       y="108.79951" />
    <rect
       style="fill:#000000;fill-opacity:1;stroke:#000000;stroke-width:0.0902804;stroke-opacity:1"
       id="rect8-8-5-9-9"
       width="0.0097195078"
       height="9.9445906"
       x="3.420866"
       y="69.836113" />
    <rect
       style="fill:#000000;fill-opacity:1;stroke:#000000;stroke-width:0.0861004;stroke-opacity:1"
       id="rect8-8-5-9-9-3"
       width="0.013899595"
       height="6.3248696"
       x="6.550777"
       y="69.834023" />
    <rect
       style="fill:#000000;fill-opacity:1;stroke:#000000;stroke-width:0.0843756;stroke-opacity:1"
       id="rect8-8-5-9-9-3-1"
       width="0.030304052"
       height="2.7859702"
       x="9.7059412"
       y="69.825821" />
    <rect
       style="fill:#000000;fill-opacity:1;stroke:#000000;stroke-width:0.070033;stroke-opacity:1"
       id="rect8-6-3-7"
       width="2.5942879"
       height="0.022419842"
       x="11.508855"
       y="114.82178" />
    <rect
       style="fill:#000000;fill-opacity:1;stroke:#000000;stroke-width:0.0675007;stroke-opacity:1"
       id="rect8-6-3-7-7"
       width="1.6628578"
       height="0.032494191"
       x="9.7048435"
       y="72.611794" />
    <rect
       style="fill:#000000;fill-opacity:1;stroke:#000000;stroke-width:0.0830091;stroke-opacity:1"
       id="rect8-6-3-7-7-3"
       width="4.8107157"
       height="0.0169858"
       x="6.5492311"
       y="76.243446" />
    <rect
       style="fill:#000000;fill-opacity:1;stroke:#000000;stroke-width:0.0883363;stroke-opacity:1"
       id="rect8-6-3-7-7-3-8"
       width="7.9373899"
       height="0.011658573"
       x="3.419894"
       y="79.87001" />
    <path
       d="m 21.25665,115.52005 0.304891,0.0396 q -0.04995,0.31522 -0.256659,0.49437 -0.204983,0.17742 -0.504706,0.17742 -0.375514,0 -0.604613,-0.2446 -0.227375,-0.24633 -0.227375,-0.70452 0,-0.29628 0.09818,-0.51849 0.09819,-0.22221 0.298,-0.33245 0.201537,-0.11197 0.437526,-0.11197 0.298,0 0.48748,0.15159 0.18948,0.14986 0.242878,0.42719 l -0.301445,0.0465 q -0.04306,-0.18431 -0.153306,-0.27733 -0.10852,-0.093 -0.263549,-0.093 -0.234266,0 -0.380683,0.16881 -0.146416,0.16709 -0.146416,0.53054 0,0.36863 0.141249,0.53571 0.141248,0.16709 0.368624,0.16709 0.18259,0 0.304891,-0.11196 0.1223,-0.11197 0.155028,-0.34451 z m 0.563272,0.67007 v -2.52525 h 0.310058 v 2.52525 z m 0.675238,-0.91467 q 0,-0.50815 0.282497,-0.75276 0.235988,-0.20326 0.575329,-0.20326 0.377238,0 0.616671,0.24805 0.239434,0.24632 0.239434,0.68213 0,0.35312 -0.106798,0.55638 -0.105075,0.20154 -0.308335,0.3135 -0.201538,0.11197 -0.440972,0.11197 -0.384127,0 -0.621838,-0.24633 -0.235988,-0.24632 -0.235988,-0.70968 z m 0.31867,0 q 0,0.3514 0.153307,0.52709 0.153306,0.17398 0.385849,0.17398 0.230821,0 0.384128,-0.1757 0.153306,-0.1757 0.153306,-0.53571 0,-0.33934 -0.155029,-0.51332 -0.153306,-0.1757 -0.382405,-0.1757 -0.232543,0 -0.385849,0.17398 -0.153307,0.17398 -0.153307,0.52538 z m 2.952441,0.2446 0.30489,0.0396 q -0.04995,0.31522 -0.256659,0.49437 -0.204983,0.17742 -0.504705,0.17742 -0.375515,0 -0.604613,-0.2446 -0.227376,-0.24633 -0.227376,-0.70452 0,-0.29628 0.09819,-0.51849 0.09819,-0.22221 0.298,-0.33245 0.201538,-0.11197 0.437526,-0.11197 0.298,0 0.48748,0.15159 0.18948,0.14986 0.242879,0.42719 l -0.301446,0.0465 q -0.04306,-0.18431 -0.153306,-0.27733 -0.10852,-0.093 -0.263549,-0.093 -0.234266,0 -0.380682,0.16881 -0.146417,0.16709 -0.146417,0.53054 0,0.36863 0.141249,0.53571 0.141249,0.16709 0.368624,0.16709 0.18259,0 0.304891,-0.11196 0.1223,-0.11197 0.155029,-0.34451 z m 0.571884,0.67007 v -2.52525 h 0.310058 v 1.44004 l 0.733804,-0.74413 h 0.401353 l -0.699353,0.67868 0.769977,1.15066 h -0.382405 l -0.604613,-0.93534 -0.218763,0.21015 v 0.72519 z"
       id="text1"
       style="font-size:3.52777px;line-height:0.9;font-family:Arial;-inkscape-font-specification:Arial;text-align:center;letter-spacing:0px;text-anchor:middle;stroke:#000000;stroke-width:0.264583;stroke-opacity:0"
       aria-label="clock" />
    <path
       d="m 21.059413,96.499985 v -1.829342 h 0.279052 v 0.27733 q 0.106798,-0.194648 0.19637,-0.256659 0.09129,-0.06201 0.199815,-0.06201 0.156752,0 0.318671,0.09991 l -0.106798,0.287664 q -0.113688,-0.06718 -0.227376,-0.06718 -0.10163,0 -0.182589,0.06201 -0.08096,0.06029 -0.115411,0.168809 -0.05168,0.165364 -0.05168,0.361734 v 0.957735 z m 2.371943,-0.225654 q -0.172254,0.146417 -0.332451,0.206706 -0.158474,0.06029 -0.341064,0.06029 -0.301445,0 -0.463364,-0.146416 -0.161919,-0.148139 -0.161919,-0.377238 0,-0.134358 0.06029,-0.244601 0.06201,-0.111965 0.160196,-0.179144 0.09991,-0.06718 0.223931,-0.10163 0.09129,-0.02412 0.275607,-0.04651 0.375515,-0.04479 0.552937,-0.106798 0.0017,-0.06373 0.0017,-0.08096 0,-0.18948 -0.08785,-0.266995 -0.118856,-0.105075 -0.353122,-0.105075 -0.218763,0 -0.323838,0.07752 -0.103353,0.07579 -0.153307,0.270439 l -0.303167,-0.04134 q 0.04134,-0.194648 0.136081,-0.313503 0.09474,-0.120578 0.273884,-0.184312 0.179145,-0.06546 0.415133,-0.06546 0.234266,0 0.380682,0.05512 0.146417,0.05512 0.215318,0.139526 0.0689,0.08268 0.09646,0.210151 0.0155,0.07924 0.0155,0.285942 v 0.413411 q 0,0.432358 0.01895,0.547769 0.02067,0.113688 0.07924,0.218763 h -0.323838 q -0.04823,-0.09646 -0.06201,-0.225654 z m -0.02584,-0.692462 q -0.16881,0.0689 -0.506428,0.117133 -0.191203,0.02756 -0.27044,0.06201 -0.07924,0.03445 -0.1223,0.10163 -0.04306,0.06546 -0.04306,0.146417 0,0.124023 0.09302,0.206705 0.09474,0.08268 0.275607,0.08268 0.179144,0 0.31867,-0.07751 0.139526,-0.07924 0.204983,-0.215318 0.04995,-0.105076 0.04995,-0.310058 z m 1.471052,0.640786 0.04479,0.273885 q -0.130913,0.02756 -0.234265,0.02756 -0.16881,0 -0.261827,-0.0534 -0.09302,-0.0534 -0.130914,-0.139526 -0.0379,-0.08785 -0.0379,-0.366901 v -1.052475 h -0.227376 v -0.241156 h 0.227376 v -0.453029 l 0.308335,-0.186035 v 0.639064 h 0.31178 v 0.241156 h -0.31178 v 1.0697 q 0,0.132636 0.0155,0.170532 0.01722,0.0379 0.0534,0.06029 0.0379,0.02239 0.106797,0.02239 0.05168,0 0.136081,-0.01206 z m 1.555457,-0.31178 0.320394,0.03962 q -0.07579,0.280775 -0.280775,0.435804 -0.204983,0.155029 -0.523653,0.155029 -0.401353,0 -0.637342,-0.246324 -0.234266,-0.248046 -0.234266,-0.694185 0,-0.461642 0.237711,-0.716578 0.237711,-0.254937 0.616671,-0.254937 0.366902,0 0.599445,0.249769 0.232544,0.249769 0.232544,0.702798 0,0.02756 -0.0017,0.08268 h -1.364255 q 0.01723,0.301445 0.170532,0.461642 0.153307,0.160196 0.382405,0.160196 0.170532,0 0.29111,-0.08957 0.120578,-0.08957 0.191202,-0.285942 z m -1.018023,-0.501261 h 1.021468 q -0.02067,-0.23082 -0.117133,-0.346231 -0.148138,-0.179144 -0.384127,-0.179144 -0.213595,0 -0.360012,0.142971 -0.144693,0.142971 -0.160196,0.382404 z"
       id="text1-2"
       style="font-size:3.52777px;line-height:0.9;font-family:Arial;-inkscape-font-specification:Arial;text-align:center;letter-spacing:0px;text-anchor:middle;stroke:#000000;stroke-width:0.264583;stroke-opacity:0"
       aria-label="rate" />
    <path
       d="m 3.0480899,25.509127 v -2.52525 h 0.9473992 q 0.2893874,0 0.4633643,0.07752 0.1756995,0.07579 0.2738845,0.235988 0.099908,0.158474 0.099908,0.332451 0,0.161919 -0.08785,0.30489 -0.08785,0.142972 -0.2652718,0.230821 0.2290984,0.06718 0.351399,0.229099 0.1240232,0.161919 0.1240232,0.382404 0,0.177423 -0.075792,0.330729 -0.074069,0.151584 -0.1843122,0.234266 -0.1102428,0.08268 -0.2773295,0.125746 -0.1653643,0.04134 -0.4065204,0.04134 z m 0.3341735,-1.464163 h 0.5460465 q 0.2222081,0 0.3186706,-0.02928 0.1274683,-0.0379 0.1912024,-0.125746 0.065457,-0.08785 0.065457,-0.220485 0,-0.125746 -0.060289,-0.220486 -0.060289,-0.09646 -0.1722544,-0.130913 -0.1119653,-0.03617 -0.3841273,-0.03617 H 3.3822634 Z m 0,1.166163 H 4.010992 q 0.1619191,0 0.2273758,-0.01206 0.1154104,-0.02067 0.1929249,-0.0689 0.077514,-0.04823 0.1274683,-0.139526 0.049954,-0.09302 0.049954,-0.213596 0,-0.141248 -0.072347,-0.244601 Q 4.464021,24.427369 4.3348302,24.386028 4.207362,24.342964 3.9662058,24.342964 H 3.3822634 Z m 2.032602,0.298 v -2.52525 h 0.9525668 q 0.2514914,0 0.3841273,0.02412 0.1860348,0.03101 0.3117805,0.118855 0.1257457,0.08613 0.2015376,0.242879 0.077514,0.156752 0.077514,0.344509 0,0.322116 -0.2049827,0.546046 Q 6.9324266,24.48249 6.3967155,24.48249 H 5.7490389 v 1.026637 z M 5.7490389,24.18449 h 0.6528442 q 0.3238383,0 0.4599192,-0.120578 0.136081,-0.120578 0.136081,-0.339341 0,-0.158474 -0.08096,-0.270439 -0.079237,-0.113688 -0.2101503,-0.149862 -0.084405,-0.02239 -0.3117805,-0.02239 h -0.645954 z m 2.0084864,1.324637 v -2.52525 h 0.5029828 l 0.5977228,1.788001 q 0.082682,0.249769 0.1205781,0.373792 0.043064,-0.137804 0.1343584,-0.404798 l 0.6046129,-1.756995 h 0.4495837 v 2.52525 H 9.8452486 V 23.395565 L 9.1114449,25.509127 H 8.8099997 L 8.079641,23.359392 v 2.149735 z"
       id="text1-2-0"
       style="font-size:3.52777px;line-height:0.9;font-family:Arial;-inkscape-font-specification:Arial;text-align:center;letter-spacing:0px;text-anchor:middle;stroke:#000000;stroke-width:0.264583;stroke-opacity:0"
       aria-label="BPM" />
    <path
       d="m 12.879915,80.555511 h -0.230132 v -2.020202 h 0.248047 v 0.720713 q 0.157096,-0.197059 0.401008,-0.197059 0.135048,0 0.254937,0.05512 0.121267,0.05374 0.198438,0.152963 0.07855,0.09784 0.122645,0.237022 0.0441,0.139182 0.0441,0.297656 0,0.376204 -0.186035,0.581532 -0.186035,0.205327 -0.446484,0.205327 -0.259071,0 -0.406521,-0.216352 z m -0.0028,-0.742762 q 0,0.263205 0.07166,0.380339 0.117133,0.191547 0.316949,0.191547 0.162608,0 0.281119,-0.14056 0.118511,-0.141938 0.118511,-0.421679 0,-0.286632 -0.114377,-0.423058 -0.112999,-0.136426 -0.274229,-0.136426 -0.162608,0 -0.28112,0.141938 -0.118511,0.14056 -0.118511,0.407899 z m 1.343586,1.303623 v -2.024336 h 0.225998 v 0.190169 q 0.07993,-0.111621 0.180523,-0.166743 0.100597,-0.0565 0.243913,-0.0565 0.187413,0 0.330729,0.09646 0.143316,0.09646 0.216352,0.272851 0.07304,0.175011 0.07304,0.384472 0,0.22462 -0.0813,0.405143 -0.07993,0.179145 -0.234267,0.275608 -0.152962,0.09508 -0.32246,0.09508 -0.124024,0 -0.223242,-0.05237 -0.09784,-0.05237 -0.161231,-0.132292 v 0.712445 z m 0.22462,-1.28433 q 0,0.282497 0.114377,0.417545 0.114378,0.135048 0.276986,0.135048 0.165364,0 0.282498,-0.139182 0.118511,-0.14056 0.118511,-0.434082 0,-0.279741 -0.115755,-0.418923 -0.114377,-0.139182 -0.27423,-0.139182 -0.158474,0 -0.281119,0.148828 -0.121268,0.14745 -0.121268,0.429948 z m 1.344965,0.723469 v -1.463475 h 0.221864 v 0.205327 q 0.0689,-0.107486 0.183279,-0.172254 0.114377,-0.06615 0.260449,-0.06615 0.162608,0 0.265961,0.06752 0.104731,0.06752 0.14745,0.188791 0.173632,-0.256315 0.451996,-0.256315 0.21773,0 0.334863,0.121267 0.117133,0.119889 0.117133,0.370692 v 1.004589 h -0.246625 v -0.921907 q 0,-0.148828 -0.02481,-0.213595 -0.02343,-0.06615 -0.08682,-0.106109 -0.06339,-0.03996 -0.148828,-0.03996 -0.15434,0 -0.256314,0.103353 -0.101975,0.101974 -0.101975,0.327972 v 0.850249 h -0.248047 v -0.950845 q 0,-0.165365 -0.06063,-0.248047 -0.06063,-0.08268 -0.198437,-0.08268 -0.104731,0 -0.194303,0.05512 -0.08819,0.05512 -0.128158,0.161231 -0.03996,0.106108 -0.03996,0.305924 v 0.759298 z"
       id="text2"
       style="font-size:2.82222px;line-height:0.9;font-family:Arial;-inkscape-font-specification:Arial;text-align:center;letter-spacing:0px;text-anchor:middle;stroke:#000000;stroke-width:0.264583;stroke-opacity:0"
       aria-label="bpm" />
    <rect
       style="display:inline;fill:#ff63e9;fill-opacity:1;stroke-width:0.306973"
       id="rect4-6"
       width="10.776912"
       height="13.545129"
       x="18.513292"
       y="13.023956"
       ry="1.4792725" />
    <path
       d="m 20.275793,25.488457 v -2.52525 h 0.9474 q 0.289387,0 0.463364,0.07751 0.175699,0.07579 0.273884,0.235988 0.09991,0.158474 0.09991,0.332451 0,0.161919 -0.08785,0.304891 -0.08785,0.142971 -0.265271,0.23082 0.229098,0.06718 0.351398,0.229099 0.124024,0.161919 0.124024,0.382405 0,0.177422 -0.07579,0.330728 -0.07407,0.151584 -0.184312,0.234266 -0.110243,0.08268 -0.27733,0.125746 -0.165364,0.04134 -0.40652,0.04134 z m 0.334174,-1.464163 h 0.546046 q 0.222209,0 0.318671,-0.02928 0.127468,-0.0379 0.191202,-0.125746 0.06546,-0.08785 0.06546,-0.220485 0,-0.125746 -0.06029,-0.220486 -0.06029,-0.09646 -0.172254,-0.130913 -0.111966,-0.03617 -0.384128,-0.03617 h -0.504705 z m 0,1.166163 h 0.628729 q 0.161919,0 0.227375,-0.01206 0.115411,-0.02067 0.192925,-0.0689 0.07752,-0.04823 0.127469,-0.139526 0.04995,-0.09302 0.04995,-0.213595 0,-0.141249 -0.07235,-0.244602 -0.07235,-0.105075 -0.201537,-0.146416 -0.127468,-0.04306 -0.368625,-0.04306 h -0.583942 z m 2.032602,0.298 v -2.52525 h 0.952567 q 0.251491,0 0.384127,0.02412 0.186035,0.03101 0.311781,0.118855 0.125745,0.08613 0.201537,0.242879 0.07751,0.156752 0.07751,0.344509 0,0.322116 -0.204983,0.546046 -0.204983,0.222209 -0.740694,0.222209 h -0.647676 v 1.026636 z m 0.334174,-1.324637 h 0.652844 q 0.323838,0 0.459919,-0.120578 0.136081,-0.120578 0.136081,-0.339341 0,-0.158474 -0.08096,-0.270439 -0.07924,-0.113688 -0.21015,-0.149862 -0.08441,-0.02239 -0.311781,-0.02239 h -0.645953 z m 2.008486,1.324637 v -2.52525 h 0.502983 l 0.597722,1.788001 q 0.08268,0.249769 0.120579,0.373792 0.04306,-0.137804 0.134358,-0.404798 l 0.604613,-1.756995 h 0.449584 v 2.52525 h -0.322116 v -2.113562 l -0.733804,2.113562 h -0.301445 l -0.730358,-2.149735 v 2.149735 z"
       id="text1-8"
       style="font-size:3.52777px;line-height:0.9;font-family:Arial;-inkscape-font-specification:Arial;text-align:center;letter-spacing:0px;text-anchor:middle;stroke:#000000;stroke-width:0.264583;stroke-opacity:0"
       aria-label="BPM" />
    <path
       d="m 14.542495,76.314257 v -0.231511 l 1.338074,-0.564995 v 0.246669 l -1.061088,0.43546 1.061088,0.439593 v 0.246669 z"
       id="text3"
       style="font-size:2.82222px;line-height:0.9;font-family:Arial;-inkscape-font-specification:Arial;text-align:center;letter-spacing:0px;text-anchor:middle;stroke:#000000;stroke-width:0.264583;stroke-opacity:0"
       aria-label="&lt;" />
    <path
       d="m 13.718429,72.690355 v -0.23151 l 1.338074,-0.564995 v 0.246668 l -1.061089,0.43546 1.061089,0.439594 v 0.246669 z m 1.648132,0 v -0.23151 l 1.338074,-0.564995 v 0.246668 l -1.061088,0.43546 1.061088,0.439594 v 0.246669 z"
       id="text3-9"
       style="font-size:2.82222px;line-height:0.9;font-family:Arial;-inkscape-font-specification:Arial;text-align:center;letter-spacing:0px;text-anchor:middle;stroke:#000000;stroke-width:0.264583;stroke-opacity:0"
       aria-label="&lt;&lt;" />
  </g>
  <g
     inkscape:groupmode="layer"
     id="layer2"
     inkscape:label="components"
     style="display:none">
    <circle
       style="display:inline;fill:#ff0000;fill-opacity:1;stroke-width:0.0407347"
       id="path2-6-8-6-2-2"
       cx="8.1824837"
       cy="43.8325"
       inkscape:label="moveLeft"
       r="0.5" />
    <circle
       style="display:inline;fill:#0000ff;fill-opacity:1;stroke-width:0.256914"
       id="path2-6-1"
       cx="23.911085"
       cy="108.25539"
       r="3.1535001"
       inkscape:label="clock" />
    <circle
       style="display:inline;fill:#0000ff;fill-opacity:1;stroke-width:0.256914"
       id="path2-6-1-5"
       cx="23.901743"
       cy="17.553726"
       r="3.1535001"
       inkscape:label="bpm" />
    <circle
       style="display:inline;fill:#ff0000;fill-opacity:1;stroke-width:0.0407347"
       id="path2-6-8-6-2-2-27"
       cx="15.24"
       cy="43.8325"
       inkscape:label="active"
       r="0.5" />
    <circle
       style="display:inline;fill:#ff0000;fill-opacity:1;stroke-width:0.0407347"
       id="path2-6-8-6-2-2-27-2"
       cx="14.141931"
       cy="108.25539"
       inkscape:label="reset"
       r="0.5" />
    <circle
       style="display:inline;fill:#ff0000;fill-opacity:1;stroke-width:0.0407347"
       id="path2-6-8-6-2-2-27-0-4"
       cx="23.901751"
       cy="76.20195"
       inkscape:label="dep"
       r="0.5" />
    <circle
       style="display:inline;fill:#ff0000;fill-opacity:1;stroke-width:0.0407347"
       id="path2-6-8-6-2-2-2"
       cx="22.297516"
       cy="43.8325"
       inkscape:label="moveRight"
       r="0.5" />
    <circle
       style="display:inline;fill:#ff0000;fill-opacity:1;stroke-width:0.256914"
       id="path2-6-8-1"
       cx="6.6077271"
       cy="17.553726"
       r="3.1535001"
       inkscape:label="master" />
    <circle
       style="display:inline;fill:#ff0000;fill-opacity:1;stroke-width:0.256914"
       id="path2-6-8-1-2"
       cx="6.6077271"
       cy="58.343887"
       r="3.1535001"
       inkscape:label="depbeats" />
    <circle
       style="display:inline;fill:#ff0000;fill-opacity:1;stroke-width:0.256914"
       id="path2-6-8-1-2-3"
       cx="6.6077271"
       cy="88.762779"
       r="3.1535001"
       inkscape:label="hold" />
    <circle
       style="display:inline;fill:#ff0000;fill-opacity:1;stroke-width:0.256914"
       id="path2-6-8-1-2-3-9"
       cx="23.911085"
       cy="88.762779"
       r="3.1535001"
       inkscape:label="rate" />
    <circle
       style="display:inline;fill:#ff0000;fill-opacity:1;stroke-width:0.256914"
       id="path2-6-8-1-2-9"
       cx="23.901749"
       cy="58.343887"
       r="3.1535001"
       inkscape:label="newbeats" />
    <circle
       style="display:inline;fill:#ff00ff;fill-opacity:1;stroke-width:0.0407348"
       id="path2-6-8-3-0-1-5"
       cx="5.3594775"
       cy="32.864506"
       inkscape:label="seq1"
       r="0.5" />
    <circle
       style="display:inline;fill:#ff00ff;fill-opacity:1;stroke-width:0.0407348"
       id="path2-6-8-3-0-1-5-5"
       cx="8.1824837"
       cy="32.864506"
       inkscape:label="seq2"
       r="0.5" />
    <circle
       style="display:inline;fill:#ff00ff;fill-opacity:1;stroke-width:0.0407348"
       id="path2-6-8-3-0-1-5-5-2"
       cx="11.005491"
       cy="32.864506"
       inkscape:label="seq3"
       r="0.5" />
    <circle
       style="display:inline;fill:#ff00ff;fill-opacity:1;stroke-width:0.0407348"
       id="path2-6-8-3-0-1-5-5-2-6"
       cx="13.828499"
       cy="32.864506"
       inkscape:label="seq4"
       r="0.5" />
    <circle
       style="display:inline;fill:#ff00ff;fill-opacity:1;stroke-width:0.0407348"
       id="path2-6-8-3-0-1-5-5-2-6-0"
       cx="16.651505"
       cy="32.864506"
       inkscape:label="seq5"
       r="0.5" />
    <circle
       style="display:inline;fill:#ff00ff;fill-opacity:1;stroke-width:0.0407348"
       id="path2-6-8-3-0-1-5-5-2-6-0-8"
       cx="19.47451"
       cy="32.864506"
       inkscape:label="seq6"
       r="0.5" />
    <circle
       style="display:inline;fill:#ff00ff;fill-opacity:1;stroke-width:0.0407348"
       id="path2-6-8-3-0-1-5-5-2-6-0-8-2"
       cx="22.297516"
       cy="32.864506"
       inkscape:label="seq7"
       r="0.5" />
    <circle
       style="display:inline;fill:#ff00ff;fill-opacity:1;stroke-width:0.0407348"
       id="path2-6-8-3-0-1-5-5-2-6-0-8-2-4"
       cx="25.120522"
       cy="32.864506"
       inkscape:label="seq8"
       r="0.5" />
    <circle
       style="display:inline;fill:#ff00ff;fill-opacity:1;stroke-width:0.0407348"
       id="path2-6-8-3-0-1-5-4"
       cx="5.3594775"
       cy="35.732964"
       inkscape:label="pos1"
       r="0.5" />
    <circle
       style="display:inline;fill:#ff00ff;fill-opacity:1;stroke-width:0.0407348"
       id="path2-6-8-3-0-1-5-5-7"
       cx="8.1824837"
       cy="35.732964"
       inkscape:label="pos2"
       r="0.5" />
    <circle
       style="display:inline;fill:#ff00ff;fill-opacity:1;stroke-width:0.0407348"
       id="path2-6-8-3-0-1-5-5-2-2"
       cx="11.005491"
       cy="35.732964"
       inkscape:label="pos3"
       r="0.5" />
    <circle
       style="display:inline;fill:#ff00ff;fill-opacity:1;stroke-width:0.0407348"
       id="path2-6-8-3-0-1-5-5-2-6-7"
       cx="13.828498"
       cy="35.732964"
       inkscape:label="pos4"
       r="0.5" />
    <circle
       style="display:inline;fill:#ff00ff;fill-opacity:1;stroke-width:0.0407348"
       id="path2-6-8-3-0-1-5-5-2-6-7-8"
       cx="15.239999"
       cy="39.142136"
       inkscape:label="active"
       r="0.5" />
    <circle
       style="display:inline;fill:#ff00ff;fill-opacity:1;stroke-width:0.0407348"
       id="path2-6-8-3-0-1-5-5-2-6-0-3"
       cx="16.651505"
       cy="35.732964"
       inkscape:label="pos5"
       r="0.5" />
    <circle
       style="display:inline;fill:#ff00ff;fill-opacity:1;stroke-width:0.0407348"
       id="path2-6-8-3-0-1-5-5-2-6-0-8-4"
       cx="19.47451"
       cy="35.732964"
       inkscape:label="pos6"
       r="0.5" />
    <circle
       style="display:inline;fill:#ff00ff;fill-opacity:1;stroke-width:0.0407348"
       id="path2-6-8-3-0-1-5-5-2-6-0-8-4-6"
       cx="3.4757259"
       cy="68.500587"
       inkscape:label="depmaster"
       r="0.5" />
    <circle
       style="display:inline;fill:#ff00ff;fill-opacity:1;stroke-width:0.0407348"
       id="path2-6-8-3-0-1-5-5-2-6-0-8-4-6-7"
       cx="6.6077271"
       cy="68.500587"
       inkscape:label="depprev"
       r="0.5" />
    <circle
       style="display:inline;fill:#ff00ff;fill-opacity:1;stroke-width:0.0407348"
       id="path2-6-8-3-0-1-5-5-2-6-0-8-4-6-7-8"
       cx="9.739728"
       cy="68.550591"
       inkscape:label="dep2prev"
       r="0.5" />
    <circle
       style="display:inline;fill:#ff00ff;fill-opacity:1;stroke-width:0.0407348"
       id="path2-6-8-3-0-1-5-5-2-6-0-8-2-0"
       cx="22.297516"
       cy="35.732964"
       inkscape:label="pos7"
       r="0.5" />
    <circle
       style="display:inline;fill:#ff00ff;fill-opacity:1;stroke-width:0.0407348"
       id="path2-6-8-3-0-1-5-5-2-6-0-8-2-4-2"
       cx="25.120522"
       cy="35.732964"
       inkscape:label="pos8"
       r="0.5" />
    <circle
       style="display:inline;fill:#00ff00;fill-opacity:1;stroke-width:0.256914"
       id="path2-6-3-1"
       cx="6.6077271"
       cy="108.25539"
       r="3.1535001"
       inkscape:label="reset" />
  </g>
</svg>
