<?xml version="1.0" encoding="UTF-8" standalone="no"?>
<!-- Created with Inkscape (http://www.inkscape.org/) -->

<svg
   width="15.24mm"
   height="128.5mm"
   viewBox="0 0 15.24 128.5"
   version="1.1"
   id="svg1"
   inkscape:version="1.3 (0e150ed6c4, 2023-07-21)"
   sodipodi:docname="WaitGate_Reset.svg"
   xmlns:inkscape="http://www.inkscape.org/namespaces/inkscape"
   xmlns:sodipodi="http://sodipodi.sourceforge.net/DTD/sodipodi-0.dtd"
   xmlns="http://www.w3.org/2000/svg"
   xmlns:svg="http://www.w3.org/2000/svg">
  <sodipodi:namedview
     id="namedview1"
     pagecolor="#505050"
     bordercolor="#ffffff"
     borderopacity="1"
     inkscape:showpageshadow="0"
     inkscape:pageopacity="0"
     inkscape:pagecheckerboard="1"
     inkscape:deskcolor="#505050"
     inkscape:document-units="mm"
     showgrid="false"
     inkscape:zoom="3.1760324"
     inkscape:cx="49.747604"
     inkscape:cy="117.2847"
     inkscape:window-width="1920"
     inkscape:window-height="991"
     inkscape:window-x="-9"
     inkscape:window-y="-9"
     inkscape:window-maximized="1"
     inkscape:current-layer="layer2">
    <inkscape:grid
       id="grid1"
       units="mm"
       originx="0"
       originy="0"
       spacingx="1"
       spacingy="1"
       empcolor="#0099e5"
       empopacity="0.30196078"
       color="#0099e5"
       opacity="0.14901961"
       empspacing="5"
       dotted="false"
       gridanglex="30"
       gridanglez="30"
       visible="false" />
  </sodipodi:namedview>
  <defs
     id="defs1">
    <rect
       x="16.881259"
       y="442.32944"
       width="32.284559"
       height="22.984786"
       id="rect5" />
    <rect
       x="16.88126"
       y="442.32944"
       width="60.439163"
       height="14.624552"
       id="rect5-6" />
    <rect
       x="16.88126"
       y="442.32944"
       width="60.439163"
       height="14.624552"
       id="rect5-6-3" />
  </defs>
  <g
     inkscape:label="Layer 1"
     inkscape:groupmode="layer"
     id="layer1">
    <rect
       style="fill:#7add55;fill-opacity:1;stroke-width:0.264583"
       id="rect1"
       width="15.235825"
       height="128.49814"
       x="0.0041754646"
       y="0.001861594"
       ry="0"
       rx="0" />
    <rect
       style="fill:#000000;fill-opacity:1;stroke-width:0.112632"
       id="rect2"
       width="13.619499"
       height="0.66399997"
       x="0.81025028"
       y="87.563637"
       ry="0.27390954" />
    <rect
       style="fill:#000000;fill-opacity:1;stroke-width:0.112632"
       id="rect2-8"
       width="13.619499"
       height="0.66399997"
       x="0.81025028"
       y="116.732"
       ry="0.27390954" />
    <rect
       style="fill:#000000;fill-opacity:1;stroke-width:0.112632"
       id="rect2-2"
       width="13.619499"
       height="0.66399997"
       x="0.81025028"
       y="84.813484"
       ry="0.27390954" />
    <rect
       style="fill:#ff63e9;fill-opacity:1;stroke-width:0.302914"
       id="rect4"
       width="10.776912"
       height="13.189312"
       x="2.231544"
       y="101.559"
       ry="1.4404136" />
    <path
       style="font-size:3.52777px;line-height:0.9;font-family:Arial;-inkscape-font-specification:Arial;text-align:center;text-anchor:middle;stroke-width:0.264583"
       d="m 3.6637112,54.592416 v -2.530417 h 0.2824972 v 0.237711 q 0.099908,-0.139526 0.2256533,-0.208428 0.1257457,-0.07062 0.3048903,-0.07062 0.234266,0 0.4134105,0.120578 0.1791446,0.120578 0.2704394,0.341063 0.091295,0.218763 0.091295,0.48059 0,0.280775 -0.1016301,0.506428 -0.099908,0.223931 -0.2928325,0.344509 -0.1912024,0.118855 -0.4030753,0.118855 -0.155029,0 -0.2790521,-0.06546 -0.1223006,-0.06546 -0.2015377,-0.165364 v 0.890555 z m 0.2807747,-1.605411 q 0,0.353121 0.1429711,0.521931 0.1429712,0.168809 0.3462314,0.168809 0.2067053,0 0.3531215,-0.173977 0.1481388,-0.1757 0.1481388,-0.542601 0,-0.349677 -0.1446937,-0.523654 -0.1429712,-0.173977 -0.3427863,-0.173977 -0.1980925,0 -0.3513989,0.186035 -0.1515839,0.184312 -0.1515839,0.537434 z m 2.8800935,0.904335 v -0.268717 q -0.2135954,0.310058 -0.5804973,0.310058 -0.1619191,0 -0.3031677,-0.06201 -0.1395261,-0.06201 -0.2084278,-0.155029 -0.067179,-0.09474 -0.09474,-0.230821 -0.018948,-0.09129 -0.018948,-0.289387 V 52.062 h 0.310058 v 1.014578 q 0,0.242879 0.018948,0.327283 0.029283,0.122301 0.1240232,0.192925 0.09474,0.0689 0.234266,0.0689 0.1395261,0 0.2618267,-0.07062 0.1223006,-0.07235 0.1722544,-0.194648 0.051676,-0.124023 0.051676,-0.358289 v -0.98013 H 7.101909 v 1.829341 z m 0.7561969,0 v -2.525249 h 0.3100579 v 2.525249 z m 0.6666244,-0.546046 0.3066128,-0.04823 q 0.025838,0.184312 0.1429712,0.282497 0.1188555,0.09818 0.3307284,0.09818 0.2135955,0 0.3169481,-0.08613 0.1033527,-0.08785 0.1033527,-0.204983 0,-0.105075 -0.091295,-0.165364 -0.063734,-0.04133 -0.316948,-0.105068 -0.3410637,-0.08613 -0.4736996,-0.148139 -0.1309133,-0.06373 -0.1998151,-0.173977 -0.067179,-0.111966 -0.067179,-0.246324 0,-0.122301 0.055121,-0.225653 0.056844,-0.105075 0.1533064,-0.173977 0.072347,-0.0534 0.1963701,-0.08957 0.1257457,-0.0379 0.2687168,-0.0379 0.215318,0 0.3772371,0.06201 0.1636417,0.06201 0.2411562,0.168809 0.077514,0.105076 0.1067977,0.282498 l -0.3031677,0.04134 q -0.02067,-0.141249 -0.1205781,-0.220486 -0.098185,-0.07924 -0.2790521,-0.07924 -0.2135955,0 -0.3048903,0.07062 -0.091295,0.07062 -0.091295,0.165365 0,0.06029 0.037896,0.10852 0.037896,0.04995 0.1188556,0.08268 0.046509,0.01722 0.2738845,0.07924 0.3290059,0.08785 0.4581967,0.144694 0.1309133,0.05512 0.2049827,0.161919 0.074069,0.106798 0.074069,0.265272 0,0.155029 -0.091295,0.292832 -0.089572,0.136081 -0.2601042,0.211873 -0.1705318,0.07407 -0.3858498,0.07407 -0.3565666,0 -0.5443239,-0.148138 -0.1860337,-0.14813 -0.2377102,-0.43924 z m 3.1401973,-0.04306 0.320394,0.03962 q -0.07579,0.280774 -0.280775,0.435803 -0.204983,0.155029 -0.523653,0.155029 -0.401353,0 -0.637342,-0.246323 -0.234266,-0.248047 -0.234266,-0.694186 0,-0.461641 0.237711,-0.716578 0.237711,-0.254936 0.616671,-0.254936 0.366902,0 0.599445,0.249768 0.232544,0.249769 0.232544,0.702798 0,0.02756 -0.0017,0.08268 h -1.364255 q 0.01723,0.301445 0.170532,0.461641 0.153307,0.160197 0.382405,0.160197 0.170532,0 0.29111,-0.08957 0.120578,-0.08957 0.191202,-0.285943 z m -1.018023,-0.50126 h 1.021468 q -0.02067,-0.230821 -0.117133,-0.346231 -0.148138,-0.179145 -0.384127,-0.179145 -0.213595,0 -0.360012,0.142971 -0.144693,0.142971 -0.160196,0.382405 z"
       id="text4"
       aria-label="pulse" />
    <path
       style="font-size:3.52777px;line-height:0.9;font-family:Arial;-inkscape-font-specification:Arial;text-align:center;text-anchor:middle;stroke-width:0.264583"
       d="m 6.4915859,69.140353 v -0.356567 h 0.310058 v 0.356567 z m 0,2.168683 v -1.829342 h 0.310058 v 1.829342 z m 0.782035,0 V 69.479694 H 7.552673 v 0.260104 q 0.2015377,-0.301445 0.5822199,-0.301445 0.1653642,0 0.3031677,0.06029 0.1395261,0.05857 0.2084279,0.155029 0.068902,0.09646 0.096462,0.229098 0.017226,0.08613 0.017226,0.301446 v 1.124821 h -0.310058 v -1.112764 q 0,-0.189479 -0.036173,-0.282497 -0.036173,-0.09474 -0.1291908,-0.149861 -0.091295,-0.05684 -0.215318,-0.05684 -0.1980925,0 -0.3427862,0.125746 -0.1429712,0.125745 -0.1429712,0.477144 v 0.999076 z"
       id="text4-3-1"
       aria-label="in" />
    <path
       style="font-size:3.52777px;line-height:0.9;font-family:Arial;-inkscape-font-specification:Arial;text-align:center;text-anchor:middle;stroke-width:0.264583"
       d="M 4.9581774,84.221966 4.3983506,82.392624 h 0.3203932 l 0.2911099,1.055919 0.1085203,0.39274 q 0.00689,-0.02928 0.09474,-0.377237 l 0.2911099,-1.071422 h 0.3186706 l 0.2738845,1.061087 0.091295,0.349676 0.1050751,-0.353121 0.313503,-1.057642 h 0.301445 L 6.3362125,84.221966 H 6.0140968 l -0.2911099,-1.095538 -0.070624,-0.311781 -0.370347,1.407319 z m 3.4037468,-0.225654 q -0.1722544,0.146417 -0.332451,0.206706 -0.158474,0.06029 -0.3410637,0.06029 -0.3014452,0 -0.4633643,-0.146417 -0.1619192,-0.148138 -0.1619192,-0.377237 0,-0.134358 0.060289,-0.244601 0.062012,-0.111965 0.1601966,-0.179145 0.099908,-0.06718 0.2239307,-0.10163 0.091295,-0.02411 0.275607,-0.04651 0.3755146,-0.04479 0.5529366,-0.106798 0.00172,-0.06373 0.00172,-0.08096 0,-0.189479 -0.08785,-0.266994 -0.1188555,-0.105075 -0.3531215,-0.105075 -0.2187631,0 -0.3238382,0.07751 -0.1033527,0.07579 -0.1533065,0.27044 L 7.116522,82.914551 q 0.041341,-0.194648 0.136081,-0.313503 0.09474,-0.120578 0.2738845,-0.184313 0.1791445,-0.06546 0.4151331,-0.06546 0.2342659,0 0.3806822,0.05512 0.1464162,0.05512 0.215318,0.139526 0.068902,0.08268 0.096462,0.210151 0.015503,0.07924 0.015503,0.285942 v 0.413411 q 0,0.432358 0.018948,0.547768 0.02067,0.113688 0.079237,0.218764 h -0.323835 q -0.048231,-0.09646 -0.062012,-0.225654 z M 8.336086,83.30385 q -0.1688093,0.0689 -0.5064279,0.117133 -0.1912024,0.02756 -0.2704394,0.06201 -0.079237,0.03445 -0.1223006,0.10163 -0.043064,0.06546 -0.043064,0.146417 0,0.124023 0.093017,0.206705 0.09474,0.08268 0.275607,0.08268 0.1791446,0 0.3186706,-0.07752 0.1395261,-0.07924 0.2049828,-0.215318 0.049954,-0.105075 0.049954,-0.310057 z m 0.7958155,-1.250567 v -0.356567 h 0.3100579 v 0.356567 z m 0,2.168683 v -1.829342 h 0.3100579 v 1.829342 z m 1.4589945,-0.27733 0.04479,0.273884 q -0.130913,0.02756 -0.234266,0.02756 -0.168809,0 -0.261827,-0.0534 -0.09302,-0.0534 -0.130913,-0.139526 -0.037896,-0.08785 -0.037896,-0.366902 V 82.63378 H 9.7434043 V 82.392624 H 9.9707801 V 81.939595 L 10.279115,81.75356 v 0.639064 h 0.311781 v 0.241156 h -0.311781 v 1.0697 q 0,0.132636 0.0155,0.170532 0.01723,0.0379 0.0534,0.06029 0.0379,0.02239 0.106798,0.02239 0.05168,0 0.136081,-0.01206 z"
       id="text4-3-1-5"
       aria-label="wait" />
    <path
       style="font-size:3.52777px;line-height:0.9;font-family:Arial;-inkscape-font-specification:Arial;text-align:center;text-anchor:middle;stroke-width:0.264583"
       d="M 4.9517792,100.56633 4.3919524,98.736989 h 0.3203932 l 0.2911099,1.055914 0.1085203,0.392737 q 0.00689,-0.0293 0.09474,-0.377237 l 0.2911099,-1.071414 h 0.3186706 l 0.2738845,1.061084 0.091295,0.349677 0.1050751,-0.353127 0.313503,-1.057634 h 0.301445 L 6.3298143,100.56633 H 6.0076986 l -0.2911099,-1.095544 -0.070624,-0.31178 -0.370347,1.407324 z m 3.4037468,-0.22566 q -0.1722544,0.14642 -0.332451,0.20671 -0.158474,0.0603 -0.3410637,0.0603 -0.3014452,0 -0.4633643,-0.14642 -0.1619192,-0.14814 -0.1619192,-0.37723 0,-0.134367 0.060289,-0.244607 0.062012,-0.11196 0.1601966,-0.17914 0.099907,-0.0672 0.2239307,-0.10163 0.091295,-0.0241 0.275607,-0.0465 0.3755146,-0.0448 0.5529366,-0.106797 0.00172,-0.0637 0.00172,-0.081 0,-0.18948 -0.08785,-0.267 -0.1188555,-0.10507 -0.3531215,-0.10507 -0.2187631,0 -0.3238383,0.0775 -0.1033526,0.0758 -0.1533064,0.27043 l -0.3031677,-0.0413 q 0.041341,-0.19464 0.136081,-0.3135 0.09474,-0.120577 0.2738845,-0.184307 0.1791445,-0.0655 0.4151331,-0.0655 0.2342659,0 0.3806822,0.0551 0.1464162,0.0551 0.215318,0.13952 0.068902,0.0827 0.096462,0.210157 0.015503,0.0792 0.015503,0.28594 v 0.413407 q 0,0.432357 0.018948,0.547767 0.020671,0.11369 0.079237,0.21877 h -0.323835 q -0.048231,-0.0965 -0.062012,-0.22567 z M 8.329688,99.648213 q -0.1688093,0.0689 -0.5064279,0.11713 -0.1912024,0.0276 -0.2704394,0.062 -0.079237,0.0344 -0.1223006,0.10163 -0.043064,0.0655 -0.043064,0.146417 0,0.12402 0.093017,0.2067 0.09474,0.0827 0.275607,0.0827 0.1791446,0 0.3186706,-0.0775 0.1395261,-0.0792 0.2049828,-0.21531 0.049954,-0.105077 0.049954,-0.310057 z m 0.7958155,-1.250571 v -0.35656 h 0.3100579 v 0.35656 z m 0,2.168688 v -1.829341 h 0.3100579 v 1.829341 z m 1.4589945,-0.27733 0.04479,0.27388 q -0.130913,0.0276 -0.234266,0.0276 -0.168809,0 -0.261827,-0.0534 -0.09302,-0.0534 -0.130913,-0.13952 -0.037896,-0.0879 -0.037896,-0.36691 V 98.978136 H 9.7370061 v -0.241147 h 0.2273758 v -0.453037 l 0.3083351,-0.18603 v 0.639067 h 0.311781 v 0.241147 h -0.311781 v 1.069704 q 0,0.13264 0.0155,0.17053 0.01723,0.0379 0.0534,0.0603 0.0379,0.0224 0.106798,0.0224 0.05168,0 0.136081,-0.0121 z"
       id="text4-3-1-5-5"
       aria-label="wait" />
    <path
       style="font-size:3.52777px;line-height:0.9;font-family:Arial;-inkscape-font-specification:Arial;text-align:center;text-anchor:middle;stroke-width:0.264583"
       d="m 5.1834613,112.49606 q 0,-0.50815 0.2824972,-0.75275 0.2359886,-0.20326 0.5753297,-0.20326 0.3772372,0 0.6166708,0.24804 0.2394336,0.24633 0.2394336,0.68213 0,0.35312 -0.1067978,0.55638 -0.1050751,0.20154 -0.3083353,0.31351 -0.2015377,0.11196 -0.4409713,0.11196 -0.3841273,0 -0.6218383,-0.24632 -0.2359886,-0.24633 -0.2359886,-0.70969 z m 0.3186707,0 q 0,0.3514 0.1533064,0.5271 0.1533064,0.17397 0.3858498,0.17397 0.2308209,0 0.3841273,-0.1757 0.1533064,-0.17569 0.1533064,-0.53571 0,-0.33934 -0.1550289,-0.51331 -0.1533064,-0.1757 -0.3824048,-0.1757 -0.2325434,0 -0.3858498,0.17397 -0.1533064,0.17398 -0.1533064,0.52538 z m 2.957608,0.91467 v -0.26872 q -0.2135955,0.31006 -0.5804973,0.31006 -0.1619192,0 -0.3031678,-0.062 -0.139526,-0.062 -0.2084278,-0.15503 -0.067179,-0.0947 -0.09474,-0.23082 -0.018948,-0.0913 -0.018948,-0.28939 V 111.5814 H 7.564017 v 1.01458 q 0,0.24288 0.018948,0.32728 0.029283,0.1223 0.1240232,0.19292 0.09474,0.0689 0.2342659,0.0689 0.1395261,0 0.2618267,-0.0706 0.1223006,-0.0723 0.1722544,-0.19465 0.051676,-0.12402 0.051676,-0.35828 v -0.98013 h 0.310058 v 1.82934 z m 1.4400468,-0.27733 0.044786,0.27388 q -0.1309133,0.0276 -0.234266,0.0276 -0.1688093,0 -0.2618267,-0.0534 -0.093017,-0.0534 -0.1309133,-0.13953 -0.037896,-0.0879 -0.037896,-0.3669 v -1.05248 H 9.0522951 v -0.24115 h 0.2273758 v -0.45303 l 0.3083354,-0.18604 v 0.63907 h 0.3117805 v 0.24115 H 9.5880063 v 1.0697 q 0,0.13264 0.015503,0.17054 0.017225,0.0379 0.053399,0.0603 0.037896,0.0224 0.1067977,0.0224 0.051676,0 0.136081,-0.0121 z"
       id="text4-3-1-5-5-5"
       aria-label="out" />
    <rect
       style="display:inline;fill:#000000;fill-opacity:1;stroke-width:0.112632"
       id="rect2-6"
       width="13.619499"
       height="0.66399997"
       x="0.81025028"
       y="57.909187"
       ry="0.27390954" />
    <rect
       style="display:inline;fill:#000000;fill-opacity:1;stroke-width:0.112632"
       id="rect2-2-1"
       width="13.619499"
       height="0.66399997"
       x="0.81025028"
       y="55.159035"
       ry="0.27390954" />
    <rect
       style="display:inline;fill:#000000;fill-opacity:1;stroke-width:0.112632"
       id="rect2-2-1-7"
       width="13.619499"
       height="0.66399997"
       x="0.81025016"
       y="11.149"
       ry="0.27390954" />
    <path
       d="m 7.0179708,122.70896 -0.3169481,-0.72347 q -0.044786,-0.10335 -0.1257457,-0.15503 -0.079237,-0.0534 -0.1877573,-0.0534 h -0.080959 v 0.93189 H 5.8828143 v -2.25136 h 0.6562893 q 0.1860347,0 0.3376186,0.0327 0.1515839,0.031 0.2583816,0.10508 0.1067977,0.0741 0.1636417,0.19292 0.058566,0.11886 0.058566,0.29111 0,0.12403 -0.036173,0.22049 -0.036173,0.0965 -0.1016301,0.16709 -0.065457,0.0689 -0.1567515,0.11196 -0.089572,0.0431 -0.1963701,0.0603 0.082682,0.0172 0.1515839,0.0947 0.068902,0.0758 0.1378035,0.22049 l 0.3600117,0.75447 z m -0.1050752,-1.58818 q 0,-0.16537 -0.1050752,-0.23772 -0.1050751,-0.0723 -0.3152255,-0.0723 H 6.3065602 v 0.63562 h 0.1722544 q 0.098185,0 0.177422,-0.0207 0.080959,-0.0207 0.1378035,-0.062 0.056844,-0.0413 0.08785,-0.10163 0.031006,-0.062 0.031006,-0.14124 z m 2.4442899,0.90778 q 0,0.18431 -0.068902,0.32039 -0.067179,0.13608 -0.1894798,0.22565 -0.1223006,0.0879 -0.2911099,0.13092 -0.1688093,0.0431 -0.3686244,0.0431 -0.1774221,0 -0.3427863,-0.0207 -0.1653642,-0.0207 -0.3272833,-0.0689 v -0.41858 q 0.079237,0.0276 0.1653642,0.0517 0.086127,0.0241 0.1722544,0.0431 0.08785,0.0172 0.1739769,0.0276 0.086127,0.0103 0.1670868,0.0103 0.1205781,0 0.2049827,-0.0207 0.084405,-0.0207 0.1378035,-0.0568 0.053399,-0.0362 0.077514,-0.0861 0.024116,-0.0499 0.024116,-0.11024 0,-0.0827 -0.048231,-0.1378 -0.046509,-0.0569 -0.1240232,-0.0999 -0.077514,-0.0431 -0.177422,-0.0775 -0.098185,-0.0345 -0.2015376,-0.0741 -0.1016301,-0.0396 -0.2015377,-0.0896 -0.098185,-0.05 -0.1756995,-0.12402 -0.077514,-0.0741 -0.1257457,-0.1757 -0.046509,-0.10335 -0.046509,-0.24805 0,-0.13263 0.048231,-0.25149 0.048231,-0.11885 0.1515838,-0.2067 0.1033527,-0.0896 0.2652718,-0.14125 0.1619191,-0.0534 0.3910175,-0.0534 0.067179,0 0.1395261,0.007 0.074069,0.005 0.1446936,0.0155 0.072347,0.009 0.1378036,0.0224 0.067179,0.0121 0.1223006,0.0258 v 0.38758 q -0.055121,-0.0207 -0.1205781,-0.0379 -0.065457,-0.0172 -0.136081,-0.0293 -0.068902,-0.0138 -0.139526,-0.0207 -0.070624,-0.007 -0.1343585,-0.007 -0.1119653,0 -0.1894798,0.019 -0.077514,0.0172 -0.1274682,0.0499 -0.049954,0.031 -0.072347,0.0775 -0.022393,0.0465 -0.022393,0.10336 0,0.0706 0.046509,0.1223 0.048231,0.0499 0.1257457,0.0913 0.079237,0.0396 0.1774221,0.0758 0.099908,0.0344 0.2032601,0.0758 0.1050752,0.0396 0.2032602,0.0913 0.099908,0.0517 0.1774221,0.12575 0.079237,0.0741 0.1257457,0.1757 0.048231,0.0999 0.048231,0.23771 z"
       id="text5"
       style="font-weight:bold;font-size:3.52777px;line-height:0.9;font-family:Consolas;-inkscape-font-specification:'Consolas Bold';text-align:center;text-anchor:middle;stroke-width:0.264583"
       aria-label="RS" />
    <path
       d="M 3.9070479,10.234735 H 3.0109786 L 2.611003,8.9851984 2.4652755,8.4767023 2.3257491,8.9976008 1.9319747,10.234735 H 1.0731124 L 0.84676963,6.1822688 H 1.5195968 l 0.096118,2.598291 0.024805,0.7100341 L 1.8234542,8.8580744 2.2699386,7.416302 H 2.7505294 L 3.2218184,8.9448908 3.3737471,9.4843927 3.3861495,8.8518732 3.4884688,6.1822688 H 4.1364913 Z M 6.6541671,8.0891291 q 0.1519287,0.083716 0.2883545,0.1860352 0.1395264,0.099219 0.2418457,0.2325439 0.1054199,0.1302246 0.164331,0.2976562 0.062012,0.1643311 0.062012,0.3751709 0,0.2759522 -0.1116211,0.486792 -0.1116211,0.2108399 -0.3100586,0.3534667 -0.1953369,0.142627 -0.4619873,0.213941 -0.2635498,0.07131 -0.5705078,0.07131 -0.3410645,0 -0.6046143,-0.07131 Q 5.0914718,10.16032 4.9116378,10.026995 4.7349044,9.8936701 4.6418869,9.7045343 4.5519699,9.5153986 4.5519699,9.2828547 q 0,-0.2077393 0.058911,-0.3689698 Q 4.6728927,8.7495539 4.7783126,8.6162287 4.8837326,8.4829035 5.0201583,8.3774836 5.1596847,8.2720637 5.314714,8.1821467 5.1751876,8.1015314 5.0511642,8.0054133 4.9302413,7.9092951 4.8372238,7.7883723 4.7442062,7.6674494 4.6883956,7.5186213 q -0.05271,-0.1488281 -0.05271,-0.3379639 0,-0.2201416 0.083716,-0.4123779 0.086816,-0.1953369 0.254248,-0.3410644 0.1705323,-0.1457276 0.4247803,-0.2294434 0.2573486,-0.083716 0.6015137,-0.083716 0.3162597,0 0.5643066,0.068213 0.2480469,0.065112 0.4154785,0.1891357 0.1705322,0.1240235 0.2573486,0.2976563 0.089917,0.1705322 0.089917,0.3782714 0,0.1922364 -0.05271,0.3472657 -0.05271,0.1550293 -0.142627,0.2821533 Q 7.0417403,7.8007746 6.9177169,7.9030939 6.7936935,8.0023127 6.6541671,8.0891291 Z M 6.0588546,7.797674 Q 6.1704757,7.7356623 6.2665939,7.6674494 6.3658126,7.5961359 6.4371261,7.5124201 6.5084396,7.4287043 6.5518478,7.3294856 6.595256,7.2302668 6.595256,7.109344 q 0,-0.2015381 -0.1581299,-0.306958 -0.1581299,-0.10542 -0.4557861,-0.10542 -0.2914551,0 -0.449585,0.1085205 -0.1581299,0.1085205 -0.1581299,0.3255616 0,0.1178222 0.05271,0.2108398 0.05271,0.093018 0.1457275,0.1736328 0.093018,0.077515 0.217041,0.1457275 0.1271241,0.068213 0.269751,0.1364258 z M 5.9007247,8.4829035 Q 5.7798019,8.5480158 5.6712814,8.6224299 5.5658615,8.6968439 5.4852462,8.7867609 5.4077316,8.8766779 5.3612228,8.9851984 5.314714,9.0906183 5.314714,9.2239435 q 0,0.2356446 0.1829346,0.359668 0.1829345,0.1240234 0.4836914,0.1240234 0.1364257,0 0.2573486,-0.027905 0.1209228,-0.027905 0.2108398,-0.086816 0.093018,-0.058911 0.1457276,-0.1488282 0.05271,-0.093018 0.05271,-0.2201416 0,-0.1302246 -0.058911,-0.2325439 Q 6.5301437,8.8859797 6.4278243,8.7991633 6.325505,8.7123469 6.1890792,8.6348322 6.0526534,8.5573176 5.9007247,8.4829035 Z m 3.5904786,0.037207 V 7.8906916 H 10.932976 V 10.0518 q -0.279053,0.130225 -0.58291,0.192236 -0.303858,0.06201 -0.6604252,0.06201 -0.4216797,0 -0.7596436,-0.130225 Q 8.595134,10.045599 8.3594894,9.7882502 8.1238449,9.5309015 7.9967209,9.1495295 7.8726975,8.7681574 7.8726975,8.2658625 q 0,-0.5053955 0.1302246,-0.9053711 Q 8.1362473,6.9605158 8.3873947,6.6845637 8.6416428,6.405511 9.0075119,6.2597834 9.3764816,6.1140559 9.8477707,6.1140559 q 0.2790523,0 0.5426023,0.049609 0.266651,0.046509 0.5302,0.127124 V 7.0442317 Q 10.69113,6.9357111 10.412077,6.8674983 10.136125,6.7961848 9.8539718,6.7961848 q -0.2852539,0 -0.5053955,0.099219 -0.217041,0.099219 -0.3658691,0.2821533 -0.1457275,0.1829346 -0.2232422,0.449585 -0.074414,0.2666504 -0.074414,0.6015137 0,0.3224609 0.058911,0.5829101 0.058911,0.2573486 0.1891357,0.4402832 0.1333252,0.179834 0.3410645,0.2759522 0.2077392,0.096118 0.5053955,0.096118 0.071314,0 0.1240234,-0.0031 0.05271,-0.0062 0.099219,-0.015503 0.04651,-0.0093 0.08682,-0.021704 0.04341,-0.012402 0.08992,-0.027905 V 8.5201105 Z M 13.636687,8.0891291 q 0.151929,0.083716 0.288354,0.1860352 0.139527,0.099219 0.241846,0.2325439 0.10542,0.1302246 0.164331,0.2976562 0.06201,0.1643311 0.06201,0.3751709 0,0.2759522 -0.111621,0.486792 -0.111621,0.2108399 -0.310059,0.3534667 -0.195337,0.142627 -0.461987,0.213941 -0.26355,0.07131 -0.570508,0.07131 -0.341064,0 -0.604614,-0.07131 -0.260449,-0.07442 -0.440283,-0.20774 -0.176734,-0.1333249 -0.269751,-0.3224607 -0.08992,-0.1891357 -0.08992,-0.4216796 0,-0.2077393 0.05891,-0.3689698 0.06201,-0.164331 0.167432,-0.2976562 0.105419,-0.1333252 0.241845,-0.2387451 0.139527,-0.1054199 0.294556,-0.1953369 -0.139527,-0.080615 -0.26355,-0.1767334 -0.120923,-0.096118 -0.21394,-0.217041 -0.09302,-0.1209229 -0.148828,-0.269751 -0.05271,-0.1488281 -0.05271,-0.3379639 0,-0.2201416 0.08371,-0.4123779 0.08682,-0.1953369 0.254248,-0.3410644 0.170533,-0.1457276 0.424781,-0.2294434 0.257348,-0.083716 0.601513,-0.083716 0.31626,0 0.564307,0.068213 0.248047,0.065112 0.415478,0.1891357 0.170533,0.1240235 0.257349,0.2976563 0.08992,0.1705322 0.08992,0.3782714 0,0.1922364 -0.05271,0.3472657 -0.05271,0.1550293 -0.142627,0.2821533 -0.08992,0.1240234 -0.21394,0.2263427 -0.124024,0.099219 -0.26355,0.1860352 z M 13.041374,7.797674 q 0.111622,-0.062012 0.20774,-0.1302246 0.09922,-0.071313 0.170532,-0.1550293 0.07131,-0.083716 0.114722,-0.1829345 0.04341,-0.099219 0.04341,-0.2201416 0,-0.2015381 -0.15813,-0.306958 -0.15813,-0.10542 -0.455786,-0.10542 -0.291455,0 -0.449585,0.1085205 -0.15813,0.1085205 -0.15813,0.3255616 0,0.1178222 0.05271,0.2108398 0.05271,0.093018 0.145727,0.1736328 0.09302,0.077515 0.217042,0.1457275 0.127124,0.068213 0.26975,0.1364258 z m -0.158129,0.6852295 q -0.120923,0.065112 -0.229444,0.1395264 -0.10542,0.074414 -0.186035,0.164331 -0.07752,0.089917 -0.124023,0.1984375 -0.04651,0.1054199 -0.04651,0.2387451 0,0.2356446 0.182934,0.359668 0.182935,0.1240234 0.483692,0.1240234 0.136426,0 0.257348,-0.027905 0.120923,-0.027905 0.21084,-0.086816 0.09302,-0.058911 0.145728,-0.1488282 0.05271,-0.093018 0.05271,-0.2201416 0,-0.1302246 -0.05891,-0.2325439 Q 13.512664,8.8859797 13.410344,8.7991633 13.308025,8.7123469 13.171599,8.6348322 13.035173,8.5573176 12.883245,8.4829035 Z"
       id="text1"
       style="font-weight:bold;font-size:6.35px;line-height:0.9;font-family:Consolas;-inkscape-font-specification:'Consolas Bold';text-align:center;letter-spacing:0px;text-anchor:middle;stroke:#000000;stroke-width:0.264583;stroke-opacity:0"
       aria-label="W8G8" />
    <path
       d="m 3.0056738,41.448779 v -1.829342 h 0.2790521 v 0.27733 q 0.1067977,-0.194647 0.19637,-0.256659 0.091295,-0.06201 0.1998151,-0.06201 0.1567515,0 0.3186707,0.09991 l -0.1067978,0.287665 q -0.1136879,-0.06718 -0.2273758,-0.06718 -0.1016301,0 -0.1825896,0.06201 -0.08096,0.06029 -0.1154105,0.16881 -0.051676,0.165364 -0.051676,0.361734 v 0.957734 z m 2.4305096,-0.58911 0.3203931,0.03962 q -0.075792,0.280774 -0.2807746,0.435803 -0.2049828,0.155029 -0.5236534,0.155029 -0.4013527,0 -0.6373413,-0.246324 -0.2342659,-0.248046 -0.2342659,-0.694185 0,-0.461642 0.237711,-0.716578 0.2377111,-0.254937 0.6166708,-0.254937 0.3669018,0 0.5994453,0.249769 0.2325434,0.249769 0.2325434,0.702798 0,0.02756 -0.00172,0.08268 H 4.4009344 q 0.017226,0.301446 0.1705319,0.461642 0.1533064,0.160197 0.3824047,0.160197 0.1705319,0 0.29111,-0.08957 0.120578,-0.08957 0.1912024,-0.285942 z m -1.0180235,-0.50126 h 1.0214685 q -0.020671,-0.230821 -0.117133,-0.346231 -0.1481387,-0.179145 -0.3841273,-0.179145 -0.2135954,0 -0.3600116,0.142971 -0.1446937,0.142971 -0.1601966,0.382405 z m 1.6036884,0.544324 0.3066128,-0.04823 q 0.025838,0.184312 0.1429712,0.282497 0.1188555,0.09819 0.3307284,0.09819 0.2135955,0 0.3169481,-0.08613 0.1033527,-0.08785 0.1033527,-0.204983 0,-0.105075 -0.091295,-0.165364 -0.063734,-0.04134 -0.3169481,-0.105076 -0.3410637,-0.08613 -0.4736995,-0.148138 -0.1309134,-0.06374 -0.1998151,-0.173977 -0.067179,-0.111966 -0.067179,-0.246324 0,-0.122301 0.055121,-0.225653 0.056844,-0.105076 0.1533065,-0.173977 0.072347,-0.0534 0.19637,-0.08957 0.1257457,-0.0379 0.2687168,-0.0379 0.215318,0 0.3772372,0.06201 0.1636416,0.06201 0.2411561,0.168809 0.077514,0.105076 0.1067977,0.282498 l -0.3031677,0.04134 q -0.020671,-0.141249 -0.1205781,-0.220486 -0.098185,-0.07924 -0.2790521,-0.07924 -0.2135954,0 -0.3048903,0.07062 -0.091295,0.07062 -0.091295,0.165364 0,0.06029 0.037896,0.108521 0.037896,0.04995 0.1188555,0.08268 0.046509,0.01722 0.2738845,0.07924 0.3290059,0.08785 0.4581967,0.144694 0.1309133,0.05512 0.2049827,0.161919 0.074069,0.106797 0.074069,0.265271 0,0.155029 -0.091295,0.292833 -0.089572,0.136081 -0.2601042,0.211873 -0.1705318,0.07407 -0.3858498,0.07407 -0.3565666,0 -0.5443239,-0.148139 -0.1860348,-0.148138 -0.2377111,-0.439248 z m 3.1401977,-0.04306 0.3203932,0.03962 q -0.075792,0.280774 -0.2807747,0.435803 -0.2049827,0.155029 -0.5236534,0.155029 -0.4013527,0 -0.6373412,-0.246324 -0.234266,-0.248046 -0.234266,-0.694185 0,-0.461642 0.237711,-0.716578 0.2377111,-0.254937 0.6166708,-0.254937 0.3669018,0 0.5994453,0.249769 0.2325434,0.249769 0.2325434,0.702798 0,0.02756 -0.00172,0.08268 H 8.1267971 q 0.017225,0.301446 0.1705318,0.461642 0.1533064,0.160197 0.3824048,0.160197 0.1705318,0 0.2911099,-0.08957 0.1205781,-0.08957 0.1912024,-0.285942 z m -1.0180235,-0.50126 h 1.0214686 q -0.020671,-0.230821 -0.117133,-0.346231 -0.1481388,-0.179145 -0.3841273,-0.179145 -0.2135955,0 -0.3600117,0.142971 -0.1446937,0.142971 -0.1601966,0.382405 z m 2.4046715,0.813041 0.04479,0.273884 q -0.130913,0.02756 -0.234266,0.02756 -0.168809,0 -0.261827,-0.0534 -0.09302,-0.0534 -0.1309131,-0.139526 -0.037896,-0.08785 -0.037896,-0.366902 V 39.860594 H 9.7012021 v -0.241157 h 0.2273758 v -0.453029 l 0.3083351,-0.186034 v 0.639063 h 0.311781 v 0.241157 h -0.311781 v 1.069699 q 0,0.132636 0.0155,0.170532 0.01723,0.0379 0.0534,0.06029 0.0379,0.02239 0.106798,0.02239 0.05168,0 0.136081,-0.01206 z m 0.179145,-0.268717 0.306612,-0.04823 q 0.02584,0.184312 0.142972,0.282497 0.118855,0.09819 0.330728,0.09819 0.213596,0 0.316948,-0.08613 0.103353,-0.08785 0.103353,-0.204983 0,-0.105075 -0.0913,-0.165364 -0.06373,-0.04134 -0.316948,-0.105076 -0.341064,-0.08613 -0.4737,-0.148138 -0.130913,-0.06374 -0.199815,-0.173977 -0.06718,-0.111966 -0.06718,-0.246324 0,-0.122301 0.05512,-0.225653 0.05684,-0.105076 0.153307,-0.173977 0.07235,-0.0534 0.19637,-0.08957 0.125745,-0.0379 0.268717,-0.0379 0.215318,0 0.377237,0.06201 0.163641,0.06201 0.241156,0.168809 0.07751,0.105076 0.106798,0.282498 l -0.303168,0.04134 q -0.02067,-0.141249 -0.120578,-0.220486 -0.09818,-0.07924 -0.279052,-0.07924 -0.213596,0 -0.304891,0.07062 -0.09129,0.07062 -0.09129,0.165364 0,0.06029 0.0379,0.108521 0.0379,0.04995 0.118855,0.08268 0.04651,0.01722 0.273885,0.07924 0.329005,0.08785 0.458196,0.144694 0.130914,0.05512 0.204983,0.161919 0.07407,0.106797 0.07407,0.265271 0,0.155029 -0.09129,0.292833 -0.08957,0.136081 -0.260105,0.211873 -0.170531,0.07407 -0.385849,0.07407 -0.356567,0 -0.544324,-0.148139 -0.186035,-0.148138 -0.237711,-0.439248 z"
       id="text3"
       style="font-size:3.52777px;line-height:0.9;font-family:Arial;-inkscape-font-specification:Arial;text-align:center;letter-spacing:0px;text-anchor:middle;stroke:#000000;stroke-width:0.264583;stroke-opacity:0"
       aria-label="resets" />
  </g>
  <g
     inkscape:groupmode="layer"
     id="layer2"
     inkscape:label="components"
     style="display:none">
    <circle
       style="fill:#00ff00;fill-opacity:1;stroke-width:0.256914"
       id="path2"
       cx="7.6263981"
       cy="46.543201"
       r="3.1535001"
       inkscape:label="pulse" />
    <circle
       style="display:inline;fill:#00ff00;fill-opacity:1;stroke-width:0.256914"
       id="path2-4"
       cx="7.6910191"
       cy="34.015297"
       r="3.1535001"
       inkscape:label="totalReset" />
    <circle
       style="display:inline;fill:#00ff00;fill-opacity:1;stroke-width:0.256914"
       id="path2-4-3"
       cx="7.6910191"
       cy="25.300226"
       r="3.1535001"
       inkscape:label="openReset" />
    <circle
       style="display:inline;fill:#00ff00;fill-opacity:1;stroke-width:0.256914"
       id="path2-4-3-8"
       cx="7.6199999"
       cy="16.585155"
       r="3.1535001"
       inkscape:label="closedReset" />
    <circle
       style="fill:#00ff00;fill-opacity:1;stroke-width:0.256914"
       id="path2-6"
       cx="7.6263981"
       cy="63.50388"
       r="3.1535001"
       inkscape:label="in" />
    <circle
       style="fill:#0000ff;fill-opacity:1;stroke-width:0.256914"
       id="path2-6-1"
       cx="7.6199999"
       cy="106.08877"
       r="3.1535001"
       inkscape:label="out" />
    <circle
       style="fill:#ff0000;fill-opacity:1;stroke-width:0.256914"
       id="path2-6-8"
       cx="7.6263981"
       cy="76.760384"
       r="3.1535001"
       inkscape:label="closedWait" />
    <circle
       style="fill:#ff0000;fill-opacity:1;stroke-width:0.256914"
       id="path2-6-8-4"
       cx="7.6199999"
       cy="92.995346"
       r="3.1535001"
       inkscape:label="openWait" />
    <circle
       style="fill:#ff00ff;fill-opacity:1;stroke-width:0.0939752"
       id="path2-6-8-3"
       cx="7.6199999"
       cy="86.520561"
       inkscape:label="open"
       r="1.1535" />
    <circle
       style="display:inline;fill:#ff00ff;fill-opacity:1;stroke-width:0.0939752"
       id="path2-6-8-3-0"
       cx="7.6199999"
       cy="56.866112"
       r="1.1535"
       inkscape:label="closed" />
  </g>
</svg>
