<?xml version="1.0" encoding="UTF-8" standalone="no"?>
<!-- Created with Inkscape (http://www.inkscape.org/) -->

<svg
   width="15.24mm"
   height="128.5mm"
   viewBox="0 0 15.24 128.5"
   version="1.1"
   id="svg1"
   inkscape:version="1.3 (0e150ed6c4, 2023-07-21)"
   sodipodi:docname="WaitGate_Zero.svg"
   xmlns:inkscape="http://www.inkscape.org/namespaces/inkscape"
   xmlns:sodipodi="http://sodipodi.sourceforge.net/DTD/sodipodi-0.dtd"
   xmlns="http://www.w3.org/2000/svg"
   xmlns:svg="http://www.w3.org/2000/svg">
  <sodipodi:namedview
     id="namedview1"
     pagecolor="#505050"
     bordercolor="#ffffff"
     borderopacity="1"
     inkscape:showpageshadow="0"
     inkscape:pageopacity="0"
     inkscape:pagecheckerboard="1"
     inkscape:deskcolor="#505050"
     inkscape:document-units="mm"
     showgrid="false"
     inkscape:zoom="3.9156336"
     inkscape:cx="41.117228"
     inkscape:cy="97.68534"
     inkscape:window-width="1920"
     inkscape:window-height="991"
     inkscape:window-x="-9"
     inkscape:window-y="-9"
     inkscape:window-maximized="1"
     inkscape:current-layer="layer2">
    <inkscape:grid
       id="grid1"
       units="mm"
       originx="0"
       originy="0"
       spacingx="1"
       spacingy="1"
       empcolor="#0099e5"
       empopacity="0.30196078"
       color="#0099e5"
       opacity="0.14901961"
       empspacing="5"
       dotted="false"
       gridanglex="30"
       gridanglez="30"
       visible="false" />
  </sodipodi:namedview>
  <defs
     id="defs1">
    <rect
       x="16.88126"
       y="442.32944"
       width="32.284557"
       height="22.984785"
       id="rect5" />
    <rect
       x="16.88126"
       y="442.32944"
       width="60.439163"
       height="14.624552"
       id="rect5-6" />
    <rect
       x="16.88126"
       y="442.32944"
       width="60.439163"
       height="14.624552"
       id="rect5-6-3" />
  </defs>
  <g
     inkscape:label="Layer 1"
     inkscape:groupmode="layer"
     id="layer1">
    <rect
       style="fill:#7add55;fill-opacity:1;stroke-width:0.264585"
       id="rect1"
       width="15.235825"
       height="128.5"
       x="0.0041754646"
       y="-6.9467002e-15"
       ry="0"
       rx="0" />
    <path
       d="M 3.9172445,10.234974 H 3.0211752 L 2.6211996,8.9854375 2.4754721,8.4769415 2.3359457,8.9978405 1.9421713,10.234974 H 1.083309 L 0.85696622,6.1825085 H 1.5297934 l 0.096118,2.598291 0.024805,0.710034 0.1829344,-0.63252 0.4464844,-1.441772 H 2.760726 l 0.471289,1.528589 0.1519287,0.539502 0.012402,-0.63252 0.1023193,-2.669604 H 4.1466875 Z M 6.664364,8.0893685 q 0.151928,0.08372 0.288354,0.186035 0.139527,0.09922 0.241846,0.232544 0.10542,0.130225 0.164331,0.297656 0.06201,0.164331 0.06201,0.375171 0,0.275953 -0.111621,0.486792 -0.111621,0.2108395 -0.310059,0.3534665 -0.195337,0.142627 -0.461987,0.213941 -0.26355,0.07131 -0.5705079,0.07131 -0.3410645,0 -0.6046143,-0.07131 Q 5.1016664,10.160554 4.9218324,10.027234 4.745099,9.893909 4.6520815,9.7047735 q -0.089917,-0.189135 -0.089917,-0.421679 0,-0.20774 0.058911,-0.36897 0.062012,-0.164331 0.1674317,-0.297656 0.10542,-0.133326 0.2418457,-0.238745 0.1395264,-0.10542 0.2945557,-0.195337 Q 5.1853842,8.1017705 5.0613608,8.0056525 4.9404379,7.9095345 4.8474204,7.7886115 4.7544028,7.6676885 4.6985922,7.5188605 q -0.05271,-0.148828 -0.05271,-0.337964 0,-0.220141 0.083716,-0.412378 0.086816,-0.195336 0.254248,-0.341064 0.1705323,-0.145727 0.4247803,-0.229443 0.2573486,-0.08372 0.6015137,-0.08372 0.3162598,0 0.5643068,0.06821 0.248047,0.06511 0.415478,0.189135 0.170533,0.124024 0.257349,0.297657 0.08992,0.170532 0.08992,0.378271 0,0.192237 -0.05271,0.347266 -0.05271,0.155029 -0.142627,0.282153 -0.08992,0.124024 -0.21394,0.226343 -0.124024,0.09922 -0.26355,0.186035 z M 6.0690512,7.7979135 q 0.1116211,-0.06201 0.2077398,-0.130225 0.09922,-0.07131 0.170532,-0.155029 0.07131,-0.08372 0.114721,-0.182934 0.04341,-0.09922 0.04341,-0.220142 0,-0.201538 -0.15813,-0.306958 -0.15813,-0.10542 -0.4557864,-0.10542 -0.2914551,0 -0.449585,0.108521 -0.1581299,0.10852 -0.1581299,0.325561 0,0.117822 0.05271,0.21084 0.05271,0.09302 0.1457275,0.173633 0.093018,0.07751 0.217041,0.145727 0.1271241,0.06821 0.26975,0.136426 z m -0.1581299,0.685229 q -0.1209228,0.06511 -0.2294433,0.139527 -0.1054199,0.07441 -0.1860352,0.164331 -0.077515,0.08992 -0.1240234,0.198437 -0.046509,0.10542 -0.046509,0.238746 0,0.235644 0.1829346,0.359667 0.1829345,0.124024 0.4836914,0.124024 0.1364257,0 0.2573484,-0.02791 0.120923,-0.02791 0.21084,-0.08682 0.09302,-0.05891 0.145728,-0.148828 0.05271,-0.09302 0.05271,-0.220142 0,-0.130225 -0.05891,-0.232544 -0.05891,-0.10542 -0.161231,-0.192237 -0.102319,-0.08682 -0.2387452,-0.164331 -0.1364258,-0.07751 -0.2883545,-0.151929 z M 9.5014,8.5203525 v -0.629419 h 1.441773 v 2.1611075 q -0.279053,0.130225 -0.58291,0.192236 -0.303858,0.06201 -0.660426,0.06201 -0.421679,0 -0.759643,-0.130225 Q 8.605331,10.04584 8.369686,9.788491 8.134042,9.5311425 8.006918,9.1497705 7.882894,8.7683985 7.882894,8.2661045 q 0,-0.505396 0.130225,-0.905372 0.133325,-0.399975 0.384472,-0.675927 0.254248,-0.279053 0.620118,-0.424781 0.368969,-0.145727 0.840258,-0.145727 0.279053,0 0.542603,0.04961 0.266651,0.04651 0.5302,0.127124 v 0.753443 q -0.229443,-0.108521 -0.508496,-0.176734 -0.275952,-0.07131 -0.558106,-0.07131 -0.285253,0 -0.505395,0.09922 -0.217041,0.09922 -0.365869,0.282153 -0.145728,0.182935 -0.223242,0.449585 -0.07441,0.26665 -0.07441,0.601514 0,0.322461 0.05891,0.58291 0.05891,0.257348 0.189135,0.440283 0.133326,0.179834 0.341065,0.275952 0.207739,0.09612 0.505395,0.09612 0.07131,0 0.124024,-0.0031 0.05271,-0.0062 0.09922,-0.0155 0.04651,-0.0093 0.08682,-0.0217 0.04341,-0.0124 0.08992,-0.02791 v -1.035607 z m 4.145484,-0.430982 q 0.151929,0.08372 0.288354,0.186035 0.139527,0.09922 0.241846,0.232544 0.10542,0.130225 0.164331,0.297656 0.06201,0.164331 0.06201,0.375171 0,0.275953 -0.111621,0.486792 -0.111621,0.2108395 -0.310059,0.3534665 -0.195337,0.142627 -0.461987,0.213941 -0.26355,0.07131 -0.570508,0.07131 -0.341064,0 -0.604614,-0.07131 -0.260449,-0.07442 -0.440283,-0.20774 -0.176734,-0.133325 -0.269751,-0.3224605 -0.08992,-0.189135 -0.08992,-0.421679 0,-0.20774 0.05891,-0.36897 0.06201,-0.164331 0.167432,-0.297656 0.105419,-0.133326 0.241845,-0.238745 0.139527,-0.10542 0.294556,-0.195337 -0.139527,-0.08062 -0.26355,-0.176734 -0.120923,-0.09612 -0.21394,-0.217041 -0.09302,-0.120923 -0.148828,-0.269751 -0.05271,-0.148828 -0.05271,-0.337964 0,-0.220141 0.08371,-0.412378 0.08682,-0.195336 0.254248,-0.341064 0.170533,-0.145727 0.424781,-0.229443 0.257348,-0.08372 0.601513,-0.08372 0.31626,0 0.564307,0.06821 0.248047,0.06511 0.415478,0.189135 0.170533,0.124024 0.257349,0.297657 0.08992,0.170532 0.08992,0.378271 0,0.192237 -0.05271,0.347266 -0.05271,0.155029 -0.142627,0.282153 -0.08992,0.124024 -0.21394,0.226343 -0.124024,0.09922 -0.26355,0.186035 z m -0.595313,-0.291455 q 0.111622,-0.06201 0.20774,-0.130225 0.09922,-0.07131 0.170532,-0.155029 0.07131,-0.08372 0.114722,-0.182934 0.04341,-0.09922 0.04341,-0.220142 0,-0.201538 -0.15813,-0.306958 -0.15813,-0.10542 -0.455786,-0.10542 -0.291455,0 -0.449585,0.108521 -0.15813,0.10852 -0.15813,0.325561 0,0.117822 0.05271,0.21084 0.05271,0.09302 0.145727,0.173633 0.09302,0.07751 0.217042,0.145727 0.127124,0.06821 0.26975,0.136426 z m -0.158129,0.685229 q -0.120923,0.06511 -0.229444,0.139527 -0.10542,0.07441 -0.186035,0.164331 -0.07752,0.08992 -0.124023,0.198437 -0.04651,0.10542 -0.04651,0.238745 0,0.235645 0.182934,0.359668 0.182935,0.124024 0.483692,0.124024 0.136426,0 0.257348,-0.02791 0.120923,-0.02791 0.21084,-0.08682 0.09302,-0.05891 0.145728,-0.148828 0.05271,-0.09302 0.05271,-0.220142 0,-0.130225 -0.05891,-0.232544 -0.05891,-0.10542 -0.161231,-0.192237 -0.102319,-0.08682 -0.238745,-0.164331 -0.136426,-0.07751 -0.288354,-0.151929 z"
       id="text1"
       style="font-weight:bold;font-size:6.35px;line-height:0.9;font-family:Consolas;-inkscape-font-specification:'Consolas Bold';text-align:center;letter-spacing:0px;text-anchor:middle;stroke:#000000;stroke-width:0.264583;stroke-opacity:0"
       aria-label="W8G8" />
    <rect
       style="fill:#000000;fill-opacity:1;stroke-width:0.112632"
       id="rect2-5"
       width="13.619499"
       height="0.66399997"
       x="0.81025028"
       y="116.732"
       ry="0.27390954" />
    <rect
       style="fill:#ff63e9;fill-opacity:1;stroke-width:0.302914"
       id="rect4"
       width="10.776912"
       height="13.189312"
       x="2.231544"
       y="101.559"
       ry="1.4404136" />
    <path
       style="font-size:3.52777px;line-height:0.9;font-family:Arial;-inkscape-font-specification:Arial;text-align:center;text-anchor:middle;stroke-width:0.264583"
       d="m 5.1834613,112.49606 q 0,-0.50815 0.2824972,-0.75275 0.2359886,-0.20326 0.5753297,-0.20326 0.3772372,0 0.6166708,0.24804 0.2394336,0.24633 0.2394336,0.68213 0,0.35312 -0.1067978,0.55638 -0.1050751,0.20154 -0.3083353,0.31351 -0.2015377,0.11196 -0.4409713,0.11196 -0.3841273,0 -0.6218383,-0.24632 -0.2359886,-0.24633 -0.2359886,-0.70969 z m 0.3186707,0 q 0,0.3514 0.1533064,0.5271 0.1533064,0.17397 0.3858498,0.17397 0.2308209,0 0.3841273,-0.1757 0.1533064,-0.17569 0.1533064,-0.53571 0,-0.33934 -0.1550289,-0.51331 -0.1533064,-0.1757 -0.3824048,-0.1757 -0.2325434,0 -0.3858498,0.17397 -0.1533064,0.17398 -0.1533064,0.52538 z m 2.957608,0.91467 v -0.26872 q -0.2135955,0.31006 -0.5804973,0.31006 -0.1619192,0 -0.3031678,-0.062 -0.139526,-0.062 -0.2084278,-0.15503 -0.067179,-0.0947 -0.09474,-0.23082 -0.018948,-0.0913 -0.018948,-0.28939 V 111.5814 H 7.564017 v 1.01458 q 0,0.24288 0.018948,0.32728 0.029283,0.1223 0.1240232,0.19292 0.09474,0.0689 0.2342659,0.0689 0.1395261,0 0.2618267,-0.0706 0.1223006,-0.0723 0.1722544,-0.19465 0.051676,-0.12402 0.051676,-0.35828 v -0.98013 h 0.310058 v 1.82934 z m 1.4400468,-0.27733 0.044786,0.27388 q -0.1309133,0.0276 -0.234266,0.0276 -0.1688093,0 -0.2618267,-0.0534 -0.093017,-0.0534 -0.1309133,-0.13953 -0.037896,-0.0879 -0.037896,-0.3669 v -1.05248 H 9.0522951 v -0.24115 h 0.2273758 v -0.45303 l 0.3083354,-0.18604 v 0.63907 h 0.3117805 v 0.24115 H 9.5880063 v 1.0697 q 0,0.13264 0.015503,0.17054 0.017225,0.0379 0.053399,0.0603 0.037896,0.0224 0.1067977,0.0224 0.051676,0 0.136081,-0.0121 z"
       id="text4-3-1-5-5-5"
       aria-label="out" />
    <rect
       style="display:inline;fill:#000000;fill-opacity:1;stroke-width:0.112685"
       id="rect2-2-1-7"
       width="13.632296"
       height="0.66399997"
       x="0.81025028"
       y="11.149"
       ry="0.27390954" />
    <path
       d="m 4.2949981,23.735974 v -0.251491 l 1.1644397,-1.336694 q -0.1980925,0.01033 -0.3496764,0.01033 H 4.3638999 V 21.906633 H 5.859068 v 0.204982 L 4.8686053,23.27261 4.6774029,23.484483 q 0.2084278,-0.0155 0.3910175,-0.0155 h 0.8457691 v 0.266994 z m 3.1798162,-0.58911 0.3203932,0.03962 q -0.075792,0.280774 -0.2807747,0.435803 -0.2049827,0.155029 -0.5236534,0.155029 -0.4013527,0 -0.6373412,-0.246324 -0.234266,-0.248046 -0.234266,-0.694185 0,-0.461642 0.2377111,-0.716578 0.237711,-0.254937 0.6166707,-0.254937 0.3669019,0 0.5994453,0.249769 0.2325434,0.249769 0.2325434,0.702798 0,0.02756 -0.00172,0.08268 H 6.4395654 q 0.017225,0.301446 0.1705318,0.461642 0.1533064,0.160197 0.3824048,0.160197 0.1705318,0 0.2911099,-0.08957 0.1205781,-0.08957 0.1912024,-0.285942 z m -1.0180235,-0.50126 h 1.0214686 q -0.020671,-0.230821 -0.117133,-0.346231 -0.1481388,-0.179145 -0.3841273,-0.179145 -0.2135955,0 -0.3600117,0.142971 -0.1446937,0.142971 -0.1601966,0.382405 z m 1.7242664,1.09037 v -1.829341 h 0.2790521 v 0.277329 q 0.1067978,-0.194647 0.1963701,-0.256659 0.091295,-0.06201 0.1998151,-0.06201 0.1567515,0 0.3186706,0.09991 l -0.1067977,0.287665 q -0.1136879,-0.06718 -0.2273758,-0.06718 -0.1016301,0 -0.1825897,0.06201 -0.08096,0.06029 -0.1154105,0.16881 -0.051676,0.165364 -0.051676,0.361734 v 0.957734 z M 9.243867,22.821303 q 0,-0.50815 0.2824972,-0.752751 0.2359885,-0.203261 0.5753298,-0.203261 0.377237,0 0.616671,0.248047 0.239433,0.246324 0.239433,0.682127 0,0.353122 -0.106797,0.556382 -0.105076,0.201538 -0.308336,0.313503 -0.201538,0.111965 -0.440971,0.111965 -0.3841274,0 -0.6218385,-0.246324 Q 9.243867,23.284668 9.243867,22.821303 Z m 0.3186706,0 q 0,0.351399 0.1533064,0.527099 0.1533064,0.173977 0.38585,0.173977 0.230821,0 0.384127,-0.1757 0.153307,-0.175699 0.153307,-0.535711 0,-0.339341 -0.155029,-0.513318 -0.153307,-0.175699 -0.382405,-0.175699 -0.2325436,0 -0.38585,0.173976 -0.1533064,0.173977 -0.1533064,0.525376 z"
       id="text2"
       style="font-size:3.52777px;line-height:0.9;font-family:Arial;-inkscape-font-specification:Arial;text-align:center;letter-spacing:0px;text-anchor:middle;display:inline;stroke:#000000;stroke-width:0.264583;stroke-opacity:0"
       aria-label="zero" />
    <path
       d="m 7.0179704,122.70896 -0.316948,-0.72347 q -0.04479,-0.10335 -0.125745,-0.15503 -0.07924,-0.0534 -0.187758,-0.0534 h -0.08096 v 0.93189 h -0.423746 v -2.25136 h 0.656289 q 0.186035,0 0.337619,0.0327 0.151584,0.031 0.258381,0.10508 0.106798,0.0741 0.163642,0.19292 0.05857,0.11886 0.05857,0.29111 0,0.12403 -0.03617,0.22049 -0.03617,0.0965 -0.10163,0.16709 -0.06546,0.0689 -0.156752,0.11196 -0.08957,0.0431 -0.19637,0.0603 0.08268,0.0172 0.151584,0.0947 0.0689,0.0758 0.137804,0.22049 l 0.360011,0.75447 z m -0.105075,-1.58818 q 0,-0.16537 -0.105075,-0.23772 -0.105075,-0.0723 -0.315226,-0.0723 h -0.186034 v 0.63562 h 0.172254 q 0.09818,0 0.177422,-0.0207 0.08096,-0.0207 0.137804,-0.062 0.05684,-0.0413 0.08785,-0.10163 0.03101,-0.062 0.03101,-0.14124 z m 2.44429,0.90778 q 0,0.18431 -0.0689,0.32039 -0.06718,0.13608 -0.189479,0.22565 -0.122301,0.0879 -0.29111,0.13092 -0.16881,0.0431 -0.368625,0.0431 -0.177422,0 -0.342786,-0.0207 -0.165364,-0.0207 -0.327283,-0.0689 v -0.41858 q 0.07924,0.0276 0.165364,0.0517 0.08613,0.0241 0.172254,0.0431 0.08785,0.0172 0.173977,0.0276 0.08613,0.0103 0.167087,0.0103 0.120578,0 0.204983,-0.0207 0.08441,-0.0207 0.137803,-0.0568 0.0534,-0.0362 0.07751,-0.0861 0.02412,-0.0499 0.02412,-0.11024 0,-0.0827 -0.04823,-0.1378 -0.04651,-0.0569 -0.124023,-0.0999 -0.07751,-0.0431 -0.177422,-0.0775 -0.09818,-0.0345 -0.201538,-0.0741 -0.10163,-0.0396 -0.201537,-0.0896 -0.09818,-0.05 -0.1757,-0.12402 -0.07751,-0.0741 -0.125746,-0.1757 -0.04651,-0.10335 -0.04651,-0.24805 0,-0.13263 0.04823,-0.25149 0.04823,-0.11885 0.151584,-0.2067 0.103353,-0.0896 0.265272,-0.14125 0.161919,-0.0534 0.391018,-0.0534 0.06718,0 0.139526,0.007 0.07407,0.005 0.144693,0.0155 0.07235,0.009 0.137804,0.0224 0.06718,0.0121 0.1223,0.0258 v 0.38758 q -0.05512,-0.0207 -0.120578,-0.0379 -0.06546,-0.0172 -0.136081,-0.0293 -0.0689,-0.0138 -0.139526,-0.0207 -0.07062,-0.007 -0.134358,-0.007 -0.111965,0 -0.18948,0.019 -0.07751,0.0172 -0.127468,0.0499 -0.04995,0.031 -0.07235,0.0775 -0.02239,0.0465 -0.02239,0.10336 0,0.0706 0.04651,0.1223 0.04823,0.0499 0.125746,0.0913 0.07924,0.0396 0.177422,0.0758 0.09991,0.0344 0.20326,0.0758 0.105075,0.0396 0.20326,0.0913 0.09991,0.0517 0.177422,0.12575 0.07924,0.0741 0.125746,0.1757 0.04823,0.0999 0.04823,0.23771 z"
       id="text5"
       style="font-weight:bold;font-size:3.52777px;line-height:0.9;font-family:Consolas;-inkscape-font-specification:'Consolas Bold';text-align:center;text-anchor:middle;stroke-width:0.264583"
       aria-label="RS" />
    <rect
       style="display:inline;fill:#000000;fill-opacity:1;stroke-width:0.112632"
       id="rect2-2-4"
       width="13.619499"
       height="0.66399997"
       x="0.73923016"
       y="77.934685"
       ry="0.27390954" />
    <rect
       style="display:inline;fill:#000000;fill-opacity:1;stroke-width:0.112632"
       id="rect2-9"
       width="13.619499"
       height="0.66399997"
       x="0.73923016"
       y="86.505676"
       ry="0.27390954" />
    <path
       style="display:inline;font-size:3.52777px;line-height:0.9;font-family:Arial;-inkscape-font-specification:Arial;text-align:center;text-anchor:middle;stroke-width:0.264583"
       d="m 6.4205667,60.144886 v -0.356567 h 0.310058 v 0.356567 z m 0,2.168683 v -1.829342 h 0.310058 v 1.829342 z m 0.782035,0 v -1.829342 h 0.279052 v 0.260104 q 0.201538,-0.301445 0.58222,-0.301445 0.165364,0 0.303168,0.06029 0.139526,0.05857 0.208428,0.155029 0.0689,0.09646 0.09646,0.229098 0.01723,0.08613 0.01723,0.301446 v 1.124821 h -0.310057 v -1.112764 q 0,-0.189479 -0.03617,-0.282497 -0.03617,-0.09474 -0.129191,-0.149861 -0.0913,-0.05684 -0.215318,-0.05684 -0.198093,0 -0.342786,0.125746 -0.142972,0.125745 -0.142972,0.477144 v 0.999076 z"
       id="text4-3-1-8"
       aria-label="in" />
    <path
       style="display:inline;font-size:3.52777px;line-height:0.9;font-family:Arial;-inkscape-font-specification:Arial;text-align:center;text-anchor:middle;stroke-width:0.264583"
       d="m 4.8871577,75.755666 -0.559826,-1.829342 h 0.320393 l 0.29111,1.055919 0.10852,0.39274 q 0.0069,-0.02928 0.09474,-0.377237 l 0.29111,-1.071422 h 0.318671 l 0.273884,1.061087 0.0913,0.349676 0.105075,-0.353121 0.313503,-1.057642 h 0.301445 l -0.571884,1.829342 h -0.322121 l -0.29111,-1.095538 -0.07062,-0.311781 -0.370347,1.407319 z m 3.403747,-0.225654 q -0.172254,0.146417 -0.332451,0.206706 -0.158474,0.06029 -0.341064,0.06029 -0.301445,0 -0.463364,-0.146417 -0.161919,-0.148138 -0.161919,-0.377237 0,-0.134358 0.06029,-0.244601 0.06201,-0.111965 0.160197,-0.179145 0.09991,-0.06718 0.22393,-0.10163 0.0913,-0.02411 0.275607,-0.04651 0.375515,-0.04479 0.552937,-0.106798 0.0017,-0.06373 0.0017,-0.08096 0,-0.189479 -0.08785,-0.266994 -0.118856,-0.105075 -0.353122,-0.105075 -0.218763,0 -0.323838,0.07751 -0.103352,0.07579 -0.153306,0.27044 l -0.303168,-0.04134 q 0.04134,-0.194648 0.136081,-0.313503 0.09474,-0.120578 0.273885,-0.184313 0.179144,-0.06546 0.415133,-0.06546 0.234266,0 0.380682,0.05512 0.146416,0.05512 0.215318,0.139526 0.0689,0.08268 0.09646,0.210151 0.0155,0.07924 0.0155,0.285942 v 0.413411 q 0,0.432358 0.01895,0.547768 0.02067,0.113688 0.07924,0.218764 h -0.323835 q -0.04823,-0.09646 -0.06201,-0.225654 z m -0.02584,-0.692462 q -0.168809,0.0689 -0.506428,0.117133 -0.191202,0.02756 -0.270439,0.06201 -0.07924,0.03445 -0.122301,0.10163 -0.04306,0.06546 -0.04306,0.146417 0,0.124023 0.09302,0.206705 0.09474,0.08268 0.275607,0.08268 0.179145,0 0.318671,-0.07752 0.139526,-0.07924 0.204982,-0.215318 0.04995,-0.105075 0.04995,-0.310057 z m 0.795815,-1.250567 v -0.356567 h 0.310058 v 0.356567 z m 0,2.168683 v -1.829342 h 0.310058 v 1.829342 z m 1.4589953,-0.27733 0.04479,0.273884 q -0.130913,0.02756 -0.234266,0.02756 -0.168809,0 -0.261827,-0.0534 -0.09302,-0.0534 -0.1309133,-0.139526 -0.0379,-0.08785 -0.0379,-0.366902 V 74.16748 h -0.22738 v -0.241156 h 0.227376 V 73.473295 L 10.20809,73.28726 v 0.639064 h 0.311781 V 74.16748 H 10.20809 v 1.0697 q 0,0.132636 0.0155,0.170532 0.01723,0.0379 0.0534,0.06029 0.0379,0.02239 0.106798,0.02239 0.05168,0 0.136081,-0.01206 z"
       id="text4-3-1-5-7"
       aria-label="wait" />
    <path
       style="display:inline;font-size:3.52777px;line-height:0.9;font-family:Arial;-inkscape-font-specification:Arial;text-align:center;text-anchor:middle;stroke-width:0.264583"
       d="m 4.8807597,99.508365 -0.559827,-1.82934 h 0.320394 l 0.29111,1.05592 0.10852,0.39273 q 0.0069,-0.0293 0.09474,-0.37723 l 0.29111,-1.07142 h 0.31867 l 0.273885,1.06109 0.0913,0.34967 0.105075,-0.35312 0.313503,-1.05764 h 0.301445 l -0.571885,1.82934 h -0.322115 l -0.29111,-1.09554 -0.07062,-0.31178 -0.370347,1.40732 z m 3.403747,-0.22566 q -0.172254,0.14642 -0.332451,0.20671 -0.158474,0.0603 -0.341064,0.0603 -0.301445,0 -0.463364,-0.14642 -0.161919,-0.14814 -0.161919,-0.37723 0,-0.13436 0.06029,-0.2446 0.06201,-0.11196 0.160196,-0.17914 0.09991,-0.0672 0.223931,-0.10163 0.09129,-0.0241 0.275607,-0.0465 0.375515,-0.0448 0.552937,-0.1068 0.0017,-0.0637 0.0017,-0.081 0,-0.18948 -0.08785,-0.267 -0.118856,-0.10507 -0.353122,-0.10507 -0.218763,0 -0.323838,0.0775 -0.103353,0.0758 -0.153307,0.27043 l -0.303167,-0.0413 q 0.04134,-0.19464 0.136081,-0.3135 0.09474,-0.12058 0.273884,-0.18431 0.179145,-0.0655 0.415133,-0.0655 0.234266,0 0.380683,0.0551 0.146416,0.0551 0.215318,0.13952 0.0689,0.0827 0.09646,0.21016 0.0155,0.0792 0.0155,0.28594 v 0.41341 q 0,0.43235 0.01895,0.54776 0.02067,0.11369 0.07924,0.21877 h -0.323835 q -0.04823,-0.0965 -0.06201,-0.22567 z m -0.02584,-0.69245 q -0.168809,0.0689 -0.506428,0.11713 -0.191202,0.0276 -0.270439,0.062 -0.07924,0.0344 -0.122301,0.10163 -0.04306,0.0655 -0.04306,0.14641 0,0.12402 0.09302,0.2067 0.09474,0.0827 0.275607,0.0827 0.179145,0 0.318671,-0.0775 0.139526,-0.0792 0.204982,-0.21531 0.04995,-0.10507 0.04995,-0.31005 z m 0.795816,-1.25057 v -0.35656 h 0.310057 v 0.35656 z m 0,2.16868 v -1.82934 h 0.310057 v 1.82934 z m 1.4589943,-0.27733 0.04479,0.27388 q -0.130913,0.0276 -0.234266,0.0276 -0.168809,0 -0.261827,-0.0534 -0.09302,-0.0534 -0.1309133,-0.13952 -0.0379,-0.0879 -0.0379,-0.36691 v -1.05251 h -0.22738 v -0.24115 h 0.227376 v -0.45303 l 0.3083353,-0.18603 v 0.63906 h 0.311781 v 0.24115 h -0.311775 v 1.0697 q 0,0.13264 0.0155,0.17053 0.01723,0.0379 0.0534,0.0603 0.0379,0.0224 0.106798,0.0224 0.05168,0 0.136081,-0.0121 z"
       id="text4-3-1-5-5-0"
       aria-label="wait" />
    <path
       d="m 5.6317897,84.163785 q 0,0.30661 -0.07235,0.52882 -0.07062,0.22221 -0.19637,0.36518 -0.124023,0.14297 -0.292832,0.21187 -0.167087,0.0689 -0.358289,0.0689 -0.444416,0 -0.668347,-0.29455 -0.223931,-0.29628 -0.223931,-0.85955 0,-0.30661 0.07062,-0.52882 0.07235,-0.22221 0.196369,-0.36518 0.125746,-0.14297 0.292833,-0.21187 0.168809,-0.0689 0.360011,-0.0689 0.444417,0 0.668347,0.29455 0.223931,0.29456 0.223931,0.85955 z m -0.447861,0.0207 q 0,-0.39962 -0.106798,-0.596 -0.106798,-0.19636 -0.351399,-0.19636 -0.1223,0 -0.208428,0.0517 -0.08613,0.0499 -0.142971,0.14814 -0.05512,0.0982 -0.08096,0.24288 -0.02584,0.14297 -0.02584,0.32901 0,0.39962 0.106797,0.596 0.108521,0.19636 0.351399,0.19636 0.122301,0 0.208428,-0.0499 0.08785,-0.0517 0.142971,-0.14986 0.05512,-0.0982 0.08096,-0.24116 0.02584,-0.14469 0.02584,-0.33073 z m 2.325433,0.20843 q 0,0.24116 -0.0689,0.41686 -0.06718,0.1757 -0.189479,0.29283 -0.120579,0.11541 -0.285943,0.17226 -0.165364,0.0551 -0.360011,0.0551 -0.06546,0 -0.130913,-0.009 -0.06546,-0.009 -0.118856,-0.0224 v 0.68385 h -0.4203 v -2.43395 h 0.363456 l 0.01034,0.25838 q 0.0534,-0.0672 0.110242,-0.1223 0.05857,-0.0551 0.125746,-0.093 0.06718,-0.0396 0.144694,-0.0603 0.07751,-0.0207 0.173976,-0.0207 0.155029,0 0.275607,0.062 0.120578,0.062 0.201538,0.17743 0.08268,0.11369 0.125746,0.27733 0.04306,0.16191 0.04306,0.36518 z m -0.440971,0.0172 q 0,-0.1447 -0.02067,-0.24633 -0.02067,-0.10163 -0.06029,-0.16708 -0.0379,-0.0655 -0.09474,-0.0947 -0.05512,-0.031 -0.127468,-0.031 -0.106798,0 -0.204983,0.0861 -0.09646,0.0861 -0.204982,0.23426 v 0.76481 q 0.04995,0.019 0.1223,0.031 0.07407,0.0121 0.149862,0.0121 0.09991,0 0.180867,-0.0413 0.08268,-0.0413 0.139526,-0.11713 0.05857,-0.0758 0.08957,-0.18431 0.03101,-0.11024 0.03101,-0.24633 z m 2.330601,-0.12058 q 0,0.0431 -0.0034,0.11196 -0.0017,0.0689 -0.0069,0.12919 h -1.150658 q 0,0.11541 0.03445,0.20326 0.03617,0.0878 0.09991,0.14814 0.06546,0.0586 0.155029,0.0896 0.09129,0.031 0.201537,0.031 0.127468,0 0.272162,-0.0189 0.146416,-0.0207 0.303168,-0.0655 v 0.33417 q -0.06718,0.0189 -0.146416,0.0344 -0.07924,0.0155 -0.161919,0.0276 -0.08268,0.0121 -0.167087,0.0172 -0.0844,0.007 -0.163642,0.007 -0.199815,0 -0.358289,-0.0568 -0.158474,-0.0569 -0.268717,-0.16709 -0.110242,-0.11197 -0.168809,-0.27561 -0.05857,-0.16364 -0.05857,-0.37896 0,-0.21359 0.05857,-0.38757 0.05857,-0.1757 0.165364,-0.29972 0.106798,-0.12575 0.258382,-0.19293 0.153306,-0.0689 0.341064,-0.0689 0.186034,0 0.329005,0.0586 0.142971,0.0568 0.239434,0.16019 0.09646,0.10336 0.146416,0.24633 0.04995,0.14297 0.04995,0.3135 z m -0.427191,-0.0603 q 0.0017,-0.10335 -0.02584,-0.17915 -0.02756,-0.0775 -0.07579,-0.12746 -0.04651,-0.05 -0.110242,-0.0741 -0.06201,-0.0241 -0.134359,-0.0241 -0.158474,0 -0.260104,0.1068 -0.10163,0.10507 -0.120578,0.298 z m 1.8861853,1.0697 v -1.14032 q 0,-0.28767 -0.213595,-0.28767 -0.106798,0 -0.204983,0.0861 -0.09646,0.0861 -0.204983,0.23426 v 1.1076 H 9.8141247 v -1.7501 h 0.3634563 l 0.01033,0.25838 q 0.0534,-0.0672 0.110243,-0.1223 0.05857,-0.0551 0.125746,-0.093 0.06718,-0.0396 0.144693,-0.0603 0.07752,-0.0207 0.173977,-0.0207 0.134358,0 0.234266,0.0448 0.09991,0.0431 0.167087,0.12402 0.06718,0.0792 0.09991,0.19293 0.03445,0.11196 0.03445,0.25149 v 1.17477 z"
       id="text5-2-1"
       style="display:inline;font-weight:bold;font-size:13.3333px;line-height:0.9;font-family:Consolas;-inkscape-font-specification:'Consolas Bold';text-align:center;white-space:pre;stroke-width:0.264583"
       aria-label="Open" />
    <path
       d="m 3.5457907,47.089967 q -0.149862,0.06029 -0.29111,0.08957 -0.139526,0.02928 -0.29111,0.02928 -0.242879,0 -0.430636,-0.07062 -0.186035,-0.07235 -0.315225,-0.213596 -0.127468,-0.141248 -0.194648,-0.349676 -0.06546,-0.210151 -0.06546,-0.487479 0,-0.284221 0.07235,-0.504706 0.07235,-0.222207 0.206705,-0.373793 0.134359,-0.153304 0.325561,-0.232542 0.192925,-0.08096 0.432359,-0.08096 0.07751,0 0.144693,0.0034 0.0689,0.0034 0.134359,0.01378 0.06546,0.0086 0.132635,0.0241 0.06718,0.0155 0.139527,0.03962 v 0.420301 q -0.146417,-0.0689 -0.279053,-0.09818 -0.132635,-0.02928 -0.241156,-0.02928 -0.160196,0 -0.273884,0.05857 -0.113688,0.05685 -0.187757,0.16192 -0.07235,0.103352 -0.106798,0.248047 -0.03445,0.14297 -0.03445,0.315225 0,0.182588 0.03445,0.327284 0.03617,0.14297 0.110243,0.242877 0.07407,0.09991 0.18948,0.153307 0.11541,0.05168 0.273884,0.05168 0.05684,0 0.122301,-0.01034 0.06718,-0.01206 0.134358,-0.02928 0.0689,-0.01894 0.134358,-0.04306 0.06718,-0.02582 0.124024,-0.05168 z m 1.014578,-2.018821 h -0.494371 v -0.327282 h 0.925006 v 2.106671 h 0.504706 v 0.327281 h -1.49 v -0.327281 h 0.554658 z m 2.950716,1.21784 q 0,0.206703 -0.05857,0.378957 -0.05857,0.170532 -0.168809,0.292833 -0.110243,0.122301 -0.270439,0.189481 -0.160197,0.06718 -0.365179,0.06718 -0.194648,0 -0.347954,-0.05684 -0.153306,-0.05685 -0.260104,-0.16881 -0.106798,-0.113688 -0.163642,-0.282498 -0.05684,-0.170532 -0.05684,-0.396184 0,-0.208428 0.05857,-0.37896 0.06029,-0.170532 0.170532,-0.291108 0.111966,-0.120579 0.272162,-0.186037 0.160196,-0.06718 0.361734,-0.06718 0.19637,0 0.349676,0.05857 0.153307,0.05684 0.260105,0.170532 0.106797,0.113689 0.161919,0.282498 0.05684,0.167085 0.05684,0.387573 z m -0.437526,0.01034 q 0,-0.272164 -0.103352,-0.408244 -0.10163,-0.137803 -0.301445,-0.137803 -0.110243,0 -0.187758,0.04306 -0.07751,0.04306 -0.127468,0.118856 -0.04995,0.07407 -0.07407,0.173977 -0.02239,0.09991 -0.02239,0.213596 0,0.273883 0.110243,0.413408 0.110243,0.137806 0.301445,0.137806 0.105075,0 0.18259,-0.04134 0.07751,-0.04306 0.125746,-0.117134 0.04823,-0.07579 0.07235,-0.177421 0.02412,-0.101632 0.02412,-0.218763 z m 2.244474,0.363455 q 0,0.149863 -0.06718,0.256659 -0.06546,0.105077 -0.1757,0.172255 -0.10852,0.06546 -0.248046,0.09474 -0.137803,0.03101 -0.282497,0.03101 -0.192925,0 -0.347954,-0.01894 -0.155029,-0.01722 -0.292832,-0.05168 v -0.378957 q 0.161919,0.06718 0.322116,0.09818 0.161919,0.02928 0.30489,0.02928 0.165364,0 0.246324,-0.05168 0.08268,-0.0534 0.08268,-0.137803 0,-0.03962 -0.01722,-0.07235 -0.01722,-0.03273 -0.06546,-0.06201 -0.04651,-0.03101 -0.132635,-0.06201 -0.08613,-0.03273 -0.225654,-0.07235 -0.12919,-0.03617 -0.227375,-0.08096 -0.09646,-0.04651 -0.160197,-0.108519 -0.06373,-0.06201 -0.09646,-0.142973 -0.03101,-0.08268 -0.03101,-0.192924 0,-0.106799 0.04823,-0.201538 0.04823,-0.09474 0.142971,-0.165365 0.09646,-0.07234 0.239434,-0.113686 0.142971,-0.04134 0.334173,-0.04134 0.165364,0 0.292832,0.01722 0.127469,0.01722 0.225654,0.0379 v 0.342786 q -0.149862,-0.04823 -0.282498,-0.06718 -0.130913,-0.02066 -0.260103,-0.02066 -0.129191,0 -0.208428,0.04651 -0.07751,0.04651 -0.07751,0.129191 0,0.03962 0.0155,0.07062 0.0155,0.031 0.06029,0.06029 0.04651,0.02928 0.127468,0.06201 0.08268,0.03101 0.21704,0.0689 0.151584,0.04306 0.254937,0.09302 0.103352,0.04823 0.165364,0.110244 0.06373,0.06201 0.09129,0.141248 0.02756,0.07924 0.02756,0.180866 z m 2.0205433,-0.494368 q 0,0.04306 -0.0034,0.111963 -0.0017,0.0689 -0.0069,0.129191 h -1.150659 q 0,0.115411 0.03445,0.203261 0.03617,0.08785 0.09991,0.148137 0.06546,0.05857 0.155029,0.08957 0.0913,0.031 0.201538,0.031 0.127468,0 0.272162,-0.01894 0.146416,-0.02066 0.303167,-0.06546 v 0.334174 q -0.06718,0.01894 -0.146416,0.03445 -0.07924,0.01551 -0.161919,0.02756 -0.08268,0.01206 -0.167087,0.01722 -0.0844,0.0069 -0.163641,0.0069 -0.199815,0 -0.358289,-0.05684 -0.158474,-0.05684 -0.2687173,-0.167087 -0.110243,-0.111966 -0.168809,-0.275608 -0.05857,-0.16364 -0.05857,-0.378957 0,-0.213596 0.05857,-0.387573 0.05857,-0.175699 0.165364,-0.299722 0.1067973,-0.125746 0.2583813,-0.192927 0.153307,-0.0689 0.341064,-0.0689 0.186035,0 0.329006,0.05857 0.142971,0.05684 0.239433,0.160197 0.09646,0.103352 0.146416,0.246322 0.04995,0.142973 0.04995,0.313505 z m -0.42719,-0.06029 q 0.0017,-0.103352 -0.02584,-0.179144 -0.02756,-0.07751 -0.07579,-0.127468 -0.04651,-0.04995 -0.110243,-0.07407 -0.06201,-0.0241 -0.134358,-0.0241 -0.158474,0 -0.260105,0.106796 -0.101629,0.105077 -0.120578,0.298001 z m 1.943029,1.0697 -0.01033,-0.258382 q -0.05512,0.06718 -0.113688,0.122301 -0.05857,0.05512 -0.125745,0.09474 -0.06718,0.0379 -0.144694,0.05857 -0.07579,0.02238 -0.168809,0.02238 -0.155029,0 -0.275607,-0.06201 -0.120578,-0.06201 -0.20326,-0.175699 -0.08096,-0.115411 -0.124024,-0.279053 -0.04306,-0.163643 -0.04306,-0.365178 0,-0.241157 0.06718,-0.416857 0.0689,-0.177421 0.18948,-0.292833 0.120578,-0.117133 0.285942,-0.172254 0.165364,-0.05684 0.360012,-0.05684 0.06546,0 0.130913,0.0086 0.06718,0.0086 0.118855,0.02238 v -0.68385 h 0.420301 v 2.433953 z m -0.768254,-0.861268 q 0,0.144695 0.01895,0.248047 0.02067,0.101629 0.05857,0.167087 0.03962,0.06546 0.09646,0.09646 0.05684,0.02928 0.129191,0.02928 0.106798,0 0.20326,-0.08613 0.09646,-0.08613 0.204983,-0.23599 v -0.76481 q -0.04995,-0.01894 -0.124023,-0.031 -0.07235,-0.01206 -0.146416,-0.01206 -0.10163,0 -0.18259,0.04134 -0.08096,0.04134 -0.139526,0.117134 -0.05684,0.07579 -0.08785,0.186034 -0.03101,0.108521 -0.03101,0.244602 z"
       id="text5-2-0-1"
       style="display:inline;font-weight:bold;font-size:13.3333px;line-height:0.9;font-family:Consolas;-inkscape-font-specification:'Consolas Bold';text-align:center;white-space:pre;stroke-width:0.264583"
       aria-label="Closed" />
    <rect
       style="display:inline;fill:#000000;fill-opacity:1;stroke-width:0.112632"
       id="rect2-6-9"
       width="13.619499"
       height="0.66399997"
       x="0.73923016"
       y="48.384552"
       ry="0.27390954" />
    <rect
       style="display:inline;fill:#000000;fill-opacity:1;stroke-width:0.112632"
       id="rect2-2-1-5"
       width="13.619499"
       height="0.66399997"
       x="0.73923016"
       y="39.813557"
       ry="0.27390954" />
    <path
       d="m 3.7550777,37.77772 v -1.829342 h 0.279052 v 0.277329 q 0.106797,-0.194647 0.19637,-0.256659 0.09129,-0.06201 0.199815,-0.06201 0.156751,0 0.318671,0.09991 l -0.106798,0.287665 q -0.113688,-0.06718 -0.227376,-0.06718 -0.10163,0 -0.18259,0.06201 -0.08096,0.06029 -0.11541,0.168809 -0.05168,0.165364 -0.05168,0.361734 v 0.957735 z m 2.430509,-0.58911 0.320393,0.03962 q -0.07579,0.280775 -0.280774,0.435804 -0.204983,0.155029 -0.523654,0.155029 -0.401352,0 -0.637341,-0.246324 -0.234266,-0.248046 -0.234266,-0.694185 0,-0.461642 0.237711,-0.716579 0.237711,-0.254936 0.616671,-0.254936 0.366902,0 0.599445,0.249769 0.232544,0.249769 0.232544,0.702798 0,0.02756 -0.0017,0.08268 h -1.364278 q 0.01722,0.301445 0.170532,0.461642 0.153307,0.160196 0.382405,0.160196 0.170532,0 0.29111,-0.08957 0.120578,-0.08957 0.191202,-0.285942 z m -1.018023,-0.501261 h 1.021468 q -0.02067,-0.230821 -0.117133,-0.346231 -0.148138,-0.179145 -0.384127,-0.179145 -0.213595,0 -0.360012,0.142971 -0.144693,0.142972 -0.160196,0.382405 z m 1.603688,0.544324 0.306613,-0.04823 q 0.02584,0.184312 0.142971,0.282497 0.118856,0.09819 0.330729,0.09819 0.213595,0 0.316948,-0.08613 0.103352,-0.08785 0.103352,-0.204983 0,-0.105075 -0.09129,-0.165364 -0.06373,-0.04134 -0.316948,-0.105075 -0.341063,-0.08613 -0.473699,-0.148139 -0.130914,-0.06373 -0.199815,-0.173977 -0.06718,-0.111965 -0.06718,-0.246324 0,-0.1223 0.05512,-0.225653 0.05684,-0.105075 0.153306,-0.173977 0.07235,-0.0534 0.19637,-0.08957 0.125746,-0.0379 0.268717,-0.0379 0.215318,0 0.377237,0.06201 0.163642,0.06201 0.241156,0.16881 0.07751,0.105075 0.106798,0.282497 l -0.303168,0.04134 q -0.02067,-0.141249 -0.120578,-0.220486 -0.09819,-0.07924 -0.279052,-0.07924 -0.213596,0 -0.30489,0.07062 -0.0913,0.07062 -0.0913,0.165364 0,0.06029 0.0379,0.10852 0.0379,0.04995 0.118855,0.08268 0.04651,0.01723 0.273885,0.07924 0.329006,0.08785 0.458196,0.144694 0.130914,0.05512 0.204983,0.161919 0.07407,0.106798 0.07407,0.265272 0,0.155029 -0.09129,0.292832 -0.08957,0.136081 -0.260104,0.211873 -0.170532,0.07407 -0.38585,0.07407 -0.356566,0 -0.544324,-0.148139 -0.186035,-0.148139 -0.237711,-0.439249 z m 3.140198,-0.04306 0.3203933,0.03962 q -0.07579,0.280775 -0.2807753,0.435804 -0.204982,0.155029 -0.523653,0.155029 -0.401353,0 -0.637341,-0.246324 -0.234266,-0.248046 -0.234266,-0.694185 0,-0.461642 0.237711,-0.716579 0.237711,-0.254936 0.616671,-0.254936 0.366901,0 0.5994453,0.249769 0.232543,0.249769 0.232543,0.702798 0,0.02756 -0.0017,0.08268 H 8.8762007 q 0.01723,0.301445 0.170532,0.461642 0.153306,0.160196 0.382405,0.160196 0.170531,0 0.291109,-0.08957 0.120579,-0.08957 0.191203,-0.285942 z m -1.018024,-0.501264 h 1.021469 q -0.02067,-0.230821 -0.117133,-0.346231 -0.148139,-0.179145 -0.384127,-0.179145 -0.213596,0 -0.360012,0.142971 -0.144694,0.142972 -0.160197,0.382405 z m 2.4046723,0.813041 0.04479,0.273884 q -0.130914,0.02756 -0.234266,0.02756 -0.168809,0 -0.261827,-0.0534 -0.09302,-0.0534 -0.130913,-0.139526 -0.0379,-0.08785 -0.0379,-0.366902 v -1.052474 h -0.227376 v -0.241156 h 0.227376 v -0.453029 l 0.308335,-0.186035 v 0.639064 h 0.311781 v 0.241156 h -0.311781 v 1.0697 q 0,0.132636 0.0155,0.170532 0.01723,0.0379 0.0534,0.06029 0.0379,0.02239 0.106798,0.02239 0.05168,0 0.136081,-0.01206 z"
       id="text2-9"
       style="display:inline;font-size:3.52777px;line-height:0.9;font-family:Arial;-inkscape-font-specification:Arial;text-align:center;letter-spacing:0px;text-anchor:middle;stroke:#000000;stroke-width:0.264583;stroke-opacity:0"
       aria-label="reset" />
  </g>
  <g
     inkscape:groupmode="layer"
     id="layer2"
     inkscape:label="components"
     style="display:none">
    <circle
       style="fill:#0000ff;fill-opacity:1;stroke-width:0.256914"
       id="path2-6-1"
       cx="7.6199999"
       cy="106.08877"
       r="3.1535001"
       inkscape:label="signal" />
    <circle
       style="display:inline;fill:#ff00ff;fill-opacity:1;stroke-width:0.0939752"
       id="path2-6-8-3-0-3"
       cx="7.6263981"
       cy="16.846066"
       r="1.1535"
       inkscape:label="zero" />
    <circle
       style="display:inline;fill:#00ff00;fill-opacity:1;stroke-width:0.256914"
       id="path2-4"
       cx="7.6199999"
       cy="30.311501"
       r="3.1535001"
       inkscape:label="reset" />
    <circle
       style="display:inline;fill:#00ff00;fill-opacity:1;stroke-width:0.256914"
       id="path2-6-4"
       cx="7.5553789"
       cy="54.508408"
       r="3.1535001"
       inkscape:label="signal" />
    <circle
       style="display:inline;fill:#ff0000;fill-opacity:1;stroke-width:0.256914"
       id="path2-6-8-8"
       cx="7.5553789"
       cy="68.294083"
       r="3.1535001"
       inkscape:label="closedWait" />
    <circle
       style="display:inline;fill:#ff0000;fill-opacity:1;stroke-width:0.256914"
       id="path2-6-8-4-1"
       cx="7.5489798"
       cy="91.937386"
       r="3.1535001"
       inkscape:label="openWait" />
    <circle
       style="display:inline;fill:#ff00ff;fill-opacity:1;stroke-width:0.0939752"
       id="path2-6-8-3-4"
       cx="7.5489798"
       cy="80.804184"
       inkscape:label="open"
       r="1.1535" />
    <circle
       style="display:inline;fill:#ff00ff;fill-opacity:1;stroke-width:0.0939752"
       id="path2-6-8-3-0-7"
       cx="7.5489798"
       cy="42.683056"
       r="1.1535"
       inkscape:label="closed" />
  </g>
</svg>
