<?xml version="1.0" encoding="UTF-8" standalone="no"?>
<!-- Created with Inkscape (http://www.inkscape.org/) -->

<svg
   width="25.4mm"
   height="128.5mm"
   viewBox="0 0 25.4 128.5"
   version="1.1"
   id="svg1"
   inkscape:version="1.3 (0e150ed6c4, 2023-07-21)"
   sodipodi:docname="WaitGate_Duo.svg"
   xmlns:inkscape="http://www.inkscape.org/namespaces/inkscape"
   xmlns:sodipodi="http://sodipodi.sourceforge.net/DTD/sodipodi-0.dtd"
   xmlns="http://www.w3.org/2000/svg"
   xmlns:svg="http://www.w3.org/2000/svg">
  <sodipodi:namedview
     id="namedview1"
     pagecolor="#505050"
     bordercolor="#ffffff"
     borderopacity="1"
     inkscape:showpageshadow="0"
     inkscape:pageopacity="0"
     inkscape:pagecheckerboard="1"
     inkscape:deskcolor="#505050"
     inkscape:document-units="mm"
     showgrid="false"
     inkscape:zoom="1.4788808"
     inkscape:cx="-38.542661"
     inkscape:cy="244.44161"
     inkscape:window-width="1920"
     inkscape:window-height="991"
     inkscape:window-x="-9"
     inkscape:window-y="-9"
     inkscape:window-maximized="1"
     inkscape:current-layer="layer2">
    <inkscape:grid
       id="grid1"
       units="mm"
       originx="0"
       originy="0"
       spacingx="1"
       spacingy="1"
       empcolor="#0099e5"
       empopacity="0.30196078"
       color="#0099e5"
       opacity="0.14901961"
       empspacing="5"
       dotted="false"
       gridanglex="30"
       gridanglez="30"
       visible="false" />
  </sodipodi:namedview>
  <defs
     id="defs1">
    <rect
       x="16.88126"
       y="442.32944"
       width="32.284557"
       height="22.984785"
       id="rect5" />
    <rect
       x="16.88126"
       y="442.32944"
       width="60.439163"
       height="14.624552"
       id="rect5-6" />
    <rect
       x="16.88126"
       y="442.32944"
       width="60.439163"
       height="14.624552"
       id="rect5-6-3" />
  </defs>
  <g
     inkscape:label="Layer 1"
     inkscape:groupmode="layer"
     id="layer1">
    <rect
       style="fill:#7add55;fill-opacity:1;stroke-width:0.341597"
       id="rect1"
       width="25.395824"
       height="128.5"
       x="0.0041754646"
       y="-6.9467002e-15"
       ry="0"
       rx="0" />
    <path
       d="M 8.9908459,10.234971 H 8.0947766 L 7.694801,8.9854342 7.5490735,8.4769381 7.4095471,8.9978366 7.0157727,10.234971 H 6.1569104 L 5.9305676,6.1825046 h 0.6728272 l 0.096118,2.598291 0.024805,0.7100341 L 6.9072522,8.8583102 7.3537366,7.4165378 H 7.8343274 L 8.3056164,8.9451266 8.4575451,9.4846285 8.4699475,8.852109 8.5722668,6.1825046 H 9.2202893 Z M 11.737965,8.0893649 q 0.151929,0.083716 0.288355,0.1860352 0.139526,0.099219 0.241845,0.2325439 0.10542,0.1302246 0.164331,0.2976562 0.06201,0.1643311 0.06201,0.3751709 0,0.2759522 -0.111621,0.486792 -0.111621,0.2108399 -0.310058,0.3534669 -0.195337,0.142627 -0.461988,0.213941 -0.26355,0.07131 -0.570508,0.07131 -0.341064,0 -0.604614,-0.07131 Q 10.17527,10.160556 9.9954358,10.027231 9.8187024,9.8939059 9.7256849,9.7047701 9.6357679,9.5156344 9.6357679,9.2830905 q 0,-0.2077393 0.058911,-0.3689698 0.062012,-0.164331 0.1674317,-0.2976562 0.10542,-0.1333252 0.2418454,-0.2387451 0.139527,-0.1054199 0.294556,-0.1953369 -0.139526,-0.080615 -0.26355,-0.1767334 -0.120923,-0.096118 -0.2139402,-0.217041 -0.093018,-0.1209229 -0.1488282,-0.269751 -0.05271,-0.1488281 -0.05271,-0.3379639 0,-0.2201416 0.083716,-0.4123779 0.086816,-0.1953369 0.2542484,-0.3410644 0.170532,-0.1457276 0.42478,-0.2294434 0.257349,-0.083716 0.601513,-0.083716 0.31626,0 0.564307,0.068213 0.248047,0.065112 0.415479,0.1891357 0.170532,0.1240235 0.257348,0.2976563 0.08992,0.1705322 0.08992,0.3782714 0,0.1922364 -0.05271,0.3472657 -0.05271,0.1550293 -0.142627,0.2821533 -0.08992,0.1240235 -0.21394,0.2263428 -0.124024,0.099219 -0.26355,0.1860352 z M 11.142653,7.7979098 q 0.111621,-0.062012 0.207739,-0.1302246 0.09922,-0.071313 0.170532,-0.1550293 0.07131,-0.083716 0.114722,-0.1829345 0.04341,-0.099219 0.04341,-0.2201416 0,-0.2015381 -0.15813,-0.306958 -0.15813,-0.10542 -0.455786,-0.10542 -0.291455,0 -0.449585,0.1085205 -0.15813,0.1085205 -0.15813,0.3255616 0,0.1178222 0.05271,0.2108398 0.05271,0.093018 0.145728,0.1736328 0.09302,0.077515 0.217041,0.1457275 0.127124,0.068213 0.269751,0.1364258 z m -0.15813,0.6852295 q -0.120923,0.065112 -0.229444,0.1395264 -0.105419,0.074414 -0.186035,0.164331 -0.07752,0.089917 -0.124023,0.1984375 -0.04651,0.1054199 -0.04651,0.2387451 0,0.2356446 0.182934,0.359668 0.182935,0.1240234 0.483692,0.1240234 0.136426,0 0.257349,-0.027905 0.120922,-0.027905 0.210839,-0.086816 0.09302,-0.058911 0.145728,-0.1488282 0.05271,-0.093018 0.05271,-0.2201416 0,-0.1302246 -0.05891,-0.2325439 Q 11.613942,8.8862155 11.511622,8.7993991 11.409303,8.7125827 11.272877,8.635068 11.136451,8.5575534 10.984523,8.4831393 Z m 3.590478,0.037207 V 7.8909274 h 1.441773 v 2.1611086 q -0.279053,0.130225 -0.58291,0.192236 -0.303858,0.06201 -0.660425,0.06201 -0.42168,0 -0.759644,-0.130225 -0.334863,-0.130222 -0.570508,-0.387571 -0.235644,-0.2573487 -0.362768,-0.6387207 -0.124024,-0.3813721 -0.124024,-0.883667 0,-0.5053955 0.130225,-0.9053711 0.133325,-0.3999756 0.384473,-0.6759277 0.254248,-0.2790527 0.620117,-0.4247803 0.36897,-0.1457275 0.840259,-0.1457275 0.279052,0 0.542602,0.049609 0.266651,0.046509 0.5302,0.127124 V 7.0444675 Q 15.774928,6.9359469 15.495875,6.8677341 15.219923,6.7964201 14.93777,6.7964201 q -0.285254,0 -0.505396,0.099219 -0.217041,0.099219 -0.365869,0.2821533 -0.145727,0.1829346 -0.223242,0.449585 -0.07441,0.2666504 -0.07441,0.6015137 0,0.3224609 0.05891,0.5829101 0.05891,0.2573486 0.189136,0.4402832 0.133325,0.179834 0.341064,0.2759522 0.207739,0.096118 0.505396,0.096118 0.07131,0 0.124023,-0.0031 0.05271,-0.0062 0.09922,-0.015503 0.04651,-0.0093 0.08682,-0.021704 0.04341,-0.012402 0.08992,-0.027905 V 8.5203463 Z m 4.145484,-0.4309814 q 0.151929,0.083716 0.288354,0.1860352 0.139527,0.099219 0.241846,0.2325439 0.10542,0.1302246 0.164331,0.2976562 0.06201,0.1643311 0.06201,0.3751709 0,0.2759522 -0.111621,0.486792 -0.111621,0.2108399 -0.310059,0.3534669 -0.195337,0.142627 -0.461987,0.213941 -0.26355,0.07131 -0.570508,0.07131 -0.341064,0 -0.604614,-0.07131 -0.260449,-0.07442 -0.440283,-0.20774 -0.176734,-0.1333251 -0.269751,-0.3224609 -0.08992,-0.1891357 -0.08992,-0.4216796 0,-0.2077393 0.05891,-0.3689698 0.06201,-0.164331 0.167432,-0.2976562 0.105419,-0.1333252 0.241845,-0.2387451 0.139527,-0.1054199 0.294556,-0.1953369 -0.139527,-0.080615 -0.26355,-0.1767334 -0.120923,-0.096118 -0.21394,-0.217041 -0.09302,-0.1209229 -0.148828,-0.269751 -0.05271,-0.1488281 -0.05271,-0.3379639 0,-0.2201416 0.08371,-0.4123779 0.08682,-0.1953369 0.254248,-0.3410644 0.170533,-0.1457276 0.424781,-0.2294434 0.257348,-0.083716 0.601513,-0.083716 0.31626,0 0.564307,0.068213 0.248047,0.065112 0.415478,0.1891357 0.170533,0.1240235 0.257349,0.2976563 0.08992,0.1705322 0.08992,0.3782714 0,0.1922364 -0.05271,0.3472657 -0.05271,0.1550293 -0.142627,0.2821533 -0.08992,0.1240234 -0.21394,0.2263427 -0.124024,0.099219 -0.26355,0.1860352 z M 18.125172,7.7979098 q 0.111622,-0.062012 0.20774,-0.1302246 0.09922,-0.071313 0.170532,-0.1550293 0.07131,-0.083716 0.114722,-0.1829345 0.04341,-0.099219 0.04341,-0.2201416 0,-0.2015381 -0.15813,-0.306958 -0.15813,-0.10542 -0.455786,-0.10542 -0.291455,0 -0.449585,0.1085205 -0.15813,0.1085205 -0.15813,0.3255616 0,0.1178222 0.05271,0.2108398 0.05271,0.093018 0.145727,0.1736328 0.09302,0.077515 0.217042,0.1457275 0.127124,0.068213 0.26975,0.1364258 z m -0.158129,0.6852295 q -0.120923,0.065112 -0.229444,0.1395264 -0.10542,0.074414 -0.186035,0.164331 -0.07752,0.089917 -0.124023,0.1984375 -0.04651,0.1054199 -0.04651,0.2387451 0,0.2356446 0.182934,0.359668 0.182935,0.1240234 0.483692,0.1240234 0.136426,0 0.257348,-0.027905 0.120923,-0.027905 0.21084,-0.086816 0.09302,-0.058911 0.145728,-0.1488282 0.05271,-0.093018 0.05271,-0.2201416 0,-0.1302246 -0.05891,-0.2325439 Q 18.596462,8.8862155 18.494142,8.7993991 18.391823,8.7125827 18.255397,8.635068 18.118971,8.5575534 17.967043,8.4831393 Z"
       id="text1"
       style="font-weight:bold;font-size:6.35px;line-height:0.9;font-family:Consolas;-inkscape-font-specification:'Consolas Bold';text-align:center;letter-spacing:0px;text-anchor:middle;stroke:#000000;stroke-width:0.264583;stroke-opacity:0"
       aria-label="W8G8" />
    <rect
       style="fill:#000000;fill-opacity:1;stroke-width:0.148827"
       id="rect2"
       width="23.779499"
       height="0.66399997"
       x="0.81025028"
       y="86.505302"
       ry="0.27390954" />
    <rect
       style="fill:#000000;fill-opacity:1;stroke-width:0.148827"
       id="rect2-20"
       width="23.779499"
       height="0.66399997"
       x="0.81025028"
       y="116.732"
       ry="0.27390954" />
    <rect
       style="fill:#000000;fill-opacity:1;stroke-width:0.148827"
       id="rect2-2"
       width="23.779499"
       height="0.66399997"
       x="0.81025028"
       y="77.934311"
       ry="0.27390954" />
    <rect
       style="fill:#ff63e9;fill-opacity:1;stroke-width:0.302914"
       id="rect4"
       width="10.776912"
       height="13.189312"
       x="1.6858639"
       y="101.559"
       ry="1.4404136" />
    <rect
       style="display:inline;fill:#ff63e9;fill-opacity:1;stroke-width:0.302914"
       id="rect4-8"
       width="10.776912"
       height="13.189312"
       x="13.178614"
       y="101.559"
       ry="1.4404136" />
    <path
       style="font-size:3.52777px;line-height:0.9;font-family:Arial;-inkscape-font-specification:Arial;text-align:center;text-anchor:middle;stroke-width:0.264583"
       d="m 3.0471921,38.301325 v -2.530417 h 0.2824972 v 0.237711 q 0.099908,-0.139526 0.2256533,-0.208428 0.1257457,-0.07062 0.3048903,-0.07062 0.234266,0 0.4134105,0.120578 0.1791446,0.120578 0.2704394,0.341063 0.091295,0.218763 0.091295,0.48059 0,0.280775 -0.1016301,0.506428 -0.099908,0.223931 -0.2928325,0.344509 -0.1912024,0.118855 -0.4030753,0.118855 -0.155029,0 -0.2790521,-0.06546 -0.1223006,-0.06546 -0.2015377,-0.165364 v 0.890555 z m 0.2807747,-1.605411 q 0,0.353121 0.1429711,0.521931 0.1429712,0.168809 0.3462314,0.168809 0.2067053,0 0.3531215,-0.173977 0.1481388,-0.1757 0.1481388,-0.542601 0,-0.349677 -0.1446937,-0.523654 -0.1429712,-0.173977 -0.3427863,-0.173977 -0.1980925,0 -0.3513989,0.186035 -0.1515839,0.184312 -0.1515839,0.537434 z m 2.8800935,0.904335 V 37.331532 Q 5.9944649,37.64159 5.627563,37.64159 q -0.1619191,0 -0.3031677,-0.06201 -0.1395261,-0.06201 -0.2084278,-0.155029 -0.067179,-0.09474 -0.09474,-0.230821 -0.018948,-0.09129 -0.018948,-0.289387 v -1.133434 h 0.310058 v 1.014578 q 0,0.242879 0.018948,0.327283 0.029283,0.122301 0.1240232,0.192925 0.09474,0.0689 0.234266,0.0689 0.1395261,0 0.2618267,-0.07062 0.1223006,-0.07235 0.1722544,-0.194648 0.051676,-0.124023 0.051676,-0.358289 v -0.98013 h 0.3100581 v 1.829341 z m 0.7561969,0 V 35.075 h 0.310058 v 2.525249 z m 0.666624,-0.546046 0.306613,-0.04823 q 0.02584,0.184312 0.142971,0.282497 0.118856,0.09818 0.330729,0.09818 0.213595,0 0.316948,-0.08613 0.103353,-0.08785 0.103353,-0.204983 0,-0.105075 -0.0913,-0.165364 -0.06373,-0.04133 -0.316948,-0.105068 -0.341064,-0.08613 -0.4737,-0.148139 -0.130913,-0.06373 -0.199815,-0.173977 -0.06718,-0.111966 -0.06718,-0.246324 0,-0.122301 0.05512,-0.225653 0.05684,-0.105075 0.153306,-0.173977 0.07235,-0.0534 0.19637,-0.08957 0.125746,-0.0379 0.268717,-0.0379 0.215318,0 0.377237,0.06201 0.163642,0.06201 0.241157,0.168809 0.07751,0.105076 0.106797,0.282498 l -0.303167,0.04134 q -0.02067,-0.141249 -0.120579,-0.220486 -0.09819,-0.07924 -0.279052,-0.07924 -0.213595,0 -0.30489,0.07062 -0.09129,0.07062 -0.09129,0.165365 0,0.06029 0.0379,0.10852 0.0379,0.04995 0.118856,0.08268 0.04651,0.01722 0.273884,0.07924 0.329006,0.08785 0.458197,0.144694 0.130913,0.05512 0.204983,0.161919 0.07407,0.106798 0.07407,0.265272 0,0.155029 -0.09129,0.292832 -0.08957,0.136081 -0.260105,0.211873 -0.170531,0.07407 -0.385849,0.07407 -0.356567,0 -0.544324,-0.148138 -0.186034,-0.14813 -0.237711,-0.43924 z m 3.1401978,-0.04306 0.320394,0.03962 q -0.07579,0.280774 -0.280775,0.435803 -0.204983,0.155029 -0.523653,0.155029 -0.4013529,0 -0.6373419,-0.246323 -0.2342659,-0.248047 -0.2342659,-0.694186 0,-0.461641 0.2377109,-0.716578 0.237711,-0.254936 0.6166709,-0.254936 0.366902,0 0.599445,0.249768 0.232544,0.249769 0.232544,0.702798 0,0.02756 -0.0017,0.08268 H 9.7358531 q 0.01723,0.301445 0.170532,0.461641 0.1533069,0.160197 0.3824049,0.160197 0.170532,0 0.29111,-0.08957 0.120578,-0.08957 0.191202,-0.285943 z m -1.0180229,-0.50126 h 1.0214679 q -0.02067,-0.230821 -0.117133,-0.346231 -0.148138,-0.179145 -0.384127,-0.179145 -0.213595,0 -0.3600119,0.142971 -0.144693,0.142971 -0.160196,0.382405 z"
       id="text4"
       aria-label="pulse" />
    <path
       style="font-size:3.52777px;line-height:0.9;font-family:Arial;-inkscape-font-specification:Arial;text-align:center;text-anchor:middle;stroke-width:0.264583"
       d="M 5.9402048,60.144567 V 59.788 h 0.310058 v 0.356567 z m 0,2.168684 v -1.829342 h 0.310058 v 1.829342 z m 0.782035,0 v -1.829343 h 0.2790521 v 0.260104 q 0.2015377,-0.301445 0.5822199,-0.301445 0.1653642,0 0.3031677,0.06029 0.1395261,0.05857 0.2084279,0.155029 0.068902,0.09646 0.096462,0.229098 0.017226,0.08613 0.017226,0.301446 v 1.124821 h -0.310058 v -1.112764 q 0,-0.189479 -0.036173,-0.282497 -0.036173,-0.09474 -0.1291908,-0.149861 -0.091295,-0.05684 -0.215318,-0.05684 -0.1980925,0 -0.3427862,0.125746 -0.1429712,0.125745 -0.1429712,0.477144 v 0.999076 z"
       id="text4-3-1"
       aria-label="in" />
    <path
       style="font-size:3.52777px;line-height:0.9;font-family:Arial;-inkscape-font-specification:Arial;text-align:center;text-anchor:middle;stroke-width:0.264583"
       d="M 4.5156592,75.75525 3.9558324,73.925908 h 0.3203932 l 0.2911099,1.055919 0.1085203,0.39274 q 0.00689,-0.02928 0.09474,-0.377237 l 0.2911099,-1.071422 h 0.3186706 l 0.2738845,1.061087 0.091295,0.349676 0.1050751,-0.353121 0.313503,-1.057642 h 0.301445 L 5.8936943,75.75525 H 5.5715786 L 5.2804687,74.659712 5.2098447,74.347931 4.8394977,75.75525 Z M 7.919406,75.529596 q -0.1722544,0.146417 -0.332451,0.206706 -0.158474,0.06029 -0.3410637,0.06029 -0.3014452,0 -0.4633643,-0.146417 -0.1619192,-0.148138 -0.1619192,-0.377237 0,-0.134358 0.060289,-0.244601 0.062012,-0.111965 0.1601966,-0.179145 0.099908,-0.06718 0.2239307,-0.10163 0.091295,-0.02411 0.275607,-0.04651 0.3755146,-0.04479 0.5529366,-0.106798 0.00172,-0.06373 0.00172,-0.08096 0,-0.189479 -0.08785,-0.266994 -0.1188555,-0.105075 -0.3531215,-0.105075 -0.2187631,0 -0.3238382,0.07751 -0.1033527,0.07579 -0.1533065,0.27044 l -0.3031677,-0.04134 q 0.041341,-0.194648 0.136081,-0.313503 0.09474,-0.120578 0.2738845,-0.184313 0.1791445,-0.06546 0.4151331,-0.06546 0.2342659,0 0.3806822,0.05512 0.1464162,0.05512 0.215318,0.139526 0.068902,0.08268 0.096462,0.210151 0.015503,0.07924 0.015503,0.285942 v 0.413411 q 0,0.432358 0.018948,0.547768 0.02067,0.113688 0.079237,0.218764 h -0.323835 q -0.048231,-0.09646 -0.062012,-0.225654 z M 7.893568,74.837134 q -0.1688093,0.0689 -0.5064279,0.117133 -0.1912024,0.02756 -0.2704394,0.06201 -0.079237,0.03445 -0.1223006,0.10163 -0.043064,0.06546 -0.043064,0.146417 0,0.124023 0.093017,0.206705 0.09474,0.08268 0.275607,0.08268 0.1791446,0 0.3186706,-0.07752 0.1395261,-0.07924 0.2049828,-0.215318 0.049954,-0.105075 0.049954,-0.310057 z M 8.6893833,73.586567 V 73.23 h 0.3100579 v 0.356567 z m 0,2.168683 v -1.829342 h 0.3100579 v 1.829342 z m 1.4589947,-0.27733 0.04479,0.273884 q -0.130913,0.02756 -0.2342662,0.02756 -0.168809,0 -0.261827,-0.0534 -0.09302,-0.0534 -0.130913,-0.139526 -0.037896,-0.08785 -0.037896,-0.366902 V 74.167064 H 9.3008861 v -0.241156 h 0.2273758 v -0.453029 l 0.3083349,-0.186035 v 0.639064 h 0.3117812 v 0.241156 H 9.8365968 v 1.0697 q 0,0.132636 0.0155,0.170532 0.01723,0.0379 0.0534,0.06029 0.0379,0.02239 0.1067982,0.02239 0.05168,0 0.136081,-0.01206 z"
       id="text4-3-1-5"
       aria-label="wait" />
    <path
       style="font-size:3.52777px;line-height:0.9;font-family:Arial;-inkscape-font-specification:Arial;text-align:center;text-anchor:middle;stroke-width:0.264583"
       d="M 4.5156591,99.508245 3.9558323,97.678907 h 0.3203932 l 0.2911099,1.055914 0.1085203,0.392737 q 0.00689,-0.0293 0.09474,-0.377237 l 0.2911099,-1.071414 h 0.3186706 l 0.2738845,1.061084 0.091295,0.349677 0.1050751,-0.353127 0.313503,-1.057634 h 0.301445 L 5.8936942,99.508245 H 5.5715785 l -0.2911099,-1.095541 -0.070624,-0.31178 -0.370347,1.407321 z m 3.4037468,-0.225657 q -0.1722544,0.14642 -0.332451,0.206707 -0.158474,0.0603 -0.3410637,0.0603 -0.3014452,0 -0.4633643,-0.146417 -0.1619192,-0.14814 -0.1619192,-0.37723 0,-0.134367 0.060289,-0.244607 0.062012,-0.11196 0.1601966,-0.17914 0.099907,-0.0672 0.2239307,-0.10163 0.091295,-0.0241 0.275607,-0.0465 0.3755146,-0.0448 0.5529366,-0.106797 0.00172,-0.0637 0.00172,-0.081 0,-0.18948 -0.08785,-0.267 -0.1188555,-0.10507 -0.3531215,-0.10507 -0.2187631,0 -0.3238383,0.0775 -0.1033526,0.0758 -0.1533064,0.27043 l -0.3031677,-0.0413 q 0.041341,-0.19464 0.136081,-0.3135 0.09474,-0.120577 0.2738845,-0.184307 0.1791445,-0.0655 0.4151331,-0.0655 0.2342659,0 0.3806822,0.0551 0.1464162,0.0551 0.215318,0.13952 0.068902,0.0827 0.096462,0.210157 0.015503,0.0792 0.015503,0.28594 v 0.413407 q 0,0.432357 0.018948,0.547767 0.020671,0.11369 0.079237,0.218767 h -0.323835 q -0.048231,-0.0965 -0.062012,-0.225667 z m -0.025838,-0.692457 q -0.1688093,0.0689 -0.5064279,0.11713 -0.1912024,0.0276 -0.2704394,0.062 -0.079237,0.0344 -0.1223006,0.10163 -0.043064,0.0655 -0.043064,0.146417 0,0.12402 0.093017,0.2067 0.09474,0.0827 0.275607,0.0827 0.1791446,0 0.3186706,-0.0775 0.1395261,-0.0792 0.2049828,-0.21531 0.049954,-0.105077 0.049954,-0.310057 z M 8.6893834,97.33956 V 96.983 h 0.3100579 v 0.35656 z m 0,2.168685 v -1.829338 h 0.3100579 v 1.829338 z m 1.4589946,-0.277327 0.04479,0.273877 q -0.130913,0.0276 -0.2342661,0.0276 -0.168809,0 -0.261827,-0.0534 -0.09302,-0.0534 -0.130913,-0.139517 -0.037896,-0.0879 -0.037896,-0.36691 V 97.920054 H 9.300886 V 97.678907 H 9.5282618 V 97.22587 l 0.3083351,-0.18603 v 0.639067 h 0.3117811 v 0.241147 H 9.8365969 v 1.069704 q 0,0.13264 0.0155,0.17053 0.01723,0.0379 0.0534,0.0603 0.0379,0.0224 0.1067981,0.0224 0.05168,0 0.136081,-0.0121 z"
       id="text4-3-1-5-5"
       aria-label="wait" />
    <path
       style="font-size:3.52777px;line-height:0.9;font-family:Arial;-inkscape-font-specification:Arial;text-align:center;text-anchor:middle;stroke-width:0.264583"
       d="m 4.6377812,112.49606 q 0,-0.50815 0.2824972,-0.75275 0.2359886,-0.20326 0.5753297,-0.20326 0.3772372,0 0.6166708,0.24804 0.2394336,0.24633 0.2394336,0.68213 0,0.35312 -0.1067978,0.55638 -0.1050751,0.20154 -0.3083353,0.31351 -0.2015377,0.11196 -0.4409713,0.11196 -0.3841273,0 -0.6218383,-0.24632 -0.2359886,-0.24633 -0.2359886,-0.70969 z m 0.3186707,0 q 0,0.3514 0.1533064,0.5271 0.1533064,0.17397 0.3858498,0.17397 0.2308209,0 0.3841273,-0.1757 0.1533064,-0.17569 0.1533064,-0.53571 0,-0.33934 -0.1550289,-0.51331 -0.1533064,-0.1757 -0.3824048,-0.1757 -0.2325434,0 -0.3858498,0.17397 -0.1533064,0.17398 -0.1533064,0.52538 z m 2.957608,0.91467 v -0.26872 q -0.2135955,0.31006 -0.5804973,0.31006 -0.1619192,0 -0.3031678,-0.062 -0.139526,-0.062 -0.2084278,-0.15503 -0.067179,-0.0947 -0.09474,-0.23082 -0.018948,-0.0913 -0.018948,-0.28939 v -1.13343 h 0.3100579 v 1.01458 q 0,0.24288 0.018948,0.32728 0.029283,0.1223 0.1240232,0.19292 0.09474,0.0689 0.2342659,0.0689 0.1395261,0 0.2618267,-0.0706 0.1223006,-0.0723 0.1722544,-0.19465 0.051676,-0.12402 0.051676,-0.35828 v -0.98013 h 0.310058 v 1.82934 z m 1.4400468,-0.27733 0.044786,0.27388 q -0.1309133,0.0276 -0.234266,0.0276 -0.1688093,0 -0.2618267,-0.0534 -0.093017,-0.0534 -0.1309133,-0.13953 -0.037896,-0.0879 -0.037896,-0.3669 v -1.05248 H 8.506615 v -0.24115 h 0.2273758 v -0.45303 l 0.3083354,-0.18604 v 0.63907 h 0.3117805 v 0.24115 H 9.0423262 v 1.0697 q 0,0.13264 0.015503,0.17054 0.017225,0.0379 0.053399,0.0603 0.037896,0.0224 0.1067977,0.0224 0.051676,0 0.136081,-0.0121 z"
       id="text4-3-1-5-5-5"
       aria-label="out" />
    <path
       d="m 10.782812,84.163414 q 0,0.306612 -0.07235,0.52882 -0.07062,0.222208 -0.19637,0.365181 -0.124023,0.14297 -0.292833,0.21187 -0.167086,0.0689 -0.3582877,0.0689 -0.444417,0 -0.668347,-0.294556 -0.223931,-0.296277 -0.223931,-0.859549 0,-0.306612 0.07062,-0.52882 0.07235,-0.222208 0.19637,-0.365178 0.125745,-0.142973 0.292832,-0.211873 0.168809,-0.0689 0.360012,-0.0689 0.4444157,0 0.6683457,0.294556 0.223931,0.294555 0.223931,0.859549 z m -0.447861,0.02066 q 0,-0.399629 -0.106798,-0.596001 -0.106798,-0.196368 -0.3513987,-0.196368 -0.1223,0 -0.208428,0.05168 -0.08613,0.04995 -0.142971,0.14814 -0.05512,0.09818 -0.08096,0.242877 -0.02584,0.14297 -0.02584,0.329007 0,0.399629 0.106798,0.596 0.10852,0.196368 0.351399,0.196368 0.1223,0 0.2084267,-0.04995 0.08785,-0.05168 0.142972,-0.14986 0.05512,-0.09819 0.08096,-0.241157 0.02584,-0.144693 0.02584,-0.330729 z m 2.325433,0.208428 q 0,0.241157 -0.0689,0.416856 -0.06718,0.1757 -0.18948,0.292833 -0.120579,0.115409 -0.285943,0.172255 -0.165364,0.05512 -0.360011,0.05512 -0.06546,0 -0.130913,-0.0086 -0.06546,-0.0086 -0.118856,-0.02238 v 0.68385 H 11.08598 v -2.433952 h 0.363456 l 0.01033,0.258381 q 0.0534,-0.06718 0.110243,-0.122301 0.05857,-0.05512 0.125745,-0.09302 0.06718,-0.03962 0.144694,-0.06029 0.07751,-0.02066 0.173977,-0.02066 0.155029,0 0.275607,0.06201 0.120578,0.06201 0.201537,0.177422 0.08268,0.113689 0.125746,0.277331 0.04306,0.161917 0.04306,0.365178 z m -0.440971,0.01722 q 0,-0.144695 -0.02067,-0.246324 -0.02067,-0.101632 -0.06029,-0.167087 -0.0379,-0.06546 -0.09474,-0.09474 -0.05512,-0.03101 -0.127468,-0.03101 -0.106798,0 -0.204983,0.08613 -0.09646,0.08613 -0.204983,0.234265 v 0.76481 q 0.04995,0.01894 0.122301,0.03101 0.07407,0.01207 0.149862,0.01207 0.09991,0 0.180867,-0.04134 0.08268,-0.04134 0.139525,-0.117131 0.05857,-0.07579 0.08957,-0.184314 0.03101,-0.110241 0.03101,-0.246322 z m 2.330601,-0.120578 q 0,0.04306 -0.0034,0.111964 -0.0017,0.0689 -0.0069,0.12919 h -1.150659 q 0,0.115412 0.03445,0.203261 0.03617,0.08785 0.09991,0.148138 0.06546,0.05857 0.155029,0.08957 0.0913,0.031 0.201538,0.031 0.127468,0 0.272161,-0.01894 0.146417,-0.02066 0.303168,-0.06546 v 0.334174 q -0.06718,0.01894 -0.146416,0.03445 -0.07924,0.0155 -0.161919,0.02756 -0.08268,0.01206 -0.167087,0.01722 -0.08441,0.0069 -0.163641,0.0069 -0.199816,0 -0.358289,-0.05684 -0.158474,-0.05685 -0.268717,-0.167087 -0.110243,-0.111967 -0.16881,-0.275609 -0.05857,-0.163639 -0.05857,-0.378957 0,-0.213596 0.05857,-0.387572 0.05857,-0.1757 0.165365,-0.299723 0.106797,-0.125746 0.258381,-0.192926 0.153306,-0.0689 0.341064,-0.0689 0.186034,0 0.329005,0.05857 0.142971,0.05684 0.239434,0.160197 0.09646,0.103352 0.146416,0.246322 0.04995,0.142973 0.04995,0.313505 z m -0.42719,-0.06029 q 0.0017,-0.103351 -0.02584,-0.179144 -0.02756,-0.07752 -0.07579,-0.127468 -0.04651,-0.04995 -0.110242,-0.07407 -0.06201,-0.0241 -0.134359,-0.0241 -0.158474,0 -0.260104,0.106797 -0.10163,0.105076 -0.120578,0.298 z m 1.886184,1.0697 v -1.140322 q 0,-0.287666 -0.213595,-0.287666 -0.106798,0 -0.204983,0.08613 -0.09646,0.08613 -0.204982,0.234265 v 1.107596 h -0.420301 v -1.750102 h 0.363457 l 0.01033,0.258381 q 0.0534,-0.06718 0.110243,-0.122301 0.05857,-0.05512 0.125746,-0.09302 0.06718,-0.03962 0.144694,-0.06029 0.07751,-0.02066 0.173976,-0.02066 0.134359,0 0.234266,0.04479 0.09991,0.04306 0.167087,0.124023 0.06718,0.07923 0.09991,0.192924 0.03445,0.111966 0.03445,0.251492 v 1.174773 z"
       id="text5-2"
       style="font-weight:bold;font-size:13.3333px;line-height:0.9;font-family:Consolas;-inkscape-font-specification:'Consolas Bold';text-align:center;white-space:pre;stroke-width:0.264583"
       aria-label="Open" />
    <path
       d="m 8.6580519,47.089119 q -0.149861,0.06029 -0.29111,0.08957 -0.139526,0.02928 -0.291109,0.02928 -0.242879,0 -0.430636,-0.07062 -0.186035,-0.07234 -0.3152258,-0.213596 -0.127468,-0.141248 -0.1946473,-0.349676 -0.065457,-0.21015 -0.065457,-0.487479 0,-0.28422 0.072347,-0.504706 0.072347,-0.222207 0.2067052,-0.373792 0.1343579,-0.153305 0.3255609,-0.232543 0.192924,-0.08096 0.432358,-0.08096 0.07752,0 0.144694,0.0034 0.0689,0.0034 0.134358,0.01378 0.06546,0.0086 0.132636,0.0241 0.06718,0.01551 0.139526,0.03962 v 0.420301 q -0.146416,-0.0689 -0.279052,-0.09818 -0.132636,-0.02928 -0.241156,-0.02928 -0.160197,0 -0.273885,0.05857 -0.113687,0.05685 -0.187757,0.16192 -0.07235,0.103352 -0.106797,0.248047 -0.03445,0.14297 -0.03445,0.315225 0,0.182589 0.03445,0.327284 0.03617,0.14297 0.110242,0.242877 0.07407,0.09991 0.18948,0.153307 0.11541,0.05168 0.273884,0.05168 0.05684,0 0.122301,-0.01035 0.06718,-0.01206 0.134358,-0.02928 0.0689,-0.01894 0.134359,-0.04306 0.06718,-0.02582 0.124023,-0.05168 z m 1.014578,-2.018821 h -0.49437 v -0.327282 h 0.9250061 v 2.106671 h 0.504705 v 0.327281 H 9.1179709 v -0.327281 h 0.554659 z m 2.9507171,1.21784 q 0,0.206703 -0.05857,0.378957 -0.05857,0.170532 -0.16881,0.292833 -0.110243,0.122301 -0.270439,0.189481 -0.160197,0.06718 -0.365179,0.06718 -0.194648,0 -0.347954,-0.05684 -0.153306,-0.05685 -0.260104,-0.16881 -0.106798,-0.113688 -0.163642,-0.282498 -0.05684,-0.170532 -0.05684,-0.396184 0,-0.208428 0.05857,-0.37896 0.06029,-0.170532 0.170532,-0.291108 0.111965,-0.120579 0.272162,-0.186037 0.160196,-0.06718 0.361734,-0.06718 0.19637,0 0.349676,0.05856 0.153307,0.05684 0.260104,0.170532 0.106798,0.113689 0.161919,0.282498 0.05684,0.167085 0.05684,0.387573 z m -0.437526,0.01035 q 0,-0.272164 -0.103353,-0.408244 -0.10163,-0.137803 -0.301445,-0.137803 -0.110243,0 -0.187757,0.04306 -0.07751,0.04306 -0.127468,0.118856 -0.04995,0.07407 -0.07407,0.173977 -0.02239,0.09991 -0.02239,0.213596 0,0.273883 0.110243,0.413409 0.110243,0.137805 0.301445,0.137805 0.105075,0 0.182589,-0.04134 0.07751,-0.04306 0.125746,-0.117134 0.04823,-0.07579 0.07235,-0.177421 0.02412,-0.101632 0.02412,-0.218763 z m 2.244474,0.363455 q 0,0.149863 -0.06718,0.256659 -0.06546,0.105077 -0.1757,0.172255 -0.10852,0.06546 -0.248046,0.09474 -0.137803,0.03101 -0.282497,0.03101 -0.192925,0 -0.347954,-0.01895 -0.155029,-0.01722 -0.292832,-0.05168 V 46.76702 q 0.161919,0.06718 0.322116,0.09818 0.161918,0.02928 0.30489,0.02928 0.165364,0 0.246323,-0.05168 0.08268,-0.0534 0.08268,-0.137802 0,-0.03962 -0.01722,-0.07235 -0.01722,-0.03273 -0.06546,-0.06201 -0.04651,-0.03101 -0.132635,-0.06201 -0.08613,-0.03273 -0.225654,-0.07235 -0.12919,-0.03617 -0.227375,-0.08096 -0.09646,-0.04651 -0.160197,-0.108519 -0.06373,-0.06201 -0.09646,-0.142973 -0.03101,-0.08268 -0.03101,-0.192924 0,-0.106799 0.04823,-0.201538 0.04823,-0.09474 0.142971,-0.165365 0.09646,-0.07235 0.239434,-0.113686 0.142971,-0.04134 0.334173,-0.04134 0.165364,0 0.292832,0.01722 0.127469,0.01723 0.225654,0.0379 v 0.342786 q -0.149862,-0.04823 -0.282497,-0.06718 -0.130914,-0.02066 -0.260104,-0.02066 -0.129191,0 -0.208428,0.04651 -0.07752,0.04651 -0.07752,0.129191 0,0.03962 0.0155,0.07062 0.0155,0.031 0.06029,0.06029 0.04651,0.02928 0.127469,0.06201 0.08268,0.03101 0.21704,0.0689 0.151584,0.04306 0.254936,0.09302 0.103353,0.04823 0.165365,0.110244 0.06373,0.06201 0.09129,0.141248 0.02756,0.07924 0.02756,0.180866 z m 2.020543,-0.494368 q 0,0.04306 -0.0034,0.111963 -0.0017,0.0689 -0.0069,0.129191 h -1.150659 q 0,0.115411 0.03445,0.203261 0.03617,0.08785 0.09991,0.148138 0.06546,0.05857 0.155029,0.08957 0.0913,0.031 0.201538,0.031 0.127468,0 0.272162,-0.01894 0.146416,-0.02066 0.303167,-0.06546 v 0.334174 q -0.06718,0.01894 -0.146416,0.03445 -0.07924,0.0155 -0.161919,0.02756 -0.08268,0.01206 -0.167087,0.01722 -0.08441,0.0069 -0.163641,0.0069 -0.199815,0 -0.358289,-0.05684 -0.158474,-0.05685 -0.268717,-0.167087 -0.110243,-0.111967 -0.168809,-0.275609 -0.05857,-0.163639 -0.05857,-0.378957 0,-0.213596 0.05857,-0.387573 0.05857,-0.175699 0.165364,-0.299722 0.106797,-0.125746 0.258381,-0.192927 0.153307,-0.0689 0.341064,-0.0689 0.186034,0 0.329006,0.05857 0.142971,0.05684 0.239433,0.160197 0.09646,0.103352 0.146416,0.246322 0.04995,0.142973 0.04995,0.313505 z m -0.42719,-0.06029 q 0.0017,-0.103352 -0.02584,-0.179144 -0.02756,-0.07751 -0.07579,-0.127468 -0.04651,-0.04995 -0.110243,-0.07407 -0.06201,-0.0241 -0.134358,-0.0241 -0.158475,0 -0.260105,0.106796 -0.10163,0.105077 -0.120578,0.298001 z m 1.943029,1.0697 -0.01034,-0.258382 q -0.05512,0.06718 -0.113688,0.122301 -0.05857,0.05512 -0.125745,0.09474 -0.06718,0.0379 -0.144694,0.05857 -0.07579,0.02238 -0.168809,0.02238 -0.155029,0 -0.275607,-0.06201 -0.120578,-0.06201 -0.20326,-0.175699 -0.08096,-0.115411 -0.124024,-0.279053 -0.04306,-0.163643 -0.04306,-0.365178 0,-0.241157 0.06718,-0.416857 0.0689,-0.177421 0.18948,-0.292832 0.120578,-0.117134 0.285942,-0.172255 0.165364,-0.05684 0.360012,-0.05684 0.06546,0 0.130913,0.0086 0.06718,0.0086 0.118855,0.02238 V 44.743 h 0.420301 v 2.433953 z m -0.768254,-0.861272 q 0,0.144696 0.01895,0.248047 0.02067,0.101629 0.05857,0.167087 0.03962,0.06546 0.09646,0.09646 0.05684,0.02928 0.129191,0.02928 0.106798,0 0.20326,-0.08613 0.09646,-0.08613 0.204983,-0.23599 v -0.76481 q -0.04995,-0.01894 -0.124023,-0.031 -0.07235,-0.01206 -0.146417,-0.01206 -0.101629,0 -0.182589,0.04134 -0.08096,0.04134 -0.139526,0.117134 -0.05684,0.07579 -0.08785,0.186034 -0.03101,0.108521 -0.03101,0.244602 z"
       id="text5-2-0"
       style="font-weight:bold;font-size:13.3333px;line-height:0.9;font-family:Consolas;-inkscape-font-specification:'Consolas Bold';text-align:center;white-space:pre;stroke-width:0.264583"
       aria-label="Closed" />
    <rect
       style="display:inline;fill:#000000;fill-opacity:1;stroke-width:0.148827"
       id="rect2-6"
       width="23.779499"
       height="0.66399997"
       x="0.81025028"
       y="48.383999"
       ry="0.27390954" />
    <rect
       style="display:inline;fill:#000000;fill-opacity:1;stroke-width:0.148827"
       id="rect2-2-1"
       width="23.779499"
       height="0.66399997"
       x="0.81025028"
       y="39.813"
       ry="0.27390954" />
    <rect
       style="display:inline;fill:#000000;fill-opacity:1;stroke-width:0.148827"
       id="rect2-2-1-3"
       width="23.779499"
       height="0.66399997"
       x="0.81024981"
       y="11.149"
       ry="0.27390954" />
    <path
       style="display:inline;font-size:3.52777px;line-height:0.9;font-family:Arial;-inkscape-font-specification:Arial;text-align:center;text-anchor:middle;stroke-width:0.264583"
       d="m 14.298193,38.301326 v -2.530417 h 0.282497 v 0.237711 q 0.09991,-0.139526 0.225653,-0.208428 0.125746,-0.07062 0.30489,-0.07062 0.234266,0 0.413411,0.120578 0.179145,0.120578 0.270439,0.341063 0.0913,0.218763 0.0913,0.48059 0,0.280775 -0.10163,0.506428 -0.09991,0.223931 -0.292832,0.344509 -0.191203,0.118855 -0.403076,0.118855 -0.155029,0 -0.279052,-0.06546 -0.1223,-0.06546 -0.201537,-0.165364 v 0.890555 z m 0.280774,-1.605411 q 0,0.353121 0.142971,0.521931 0.142972,0.168809 0.346232,0.168809 0.206705,0 0.353121,-0.173977 0.148139,-0.1757 0.148139,-0.542601 0,-0.349677 -0.144694,-0.523654 -0.142971,-0.173977 -0.342786,-0.173977 -0.198092,0 -0.351399,0.186035 -0.151584,0.184312 -0.151584,0.537434 z m 2.880094,0.904335 v -0.268717 q -0.213596,0.310058 -0.580497,0.310058 -0.16192,0 -0.303168,-0.06201 -0.139526,-0.06201 -0.208428,-0.155029 -0.06718,-0.09474 -0.09474,-0.230821 -0.01895,-0.09129 -0.01895,-0.289387 V 35.77091 h 0.310058 v 1.014578 q 0,0.242879 0.01895,0.327283 0.02928,0.122301 0.124023,0.192925 0.09474,0.0689 0.234266,0.0689 0.139526,0 0.261827,-0.07062 0.122301,-0.07235 0.172254,-0.194648 0.05168,-0.124023 0.05168,-0.358289 v -0.98013 h 0.310058 v 1.829341 z m 0.756197,0 v -2.525249 h 0.310058 v 2.525249 z m 0.666624,-0.546046 0.306613,-0.04823 q 0.02584,0.184312 0.142971,0.282497 0.118856,0.09818 0.330729,0.09818 0.213595,0 0.316948,-0.08613 0.103353,-0.08785 0.103353,-0.204983 0,-0.105075 -0.0913,-0.165364 -0.06373,-0.04133 -0.316948,-0.105068 -0.341064,-0.08613 -0.4737,-0.148139 -0.130913,-0.06373 -0.199815,-0.173977 -0.06718,-0.111966 -0.06718,-0.246324 0,-0.122301 0.05512,-0.225653 0.05684,-0.105075 0.153306,-0.173977 0.07235,-0.0534 0.19637,-0.08957 0.125746,-0.0379 0.268717,-0.0379 0.215318,0 0.377237,0.06201 0.163642,0.06201 0.241157,0.168809 0.07751,0.105076 0.106797,0.282498 l -0.303167,0.04134 q -0.02067,-0.141249 -0.120579,-0.220486 -0.09819,-0.07924 -0.279052,-0.07924 -0.213595,0 -0.30489,0.07062 -0.09129,0.07062 -0.09129,0.165365 0,0.06029 0.0379,0.10852 0.0379,0.04995 0.118856,0.08268 0.04651,0.01722 0.273884,0.07924 0.329006,0.08785 0.458197,0.144694 0.130913,0.05512 0.204983,0.161919 0.07407,0.106798 0.07407,0.265272 0,0.155029 -0.09129,0.292832 -0.08957,0.136081 -0.260105,0.211873 -0.170531,0.07407 -0.385849,0.07407 -0.356567,0 -0.544324,-0.148138 -0.186034,-0.14813 -0.237711,-0.43924 z m 3.140197,-0.04306 0.320394,0.03962 q -0.07579,0.280774 -0.280775,0.435803 -0.204983,0.155029 -0.523653,0.155029 -0.401352,0 -0.637341,-0.246323 -0.234266,-0.248047 -0.234266,-0.694186 0,-0.461641 0.237711,-0.716578 0.237711,-0.254936 0.61667,-0.254936 0.366902,0 0.599445,0.249768 0.232544,0.249769 0.232544,0.702798 0,0.02756 -0.0017,0.08268 h -1.364254 q 0.01723,0.301445 0.170532,0.461641 0.153306,0.160197 0.382404,0.160197 0.170532,0 0.29111,-0.08957 0.120578,-0.08957 0.191202,-0.285943 z m -1.018022,-0.50126 h 1.021467 q -0.02067,-0.230821 -0.117133,-0.346231 -0.148138,-0.179145 -0.384127,-0.179145 -0.213595,0 -0.360011,0.142971 -0.144693,0.142971 -0.160196,0.382405 z"
       id="text4-1"
       aria-label="pulse" />
    <path
       style="display:inline;font-size:3.52777px;line-height:0.9;font-family:Arial;-inkscape-font-specification:Arial;text-align:center;text-anchor:middle;stroke-width:0.264583"
       d="M 17.191205,60.144567 V 59.788 h 0.310058 v 0.356567 z m 0,2.168684 v -1.829342 h 0.310058 v 1.829342 z m 0.782035,0 v -1.829343 h 0.279052 v 0.260104 q 0.201538,-0.301445 0.58222,-0.301445 0.165364,0 0.303168,0.06029 0.139526,0.05857 0.208428,0.155029 0.0689,0.09646 0.09646,0.229098 0.01723,0.08613 0.01723,0.301446 v 1.124821 h -0.310058 v -1.112764 q 0,-0.189479 -0.03617,-0.282497 -0.03617,-0.09474 -0.129191,-0.149861 -0.09129,-0.05684 -0.215318,-0.05684 -0.198092,0 -0.342786,0.125746 -0.142971,0.125745 -0.142971,0.477144 v 0.999076 z"
       id="text4-3-1-0"
       aria-label="in" />
    <path
       style="display:inline;font-size:3.52777px;line-height:0.9;font-family:Arial;-inkscape-font-specification:Arial;text-align:center;text-anchor:middle;stroke-width:0.264583"
       d="m 16.130531,112.49606 q 0,-0.50815 0.282497,-0.75275 0.235989,-0.20326 0.57533,-0.20326 0.377237,0 0.616671,0.24804 0.239433,0.24633 0.239433,0.68213 0,0.35312 -0.106797,0.55638 -0.105076,0.20154 -0.308336,0.31351 -0.201537,0.11196 -0.440971,0.11196 -0.384127,0 -0.621838,-0.24632 -0.235989,-0.24633 -0.235989,-0.70969 z m 0.318671,0 q 0,0.3514 0.153306,0.5271 0.153307,0.17397 0.38585,0.17397 0.230821,0 0.384127,-0.1757 0.153307,-0.17569 0.153307,-0.53571 0,-0.33934 -0.155029,-0.51331 -0.153307,-0.1757 -0.382405,-0.1757 -0.232543,0 -0.38585,0.17397 -0.153306,0.17398 -0.153306,0.52538 z m 2.957608,0.91467 v -0.26872 q -0.213596,0.31006 -0.580498,0.31006 -0.161919,0 -0.303167,-0.062 -0.139526,-0.062 -0.208428,-0.15503 -0.06718,-0.0947 -0.09474,-0.23082 -0.01895,-0.0913 -0.01895,-0.28939 v -1.13343 h 0.310058 v 1.01458 q 0,0.24288 0.01895,0.32728 0.02928,0.1223 0.124023,0.19292 0.09474,0.0689 0.234266,0.0689 0.139526,0 0.261827,-0.0706 0.1223,-0.0723 0.172254,-0.19465 0.05168,-0.12402 0.05168,-0.35828 v -0.98013 h 0.310058 v 1.82934 z m 1.440046,-0.27733 0.04479,0.27388 q -0.130913,0.0276 -0.234266,0.0276 -0.168809,0 -0.261826,-0.0534 -0.09302,-0.0534 -0.130913,-0.13953 -0.0379,-0.0879 -0.0379,-0.3669 v -1.05248 h -0.22738 v -0.24115 h 0.227376 v -0.45303 l 0.308335,-0.18604 v 0.63907 h 0.31178 v 0.24115 h -0.31178 v 1.0697 q 0,0.13264 0.0155,0.17054 0.01722,0.0379 0.0534,0.0603 0.0379,0.0224 0.106798,0.0224 0.05168,0 0.136081,-0.0121 z"
       id="text4-3-1-5-5-5-5"
       aria-label="out" />
    <path
       style="display:inline;font-size:3.52777px;line-height:0.9;font-family:Arial;-inkscape-font-specification:Arial;text-align:center;text-anchor:middle;stroke-width:0.264583"
       d="m 16.008229,99.508245 -0.559826,-1.82934 h 0.320393 l 0.29111,1.05592 0.10852,0.39273 q 0.0069,-0.0293 0.09474,-0.37723 l 0.29111,-1.07142 h 0.31867 l 0.273885,1.06109 0.0913,0.34967 0.105075,-0.35312 0.313503,-1.05764 h 0.301445 l -0.571885,1.82934 h -0.322115 l -0.29111,-1.09554 -0.07062,-0.31178 -0.370347,1.40732 z m 3.403747,-0.22566 q -0.172254,0.14642 -0.332451,0.20671 -0.158474,0.0603 -0.341064,0.0603 -0.301445,0 -0.463364,-0.14642 -0.161919,-0.14814 -0.161919,-0.37723 0,-0.13436 0.06029,-0.2446 0.06201,-0.11196 0.160197,-0.17914 0.09991,-0.0672 0.22393,-0.10163 0.09129,-0.0241 0.275607,-0.0465 0.375515,-0.0448 0.552937,-0.1068 0.0017,-0.0637 0.0017,-0.081 0,-0.18948 -0.08785,-0.267 -0.118856,-0.10507 -0.353122,-0.10507 -0.218763,0 -0.323838,0.0775 -0.103353,0.0758 -0.153306,0.27043 l -0.303168,-0.0413 q 0.04134,-0.19464 0.136081,-0.3135 0.09474,-0.12058 0.273884,-0.18431 0.179145,-0.0655 0.415134,-0.0655 0.234265,0 0.380682,0.0551 0.146416,0.0551 0.215318,0.13952 0.0689,0.0827 0.09646,0.21016 0.0155,0.0792 0.0155,0.28594 v 0.41341 q 0,0.43235 0.01895,0.54776 0.02067,0.11369 0.07924,0.21877 h -0.323835 q -0.04823,-0.0965 -0.06201,-0.22567 z m -0.02584,-0.69245 q -0.168809,0.0689 -0.506428,0.11713 -0.191202,0.0276 -0.270439,0.062 -0.07924,0.0344 -0.122301,0.10163 -0.04306,0.0655 -0.04306,0.14641 0,0.12402 0.09302,0.2067 0.09474,0.0827 0.275607,0.0827 0.179145,0 0.318671,-0.0775 0.139526,-0.0792 0.204983,-0.21531 0.04995,-0.10507 0.04995,-0.31005 z m 0.795816,-1.25057 v -0.35656 h 0.310058 v 0.35656 z m 0,2.16868 v -1.82934 h 0.310058 v 1.82934 z m 1.458994,-0.27733 0.04479,0.27388 q -0.130913,0.0276 -0.234266,0.0276 -0.168809,0 -0.261827,-0.0534 -0.09302,-0.0534 -0.130913,-0.13952 -0.0379,-0.0879 -0.0379,-0.36691 v -1.05251 h -0.22738 v -0.24115 h 0.227376 v -0.45303 l 0.308335,-0.18603 v 0.63906 h 0.311781 v 0.24115 h -0.311777 v 1.0697 q 0,0.13264 0.0155,0.17053 0.01723,0.0379 0.0534,0.0603 0.0379,0.0224 0.106798,0.0224 0.05168,0 0.136081,-0.0121 z"
       id="text4-3-1-5-5-50"
       aria-label="wait" />
    <path
       style="display:inline;font-size:3.52777px;line-height:0.9;font-family:Arial;-inkscape-font-specification:Arial;text-align:center;text-anchor:middle;stroke-width:0.264583"
       d="m 15.76666,75.755249 -0.559827,-1.829342 h 0.320393 l 0.29111,1.055919 0.10852,0.39274 q 0.0069,-0.02928 0.09474,-0.377237 l 0.29111,-1.071422 h 0.318671 l 0.273884,1.061087 0.0913,0.349676 0.105075,-0.353121 0.313503,-1.057642 h 0.301445 l -0.571884,1.829342 h -0.322116 l -0.29111,-1.095538 -0.07062,-0.311781 -0.370347,1.407319 z m 3.403746,-0.225654 q -0.172254,0.146417 -0.332451,0.206706 -0.158474,0.06029 -0.341063,0.06029 -0.301445,0 -0.463365,-0.146417 -0.161919,-0.148138 -0.161919,-0.377237 0,-0.134358 0.06029,-0.244601 0.06201,-0.111965 0.160197,-0.179145 0.09991,-0.06718 0.223931,-0.10163 0.09129,-0.02411 0.275607,-0.04651 0.375514,-0.04479 0.552936,-0.106798 0.0017,-0.06373 0.0017,-0.08096 0,-0.189479 -0.08785,-0.266994 -0.118855,-0.105075 -0.353121,-0.105075 -0.218763,0 -0.323839,0.07751 -0.103352,0.07579 -0.153306,0.27044 l -0.303168,-0.04134 q 0.04134,-0.194648 0.136081,-0.313503 0.09474,-0.120578 0.273885,-0.184313 0.179144,-0.06546 0.415133,-0.06546 0.234266,0 0.380682,0.05512 0.146416,0.05512 0.215318,0.139526 0.0689,0.08268 0.09646,0.210151 0.0155,0.07924 0.0155,0.285942 v 0.413411 q 0,0.432358 0.01895,0.547768 0.02067,0.113688 0.07924,0.218764 h -0.323835 q -0.04823,-0.09646 -0.06201,-0.225654 z m -0.02584,-0.692462 q -0.168809,0.0689 -0.506427,0.117133 -0.191203,0.02756 -0.27044,0.06201 -0.07924,0.03445 -0.1223,0.10163 -0.04306,0.06546 -0.04306,0.146417 0,0.124023 0.09302,0.206705 0.09474,0.08268 0.275607,0.08268 0.179144,0 0.31867,-0.07752 0.139526,-0.07924 0.204983,-0.215318 0.04995,-0.105075 0.04995,-0.310057 z m 0.795816,-1.250567 v -0.356567 h 0.310058 v 0.356567 z m 0,2.168683 v -1.829342 h 0.310058 v 1.829342 z m 1.458995,-0.27733 0.04479,0.273884 q -0.130913,0.02756 -0.234266,0.02756 -0.168809,0 -0.261827,-0.0534 -0.09302,-0.0534 -0.130913,-0.139526 -0.0379,-0.08785 -0.0379,-0.366902 v -1.052472 h -0.22738 v -0.241156 h 0.227376 v -0.453029 l 0.308335,-0.186035 v 0.639064 h 0.311781 v 0.241156 h -0.311781 v 1.0697 q 0,0.132636 0.0155,0.170532 0.01723,0.0379 0.0534,0.06029 0.0379,0.02239 0.106798,0.02239 0.05168,0 0.136081,-0.01206 z"
       id="text4-3-1-5-2"
       aria-label="wait" />
    <path
       d="m 12.09797,122.70896 -0.316948,-0.72347 q -0.04479,-0.10335 -0.125745,-0.15503 -0.07924,-0.0534 -0.187758,-0.0534 h -0.08096 v 0.93189 h -0.423746 v -2.25136 h 0.656289 q 0.186035,0 0.337619,0.0327 0.151584,0.031 0.258381,0.10508 0.106798,0.0741 0.163642,0.19292 0.05857,0.11886 0.05857,0.29111 0,0.12403 -0.03617,0.22049 -0.03617,0.0965 -0.10163,0.16709 -0.06546,0.0689 -0.156752,0.11196 -0.08957,0.0431 -0.19637,0.0603 0.08268,0.0172 0.151584,0.0947 0.0689,0.0758 0.137804,0.22049 l 0.360011,0.75447 z m -0.105075,-1.58818 q 0,-0.16537 -0.105075,-0.23772 -0.105075,-0.0723 -0.315226,-0.0723 H 11.38656 v 0.63562 h 0.172254 q 0.09818,0 0.177422,-0.0207 0.08096,-0.0207 0.137804,-0.062 0.05684,-0.0413 0.08785,-0.10163 0.03101,-0.062 0.03101,-0.14124 z m 2.44429,0.90778 q 0,0.18431 -0.0689,0.32039 -0.06718,0.13608 -0.189479,0.22565 -0.122301,0.0879 -0.29111,0.13092 -0.16881,0.0431 -0.368625,0.0431 -0.177422,0 -0.342786,-0.0207 -0.165364,-0.0207 -0.327283,-0.0689 v -0.41858 q 0.07924,0.0276 0.165364,0.0517 0.08613,0.0241 0.172254,0.0431 0.08785,0.0172 0.173977,0.0276 0.08613,0.0103 0.167087,0.0103 0.120578,0 0.204983,-0.0207 0.08441,-0.0207 0.137803,-0.0568 0.0534,-0.0362 0.07751,-0.0861 0.02412,-0.0499 0.02412,-0.11024 0,-0.0827 -0.04823,-0.1378 -0.04651,-0.0569 -0.124023,-0.0999 -0.07751,-0.0431 -0.177422,-0.0775 -0.09818,-0.0345 -0.201538,-0.0741 -0.10163,-0.0396 -0.201537,-0.0896 -0.09818,-0.05 -0.1757,-0.12402 -0.07751,-0.0741 -0.125746,-0.1757 -0.04651,-0.10335 -0.04651,-0.24805 0,-0.13263 0.04823,-0.25149 0.04823,-0.11885 0.151584,-0.2067 0.103353,-0.0896 0.265272,-0.14125 0.161919,-0.0534 0.391018,-0.0534 0.06718,0 0.139526,0.007 0.07407,0.005 0.144693,0.0155 0.07235,0.009 0.137804,0.0224 0.06718,0.0121 0.1223,0.0258 v 0.38758 q -0.05512,-0.0207 -0.120578,-0.0379 -0.06546,-0.0172 -0.136081,-0.0293 -0.0689,-0.0138 -0.139526,-0.0207 -0.07062,-0.007 -0.134358,-0.007 -0.111965,0 -0.18948,0.019 -0.07751,0.0172 -0.127468,0.0499 -0.04995,0.031 -0.07235,0.0775 -0.02239,0.0465 -0.02239,0.10336 0,0.0706 0.04651,0.1223 0.04823,0.0499 0.125746,0.0913 0.07924,0.0396 0.177422,0.0758 0.09991,0.0344 0.20326,0.0758 0.105075,0.0396 0.20326,0.0913 0.09991,0.0517 0.177422,0.12575 0.07924,0.0741 0.125746,0.1757 0.04823,0.0999 0.04823,0.23771 z"
       id="text5"
       style="font-weight:bold;font-size:3.52777px;line-height:0.9;font-family:Consolas;-inkscape-font-specification:'Consolas Bold';text-align:center;text-anchor:middle;stroke-width:0.264583"
       aria-label="RS" />
    <path
       style="font-size:3.52777px;line-height:0.9;font-family:Arial;-inkscape-font-specification:Arial;text-align:center;text-anchor:middle;stroke-width:0.264583"
       d="m 3.2805951,24.201403 v -1.829342 h 0.279052 v 0.27733 q 0.106798,-0.194648 0.196371,-0.256659 0.09129,-0.06201 0.199815,-0.06201 0.156751,0 0.31867,0.09991 l -0.106797,0.287665 q -0.113688,-0.06718 -0.227376,-0.06718 -0.10163,0 -0.18259,0.06201 -0.08096,0.06029 -0.11541,0.168809 -0.05168,0.165365 -0.05168,0.361735 v 0.957734 z m 2.43051,-0.58911 0.320393,0.03962 q -0.07579,0.280775 -0.280775,0.435804 -0.204982,0.155029 -0.523653,0.155029 -0.401353,0 -0.637341,-0.246324 -0.234266,-0.248046 -0.234266,-0.694185 0,-0.461642 0.237711,-0.716578 0.237711,-0.254937 0.616671,-0.254937 0.366901,0 0.599445,0.249769 0.232543,0.249769 0.232543,0.702798 0,0.02756 -0.0017,0.08268 h -1.364255 q 0.01722,0.301445 0.170532,0.461642 0.153306,0.160197 0.382405,0.160197 0.170531,0 0.29111,-0.08957 0.120578,-0.08957 0.191202,-0.285942 z m -1.018024,-0.50126 h 1.021469 q -0.02067,-0.230821 -0.117133,-0.346232 -0.148139,-0.179144 -0.384127,-0.179144 -0.213596,0 -0.360012,0.142971 -0.144694,0.142971 -0.160197,0.382405 z m 1.603689,0.544324 0.306613,-0.04823 q 0.02584,0.184313 0.142971,0.282498 0.118855,0.09819 0.330728,0.09819 0.213596,0 0.316948,-0.08613 0.103353,-0.08785 0.103353,-0.204982 0,-0.105076 -0.0913,-0.165365 -0.06373,-0.04134 -0.316948,-0.105075 -0.341064,-0.08613 -0.473699,-0.148139 -0.130914,-0.06373 -0.199816,-0.173977 -0.06718,-0.111965 -0.06718,-0.246323 0,-0.122301 0.05512,-0.225654 0.05684,-0.105075 0.153306,-0.173976 0.07235,-0.0534 0.19637,-0.08957 0.125746,-0.0379 0.268717,-0.0379 0.215318,0 0.377237,0.06201 0.163642,0.06201 0.241156,0.168809 0.07751,0.105075 0.106798,0.282497 l -0.303168,0.04134 q -0.02067,-0.141248 -0.120578,-0.220485 -0.09819,-0.07924 -0.279052,-0.07924 -0.213595,0 -0.30489,0.07062 -0.09129,0.07062 -0.09129,0.165364 0,0.06029 0.0379,0.108521 0.0379,0.04995 0.118855,0.08268 0.04651,0.01722 0.273885,0.07924 0.329006,0.08785 0.458197,0.144693 0.130913,0.05512 0.204982,0.16192 0.07407,0.106797 0.07407,0.265271 0,0.155029 -0.09129,0.292833 -0.08957,0.136081 -0.260104,0.211873 -0.170532,0.07407 -0.38585,0.07407 -0.356567,0 -0.544324,-0.148139 -0.186035,-0.148139 -0.237711,-0.439248 z m 3.140198,-0.04306 0.320393,0.03962 q -0.07579,0.280775 -0.280775,0.435804 -0.204983,0.155029 -0.523653,0.155029 -0.401353,0 -0.637342,-0.246324 -0.234266,-0.248046 -0.234266,-0.694185 0,-0.461642 0.237712,-0.716578 0.237711,-0.254937 0.61667,-0.254937 0.366902,0 0.599446,0.249769 0.232543,0.249769 0.232543,0.702798 0,0.02756 -0.0017,0.08268 h -1.364254 q 0.01722,0.301445 0.170531,0.461642 0.153307,0.160197 0.382405,0.160197 0.170532,0 0.29111,-0.08957 0.120578,-0.08957 0.191203,-0.285942 z m -1.018024,-0.50126 h 1.021469 q -0.02067,-0.230821 -0.117133,-0.346232 -0.148139,-0.179144 -0.384128,-0.179144 -0.213595,0 -0.360011,0.142971 -0.144694,0.142971 -0.160197,0.382405 z m 2.4046709,0.81304 0.04479,0.273885 q -0.130913,0.02756 -0.234265,0.02756 -0.16881,0 -0.261827,-0.0534 -0.09302,-0.0534 -0.130914,-0.139526 -0.03789,-0.08785 -0.03789,-0.366902 V 22.613219 H 9.9761331 V 22.372063 H 10.203509 V 21.919034 L 10.511844,21.733 v 0.639063 h 0.31178 v 0.241156 h -0.31178 v 1.0697 q 0,0.132636 0.0155,0.170532 0.01723,0.0379 0.0534,0.06029 0.0379,0.02239 0.106797,0.02239 0.05168,0 0.136081,-0.01206 z"
       id="text2-0"
       aria-label="reset" />
    <rect
       style="display:inline;fill:#000000;stroke:#000000;stroke-width:0.16711;stroke-opacity:0"
       id="rect3"
       width="5.3362722"
       height="0.13288969"
       x="11.185364"
       y="16.843056" />
  </g>
  <g
     inkscape:groupmode="layer"
     id="layer2"
     inkscape:label="components"
     style="display:none">
    <circle
       style="fill:#00ff00;fill-opacity:1;stroke-width:0.256914"
       id="path2"
       cx="7.0745001"
       cy="30.311501"
       r="3.1535001"
       inkscape:label="pulse1" />
    <circle
       style="display:inline;fill:#00ff00;fill-opacity:1;stroke-width:0.256914"
       id="path2-7"
       cx="18.3255"
       cy="30.311501"
       r="3.1535001"
       inkscape:label="pulse2" />
    <circle
       style="fill:#00ff00;fill-opacity:1;stroke-width:0.256914"
       id="path2-6"
       cx="7.0745001"
       cy="54.508499"
       r="3.1535001"
       inkscape:label="in1" />
    <circle
       style="display:inline;fill:#00ff00;fill-opacity:1;stroke-width:0.256914"
       id="path2-6-6"
       cx="18.3255"
       cy="54.508499"
       r="3.1535001"
       inkscape:label="in2" />
    <circle
       style="display:inline;fill:#00ff00;fill-opacity:1;stroke-width:0.256914"
       id="path2-6-3-1"
       cx="7.0745001"
       cy="16.9095"
       r="3.1535001"
       inkscape:label="reset" />
    <circle
       style="fill:#0000ff;fill-opacity:1;stroke-width:0.256914"
       id="path2-6-1"
       cx="7.0743198"
       cy="106.08877"
       r="3.1535001"
       inkscape:label="out1" />
    <circle
       style="display:inline;fill:#0000ff;fill-opacity:1;stroke-width:0.256914"
       id="path2-6-1-2"
       cx="18.56707"
       cy="106.08877"
       r="3.1535001"
       inkscape:label="out2" />
    <circle
       style="fill:#ff0000;fill-opacity:1;stroke-width:0.256914"
       id="path2-6-8"
       cx="7.0745001"
       cy="68.293503"
       r="3.1535001"
       inkscape:label="closedWait1" />
    <circle
       style="display:inline;fill:#ff0000;fill-opacity:1;stroke-width:0.256914"
       id="path2-6-8-0"
       cx="18.3255"
       cy="68.293503"
       r="3.1535001"
       inkscape:label="closedWait2" />
    <circle
       style="display:inline;fill:#ff0000;fill-opacity:1;stroke-width:0.256914"
       id="path2-6-8-0-4"
       cx="18.3255"
       cy="16.9095"
       r="3.1535001"
       inkscape:label="reset" />
    <circle
       style="fill:#ff0000;fill-opacity:1;stroke-width:0.256914"
       id="path2-6-8-4"
       cx="7.0745001"
       cy="91.9375"
       r="3.1535001"
       inkscape:label="openWait1" />
    <circle
       style="display:inline;fill:#ff0000;fill-opacity:1;stroke-width:0.256914"
       id="path2-6-8-4-8"
       cx="18.56707"
       cy="91.9375"
       r="3.1535001"
       inkscape:label="openWait2" />
    <circle
       style="fill:#ff00ff;fill-opacity:1;stroke-width:0.0939752"
       id="path2-6-8-3"
       cx="12.7"
       cy="80.80381"
       inkscape:label="open"
       r="1.1535" />
    <circle
       style="display:inline;fill:#ff00ff;fill-opacity:1;stroke-width:0.0939752"
       id="path2-6-8-3-5"
       cx="7.0745001"
       cy="80.80381"
       inkscape:label="openLoad1"
       r="1.1535" />
    <circle
       style="display:inline;fill:#ff00ff;fill-opacity:1;stroke-width:0.0939752"
       id="path2-6-8-3-5-2"
       cx="7.0745001"
       cy="42.682499"
       inkscape:label="closedLoad1"
       r="1.1535" />
    <circle
       style="display:inline;fill:#ff00ff;fill-opacity:1;stroke-width:0.0939752"
       id="path2-6-8-3-0"
       cx="12.7"
       cy="42.682499"
       r="1.1535"
       inkscape:label="closed" />
    <circle
       style="display:inline;fill:#ff00ff;fill-opacity:1;stroke-width:0.0939752"
       id="path2-6-8-3-0-1"
       cx="18.3255"
       cy="80.80381"
       r="1.1535"
       inkscape:label="openLoad2" />
    <circle
       style="display:inline;fill:#ff00ff;fill-opacity:1;stroke-width:0.0939752"
       id="path2-6-8-3-0-1-0"
       cx="18.3255"
       cy="42.682499"
       r="1.1535"
       inkscape:label="closedLoad2" />
  </g>
</svg>
