<?xml version="1.0" encoding="UTF-8" standalone="no"?>
<!-- Created with Inkscape (http://www.inkscape.org/) -->

<svg
   width="15.24mm"
   height="128.5mm"
   viewBox="0 0 15.24 128.5"
   version="1.1"
   id="svg1"
   inkscape:version="1.3 (0e150ed6c4, 2023-07-21)"
   sodipodi:docname="WaitGate_Zero.svg"
   xmlns:inkscape="http://www.inkscape.org/namespaces/inkscape"
   xmlns:sodipodi="http://sodipodi.sourceforge.net/DTD/sodipodi-0.dtd"
   xmlns="http://www.w3.org/2000/svg"
   xmlns:svg="http://www.w3.org/2000/svg">
  <sodipodi:namedview
     id="namedview1"
     pagecolor="#505050"
     bordercolor="#ffffff"
     borderopacity="1"
     inkscape:showpageshadow="0"
     inkscape:pageopacity="0"
     inkscape:pagecheckerboard="1"
     inkscape:deskcolor="#505050"
     inkscape:document-units="mm"
     showgrid="false"
     inkscape:zoom="3.9156336"
     inkscape:cx="41.117228"
     inkscape:cy="115.5624"
     inkscape:window-width="1920"
     inkscape:window-height="991"
     inkscape:window-x="-9"
     inkscape:window-y="-9"
     inkscape:window-maximized="1"
     inkscape:current-layer="layer2">
    <inkscape:grid
       id="grid1"
       units="mm"
       originx="0"
       originy="0"
       spacingx="1"
       spacingy="1"
       empcolor="#0099e5"
       empopacity="0.30196078"
       color="#0099e5"
       opacity="0.14901961"
       empspacing="5"
       dotted="false"
       gridanglex="30"
       gridanglez="30"
       visible="false" />
  </sodipodi:namedview>
  <defs
     id="defs1">
    <rect
       x="16.88126"
       y="442.32944"
       width="32.284557"
       height="22.984785"
       id="rect5" />
    <rect
       x="16.88126"
       y="442.32944"
       width="60.439163"
       height="14.624552"
       id="rect5-6" />
    <rect
       x="16.88126"
       y="442.32944"
       width="60.439163"
       height="14.624552"
       id="rect5-6-3" />
  </defs>
  <g
     inkscape:label="Layer 1"
     inkscape:groupmode="layer"
     id="layer1">
    <rect
       style="fill:#7add55;fill-opacity:1;stroke-width:0.264585"
       id="rect1"
       width="15.235825"
       height="128.5"
       x="0.0041754646"
       y="-6.9467002e-15"
       ry="0"
       rx="0" />
    <path
       style="font-weight:bold;font-size:4.28473px;line-height:0.9;font-family:Consolas;-inkscape-font-specification:'Consolas Bold';text-align:center;text-anchor:middle;white-space:pre;inline-size:10.6808;stroke-width:0.392114"
       d="M 4.3334236,11.836117 H 3.5387126 L 3.1839796,10.427215 3.0547356,9.8538653 2.9309916,10.441199 2.5817586,11.836117 H 1.8200447 L 1.6193044,7.2668016 h 0.5967214 l 0.085246,2.9296754 0.021999,0.800592 0.1622418,-0.713191 0.395981,-1.6256554 h 0.42623 l 0.41798,1.7235444 0.134743,0.60831 0.011,-0.713191 0.09075,-3.0100844 h 0.574723 z m 2.425384,0 -0.0165,-0.464972 q -0.088,0.118865 -0.184241,0.22025 -0.09624,0.09789 -0.21174,0.171305 -0.115494,0.07342 -0.252988,0.111874 -0.134743,0.04195 -0.296985,0.04195 -0.21449,0 -0.376732,-0.08041 -0.162243,-0.08041 -0.272238,-0.223743 -0.109994,-0.143337 -0.167741,-0.346107 -0.055,-0.20277 -0.055,-0.447493 0,-0.251714 0.0825,-0.464973 0.08524,-0.213258 0.255736,-0.3670827 0.173242,-0.153826 0.428979,-0.241227 0.258488,-0.0874 0.604971,-0.0874 h 0.365733 V 9.44483 q 0,-0.1363454 -0.03025,-0.2447223 -0.03025,-0.1118732 -0.099,-0.1887858 -0.066,-0.076912 -0.173242,-0.1188647 -0.107245,-0.041953 -0.263987,-0.041953 -0.247488,0 -0.489477,0.073416 -0.239238,0.069921 -0.464727,0.1992738 V 8.4414686 q 0.20074,-0.1013842 0.461977,-0.1678095 0.263988,-0.066425 0.547224,-0.066425 0.310735,0 0.533475,0.076912 0.222739,0.073416 0.365732,0.2237461 0.145743,0.1503301 0.21449,0.3775716 0.06875,0.2237461 0.06875,0.5244049 v 2.4262483 z m -0.09625,-1.569719 h -0.409731 q -0.170492,0 -0.288736,0.04195 -0.118245,0.04195 -0.192491,0.115369 -0.07425,0.07342 -0.109994,0.171305 -0.033,0.09439 -0.033,0.20277 0,0.216754 0.109994,0.332124 0.109995,0.111873 0.299736,0.111873 0.140243,0 0.291486,-0.129354 0.151243,-0.129354 0.332734,-0.37058 z M 9.7479146,7.31225 q 0,0.1153692 -0.033,0.216754 -0.033,0.1013851 -0.09349,0.1782977 -0.05775,0.073417 -0.137494,0.1188651 -0.07975,0.041953 -0.173241,0.041953 -0.09349,0 -0.175992,-0.041953 -0.07975,-0.045448 -0.140243,-0.1188651 -0.05775,-0.076913 -0.09075,-0.1782977 -0.033,-0.1013848 -0.033,-0.216754 0,-0.1153691 0.033,-0.216754 0.033,-0.1013849 0.09075,-0.1782977 0.0605,-0.076913 0.140243,-0.1188651 0.0825,-0.045448 0.175992,-0.045448 0.0935,0 0.173242,0.045448 0.07975,0.041952 0.137493,0.1188651 0.0605,0.076913 0.09349,0.1782977 0.033,0.1013849 0.033,0.216754 z M 9.0054496,8.9483933 H 8.2162376 V 8.2841471 h 1.476679 v 2.8877239 h 0.8057124 v 0.664246 H 8.1199926 v -0.664246 h 0.885457 z m 4.4987854,2.8527637 q -0.181491,0.05244 -0.365732,0.0839 -0.184241,0.03146 -0.349234,0.03146 -0.274986,0 -0.475727,-0.07342 -0.19799,-0.07342 -0.329984,-0.223747 -0.129244,-0.150329 -0.192491,-0.381068 -0.0605,-0.234234 -0.0605,-0.555869 V 8.9483933 H 10.979856 V 8.2841471 H 11.73057 V 7.3751786 l 0.687467,-0.2272421 v 1.1362106 h 1.086198 v 0.6642462 h -1.086198 v 1.6711037 q 0,0.304155 0.109995,0.461477 0.109994,0.153826 0.368482,0.153826 0.164993,0 0.321734,-0.03496 0.156743,-0.03496 0.285987,-0.08041 z M 3.0932336,16.434796 v -0.709695 h 1.278689 v 2.436735 q -0.247488,0.146833 -0.516976,0.216754 -0.269487,0.06992 -0.585721,0.06992 -0.373982,0 -0.673718,-0.146833 Q 2.2985218,18.154844 2.0895318,17.864673 1.8805419,17.574503 1.7677973,17.14449 1.6578026,16.714479 1.6578026,16.148121 q 0,-0.569853 0.1154939,-1.020841 0.1182448,-0.450989 0.3409836,-0.762135 0.2254892,-0.314643 0.5499735,-0.478957 0.327234,-0.164313 0.745214,-0.164313 0.247488,0 0.481227,0.05594 0.236489,0.05244 0.470228,0.143337 v 0.849536 q -0.20349,-0.122361 -0.450978,-0.199274 -0.244738,-0.08041 -0.494976,-0.08041 -0.252988,0 -0.448229,0.111873 -0.192491,0.111873 -0.324484,0.318139 -0.129244,0.206266 -0.197991,0.506925 -0.065997,0.300659 -0.065997,0.67823 0,0.363587 0.052248,0.657254 0.05225,0.290171 0.167742,0.496437 0.118245,0.20277 0.302486,0.311147 0.184241,0.108377 0.448228,0.108377 0.06325,0 0.109995,-0.0035 0.04675,-0.007 0.088,-0.01748 0.04125,-0.01049 0.077,-0.02447 0.0385,-0.01399 0.07975,-0.03146 v -1.167679 z m 3.665574,1.933306 -0.0165,-0.464972 q -0.088,0.118864 -0.184241,0.22025 -0.09624,0.09789 -0.21174,0.171305 -0.115494,0.07342 -0.252988,0.111874 -0.134743,0.04195 -0.296986,0.04195 -0.214489,0 -0.376731,-0.08041 -0.162243,-0.08041 -0.272237,-0.223746 -0.109995,-0.143337 -0.167742,-0.346107 -0.055,-0.20277 -0.055,-0.447493 0,-0.251714 0.0825,-0.464972 0.08525,-0.213258 0.255737,-0.367083 0.173242,-0.153826 0.428979,-0.241227 0.258488,-0.0874 0.604971,-0.0874 h 0.365733 v -0.213258 q 0,-0.136346 -0.03025,-0.244723 -0.03025,-0.111873 -0.099,-0.188786 -0.066,-0.07691 -0.173242,-0.118864 -0.107245,-0.04195 -0.263987,-0.04195 -0.247488,0 -0.489477,0.07342 -0.239238,0.06992 -0.464727,0.199274 v -0.681726 q 0.20074,-0.101384 0.461977,-0.167809 0.263988,-0.06643 0.547224,-0.06643 0.310735,0 0.533474,0.07691 0.22274,0.07342 0.365733,0.223746 0.145743,0.15033 0.21449,0.377572 0.06875,0.223746 0.06875,0.524405 v 2.426247 z m -0.09625,-1.569719 h -0.409731 q -0.170492,0 -0.288736,0.04195 -0.118245,0.04195 -0.192491,0.115369 -0.07425,0.07342 -0.109994,0.171306 -0.033,0.09439 -0.033,0.202769 0,0.216754 0.109994,0.332123 0.109995,0.111874 0.299736,0.111874 0.140243,0 0.291486,-0.129354 0.151243,-0.129354 0.332734,-0.37058 z m 3.7453214,1.534759 q -0.181492,0.05244 -0.365733,0.08391 -0.1842424,0.03146 -0.3492344,0.03146 -0.274986,0 -0.475727,-0.07342 -0.19799,-0.07341 -0.329984,-0.223744 -0.129244,-0.150329 -0.192491,-0.381068 -0.0605,-0.234234 -0.0605,-0.555869 v -1.734032 h -0.750709 v -0.664246 h 0.750714 v -0.908969 l 0.687467,-0.227242 v 1.136211 h 1.0861994 v 0.664246 H 9.3216816 v 1.671104 q 0,0.304154 0.109995,0.461476 0.109994,0.153826 0.368482,0.153826 0.164992,0 0.3217354,-0.03496 0.156742,-0.03496 0.285986,-0.08041 z m 3.225596,-2.013715 q 0,0.0874 -0.0055,0.227242 -0.0028,0.139841 -0.01104,0.262202 h -1.83685 q 0,0.234235 0.055,0.412532 0.05775,0.178298 0.159493,0.300659 0.104495,0.118865 0.247488,0.181794 0.145743,0.06293 0.321734,0.06293 0.20349,0 0.434479,-0.03846 0.233739,-0.04195 0.483977,-0.13285 v 0.678231 q -0.10724,0.03846 -0.233739,0.06992 -0.126495,0.03146 -0.258487,0.05594 -0.131994,0.02447 -0.266738,0.03496 -0.134743,0.01399 -0.261237,0.01399 -0.318985,0 -0.571972,-0.115369 -0.252988,-0.115372 -0.42898,-0.339119 -0.175991,-0.227242 -0.269487,-0.559365 -0.09349,-0.332123 -0.09349,-0.769127 0,-0.433508 0.09349,-0.786607 0.0935,-0.356596 0.263987,-0.60831 0.170492,-0.25521 0.41248,-0.391556 0.244739,-0.139841 0.544474,-0.139841 0.296986,0 0.525225,0.118865 0.228238,0.115369 0.382232,0.325131 0.153993,0.209762 0.233738,0.499933 0.07974,0.29017 0.07974,0.636278 z m -0.681968,-0.122361 q 0.0028,-0.209762 -0.04124,-0.363587 -0.04399,-0.157322 -0.121001,-0.258707 -0.07425,-0.101384 -0.175991,-0.15033 -0.099,-0.04894 -0.214489,-0.04894 -0.252988,0 -0.41523,0.216754 -0.162243,0.213258 -0.192491,0.604814 z"
       id="text1"
       aria-label="Wait&#10;Gate" />
    <rect
       style="fill:#000000;fill-opacity:1;stroke-width:0.112632"
       id="rect2"
       width="13.619499"
       height="0.66399997"
       x="0.81025028"
       y="86.505302"
       ry="0.27390954" />
    <rect
       style="fill:#000000;fill-opacity:1;stroke-width:0.111777"
       id="rect2-2"
       width="13.413536"
       height="0.66399997"
       x="0.81025028"
       y="77.934311"
       ry="0.27390954" />
    <rect
       style="fill:#ff63e9;fill-opacity:1;stroke-width:0.302914"
       id="rect4"
       width="10.776912"
       height="13.189312"
       x="2.231544"
       y="103.72562"
       ry="1.4404136" />
    <path
       style="font-size:3.52777px;line-height:0.9;font-family:Arial;-inkscape-font-specification:Arial;text-align:center;text-anchor:middle;stroke-width:0.264583"
       d="m 6.4915859,56.440345 v -0.356567 h 0.310058 v 0.356567 z m 0,2.168683 v -1.829342 h 0.310058 v 1.829342 z m 0.782035,0 V 56.779686 H 7.552673 v 0.260104 q 0.2015377,-0.301445 0.5822199,-0.301445 0.1653642,0 0.3031677,0.06029 0.1395261,0.05857 0.2084279,0.155029 0.068902,0.09646 0.096462,0.229098 0.017226,0.08613 0.017226,0.301446 v 1.124821 h -0.310058 v -1.112764 q 0,-0.189479 -0.036173,-0.282497 -0.036173,-0.09474 -0.1291908,-0.149861 -0.091295,-0.05684 -0.215318,-0.05684 -0.1980925,0 -0.3427862,0.125746 -0.1429712,0.125745 -0.1429712,0.477144 v 0.999076 z"
       id="text4-3-1"
       aria-label="in" />
    <path
       style="font-size:3.52777px;line-height:0.9;font-family:Arial;-inkscape-font-specification:Arial;text-align:center;text-anchor:middle;stroke-width:0.264583"
       d="M 4.9581774,73.109459 4.3983506,71.280117 h 0.3203932 l 0.2911099,1.055919 0.1085203,0.39274 q 0.00689,-0.02928 0.09474,-0.377237 l 0.2911099,-1.071422 h 0.3186706 l 0.2738845,1.061087 0.091295,0.349676 0.1050751,-0.353121 0.313503,-1.057642 h 0.301445 L 6.3362125,73.109459 H 6.0140968 L 5.7229869,72.013921 5.6523629,71.70214 5.2820159,73.109459 Z m 3.4037468,-0.225654 q -0.1722544,0.146417 -0.332451,0.206706 -0.158474,0.06029 -0.3410637,0.06029 -0.3014452,0 -0.4633643,-0.146417 -0.1619192,-0.148138 -0.1619192,-0.377237 0,-0.134358 0.060289,-0.244601 0.062012,-0.111965 0.1601966,-0.179145 0.099908,-0.06718 0.2239307,-0.10163 0.091295,-0.02411 0.275607,-0.04651 0.3755146,-0.04479 0.5529366,-0.106798 0.00172,-0.06373 0.00172,-0.08096 0,-0.189479 -0.08785,-0.266994 -0.1188555,-0.105075 -0.3531215,-0.105075 -0.2187631,0 -0.3238382,0.07751 -0.1033527,0.07579 -0.1533065,0.27044 L 7.116522,71.802044 q 0.041341,-0.194648 0.136081,-0.313503 0.09474,-0.120578 0.2738845,-0.184313 0.1791445,-0.06546 0.4151331,-0.06546 0.2342659,0 0.3806822,0.05512 0.1464162,0.05512 0.215318,0.139526 0.068902,0.08268 0.096462,0.210151 0.015503,0.07924 0.015503,0.285942 v 0.413411 q 0,0.432358 0.018948,0.547768 0.02067,0.113688 0.079237,0.218764 H 8.4239358 Q 8.3757048,73.01299 8.3619238,72.883796 Z M 8.336086,72.191343 q -0.1688093,0.0689 -0.5064279,0.117133 -0.1912024,0.02756 -0.2704394,0.06201 -0.079237,0.03445 -0.1223006,0.10163 -0.043064,0.06546 -0.043064,0.146417 0,0.124023 0.093017,0.206705 0.09474,0.08268 0.275607,0.08268 0.1791446,0 0.3186706,-0.07752 0.1395261,-0.07924 0.2049828,-0.215318 0.049954,-0.105075 0.049954,-0.310057 z m 0.7958155,-1.250567 v -0.356567 h 0.3100579 v 0.356567 z m 0,2.168683 v -1.829342 h 0.3100579 v 1.829342 z m 1.4589945,-0.27733 0.04479,0.273884 q -0.130913,0.02756 -0.234266,0.02756 -0.168809,0 -0.261827,-0.0534 -0.09302,-0.0534 -0.130913,-0.139526 -0.037896,-0.08785 -0.037896,-0.366902 V 71.521273 H 9.7434043 v -0.241156 h 0.2273758 v -0.453029 l 0.3083349,-0.186035 v 0.639064 h 0.311781 v 0.241156 h -0.311781 v 1.0697 q 0,0.132636 0.0155,0.170532 0.01723,0.0379 0.0534,0.06029 0.0379,0.02239 0.106798,0.02239 0.05168,0 0.136081,-0.01206 z"
       id="text4-3-1-5"
       aria-label="wait" />
    <path
       style="font-size:3.52777px;line-height:0.9;font-family:Arial;-inkscape-font-specification:Arial;text-align:center;text-anchor:middle;stroke-width:0.264583"
       d="m 4.9517792,102.15384 -0.5598268,-1.82935 h 0.3203932 l 0.2911099,1.05592 0.1085203,0.39274 q 0.00689,-0.0293 0.09474,-0.37724 l 0.2911099,-1.07142 h 0.3186706 l 0.2738845,1.06109 0.091295,0.34968 0.1050751,-0.35313 0.313503,-1.05764 h 0.301445 l -0.5718846,1.82935 H 6.0076986 l -0.2911099,-1.09555 -0.070624,-0.31178 -0.370347,1.40733 z m 3.4037468,-0.22566 q -0.1722544,0.14642 -0.332451,0.20671 -0.158474,0.0603 -0.3410637,0.0603 -0.3014452,0 -0.4633643,-0.14642 -0.1619192,-0.14814 -0.1619192,-0.37723 0,-0.13437 0.060289,-0.24461 0.062012,-0.11196 0.1601966,-0.17914 0.099907,-0.0672 0.2239307,-0.10163 0.091295,-0.0241 0.275607,-0.0465 0.3755146,-0.0448 0.5529366,-0.1068 0.00172,-0.0637 0.00172,-0.081 0,-0.18948 -0.08785,-0.267 -0.1188555,-0.10507 -0.3531215,-0.10507 -0.2187631,0 -0.3238383,0.0775 -0.1033526,0.0758 -0.1533064,0.27043 l -0.3031677,-0.0413 q 0.041341,-0.19464 0.136081,-0.3135 0.09474,-0.12058 0.2738845,-0.18431 0.1791445,-0.0655 0.4151331,-0.0655 0.2342659,0 0.3806822,0.0551 0.1464162,0.0551 0.215318,0.13952 0.068902,0.0827 0.096462,0.21016 0.015503,0.0792 0.015503,0.28594 v 0.41341 q 0,0.43236 0.018948,0.54777 0.020671,0.11369 0.079237,0.21877 h -0.323835 q -0.048231,-0.0965 -0.062012,-0.22567 z m -0.025838,-0.69246 q -0.1688093,0.0689 -0.5064279,0.11713 -0.1912024,0.0276 -0.2704394,0.062 -0.079237,0.0344 -0.1223006,0.10163 -0.043064,0.0655 -0.043064,0.14642 0,0.12402 0.093017,0.2067 0.09474,0.0827 0.275607,0.0827 0.1791446,0 0.3186706,-0.0775 0.1395261,-0.0792 0.2049828,-0.21531 0.049954,-0.10508 0.049954,-0.31006 z m 0.7958155,-1.250577 v -0.35656 h 0.3100579 v 0.35656 z m 0,2.168697 v -1.82935 h 0.3100579 v 1.82935 z m 1.4589945,-0.27733 0.04479,0.27388 q -0.130913,0.0276 -0.234266,0.0276 -0.168809,0 -0.261827,-0.0534 -0.09302,-0.0534 -0.130913,-0.13952 -0.037896,-0.0879 -0.037896,-0.36691 v -1.05252 H 9.7370061 v -0.24115 h 0.2273758 v -0.453037 l 0.3083351,-0.18603 v 0.639067 h 0.311781 v 0.24115 h -0.311781 v 1.06971 q 0,0.13264 0.0155,0.17053 0.01723,0.0379 0.0534,0.0603 0.0379,0.0224 0.106798,0.0224 0.05168,0 0.136081,-0.0121 z"
       id="text4-3-1-5-5"
       aria-label="wait" />
    <path
       style="font-size:3.52777px;line-height:0.9;font-family:Arial;-inkscape-font-specification:Arial;text-align:center;text-anchor:middle;stroke-width:0.264583"
       d="m 5.1834613,114.66268 q 0,-0.50815 0.2824972,-0.75275 0.2359886,-0.20326 0.5753297,-0.20326 0.3772372,0 0.6166708,0.24804 0.2394336,0.24633 0.2394336,0.68213 0,0.35312 -0.1067978,0.55638 -0.1050751,0.20154 -0.3083353,0.31351 -0.2015377,0.11196 -0.4409713,0.11196 -0.3841273,0 -0.6218383,-0.24632 -0.2359886,-0.24633 -0.2359886,-0.70969 z m 0.3186707,0 q 0,0.3514 0.1533064,0.5271 0.1533064,0.17397 0.3858498,0.17397 0.2308209,0 0.3841273,-0.1757 0.1533064,-0.17569 0.1533064,-0.53571 0,-0.33934 -0.1550289,-0.51331 -0.1533064,-0.1757 -0.3824048,-0.1757 -0.2325434,0 -0.3858498,0.17397 -0.1533064,0.17398 -0.1533064,0.52538 z m 2.957608,0.91467 v -0.26872 q -0.2135955,0.31006 -0.5804973,0.31006 -0.1619192,0 -0.3031678,-0.062 -0.139526,-0.062 -0.2084278,-0.15503 -0.067179,-0.0947 -0.09474,-0.23082 -0.018948,-0.0913 -0.018948,-0.28939 v -1.13343 H 7.564017 v 1.01458 q 0,0.24288 0.018948,0.32728 0.029283,0.1223 0.1240232,0.19292 0.09474,0.0689 0.2342659,0.0689 0.1395261,0 0.2618267,-0.0706 0.1223006,-0.0723 0.1722544,-0.19465 0.051676,-0.12402 0.051676,-0.35828 v -0.98013 h 0.310058 v 1.82934 z m 1.4400468,-0.27733 0.044786,0.27388 q -0.1309133,0.0276 -0.234266,0.0276 -0.1688093,0 -0.2618267,-0.0534 -0.093017,-0.0534 -0.1309133,-0.13953 -0.037896,-0.0879 -0.037896,-0.3669 v -1.05248 H 9.0522951 v -0.24115 h 0.2273758 v -0.45303 l 0.3083354,-0.18604 v 0.63907 h 0.3117805 v 0.24115 H 9.5880063 v 1.0697 q 0,0.13264 0.015503,0.17054 0.017225,0.0379 0.053399,0.0603 0.037896,0.0224 0.1067977,0.0224 0.051676,0 0.136081,-0.0121 z"
       id="text4-3-1-5-5-5"
       aria-label="out" />
    <path
       d="m 5.5998308,84.163414 q 0,0.306612 -0.07235,0.52882 -0.07062,0.222208 -0.19637,0.365181 -0.124023,0.14297 -0.292833,0.21187 -0.167086,0.0689 -0.358288,0.0689 -0.444417,0 -0.668347,-0.294556 -0.223931,-0.296277 -0.223931,-0.859549 0,-0.306612 0.07062,-0.52882 0.07235,-0.222208 0.19637,-0.365178 0.125745,-0.142973 0.292832,-0.211873 0.168809,-0.0689 0.360012,-0.0689 0.444416,0 0.668346,0.294556 0.223931,0.294555 0.223931,0.859549 z m -0.447861,0.02066 q 0,-0.399629 -0.106798,-0.596001 -0.106798,-0.196368 -0.351399,-0.196368 -0.1223,0 -0.208428,0.05168 -0.08613,0.04995 -0.142971,0.14814 -0.05512,0.09818 -0.08096,0.242877 -0.02584,0.14297 -0.02584,0.329007 0,0.399629 0.106798,0.596 0.10852,0.196368 0.351399,0.196368 0.1223,0 0.208427,-0.04995 0.08785,-0.05168 0.142972,-0.14986 0.05512,-0.09819 0.08096,-0.241157 0.02584,-0.144693 0.02584,-0.330729 z m 2.325433,0.208428 q 0,0.241157 -0.0689,0.416856 -0.06718,0.1757 -0.18948,0.292833 -0.120579,0.115409 -0.285943,0.172255 -0.165364,0.05512 -0.360011,0.05512 -0.06546,0 -0.130913,-0.0086 -0.06546,-0.0086 -0.118856,-0.02238 v 0.68385 h -0.420301 v -2.433952 h 0.363456 l 0.01033,0.258381 q 0.0534,-0.06718 0.110243,-0.122301 0.05857,-0.05512 0.125745,-0.09302 0.06718,-0.03962 0.144694,-0.06029 0.07751,-0.02066 0.173977,-0.02066 0.155029,0 0.275607,0.06201 0.120578,0.06201 0.201537,0.177422 0.08268,0.113689 0.125746,0.277331 0.04306,0.161917 0.04306,0.365178 z m -0.440971,0.01722 q 0,-0.144695 -0.02067,-0.246324 -0.02067,-0.101632 -0.06029,-0.167087 -0.0379,-0.06546 -0.09474,-0.09474 -0.05512,-0.03101 -0.127468,-0.03101 -0.106798,0 -0.204983,0.08613 -0.09646,0.08613 -0.204983,0.234265 v 0.76481 q 0.04995,0.01894 0.122301,0.03101 0.07407,0.01207 0.149862,0.01207 0.09991,0 0.180867,-0.04134 0.08268,-0.04134 0.139525,-0.117131 0.05857,-0.07579 0.08957,-0.184314 0.03101,-0.110241 0.03101,-0.246322 z m 2.330601,-0.120578 q 0,0.04306 -0.0034,0.111964 -0.0017,0.0689 -0.0069,0.12919 h -1.150659 q 0,0.115412 0.03445,0.203261 0.03617,0.08785 0.09991,0.148138 0.06546,0.05857 0.155029,0.08957 0.0913,0.031 0.201538,0.031 0.127468,0 0.272161,-0.01894 0.146417,-0.02066 0.303168,-0.06546 v 0.334174 q -0.06718,0.01894 -0.146416,0.03445 -0.07924,0.0155 -0.161919,0.02756 -0.08268,0.01206 -0.167087,0.01722 -0.08441,0.0069 -0.163641,0.0069 -0.199816,0 -0.358289,-0.05684 -0.158474,-0.05685 -0.268717,-0.167087 -0.110243,-0.111967 -0.16881,-0.275609 -0.05857,-0.163639 -0.05857,-0.378957 0,-0.213596 0.05857,-0.387572 0.05857,-0.1757 0.165365,-0.299723 0.106797,-0.125746 0.258381,-0.192926 0.153306,-0.0689 0.341064,-0.0689 0.186034,0 0.329005,0.05857 0.142971,0.05684 0.239434,0.160197 0.09646,0.103352 0.146416,0.246322 0.04995,0.142973 0.04995,0.313505 z m -0.42719,-0.06029 q 0.0017,-0.103351 -0.02584,-0.179144 -0.02756,-0.07752 -0.07579,-0.127468 -0.04651,-0.04995 -0.110242,-0.07407 -0.06201,-0.0241 -0.134359,-0.0241 -0.158474,0 -0.260104,0.106797 -0.10163,0.105076 -0.120578,0.298 z m 1.8861842,1.0697 v -1.140322 q 0,-0.287666 -0.213595,-0.287666 -0.106798,0 -0.204983,0.08613 -0.09646,0.08613 -0.204982,0.234265 v 1.107596 H 9.7821658 v -1.750102 h 0.3634572 l 0.01033,0.258381 q 0.0534,-0.06718 0.110243,-0.122301 0.05857,-0.05512 0.125746,-0.09302 0.06718,-0.03962 0.144694,-0.06029 0.07751,-0.02066 0.173976,-0.02066 0.134359,0 0.234266,0.04479 0.09991,0.04306 0.167087,0.124023 0.06718,0.07923 0.09991,0.192924 0.03445,0.111966 0.03445,0.251492 v 1.174773 z"
       id="text5-2"
       style="font-weight:bold;font-size:13.3333px;line-height:0.9;font-family:Consolas;-inkscape-font-specification:'Consolas Bold';text-align:center;white-space:pre;stroke-width:0.264583"
       aria-label="Open" />
    <path
       d="m 3.6031379,43.530119 q -0.149861,0.06029 -0.29111,0.08957 -0.139526,0.02928 -0.291109,0.02928 -0.242879,0 -0.430636,-0.07062 -0.186035,-0.07234 -0.3152258,-0.213596 -0.127468,-0.141248 -0.1946473,-0.349676 -0.065457,-0.21015 -0.065457,-0.487479 0,-0.28422 0.072347,-0.504706 0.072347,-0.222207 0.2067052,-0.373792 0.1343579,-0.153305 0.3255609,-0.232543 0.192924,-0.08096 0.432358,-0.08096 0.07752,0 0.144694,0.0034 0.0689,0.0034 0.134358,0.01378 0.06546,0.0086 0.132636,0.0241 0.06718,0.01551 0.139526,0.03962 v 0.420301 q -0.146416,-0.0689 -0.279052,-0.09818 -0.132636,-0.02928 -0.241156,-0.02928 -0.160197,0 -0.273885,0.05857 -0.113687,0.05685 -0.187757,0.16192 -0.07235,0.103352 -0.106797,0.248047 -0.03445,0.14297 -0.03445,0.315225 0,0.182589 0.03445,0.327284 0.03617,0.14297 0.110242,0.242877 0.07407,0.09991 0.18948,0.153307 0.11541,0.05168 0.273884,0.05168 0.05684,0 0.122301,-0.01035 0.06718,-0.01206 0.134358,-0.02928 0.0689,-0.01894 0.134359,-0.04306 0.06718,-0.02582 0.124023,-0.05168 z m 1.014578,-2.018821 h -0.49437 v -0.327282 h 0.925006 v 2.106671 h 0.504705 v 0.327281 h -1.49 v -0.327281 h 0.554659 z m 2.950717,1.21784 q 0,0.206703 -0.05857,0.378957 -0.05857,0.170532 -0.16881,0.292833 -0.110243,0.122301 -0.270439,0.189481 -0.160197,0.06718 -0.365179,0.06718 -0.194648,0 -0.347954,-0.05684 -0.153306,-0.05685 -0.260104,-0.16881 -0.106798,-0.113688 -0.163642,-0.282498 -0.05684,-0.170532 -0.05684,-0.396184 0,-0.208428 0.05857,-0.37896 0.06029,-0.170532 0.170532,-0.291108 0.111965,-0.120579 0.272162,-0.186037 0.160196,-0.06718 0.361734,-0.06718 0.19637,0 0.349676,0.05856 0.153307,0.05684 0.260104,0.170532 0.106798,0.113689 0.161919,0.282498 0.05684,0.167085 0.05684,0.387573 z m -0.437526,0.01035 q 0,-0.272164 -0.103353,-0.408244 -0.10163,-0.137803 -0.301445,-0.137803 -0.110243,0 -0.187757,0.04306 -0.07751,0.04306 -0.127468,0.118856 -0.04995,0.07407 -0.07407,0.173977 -0.02239,0.09991 -0.02239,0.213596 0,0.273883 0.110243,0.413409 0.110243,0.137805 0.301445,0.137805 0.105075,0 0.182589,-0.04134 0.07751,-0.04306 0.125746,-0.117134 0.04823,-0.07579 0.07235,-0.177421 0.02412,-0.101632 0.02412,-0.218763 z m 2.244474,0.363455 q 0,0.149863 -0.06718,0.256659 -0.06546,0.105077 -0.1757,0.172255 -0.10852,0.06546 -0.248046,0.09474 -0.137803,0.03101 -0.282497,0.03101 -0.192925,0 -0.347954,-0.01895 -0.155029,-0.01722 -0.292832,-0.05168 V 43.20802 q 0.161919,0.06718 0.322116,0.09818 0.161918,0.02928 0.30489,0.02928 0.165364,0 0.246323,-0.05168 0.08268,-0.0534 0.08268,-0.137802 0,-0.03962 -0.01722,-0.07235 -0.01722,-0.03273 -0.06546,-0.06201 -0.04651,-0.03101 -0.132635,-0.06201 -0.08613,-0.03273 -0.225654,-0.07235 -0.12919,-0.03617 -0.227375,-0.08096 -0.09646,-0.04651 -0.160197,-0.108519 -0.06373,-0.06201 -0.09646,-0.142973 -0.03101,-0.08268 -0.03101,-0.192924 0,-0.106799 0.04823,-0.201538 0.04823,-0.09474 0.142971,-0.165365 0.09646,-0.07235 0.239434,-0.113686 0.142971,-0.04134 0.334173,-0.04134 0.165364,0 0.292832,0.01722 0.127469,0.01723 0.225654,0.0379 v 0.342786 q -0.149862,-0.04823 -0.282497,-0.06718 -0.130914,-0.02066 -0.260104,-0.02066 -0.129191,0 -0.208428,0.04651 -0.07752,0.04651 -0.07752,0.129191 0,0.03962 0.0155,0.07062 0.0155,0.031 0.06029,0.06029 0.04651,0.02928 0.127469,0.06201 0.08268,0.03101 0.21704,0.0689 0.151584,0.04306 0.254936,0.09302 0.103353,0.04823 0.165365,0.110244 0.06373,0.06201 0.09129,0.141248 0.02756,0.07924 0.02756,0.180866 z m 2.0205431,-0.494368 q 0,0.04306 -0.0034,0.111963 -0.0017,0.0689 -0.0069,0.129191 h -1.150659 q 0,0.115411 0.03445,0.203261 0.03617,0.08785 0.09991,0.148138 0.06546,0.05857 0.155029,0.08957 0.0913,0.031 0.201538,0.031 0.127468,0 0.272162,-0.01894 0.146416,-0.02066 0.303167,-0.06546 v 0.334174 q -0.06718,0.01894 -0.146416,0.03445 -0.07924,0.0155 -0.161919,0.02756 -0.08268,0.01206 -0.167087,0.01722 -0.08441,0.0069 -0.163641,0.0069 -0.199815,0 -0.358289,-0.05684 -0.158474,-0.05685 -0.268717,-0.167087 -0.1102431,-0.111967 -0.1688091,-0.275609 -0.05857,-0.163639 -0.05857,-0.378957 0,-0.213596 0.05857,-0.387573 0.05857,-0.175699 0.1653641,-0.299722 0.106797,-0.125746 0.258381,-0.192927 0.153307,-0.0689 0.341064,-0.0689 0.186034,0 0.329006,0.05857 0.142971,0.05684 0.239433,0.160197 0.09646,0.103352 0.146416,0.246322 0.04995,0.142973 0.04995,0.313505 z m -0.42719,-0.06029 q 0.0017,-0.103352 -0.02584,-0.179144 -0.02756,-0.07751 -0.07579,-0.127468 -0.04651,-0.04995 -0.110243,-0.07407 -0.06201,-0.0241 -0.134358,-0.0241 -0.158475,0 -0.260105,0.106796 -0.10163,0.105077 -0.120578,0.298001 z m 1.943029,1.0697 -0.01034,-0.258382 q -0.05512,0.06718 -0.113688,0.122301 -0.05857,0.05512 -0.125745,0.09474 -0.06718,0.0379 -0.144694,0.05857 -0.07579,0.02238 -0.168809,0.02238 -0.155029,0 -0.275607,-0.06201 -0.120578,-0.06201 -0.20326,-0.175699 -0.08096,-0.115411 -0.124024,-0.279053 -0.04306,-0.163643 -0.04306,-0.365178 0,-0.241157 0.06718,-0.416857 0.0689,-0.177421 0.18948,-0.292832 0.120578,-0.117134 0.285942,-0.172255 0.165364,-0.05684 0.360012,-0.05684 0.06546,0 0.130913,0.0086 0.06718,0.0086 0.118855,0.02238 V 41.184 h 0.420301 v 2.433953 z m -0.768254,-0.861272 q 0,0.144696 0.01895,0.248047 0.02067,0.101629 0.05857,0.167087 0.03962,0.06546 0.09646,0.09646 0.05684,0.02928 0.129191,0.02928 0.106798,0 0.20326,-0.08613 0.09646,-0.08613 0.204983,-0.23599 v -0.76481 q -0.04995,-0.01894 -0.124023,-0.031 -0.07235,-0.01206 -0.146417,-0.01206 -0.101629,0 -0.182589,0.04134 -0.08096,0.04134 -0.139526,0.117134 -0.05684,0.07579 -0.08785,0.186034 -0.03101,0.108521 -0.03101,0.244602 z"
       id="text5-2-0"
       style="font-weight:bold;font-size:13.3333px;line-height:0.9;font-family:Consolas;-inkscape-font-specification:'Consolas Bold';text-align:center;white-space:pre;stroke-width:0.264583"
       aria-label="Closed" />
    <rect
       style="display:inline;fill:#000000;fill-opacity:1;stroke-width:0.112685"
       id="rect2-6"
       width="13.632296"
       height="0.66399997"
       x="0.81025028"
       y="44.680008"
       ry="0.27390954" />
    <rect
       style="display:inline;fill:#000000;fill-opacity:1;stroke-width:0.112685"
       id="rect2-2-1"
       width="13.632296"
       height="0.66399997"
       x="0.81025028"
       y="36.109016"
       ry="0.27390954" />
    <path
       d="m 7.0179704,122.70896 -0.316948,-0.72347 q -0.04479,-0.10335 -0.125745,-0.15503 -0.07924,-0.0534 -0.187758,-0.0534 h -0.08096 v 0.93189 h -0.423746 v -2.25136 h 0.656289 q 0.186035,0 0.337619,0.0327 0.151584,0.031 0.258381,0.10508 0.106798,0.0741 0.163642,0.19292 0.05857,0.11886 0.05857,0.29111 0,0.12403 -0.03617,0.22049 -0.03617,0.0965 -0.10163,0.16709 -0.06546,0.0689 -0.156752,0.11196 -0.08957,0.0431 -0.19637,0.0603 0.08268,0.0172 0.151584,0.0947 0.0689,0.0758 0.137804,0.22049 l 0.360011,0.75447 z m -0.105075,-1.58818 q 0,-0.16537 -0.105075,-0.23772 -0.105075,-0.0723 -0.315226,-0.0723 h -0.186034 v 0.63562 h 0.172254 q 0.09818,0 0.177422,-0.0207 0.08096,-0.0207 0.137804,-0.062 0.05684,-0.0413 0.08785,-0.10163 0.03101,-0.062 0.03101,-0.14124 z m 2.44429,0.90778 q 0,0.18431 -0.0689,0.32039 -0.06718,0.13608 -0.189479,0.22565 -0.122301,0.0879 -0.29111,0.13092 -0.16881,0.0431 -0.368625,0.0431 -0.177422,0 -0.342786,-0.0207 -0.165364,-0.0207 -0.327283,-0.0689 v -0.41858 q 0.07924,0.0276 0.165364,0.0517 0.08613,0.0241 0.172254,0.0431 0.08785,0.0172 0.173977,0.0276 0.08613,0.0103 0.167087,0.0103 0.120578,0 0.204983,-0.0207 0.08441,-0.0207 0.137803,-0.0568 0.0534,-0.0362 0.07751,-0.0861 0.02412,-0.0499 0.02412,-0.11024 0,-0.0827 -0.04823,-0.1378 -0.04651,-0.0569 -0.124023,-0.0999 -0.07751,-0.0431 -0.177422,-0.0775 -0.09818,-0.0345 -0.201538,-0.0741 -0.10163,-0.0396 -0.201537,-0.0896 -0.09818,-0.05 -0.1757,-0.12402 -0.07751,-0.0741 -0.125746,-0.1757 -0.04651,-0.10335 -0.04651,-0.24805 0,-0.13263 0.04823,-0.25149 0.04823,-0.11885 0.151584,-0.2067 0.103353,-0.0896 0.265272,-0.14125 0.161919,-0.0534 0.391018,-0.0534 0.06718,0 0.139526,0.007 0.07407,0.005 0.144693,0.0155 0.07235,0.009 0.137804,0.0224 0.06718,0.0121 0.1223,0.0258 v 0.38758 q -0.05512,-0.0207 -0.120578,-0.0379 -0.06546,-0.0172 -0.136081,-0.0293 -0.0689,-0.0138 -0.139526,-0.0207 -0.07062,-0.007 -0.134358,-0.007 -0.111965,0 -0.18948,0.019 -0.07751,0.0172 -0.127468,0.0499 -0.04995,0.031 -0.07235,0.0775 -0.02239,0.0465 -0.02239,0.10336 0,0.0706 0.04651,0.1223 0.04823,0.0499 0.125746,0.0913 0.07924,0.0396 0.177422,0.0758 0.09991,0.0344 0.20326,0.0758 0.105075,0.0396 0.20326,0.0913 0.09991,0.0517 0.177422,0.12575 0.07924,0.0741 0.125746,0.1757 0.04823,0.0999 0.04823,0.23771 z"
       id="text5"
       style="font-weight:bold;font-size:3.52777px;line-height:0.9;font-family:Consolas;-inkscape-font-specification:'Consolas Bold';text-align:center;text-anchor:middle;stroke-width:0.264583"
       aria-label="RS" />
    <path
       style="font-size:3.52777px;line-height:0.9;font-family:'Courier New';-inkscape-font-specification:'Courier New';text-align:center;letter-spacing:1.19592px;text-anchor:middle;stroke-width:0.264583"
       d="M 3.2624827,25.259324 H 1.8689446 v -0.210151 l 1.174775,-1.648474 v -0.01206 h -0.962902 v 0.425468 q 0,0.0534 -0.020671,0.07579 -0.020671,0.02239 -0.053399,0.02239 -0.031006,0 -0.051676,-0.02239 -0.020671,-0.02239 -0.020671,-0.07579 V 23.243945 H 3.183245 v 0.204983 L 2.00847,25.099125 v 0.0155 H 3.117789 V 24.60992 q 0,-0.0534 0.018948,-0.07579 0.020671,-0.02239 0.053399,-0.02239 0.032728,0 0.051676,0.02239 0.020671,0.02239 0.020671,0.07579 z m 2.1398741,-0.973238 v 0.828544 h 1.1127634 v -0.427191 q 0,-0.05168 0.018948,-0.07407 0.02067,-0.02239 0.053399,-0.02239 0.032728,0 0.051676,0.02239 0.02067,0.02239 0.02067,0.07407 v 0.571885 H 5.0630156 q -0.051676,0 -0.074069,-0.02067 -0.022393,-0.02067 -0.022393,-0.05168 0,-0.03273 0.022393,-0.05168 0.022393,-0.02067 0.074069,-0.02067 H 5.2576631 V 23.388641 H 5.0630156 q -0.051676,0 -0.074069,-0.01895 -0.022393,-0.02067 -0.022393,-0.0534 0,-0.03273 0.022393,-0.05168 0.022393,-0.02067 0.074069,-0.02067 H 6.584022 v 0.497815 q 0,0.05168 -0.020671,0.07407 -0.018948,0.02239 -0.051676,0.02239 -0.032728,0 -0.053399,-0.02239 -0.018948,-0.02239 -0.018948,-0.07407 V 23.388641 H 5.4023568 v 0.752752 h 0.5184857 v -0.163642 q 0,-0.05168 0.020671,-0.07407 0.020671,-0.02239 0.053399,-0.02239 0.031006,0 0.051676,0.02239 0.020671,0.02239 0.020671,0.07407 v 0.471977 q 0,0.05168 -0.020671,0.07407 -0.020671,0.02239 -0.051676,0.02239 -0.032728,0 -0.053399,-0.02239 -0.020671,-0.02239 -0.020671,-0.07407 v -0.163642 z m 3.3129265,0.07407 v 0.754474 h 0.2669944 q 0.053399,0 0.075792,0.02067 0.022393,0.01895 0.022393,0.05168 0,0.03101 -0.022393,0.05168 -0.022393,0.02067 -0.075792,0.02067 H 8.3759422 q -0.051676,0 -0.074069,-0.02067 -0.022393,-0.02067 -0.022393,-0.05168 0,-0.03273 0.022393,-0.05168 0.022393,-0.02067 0.074069,-0.02067 H 8.5705896 V 23.388641 H 8.3759422 q -0.051676,0 -0.074069,-0.01895 -0.022393,-0.02067 -0.022393,-0.0534 0,-0.03273 0.022393,-0.05168 0.022393,-0.02067 0.074069,-0.02067 h 0.8750523 q 0.2704394,0 0.4547516,0.172255 0.1860348,0.170531 0.1860348,0.385849 0,0.155029 -0.1154105,0.292833 -0.1136879,0.136081 -0.3824047,0.227376 0.1550289,0.106797 0.2652717,0.241156 0.1102428,0.134358 0.3531216,0.551214 h 0.110243 q 0.05168,0 0.07407,0.02067 0.02239,0.01895 0.02239,0.05168 0,0.03101 -0.02239,0.05168 -0.02239,0.02067 -0.07407,0.02067 H 9.9296768 Q 9.66096,24.778734 9.5128212,24.615092 9.366405,24.451451 9.1752026,24.360156 Z m 0,-0.144694 h 0.3944626 q 0.1894798,0 0.3427863,-0.0689 0.1550289,-0.0689 0.2239307,-0.161919 0.070624,-0.09302 0.070624,-0.18948 0,-0.144693 -0.1464163,-0.275607 Q 9.4559772,23.388641 9.2475494,23.388641 H 8.7152833 Z m 4.6685687,0.04134 q 0,0.289387 -0.117133,0.537434 -0.117133,0.246324 -0.323838,0.384127 -0.204983,0.137804 -0.440971,0.137804 -0.349677,0 -0.616671,-0.296278 -0.265272,-0.298 -0.265272,-0.763087 0,-0.466809 0.265272,-0.763087 0.266994,-0.296277 0.616671,-0.296277 0.235988,0 0.440971,0.137803 0.204983,0.137804 0.322116,0.384127 0.118855,0.246324 0.118855,0.537434 z m -0.146416,0 q 0,-0.353121 -0.204983,-0.633896 -0.204982,-0.280775 -0.530543,-0.280775 -0.304891,0 -0.521931,0.268717 -0.215318,0.266994 -0.215318,0.645954 0,0.403075 0.225653,0.659734 0.227376,0.254937 0.511596,0.254937 0.325561,0 0.530543,-0.279052 0.204983,-0.280775 0.204983,-0.635619 z"
       id="text2"
       aria-label="ZERO" />
  </g>
  <g
     inkscape:groupmode="layer"
     id="layer2"
     inkscape:label="components"
     style="display:none">
    <circle
       style="fill:#00ff00;fill-opacity:1;stroke-width:0.256914"
       id="path2-6"
       cx="7.6263981"
       cy="50.803867"
       r="3.1535001"
       inkscape:label="signal" />
    <circle
       style="fill:#0000ff;fill-opacity:1;stroke-width:0.256914"
       id="path2-6-1"
       cx="7.6199999"
       cy="108.25539"
       r="3.1535001"
       inkscape:label="signal" />
    <circle
       style="fill:#ff0000;fill-opacity:1;stroke-width:0.256914"
       id="path2-6-8"
       cx="7.6263981"
       cy="64.589539"
       r="3.1535001"
       inkscape:label="closedWait" />
    <circle
       style="fill:#ff0000;fill-opacity:1;stroke-width:0.256914"
       id="path2-6-8-4"
       cx="7.6199999"
       cy="93.524513"
       r="3.1535001"
       inkscape:label="openWait" />
    <circle
       style="fill:#ff00ff;fill-opacity:1;stroke-width:0.0939752"
       id="path2-6-8-3"
       cx="7.5170183"
       cy="80.80381"
       inkscape:label="open"
       r="1.1535" />
    <circle
       style="display:inline;fill:#ff00ff;fill-opacity:1;stroke-width:0.0939752"
       id="path2-6-8-3-0"
       cx="7.6450858"
       cy="38.978508"
       r="1.1535"
       inkscape:label="closed" />
    <circle
       style="display:inline;fill:#ff00ff;fill-opacity:1;stroke-width:0.0939752"
       id="path2-6-8-3-0-3"
       cx="7.6263981"
       cy="29.016911"
       r="1.1535"
       inkscape:label="zero" />
  </g>
</svg>
