<?xml version="1.0" encoding="UTF-8" standalone="no"?>
<!-- Created with Inkscape (http://www.inkscape.org/) -->

<svg
   width="15.24mm"
   height="128.5mm"
   viewBox="0 0 15.24 128.5"
   version="1.1"
   id="svg1"
   inkscape:version="1.3 (0e150ed6c4, 2023-07-21)"
   sodipodi:docname="WaitGate.svg"
   xmlns:inkscape="http://www.inkscape.org/namespaces/inkscape"
   xmlns:sodipodi="http://sodipodi.sourceforge.net/DTD/sodipodi-0.dtd"
   xmlns="http://www.w3.org/2000/svg"
   xmlns:svg="http://www.w3.org/2000/svg">
  <sodipodi:namedview
     id="namedview1"
     pagecolor="#505050"
     bordercolor="#ffffff"
     borderopacity="1"
     inkscape:showpageshadow="0"
     inkscape:pageopacity="0"
     inkscape:pagecheckerboard="1"
     inkscape:deskcolor="#505050"
     inkscape:document-units="mm"
     showgrid="false"
     inkscape:zoom="2.87154"
     inkscape:cx="-35.869255"
     inkscape:cy="121.71169"
     inkscape:window-width="1920"
     inkscape:window-height="991"
     inkscape:window-x="-9"
     inkscape:window-y="-9"
     inkscape:window-maximized="1"
     inkscape:current-layer="layer2">
    <inkscape:grid
       id="grid1"
       units="mm"
       originx="0"
       originy="0"
       spacingx="1"
       spacingy="1"
       empcolor="#0099e5"
       empopacity="0.30196078"
       color="#0099e5"
       opacity="0.14901961"
       empspacing="5"
       dotted="false"
       gridanglex="30"
       gridanglez="30"
       visible="false" />
  </sodipodi:namedview>
  <defs
     id="defs1">
    <rect
       x="16.881259"
       y="442.32944"
       width="32.284559"
       height="22.984786"
       id="rect5" />
    <rect
       x="16.88126"
       y="442.32944"
       width="60.439163"
       height="14.624552"
       id="rect5-6" />
    <rect
       x="16.88126"
       y="442.32944"
       width="60.439163"
       height="14.624552"
       id="rect5-6-3" />
  </defs>
  <g
     inkscape:label="Layer 1"
     inkscape:groupmode="layer"
     id="layer1">
    <rect
       style="fill:#7add55;fill-opacity:1;stroke-width:0.264583"
       id="rect1"
       width="15.235825"
       height="128.49814"
       x="0.0041754646"
       y="0.001861594"
       ry="0"
       rx="0" />
    <rect
       style="fill:#000000;fill-opacity:1;stroke-width:0.112632"
       id="rect2"
       width="13.619499"
       height="0.66399997"
       x="0.81025028"
       y="86.505302"
       ry="0.27390954" />
    <rect
       style="fill:#000000;fill-opacity:1;stroke-width:0.112632"
       id="rect2-8"
       width="13.619499"
       height="0.66399997"
       x="0.81025028"
       y="116.732"
       ry="0.27390954" />
    <rect
       style="fill:#000000;fill-opacity:1;stroke-width:0.112632"
       id="rect2-2"
       width="13.619499"
       height="0.66399997"
       x="0.81025028"
       y="77.934311"
       ry="0.27390954" />
    <rect
       style="fill:#ff63e9;fill-opacity:1;stroke-width:0.302914"
       id="rect4"
       width="10.776912"
       height="13.189312"
       x="2.231544"
       y="101.559"
       ry="1.4404136" />
    <path
       style="font-size:3.52777px;line-height:0.9;font-family:Arial;-inkscape-font-specification:Arial;text-align:center;text-anchor:middle;stroke-width:0.264583"
       d="m 3.6637112,24.959064 v -2.530417 h 0.2824972 v 0.237711 q 0.099908,-0.139526 0.2256533,-0.208428 0.1257457,-0.07062 0.3048903,-0.07062 0.234266,0 0.4134105,0.120578 0.1791446,0.120578 0.2704394,0.341063 0.091295,0.218763 0.091295,0.48059 0,0.280775 -0.1016301,0.506428 -0.099908,0.223931 -0.2928325,0.344509 -0.1912024,0.118855 -0.4030753,0.118855 -0.155029,0 -0.2790521,-0.06546 -0.1223006,-0.06546 -0.2015377,-0.165364 v 0.890555 z m 0.2807747,-1.605411 q 0,0.353121 0.1429711,0.521931 0.1429712,0.168809 0.3462314,0.168809 0.2067053,0 0.3531215,-0.173977 0.1481388,-0.1757 0.1481388,-0.542601 0,-0.349677 -0.1446937,-0.523654 -0.1429712,-0.173977 -0.3427863,-0.173977 -0.1980925,0 -0.3513989,0.186035 -0.1515839,0.184312 -0.1515839,0.537434 z m 2.8800935,0.904335 v -0.268717 q -0.2135954,0.310058 -0.5804973,0.310058 -0.1619191,0 -0.3031677,-0.06201 -0.1395261,-0.06201 -0.2084278,-0.155029 -0.067179,-0.09474 -0.09474,-0.230821 -0.018948,-0.09129 -0.018948,-0.289387 v -1.133434 h 0.310058 v 1.014578 q 0,0.242879 0.018948,0.327283 0.029283,0.122301 0.1240232,0.192925 0.09474,0.0689 0.234266,0.0689 0.1395261,0 0.2618267,-0.07062 0.1223006,-0.07235 0.1722544,-0.194648 0.051676,-0.124023 0.051676,-0.358289 v -0.98013 H 7.101909 v 1.829341 z m 0.7561969,0 v -2.525249 h 0.3100579 v 2.525249 z m 0.6666244,-0.546046 0.3066128,-0.04823 q 0.025838,0.184312 0.1429712,0.282497 0.1188555,0.09818 0.3307284,0.09818 0.2135955,0 0.3169481,-0.08613 0.1033527,-0.08785 0.1033527,-0.204983 0,-0.105075 -0.091295,-0.165364 -0.063734,-0.04133 -0.316948,-0.105068 -0.3410637,-0.08613 -0.4736996,-0.148139 -0.1309133,-0.06373 -0.1998151,-0.173977 -0.067179,-0.111966 -0.067179,-0.246324 0,-0.122301 0.055121,-0.225653 0.056844,-0.105075 0.1533064,-0.173977 0.072347,-0.0534 0.1963701,-0.08957 0.1257457,-0.0379 0.2687168,-0.0379 0.215318,0 0.3772371,0.06201 0.1636417,0.06201 0.2411562,0.168809 0.077514,0.105076 0.1067977,0.282498 l -0.3031677,0.04134 q -0.02067,-0.141249 -0.1205781,-0.220486 -0.098185,-0.07924 -0.2790521,-0.07924 -0.2135955,0 -0.3048903,0.07062 -0.091295,0.07062 -0.091295,0.165365 0,0.06029 0.037896,0.10852 0.037896,0.04995 0.1188556,0.08268 0.046509,0.01722 0.2738845,0.07924 0.3290059,0.08785 0.4581967,0.144694 0.1309133,0.05512 0.2049827,0.161919 0.074069,0.106798 0.074069,0.265272 0,0.155029 -0.091295,0.292832 -0.089572,0.136081 -0.2601042,0.211873 -0.1705318,0.07407 -0.3858498,0.07407 -0.3565666,0 -0.5443239,-0.148138 -0.1860337,-0.14813 -0.2377102,-0.43924 z m 3.1401973,-0.04306 0.320394,0.03962 q -0.07579,0.280774 -0.280775,0.435803 -0.204983,0.155029 -0.523653,0.155029 -0.401353,0 -0.637342,-0.246323 -0.234266,-0.248047 -0.234266,-0.694186 0,-0.461641 0.237711,-0.716578 0.237711,-0.254936 0.616671,-0.254936 0.366902,0 0.599445,0.249768 0.232544,0.249769 0.232544,0.702798 0,0.02756 -0.0017,0.08268 h -1.364255 q 0.01723,0.301445 0.170532,0.461641 0.153307,0.160197 0.382405,0.160197 0.170532,0 0.29111,-0.08957 0.120578,-0.08957 0.191202,-0.285943 z m -1.018023,-0.50126 h 1.021468 q -0.02067,-0.230821 -0.117133,-0.346231 -0.148138,-0.179145 -0.384127,-0.179145 -0.213595,0 -0.360012,0.142971 -0.144693,0.142971 -0.160196,0.382405 z"
       id="text4"
       aria-label="pulse" />
    <path
       style="font-size:3.52777px;line-height:0.9;font-family:Arial;-inkscape-font-specification:Arial;text-align:center;text-anchor:middle;stroke-width:0.264583"
       d="m 6.4915859,60.144514 v -0.356567 h 0.310058 v 0.356567 z m 0,2.168683 v -1.829342 h 0.310058 v 1.829342 z m 0.782035,0 V 60.483855 H 7.552673 v 0.260104 q 0.2015377,-0.301445 0.5822199,-0.301445 0.1653642,0 0.3031677,0.06029 0.1395261,0.05857 0.2084279,0.155029 0.068902,0.09646 0.096462,0.229098 0.017226,0.08613 0.017226,0.301446 v 1.124821 h -0.310058 v -1.112764 q 0,-0.189479 -0.036173,-0.282497 -0.036173,-0.09474 -0.1291908,-0.149861 -0.091295,-0.05684 -0.215318,-0.05684 -0.1980925,0 -0.3427862,0.125746 -0.1429712,0.125745 -0.1429712,0.477144 v 0.999076 z"
       id="text4-3-1"
       aria-label="in" />
    <path
       style="font-size:3.52777px;line-height:0.9;font-family:Arial;-inkscape-font-specification:Arial;text-align:center;text-anchor:middle;stroke-width:0.264583"
       d="M 4.9581774,75.755294 4.3983506,73.925952 h 0.3203932 l 0.2911099,1.055919 0.1085203,0.39274 q 0.00689,-0.02928 0.09474,-0.377237 l 0.2911099,-1.071422 h 0.3186706 l 0.2738845,1.061087 0.091295,0.349676 0.1050751,-0.353121 0.313503,-1.057642 h 0.301445 L 6.3362125,75.755294 H 6.0140968 L 5.7229869,74.659756 5.6523629,74.347975 5.2820159,75.755294 Z M 8.3619242,75.52964 q -0.1722544,0.146417 -0.332451,0.206706 -0.158474,0.06029 -0.3410637,0.06029 -0.3014452,0 -0.4633643,-0.146417 -0.1619192,-0.148138 -0.1619192,-0.377237 0,-0.134358 0.060289,-0.244601 0.062012,-0.111965 0.1601966,-0.179145 0.099908,-0.06718 0.2239307,-0.10163 0.091295,-0.02411 0.275607,-0.04651 0.3755146,-0.04479 0.5529366,-0.106798 0.00172,-0.06373 0.00172,-0.08096 0,-0.189479 -0.08785,-0.266994 -0.1188555,-0.105075 -0.3531215,-0.105075 -0.2187631,0 -0.3238382,0.07751 -0.1033527,0.07579 -0.1533065,0.27044 L 7.116522,74.447879 q 0.041341,-0.194648 0.136081,-0.313503 0.09474,-0.120578 0.2738845,-0.184313 0.1791445,-0.06546 0.4151331,-0.06546 0.2342659,0 0.3806822,0.05512 0.1464162,0.05512 0.215318,0.139526 0.068902,0.08268 0.096462,0.210151 0.015503,0.07924 0.015503,0.285942 v 0.413411 q 0,0.432358 0.018948,0.547768 0.02067,0.113688 0.079237,0.218764 h -0.323835 q -0.048231,-0.09646 -0.062012,-0.225654 z M 8.336086,74.837178 q -0.1688093,0.0689 -0.5064279,0.117133 -0.1912024,0.02756 -0.2704394,0.06201 -0.079237,0.03445 -0.1223006,0.10163 -0.043064,0.06546 -0.043064,0.146417 0,0.124023 0.093017,0.206705 0.09474,0.08268 0.275607,0.08268 0.1791446,0 0.3186706,-0.07752 0.1395261,-0.07924 0.2049828,-0.215318 0.049954,-0.105075 0.049954,-0.310057 z m 0.7958155,-1.250567 v -0.356567 h 0.3100579 v 0.356567 z m 0,2.168683 v -1.829342 h 0.3100579 v 1.829342 z m 1.4589945,-0.27733 0.04479,0.273884 q -0.130913,0.02756 -0.234266,0.02756 -0.168809,0 -0.261827,-0.0534 -0.09302,-0.0534 -0.130913,-0.139526 Q 9.970784,75.498632 9.970784,75.21958 V 74.167108 H 9.7434043 v -0.241156 h 0.2273758 v -0.453029 l 0.3083349,-0.186035 v 0.639064 h 0.311781 v 0.241156 h -0.311781 v 1.0697 q 0,0.132636 0.0155,0.170532 0.01723,0.0379 0.0534,0.06029 0.0379,0.02239 0.106798,0.02239 0.05168,0 0.136081,-0.01206 z"
       id="text4-3-1-5"
       aria-label="wait" />
    <path
       style="font-size:3.52777px;line-height:0.9;font-family:Arial;-inkscape-font-specification:Arial;text-align:center;text-anchor:middle;stroke-width:0.264583"
       d="M 4.9517792,99.507993 4.3919524,97.678655 h 0.3203932 l 0.2911099,1.055914 0.1085203,0.392737 q 0.00689,-0.0293 0.09474,-0.377237 l 0.2911099,-1.071414 h 0.3186706 l 0.2738845,1.061084 0.091295,0.349677 0.1050751,-0.353127 0.313503,-1.057634 h 0.301445 L 6.3298143,99.507993 H 6.0076986 l -0.2911099,-1.095541 -0.070624,-0.31178 -0.370347,1.407321 z M 8.355526,99.282336 q -0.1722544,0.14642 -0.332451,0.206707 -0.158474,0.0603 -0.3410637,0.0603 -0.3014452,0 -0.4633643,-0.146417 -0.1619192,-0.14814 -0.1619192,-0.37723 0,-0.134367 0.060289,-0.244607 0.062012,-0.11196 0.1601966,-0.17914 0.099907,-0.0672 0.2239307,-0.10163 0.091295,-0.0241 0.275607,-0.0465 0.3755146,-0.0448 0.5529366,-0.106797 0.00172,-0.0637 0.00172,-0.081 0,-0.18948 -0.08785,-0.267 -0.1188555,-0.10507 -0.3531215,-0.10507 -0.2187631,0 -0.3238383,0.0775 -0.1033526,0.0758 -0.1533064,0.27043 l -0.3031677,-0.0413 q 0.041341,-0.19464 0.136081,-0.3135 0.09474,-0.120577 0.2738845,-0.184307 0.1791445,-0.0655 0.4151331,-0.0655 0.2342659,0 0.3806822,0.0551 0.1464162,0.0551 0.215318,0.13952 0.068902,0.0827 0.096462,0.210157 0.015503,0.0792 0.015503,0.28594 v 0.413407 q 0,0.432357 0.018948,0.547767 0.020671,0.11369 0.079237,0.218767 h -0.323835 q -0.048231,-0.0965 -0.062012,-0.225667 z M 8.329688,98.589879 q -0.1688093,0.0689 -0.5064279,0.11713 -0.1912024,0.0276 -0.2704394,0.062 -0.079237,0.0344 -0.1223006,0.10163 -0.043064,0.0655 -0.043064,0.146417 0,0.12402 0.093017,0.2067 0.09474,0.0827 0.275607,0.0827 0.1791446,0 0.3186706,-0.0775 0.1395261,-0.0792 0.2049828,-0.21531 0.049954,-0.105077 0.049954,-0.310057 z m 0.7958155,-1.250571 v -0.35656 h 0.3100579 v 0.35656 z m 0,2.168685 v -1.829338 h 0.3100579 v 1.829338 z m 1.4589945,-0.277327 0.04479,0.273877 q -0.130913,0.0276 -0.234266,0.0276 -0.168809,0 -0.261827,-0.0534 -0.09302,-0.0534 -0.130913,-0.139517 -0.037896,-0.0879 -0.037896,-0.36691 V 97.919802 H 9.7370061 v -0.241147 h 0.2273758 v -0.453037 l 0.3083351,-0.18603 v 0.639067 h 0.311781 v 0.241147 h -0.311781 v 1.069704 q 0,0.13264 0.0155,0.17053 0.01723,0.0379 0.0534,0.0603 0.0379,0.0224 0.106798,0.0224 0.05168,0 0.136081,-0.0121 z"
       id="text4-3-1-5-5"
       aria-label="wait" />
    <path
       style="font-size:3.52777px;line-height:0.9;font-family:Arial;-inkscape-font-specification:Arial;text-align:center;text-anchor:middle;stroke-width:0.264583"
       d="m 5.1834613,112.49606 q 0,-0.50815 0.2824972,-0.75275 0.2359886,-0.20326 0.5753297,-0.20326 0.3772372,0 0.6166708,0.24804 0.2394336,0.24633 0.2394336,0.68213 0,0.35312 -0.1067978,0.55638 -0.1050751,0.20154 -0.3083353,0.31351 -0.2015377,0.11196 -0.4409713,0.11196 -0.3841273,0 -0.6218383,-0.24632 -0.2359886,-0.24633 -0.2359886,-0.70969 z m 0.3186707,0 q 0,0.3514 0.1533064,0.5271 0.1533064,0.17397 0.3858498,0.17397 0.2308209,0 0.3841273,-0.1757 0.1533064,-0.17569 0.1533064,-0.53571 0,-0.33934 -0.1550289,-0.51331 -0.1533064,-0.1757 -0.3824048,-0.1757 -0.2325434,0 -0.3858498,0.17397 -0.1533064,0.17398 -0.1533064,0.52538 z m 2.957608,0.91467 v -0.26872 q -0.2135955,0.31006 -0.5804973,0.31006 -0.1619192,0 -0.3031678,-0.062 -0.139526,-0.062 -0.2084278,-0.15503 -0.067179,-0.0947 -0.09474,-0.23082 -0.018948,-0.0913 -0.018948,-0.28939 V 111.5814 H 7.564017 v 1.01458 q 0,0.24288 0.018948,0.32728 0.029283,0.1223 0.1240232,0.19292 0.09474,0.0689 0.2342659,0.0689 0.1395261,0 0.2618267,-0.0706 0.1223006,-0.0723 0.1722544,-0.19465 0.051676,-0.12402 0.051676,-0.35828 v -0.98013 h 0.310058 v 1.82934 z m 1.4400468,-0.27733 0.044786,0.27388 q -0.1309133,0.0276 -0.234266,0.0276 -0.1688093,0 -0.2618267,-0.0534 -0.093017,-0.0534 -0.1309133,-0.13953 -0.037896,-0.0879 -0.037896,-0.3669 v -1.05248 H 9.0522951 v -0.24115 h 0.2273758 v -0.45303 l 0.3083354,-0.18604 v 0.63907 h 0.3117805 v 0.24115 H 9.5880063 v 1.0697 q 0,0.13264 0.015503,0.17054 0.017225,0.0379 0.053399,0.0603 0.037896,0.0224 0.1067977,0.0224 0.051676,0 0.136081,-0.0121 z"
       id="text4-3-1-5-5-5"
       aria-label="out" />
    <path
       d="m 39.52899,447.27538 q 0,1.15885 -0.273436,1.99869 -0.266927,0.83984 -0.742186,1.38021 -0.468749,0.54036 -1.106768,0.80077 -0.631509,0.26042 -1.354163,0.26042 -1.679683,0 -2.526036,-1.11328 -0.846352,-1.11979 -0.846352,-3.24869 0,-1.15885 0.266927,-1.99869 0.273437,-0.83984 0.742185,-1.3802 0.47526,-0.54037 1.106769,-0.80078 0.638019,-0.26042 1.360673,-0.26042 1.679683,0 2.526035,1.11328 0.846352,1.11328 0.846352,3.24869 z m -1.692704,0.0781 q 0,-1.51041 -0.403644,-2.2526 -0.403645,-0.74218 -1.328122,-0.74218 -0.462238,0 -0.787758,0.19531 -0.32552,0.1888 -0.540364,0.5599 -0.208332,0.37109 -0.305988,0.91796 -0.09766,0.54036 -0.09766,1.24349 0,1.51041 0.403644,2.2526 0.410156,0.74218 1.328122,0.74218 0.462238,0 0.787758,-0.1888 0.332031,-0.19531 0.540364,-0.5664 0.208332,-0.3711 0.305988,-0.91146 0.09766,-0.54687 0.09766,-1.25 z m 8.78904,0.78776 q 0,0.91146 -0.260416,1.57552 -0.253905,0.66406 -0.716144,1.10677 -0.455728,0.43619 -1.080726,0.65104 -0.624998,0.20833 -1.360674,0.20833 -0.247395,0 -0.49479,-0.0326 -0.247395,-0.0326 -0.449218,-0.0846 v 2.58463 h -1.588537 v -9.19919 h 1.373694 l 0.03906,0.97656 q 0.201822,-0.25391 0.416665,-0.46224 0.221354,-0.20834 0.475259,-0.35156 0.253906,-0.14974 0.546874,-0.22787 0.292968,-0.0781 0.65755,-0.0781 0.585936,0 1.041664,0.23437 0.455728,0.23438 0.761717,0.67057 0.312499,0.42969 0.475259,1.04818 0.16276,0.61197 0.16276,1.3802 z m -1.666662,0.0651 q 0,-0.54688 -0.07813,-0.93099 -0.07813,-0.38412 -0.227864,-0.63151 -0.143229,-0.2474 -0.358072,-0.35807 -0.208333,-0.11719 -0.481769,-0.11719 -0.403645,0 -0.774738,0.32552 -0.364582,0.32552 -0.774738,0.88541 v 2.89062 q 0.188802,0.0716 0.462239,0.11719 0.279947,0.0456 0.566405,0.0456 0.377603,0 0.683592,-0.15625 0.312499,-0.15625 0.527342,-0.4427 0.221354,-0.28646 0.338541,-0.69662 0.117187,-0.41666 0.117187,-0.93098 z m 8.808571,-0.45573 q 0,0.16276 -0.01302,0.42317 -0.0065,0.26042 -0.02604,0.48828 h -4.348947 q 0,0.4362 0.130208,0.76823 0.136718,0.33203 0.377603,0.55989 0.247395,0.22136 0.585936,0.33855 0.345051,0.11718 0.761717,0.11718 0.481769,0 1.028643,-0.0716 0.553384,-0.0781 1.14583,-0.2474 v 1.26302 q -0.253905,0.0716 -0.553384,0.13021 -0.299478,0.0586 -0.611977,0.10417 -0.3125,0.0456 -0.631509,0.0651 -0.31901,0.026 -0.618488,0.026 -0.755207,0 -1.354163,-0.21484 -0.598957,-0.21485 -1.015623,-0.63151 -0.416665,-0.42318 -0.638019,-1.04167 -0.221354,-0.61848 -0.221354,-1.43228 0,-0.80729 0.221354,-1.46484 0.221354,-0.66406 0.624998,-1.13281 0.403645,-0.47526 0.97656,-0.72917 0.579426,-0.26041 1.28906,-0.26041 0.703123,0 1.243486,0.22135 0.540363,0.21484 0.904946,0.60547 0.364582,0.39062 0.553384,0.93098 0.188801,0.54037 0.188801,1.1849 z m -1.614579,-0.22787 q 0.0065,-0.39062 -0.09766,-0.67708 -0.104166,-0.29297 -0.286458,-0.48177 -0.17578,-0.1888 -0.416665,-0.27995 -0.234375,-0.0911 -0.507811,-0.0911 -0.598957,0 -0.983071,0.40364 -0.384113,0.39714 -0.455728,1.1263 z m 7.128887,4.04296 v -4.30988 q 0,-1.08724 -0.80729,-1.08724 -0.403644,0 -0.774737,0.32552 -0.364583,0.32552 -0.774738,0.88541 v 4.18619 h -1.588537 v -6.61456 h 1.373694 l 0.03906,0.97656 q 0.201823,-0.25391 0.416666,-0.46224 0.221354,-0.20834 0.475259,-0.35156 0.253906,-0.14974 0.546874,-0.22787 0.292968,-0.0781 0.65755,-0.0781 0.507811,0 0.885415,0.16927 0.377603,0.16276 0.631509,0.46875 0.253905,0.29947 0.377603,0.72916 0.130208,0.42318 0.130208,0.95052 v 4.44009 z"
       id="text5-2"
       style="font-weight:bold;font-size:13.3333px;line-height:0.9;font-family:Consolas;-inkscape-font-specification:'Consolas Bold';text-align:center;white-space:pre"
       transform="matrix(0.26458333,0,0,0.26458333,-4.7559026,-34.178196)"
       aria-label="Open" />
    <path
       d="m 3.6168097,47.089595 q -0.1498614,0.06029 -0.29111,0.08957 -0.1395259,0.02928 -0.2911096,0.02928 -0.2428788,0 -0.4306359,-0.07062 -0.1860348,-0.07235 -0.3152256,-0.213596 -0.127468,-0.141248 -0.1946473,-0.349676 -0.065457,-0.210151 -0.065457,-0.487479 0,-0.284221 0.072347,-0.504706 0.072347,-0.222207 0.2067052,-0.373793 0.1343584,-0.153304 0.3255606,-0.232542 0.1929249,-0.08096 0.4323585,-0.08096 0.077514,0 0.1446935,0.0034 0.068902,0.0034 0.1343586,0.01378 0.065457,0.0086 0.1326356,0.0241 0.067179,0.0155 0.1395262,0.03962 v 0.420301 q -0.1464162,-0.0689 -0.2790521,-0.09818 -0.1326359,-0.02928 -0.2411561,-0.02928 -0.1601964,0 -0.2738845,0.05857 -0.1136877,0.05685 -0.187757,0.16192 -0.072347,0.103352 -0.1067978,0.248047 -0.034451,0.14297 -0.034451,0.315225 0,0.182588 0.034451,0.327284 0.036173,0.14297 0.1102429,0.242877 0.074069,0.09991 0.1894798,0.153307 0.1154102,0.05168 0.2738842,0.05168 0.056844,0 0.1223007,-0.01034 0.067179,-0.01206 0.1343584,-0.02928 0.068902,-0.01894 0.1343583,-0.04306 0.067179,-0.02582 0.1240232,-0.05168 z m 1.0145778,-2.018821 h -0.49437 v -0.327282 h 0.9250058 v 2.106671 h 0.5047054 v 0.327281 H 4.0767285 v -0.327281 h 0.554659 z m 2.9507169,1.21784 q 0,0.206703 -0.058567,0.378957 -0.058566,0.170532 -0.1688092,0.292833 -0.1102428,0.122301 -0.2704393,0.189481 -0.1601965,0.06718 -0.3651792,0.06718 -0.1946474,0 -0.3479538,-0.05684 -0.1533062,-0.05685 -0.260104,-0.16881 -0.1067977,-0.113688 -0.1636416,-0.282498 -0.056844,-0.170532 -0.056844,-0.396184 0,-0.208428 0.058566,-0.37896 0.060289,-0.170532 0.1705319,-0.291108 0.1119654,-0.120579 0.2721618,-0.186037 0.1601965,-0.06718 0.3617341,-0.06718 0.1963701,0 0.3496763,0.05857 0.1533064,0.05684 0.2601042,0.170532 0.1067977,0.113689 0.1619189,0.282498 0.056844,0.167085 0.056844,0.387573 z m -0.4375261,0.01034 q 0,-0.272164 -0.1033526,-0.408244 -0.1016301,-0.137803 -0.3014451,-0.137803 -0.1102428,0 -0.1877573,0.04306 -0.077514,0.04306 -0.127468,0.118856 -0.049954,0.07407 -0.074069,0.173977 -0.022394,0.09991 -0.022394,0.213596 0,0.273883 0.1102429,0.413408 0.1102429,0.137806 0.3014451,0.137806 0.105075,0 0.1825895,-0.04134 0.077514,-0.04306 0.1257458,-0.117134 0.048231,-0.07579 0.072347,-0.177421 0.024117,-0.101632 0.024117,-0.218763 z m 2.2444736,0.363455 q 0,0.149863 -0.067179,0.256659 -0.065457,0.105077 -0.1756995,0.172255 -0.1085201,0.06546 -0.2480463,0.09474 -0.1378035,0.03101 -0.282497,0.03101 -0.1929249,0 -0.3479538,-0.01894 -0.1550289,-0.01722 -0.2928323,-0.05168 v -0.378957 q 0.1619189,0.06718 0.3221156,0.09818 0.1619189,0.02928 0.30489,0.02928 0.1653643,0 0.2463239,-0.05168 0.082682,-0.0534 0.082682,-0.137803 0,-0.03962 -0.017224,-0.07235 -0.017224,-0.03273 -0.065457,-0.06201 -0.046509,-0.03101 -0.1326358,-0.06201 -0.086127,-0.03273 -0.2256534,-0.07235 -0.1291907,-0.03617 -0.2273755,-0.08096 -0.096463,-0.04651 -0.1601967,-0.108519 -0.063734,-0.06201 -0.096462,-0.142973 -0.031006,-0.08268 -0.031006,-0.192924 0,-0.106799 0.048231,-0.201538 0.048231,-0.09474 0.142971,-0.165365 0.096463,-0.07234 0.2394337,-0.113686 0.142971,-0.04134 0.3341732,-0.04134 0.1653643,0 0.2928324,0.01722 0.1274683,0.01722 0.2256533,0.0379 v 0.342786 q -0.1498613,-0.04823 -0.2824972,-0.06718 -0.1309132,-0.02066 -0.2601039,-0.02066 -0.1291908,0 -0.2084279,0.04651 -0.077514,0.04651 -0.077514,0.129191 0,0.03962 0.015502,0.07062 0.015502,0.031 0.060289,0.06029 0.046509,0.02928 0.1274683,0.06201 0.082682,0.03101 0.2170403,0.0689 0.1515838,0.04306 0.2549364,0.09302 0.1033526,0.04823 0.1653643,0.110244 0.063734,0.06201 0.091295,0.141248 0.027561,0.07924 0.027561,0.180866 z m 2.0205431,-0.494368 q 0,0.04306 -0.0034,0.111963 -0.0017,0.0689 -0.0069,0.129191 h -1.150659 q 0,0.115411 0.03445,0.203261 0.03617,0.08785 0.09991,0.148137 0.06546,0.05857 0.155029,0.08957 0.0913,0.031 0.201538,0.031 0.127468,0 0.272162,-0.01894 0.146416,-0.02066 0.303167,-0.06546 v 0.334174 q -0.06718,0.01894 -0.146416,0.03445 -0.07924,0.01551 -0.161919,0.02756 -0.08268,0.01206 -0.167087,0.01722 -0.0844,0.0069 -0.163641,0.0069 -0.199815,0 -0.358289,-0.05684 -0.158474,-0.05684 -0.268717,-0.167087 -0.1102429,-0.111966 -0.1688094,-0.275608 -0.058567,-0.16364 -0.058567,-0.378957 0,-0.213596 0.058567,-0.387573 0.058566,-0.175699 0.1653644,-0.299722 0.106797,-0.125746 0.258381,-0.192927 0.153307,-0.0689 0.341064,-0.0689 0.186035,0 0.329006,0.05857 0.142971,0.05684 0.239433,0.160197 0.09646,0.103352 0.146416,0.246322 0.04995,0.142973 0.04995,0.313505 z m -0.42719,-0.06029 q 0.0017,-0.103352 -0.02584,-0.179144 -0.02756,-0.07751 -0.07579,-0.127468 -0.04651,-0.04995 -0.110243,-0.07407 -0.06201,-0.0241 -0.134358,-0.0241 -0.158474,0 -0.260105,0.106796 -0.101629,0.105077 -0.120578,0.298001 z m 1.943029,1.0697 -0.01033,-0.258382 q -0.05512,0.06718 -0.113688,0.122301 -0.05857,0.05512 -0.125745,0.09474 -0.06718,0.0379 -0.144694,0.05857 -0.07579,0.02238 -0.168809,0.02238 -0.155029,0 -0.275607,-0.06201 -0.120578,-0.06201 -0.20326,-0.175699 -0.08096,-0.115411 -0.124024,-0.279053 -0.04306,-0.163643 -0.04306,-0.365178 0,-0.241157 0.06718,-0.416857 0.0689,-0.177421 0.18948,-0.292833 0.120578,-0.117133 0.285942,-0.172254 0.165364,-0.05684 0.360012,-0.05684 0.06546,0 0.130913,0.0086 0.06718,0.0086 0.118855,0.02238 v -0.68385 H 13.2889 v 2.433953 z M 12.15718,46.316183 q 0,0.144695 0.01895,0.248047 0.02067,0.101629 0.05857,0.167087 0.03962,0.06546 0.09646,0.09646 0.05684,0.02928 0.129191,0.02928 0.106798,0 0.20326,-0.08613 0.09646,-0.08613 0.204983,-0.23599 v -0.76481 q -0.04995,-0.01894 -0.124023,-0.031 -0.07235,-0.01206 -0.146416,-0.01206 -0.10163,0 -0.18259,0.04134 -0.08096,0.04134 -0.139526,0.117134 -0.05684,0.07579 -0.08785,0.186034 -0.03101,0.108521 -0.03101,0.244602 z"
       id="text5-2-0"
       style="font-weight:bold;font-size:13.3333px;line-height:0.9;font-family:Consolas;-inkscape-font-specification:'Consolas Bold';text-align:center;white-space:pre;stroke-width:0.264583"
       aria-label="Closed" />
    <rect
       style="display:inline;fill:#000000;fill-opacity:1;stroke-width:0.112632"
       id="rect2-6"
       width="13.619499"
       height="0.66399997"
       x="0.81025028"
       y="48.384178"
       ry="0.27390954" />
    <rect
       style="display:inline;fill:#000000;fill-opacity:1;stroke-width:0.112632"
       id="rect2-2-1"
       width="13.619499"
       height="0.66399997"
       x="0.81025028"
       y="39.813187"
       ry="0.27390954" />
    <rect
       style="display:inline;fill:#000000;fill-opacity:1;stroke-width:0.112632"
       id="rect2-2-1-7"
       width="13.619499"
       height="0.66399997"
       x="0.81025016"
       y="11.149"
       ry="0.27390954" />
    <path
       d="m 7.0179708,122.70896 -0.3169481,-0.72347 q -0.044786,-0.10335 -0.1257457,-0.15503 -0.079237,-0.0534 -0.1877573,-0.0534 h -0.080959 v 0.93189 H 5.8828143 v -2.25136 h 0.6562893 q 0.1860347,0 0.3376186,0.0327 0.1515839,0.031 0.2583816,0.10508 0.1067977,0.0741 0.1636417,0.19292 0.058566,0.11886 0.058566,0.29111 0,0.12403 -0.036173,0.22049 -0.036173,0.0965 -0.1016301,0.16709 -0.065457,0.0689 -0.1567515,0.11196 -0.089572,0.0431 -0.1963701,0.0603 0.082682,0.0172 0.1515839,0.0947 0.068902,0.0758 0.1378035,0.22049 l 0.3600117,0.75447 z m -0.1050752,-1.58818 q 0,-0.16537 -0.1050752,-0.23772 -0.1050751,-0.0723 -0.3152255,-0.0723 H 6.3065602 v 0.63562 h 0.1722544 q 0.098185,0 0.177422,-0.0207 0.080959,-0.0207 0.1378035,-0.062 0.056844,-0.0413 0.08785,-0.10163 0.031006,-0.062 0.031006,-0.14124 z m 2.4442899,0.90778 q 0,0.18431 -0.068902,0.32039 -0.067179,0.13608 -0.1894798,0.22565 -0.1223006,0.0879 -0.2911099,0.13092 -0.1688093,0.0431 -0.3686244,0.0431 -0.1774221,0 -0.3427863,-0.0207 -0.1653642,-0.0207 -0.3272833,-0.0689 v -0.41858 q 0.079237,0.0276 0.1653642,0.0517 0.086127,0.0241 0.1722544,0.0431 0.08785,0.0172 0.1739769,0.0276 0.086127,0.0103 0.1670868,0.0103 0.1205781,0 0.2049827,-0.0207 0.084405,-0.0207 0.1378035,-0.0568 0.053399,-0.0362 0.077514,-0.0861 0.024116,-0.0499 0.024116,-0.11024 0,-0.0827 -0.048231,-0.1378 -0.046509,-0.0569 -0.1240232,-0.0999 -0.077514,-0.0431 -0.177422,-0.0775 -0.098185,-0.0345 -0.2015376,-0.0741 -0.1016301,-0.0396 -0.2015377,-0.0896 -0.098185,-0.05 -0.1756995,-0.12402 -0.077514,-0.0741 -0.1257457,-0.1757 -0.046509,-0.10335 -0.046509,-0.24805 0,-0.13263 0.048231,-0.25149 0.048231,-0.11885 0.1515838,-0.2067 0.1033527,-0.0896 0.2652718,-0.14125 0.1619191,-0.0534 0.3910175,-0.0534 0.067179,0 0.1395261,0.007 0.074069,0.005 0.1446936,0.0155 0.072347,0.009 0.1378036,0.0224 0.067179,0.0121 0.1223006,0.0258 v 0.38758 q -0.055121,-0.0207 -0.1205781,-0.0379 -0.065457,-0.0172 -0.136081,-0.0293 -0.068902,-0.0138 -0.139526,-0.0207 -0.070624,-0.007 -0.1343585,-0.007 -0.1119653,0 -0.1894798,0.019 -0.077514,0.0172 -0.1274682,0.0499 -0.049954,0.031 -0.072347,0.0775 -0.022393,0.0465 -0.022393,0.10336 0,0.0706 0.046509,0.1223 0.048231,0.0499 0.1257457,0.0913 0.079237,0.0396 0.1774221,0.0758 0.099908,0.0344 0.2032601,0.0758 0.1050752,0.0396 0.2032602,0.0913 0.099908,0.0517 0.1774221,0.12575 0.079237,0.0741 0.1257457,0.1757 0.048231,0.0999 0.048231,0.23771 z"
       id="text5"
       style="font-weight:bold;font-size:3.52777px;line-height:0.9;font-family:Consolas;-inkscape-font-specification:'Consolas Bold';text-align:center;text-anchor:middle;stroke-width:0.264583"
       aria-label="RS" />
    <path
       d="m 3.8260967,37.777348 v -1.829342 h 0.2790521 v 0.277329 q 0.1067977,-0.194647 0.19637,-0.256659 0.091295,-0.06201 0.1998151,-0.06201 0.1567515,0 0.3186707,0.09991 l -0.1067978,0.287665 q -0.1136879,-0.06718 -0.2273758,-0.06718 -0.1016301,0 -0.1825896,0.06201 -0.08096,0.06029 -0.1154105,0.168809 -0.051676,0.165364 -0.051676,0.361734 v 0.957735 z m 2.4305095,-0.58911 0.3203932,0.03962 q -0.075792,0.280775 -0.2807746,0.435804 -0.2049828,0.155029 -0.5236534,0.155029 -0.4013528,0 -0.6373413,-0.246324 -0.234266,-0.248046 -0.234266,-0.694185 0,-0.461642 0.2377111,-0.716579 0.2377111,-0.254936 0.6166707,-0.254936 0.3669019,0 0.5994453,0.249769 0.2325435,0.249769 0.2325435,0.702798 0,0.02756 -0.00172,0.08268 H 5.2213573 q 0.017225,0.301445 0.1705319,0.461642 0.1533064,0.160196 0.3824047,0.160196 0.1705319,0 0.29111,-0.08957 0.120578,-0.08957 0.1912023,-0.285942 z M 5.2385828,36.686977 h 1.0214685 q -0.02067,-0.230821 -0.117133,-0.346231 -0.1481387,-0.179145 -0.3841273,-0.179145 -0.2135954,0 -0.3600117,0.142971 -0.1446936,0.142972 -0.1601965,0.382405 z m 1.6036884,0.544324 0.3066128,-0.04823 q 0.025838,0.184312 0.1429712,0.282497 0.1188555,0.09819 0.3307284,0.09819 0.2135955,0 0.3169481,-0.08613 0.1033527,-0.08785 0.1033527,-0.204983 0,-0.105075 -0.091295,-0.165364 -0.063734,-0.04134 -0.3169481,-0.105075 -0.3410637,-0.08613 -0.4736996,-0.148139 -0.1309133,-0.06373 -0.1998151,-0.173977 -0.067179,-0.111965 -0.067179,-0.246324 0,-0.1223 0.055121,-0.225653 0.056844,-0.105075 0.1533065,-0.173977 0.072347,-0.0534 0.19637,-0.08957 0.1257457,-0.0379 0.2687168,-0.0379 0.215318,0 0.3772371,0.06201 0.1636417,0.06201 0.2411562,0.16881 0.077514,0.105075 0.1067977,0.282497 l -0.3031677,0.04134 q -0.02067,-0.141249 -0.1205781,-0.220486 -0.098185,-0.07924 -0.2790521,-0.07924 -0.2135955,0 -0.3048903,0.07062 -0.091295,0.07062 -0.091295,0.165364 0,0.06029 0.037896,0.10852 0.037896,0.04995 0.1188556,0.08268 0.046509,0.01723 0.2738845,0.07924 0.3290059,0.08785 0.4581967,0.144694 0.1309133,0.05512 0.2049827,0.161919 0.074069,0.106798 0.074069,0.265272 0,0.155029 -0.091295,0.292832 -0.089572,0.136081 -0.2601042,0.211873 -0.1705318,0.07407 -0.3858498,0.07407 -0.3565666,0 -0.5443239,-0.148139 -0.1860348,-0.148139 -0.2377111,-0.439249 z m 3.1401977,-0.04306 0.3203931,0.03962 q -0.07579,0.280775 -0.280775,0.435804 -0.2049824,0.155029 -0.523653,0.155029 -0.4013527,0 -0.6373413,-0.246324 -0.2342659,-0.248046 -0.2342659,-0.694185 0,-0.461642 0.237711,-0.716579 0.2377111,-0.254936 0.6166708,-0.254936 0.3669018,0 0.5994454,0.249769 0.232543,0.249769 0.232543,0.702798 0,0.02756 -0.0017,0.08268 H 8.9472199 q 0.017226,0.301445 0.1705319,0.461642 0.1533064,0.160196 0.3824048,0.160196 0.1705318,0 0.2911099,-0.08957 0.1205781,-0.08957 0.1912024,-0.285942 z M 8.9644454,36.686977 H 9.9859139 Q 9.9652434,36.456156 9.868781,36.340746 9.7206422,36.161601 9.4846537,36.161601 q -0.2135955,0 -0.3600117,0.142971 -0.1446937,0.142972 -0.1601966,0.382405 z m 2.4046716,0.813041 0.04479,0.273884 q -0.130914,0.02756 -0.234266,0.02756 -0.168809,0 -0.261827,-0.0534 -0.09302,-0.0534 -0.130913,-0.139526 -0.0379,-0.08785 -0.0379,-0.366902 v -1.052474 h -0.227376 v -0.241156 h 0.227376 v -0.453029 l 0.308335,-0.186035 v 0.639064 h 0.311781 v 0.241156 h -0.311781 v 1.0697 q 0,0.132636 0.0155,0.170532 0.01723,0.0379 0.0534,0.06029 0.0379,0.02239 0.106798,0.02239 0.05168,0 0.136081,-0.01206 z"
       id="text2"
       style="font-size:3.52777px;line-height:0.9;font-family:Arial;-inkscape-font-specification:Arial;text-align:center;letter-spacing:0px;text-anchor:middle;stroke:#000000;stroke-width:0.264583;stroke-opacity:0"
       aria-label="reset" />
    <path
       d="M 3.9070479,10.234735 H 3.0109786 L 2.611003,8.9851984 2.4652755,8.4767023 2.3257491,8.9976008 1.9319747,10.234735 H 1.0731124 L 0.84676963,6.1822688 H 1.5195968 l 0.096118,2.598291 0.024805,0.7100341 L 1.8234542,8.8580744 2.2699386,7.416302 H 2.7505294 L 3.2218184,8.9448908 3.3737471,9.4843927 3.3861495,8.8518732 3.4884688,6.1822688 H 4.1364913 Z M 6.6541671,8.0891291 q 0.1519287,0.083716 0.2883545,0.1860352 0.1395264,0.099219 0.2418457,0.2325439 0.1054199,0.1302246 0.164331,0.2976562 0.062012,0.1643311 0.062012,0.3751709 0,0.2759522 -0.1116211,0.486792 -0.1116211,0.2108399 -0.3100586,0.3534667 -0.1953369,0.142627 -0.4619873,0.213941 -0.2635498,0.07131 -0.5705078,0.07131 -0.3410645,0 -0.6046143,-0.07131 Q 5.0914718,10.16032 4.9116378,10.026995 4.7349044,9.8936701 4.6418869,9.7045343 4.5519699,9.5153986 4.5519699,9.2828547 q 0,-0.2077393 0.058911,-0.3689698 Q 4.6728927,8.7495539 4.7783126,8.6162287 4.8837326,8.4829035 5.0201583,8.3774836 5.1596847,8.2720637 5.314714,8.1821467 5.1751876,8.1015314 5.0511642,8.0054133 4.9302413,7.9092951 4.8372238,7.7883723 4.7442062,7.6674494 4.6883956,7.5186213 q -0.05271,-0.1488281 -0.05271,-0.3379639 0,-0.2201416 0.083716,-0.4123779 0.086816,-0.1953369 0.254248,-0.3410644 0.1705323,-0.1457276 0.4247803,-0.2294434 0.2573486,-0.083716 0.6015137,-0.083716 0.3162597,0 0.5643066,0.068213 0.2480469,0.065112 0.4154785,0.1891357 0.1705322,0.1240235 0.2573486,0.2976563 0.089917,0.1705322 0.089917,0.3782714 0,0.1922364 -0.05271,0.3472657 -0.05271,0.1550293 -0.142627,0.2821533 Q 7.0417403,7.8007746 6.9177169,7.9030939 6.7936935,8.0023127 6.6541671,8.0891291 Z M 6.0588546,7.797674 Q 6.1704757,7.7356623 6.2665939,7.6674494 6.3658126,7.5961359 6.4371261,7.5124201 6.5084396,7.4287043 6.5518478,7.3294856 6.595256,7.2302668 6.595256,7.109344 q 0,-0.2015381 -0.1581299,-0.306958 -0.1581299,-0.10542 -0.4557861,-0.10542 -0.2914551,0 -0.449585,0.1085205 -0.1581299,0.1085205 -0.1581299,0.3255616 0,0.1178222 0.05271,0.2108398 0.05271,0.093018 0.1457275,0.1736328 0.093018,0.077515 0.217041,0.1457275 0.1271241,0.068213 0.269751,0.1364258 z M 5.9007247,8.4829035 Q 5.7798019,8.5480158 5.6712814,8.6224299 5.5658615,8.6968439 5.4852462,8.7867609 5.4077316,8.8766779 5.3612228,8.9851984 5.314714,9.0906183 5.314714,9.2239435 q 0,0.2356446 0.1829346,0.359668 0.1829345,0.1240234 0.4836914,0.1240234 0.1364257,0 0.2573486,-0.027905 0.1209228,-0.027905 0.2108398,-0.086816 0.093018,-0.058911 0.1457276,-0.1488282 0.05271,-0.093018 0.05271,-0.2201416 0,-0.1302246 -0.058911,-0.2325439 Q 6.5301437,8.8859797 6.4278243,8.7991633 6.325505,8.7123469 6.1890792,8.6348322 6.0526534,8.5573176 5.9007247,8.4829035 Z m 3.5904786,0.037207 V 7.8906916 H 10.932976 V 10.0518 q -0.279053,0.130225 -0.58291,0.192236 -0.303858,0.06201 -0.6604252,0.06201 -0.4216797,0 -0.7596436,-0.130225 Q 8.595134,10.045599 8.3594894,9.7882502 8.1238449,9.5309015 7.9967209,9.1495295 7.8726975,8.7681574 7.8726975,8.2658625 q 0,-0.5053955 0.1302246,-0.9053711 Q 8.1362473,6.9605158 8.3873947,6.6845637 8.6416428,6.405511 9.0075119,6.2597834 9.3764816,6.1140559 9.8477707,6.1140559 q 0.2790523,0 0.5426023,0.049609 0.266651,0.046509 0.5302,0.127124 V 7.0442317 Q 10.69113,6.9357111 10.412077,6.8674983 10.136125,6.7961848 9.8539718,6.7961848 q -0.2852539,0 -0.5053955,0.099219 -0.217041,0.099219 -0.3658691,0.2821533 -0.1457275,0.1829346 -0.2232422,0.449585 -0.074414,0.2666504 -0.074414,0.6015137 0,0.3224609 0.058911,0.5829101 0.058911,0.2573486 0.1891357,0.4402832 0.1333252,0.179834 0.3410645,0.2759522 0.2077392,0.096118 0.5053955,0.096118 0.071314,0 0.1240234,-0.0031 0.05271,-0.0062 0.099219,-0.015503 0.04651,-0.0093 0.08682,-0.021704 0.04341,-0.012402 0.08992,-0.027905 V 8.5201105 Z M 13.636687,8.0891291 q 0.151929,0.083716 0.288354,0.1860352 0.139527,0.099219 0.241846,0.2325439 0.10542,0.1302246 0.164331,0.2976562 0.06201,0.1643311 0.06201,0.3751709 0,0.2759522 -0.111621,0.486792 -0.111621,0.2108399 -0.310059,0.3534667 -0.195337,0.142627 -0.461987,0.213941 -0.26355,0.07131 -0.570508,0.07131 -0.341064,0 -0.604614,-0.07131 -0.260449,-0.07442 -0.440283,-0.20774 -0.176734,-0.1333249 -0.269751,-0.3224607 -0.08992,-0.1891357 -0.08992,-0.4216796 0,-0.2077393 0.05891,-0.3689698 0.06201,-0.164331 0.167432,-0.2976562 0.105419,-0.1333252 0.241845,-0.2387451 0.139527,-0.1054199 0.294556,-0.1953369 -0.139527,-0.080615 -0.26355,-0.1767334 -0.120923,-0.096118 -0.21394,-0.217041 -0.09302,-0.1209229 -0.148828,-0.269751 -0.05271,-0.1488281 -0.05271,-0.3379639 0,-0.2201416 0.08371,-0.4123779 0.08682,-0.1953369 0.254248,-0.3410644 0.170533,-0.1457276 0.424781,-0.2294434 0.257348,-0.083716 0.601513,-0.083716 0.31626,0 0.564307,0.068213 0.248047,0.065112 0.415478,0.1891357 0.170533,0.1240235 0.257349,0.2976563 0.08992,0.1705322 0.08992,0.3782714 0,0.1922364 -0.05271,0.3472657 -0.05271,0.1550293 -0.142627,0.2821533 -0.08992,0.1240234 -0.21394,0.2263427 -0.124024,0.099219 -0.26355,0.1860352 z M 13.041374,7.797674 q 0.111622,-0.062012 0.20774,-0.1302246 0.09922,-0.071313 0.170532,-0.1550293 0.07131,-0.083716 0.114722,-0.1829345 0.04341,-0.099219 0.04341,-0.2201416 0,-0.2015381 -0.15813,-0.306958 -0.15813,-0.10542 -0.455786,-0.10542 -0.291455,0 -0.449585,0.1085205 -0.15813,0.1085205 -0.15813,0.3255616 0,0.1178222 0.05271,0.2108398 0.05271,0.093018 0.145727,0.1736328 0.09302,0.077515 0.217042,0.1457275 0.127124,0.068213 0.26975,0.1364258 z m -0.158129,0.6852295 q -0.120923,0.065112 -0.229444,0.1395264 -0.10542,0.074414 -0.186035,0.164331 -0.07752,0.089917 -0.124023,0.1984375 -0.04651,0.1054199 -0.04651,0.2387451 0,0.2356446 0.182934,0.359668 0.182935,0.1240234 0.483692,0.1240234 0.136426,0 0.257348,-0.027905 0.120923,-0.027905 0.21084,-0.086816 0.09302,-0.058911 0.145728,-0.1488282 0.05271,-0.093018 0.05271,-0.2201416 0,-0.1302246 -0.05891,-0.2325439 Q 13.512664,8.8859797 13.410344,8.7991633 13.308025,8.7123469 13.171599,8.6348322 13.035173,8.5573176 12.883245,8.4829035 Z"
       id="text1"
       style="font-weight:bold;font-size:6.35px;line-height:0.9;font-family:Consolas;-inkscape-font-specification:'Consolas Bold';text-align:center;letter-spacing:0px;text-anchor:middle;stroke:#000000;stroke-width:0.264583;stroke-opacity:0"
       aria-label="W8G8" />
  </g>
  <g
     inkscape:groupmode="layer"
     id="layer2"
     inkscape:label="components"
     style="display:none">
    <circle
       style="fill:#00ff00;fill-opacity:1;stroke-width:0.256914"
       id="path2"
       cx="7.6263981"
       cy="16.909842"
       r="3.1535001"
       inkscape:label="pulse" />
    <circle
       style="display:inline;fill:#00ff00;fill-opacity:1;stroke-width:0.256914"
       id="path2-4"
       cx="7.6910191"
       cy="30.311129"
       r="3.1535001"
       inkscape:label="reset" />
    <circle
       style="fill:#00ff00;fill-opacity:1;stroke-width:0.256914"
       id="path2-6"
       cx="7.6263981"
       cy="54.508038"
       r="3.1535001"
       inkscape:label="signal" />
    <circle
       style="fill:#0000ff;fill-opacity:1;stroke-width:0.256914"
       id="path2-6-1"
       cx="7.6199999"
       cy="106.08877"
       r="3.1535001"
       inkscape:label="signal" />
    <circle
       style="fill:#ff0000;fill-opacity:1;stroke-width:0.256914"
       id="path2-6-8"
       cx="7.6263981"
       cy="68.293709"
       r="3.1535001"
       inkscape:label="closedWait" />
    <circle
       style="fill:#ff0000;fill-opacity:1;stroke-width:0.256914"
       id="path2-6-8-4"
       cx="7.6199999"
       cy="91.937012"
       r="3.1535001"
       inkscape:label="openWait" />
    <circle
       style="fill:#ff00ff;fill-opacity:1;stroke-width:0.0939752"
       id="path2-6-8-3"
       cx="7.6199999"
       cy="80.80381"
       inkscape:label="open"
       r="1.1535" />
    <circle
       style="display:inline;fill:#ff00ff;fill-opacity:1;stroke-width:0.0939752"
       id="path2-6-8-3-0"
       cx="7.6199999"
       cy="42.682686"
       r="1.1535"
       inkscape:label="closed" />
  </g>
</svg>
