<?xml version="1.0" encoding="UTF-8" standalone="no"?>
<!-- Created with Inkscape (http://www.inkscape.org/) -->

<svg
   width="15.24mm"
   height="128.5mm"
   viewBox="0 0 15.24 128.5"
   version="1.1"
   id="svg1"
   inkscape:version="1.3 (0e150ed6c4, 2023-07-21)"
   sodipodi:docname="WaitGate.svg"
   xmlns:inkscape="http://www.inkscape.org/namespaces/inkscape"
   xmlns:sodipodi="http://sodipodi.sourceforge.net/DTD/sodipodi-0.dtd"
   xmlns="http://www.w3.org/2000/svg"
   xmlns:svg="http://www.w3.org/2000/svg">
  <sodipodi:namedview
     id="namedview1"
     pagecolor="#505050"
     bordercolor="#ffffff"
     borderopacity="1"
     inkscape:showpageshadow="0"
     inkscape:pageopacity="0"
     inkscape:pagecheckerboard="1"
     inkscape:deskcolor="#505050"
     inkscape:document-units="mm"
     showgrid="false"
     inkscape:zoom="1.9578168"
     inkscape:cx="28.603289"
     inkscape:cy="-1.7877056"
     inkscape:window-width="1920"
     inkscape:window-height="991"
     inkscape:window-x="-9"
     inkscape:window-y="-9"
     inkscape:window-maximized="1"
     inkscape:current-layer="layer2">
    <inkscape:grid
       id="grid1"
       units="mm"
       originx="0"
       originy="0"
       spacingx="1"
       spacingy="1"
       empcolor="#0099e5"
       empopacity="0.30196078"
       color="#0099e5"
       opacity="0.14901961"
       empspacing="5"
       dotted="false"
       gridanglex="30"
       gridanglez="30"
       visible="false" />
  </sodipodi:namedview>
  <defs
     id="defs1">
    <rect
       x="16.881259"
       y="442.32944"
       width="32.284559"
       height="22.984786"
       id="rect5" />
    <rect
       x="16.88126"
       y="442.32944"
       width="60.439163"
       height="14.624552"
       id="rect5-6" />
    <rect
       x="16.88126"
       y="442.32944"
       width="60.439163"
       height="14.624552"
       id="rect5-6-3" />
  </defs>
  <g
     inkscape:label="Layer 1"
     inkscape:groupmode="layer"
     id="layer1">
    <rect
       style="fill:#7add55;fill-opacity:1;stroke-width:0.264583"
       id="rect1"
       width="15.235825"
       height="128.49814"
       x="0.0041754646"
       y="0.001861594"
       ry="0"
       rx="0" />
    <path
       style="font-weight:bold;font-size:4.28473px;line-height:0.9;font-family:Consolas;-inkscape-font-specification:'Consolas Bold';text-align:center;text-anchor:middle;white-space:pre;inline-size:10.6808;stroke-width:0.392114"
       d="M 4.3334312,11.836117 H 3.5387194 L 3.1839864,10.427215 3.0547426,9.8538653 2.9309985,10.441199 2.5817654,11.836117 H 1.8200519 L 1.6193116,7.2668016 H 2.216033 L 2.301279,10.196477 2.323278,10.997069 2.48552,10.283878 2.881501,8.6582226 h 0.4262294 l 0.41798,1.7235444 0.1347436,0.60831 0.011001,-0.713191 0.090746,-3.0100844 h 0.5747225 z m 2.4253835,0 -0.016499,-0.464972 q -0.087996,0.118865 -0.1842409,0.22025 -0.096245,0.09789 -0.21174,0.171305 -0.1154939,0.07342 -0.2529878,0.111874 -0.1347435,0.04195 -0.2969857,0.04195 -0.2144897,0 -0.3767319,-0.08041 -0.1622426,-0.08041 -0.2722373,-0.223743 -0.1099946,-0.143337 -0.1677418,-0.346107 -0.054997,-0.20277 -0.054997,-0.447493 0,-0.251714 0.082497,-0.464973 0.085244,-0.213258 0.2557362,-0.3670827 0.1732418,-0.153826 0.4289796,-0.241227 0.2584875,-0.0874 0.6049709,-0.0874 H 6.6625694 V 9.44483 q 0,-0.1363454 -0.030249,-0.2447223 Q 6.6020715,9.0882345 6.5333246,9.0113219 6.4673273,8.9344098 6.3600828,8.8924572 6.252838,8.8505045 6.0960955,8.8505045 q -0.2474881,0 -0.4894765,0.073416 -0.2392384,0.069921 -0.4647276,0.1992738 V 8.4414686 q 0.2007403,-0.1013842 0.4619778,-0.1678095 0.2639873,-0.066425 0.5472237,-0.066425 0.3107351,0 0.5334744,0.076912 0.2227393,0.073416 0.3657324,0.2237461 0.145743,0.1503301 0.2144898,0.3775716 0.068747,0.2237461 0.068747,0.5244049 V 11.836117 Z M 6.6625694,10.266398 H 6.252839 q -0.1704918,0 -0.2887361,0.04195 -0.1182449,0.04195 -0.1924907,0.115369 -0.074246,0.07342 -0.1099946,0.171305 -0.032999,0.09439 -0.032999,0.20277 0,0.216754 0.1099945,0.332124 0.1099946,0.111873 0.2997356,0.111873 0.1402433,0 0.291486,-0.129354 0.1512432,-0.129354 0.3327345,-0.37058 z M 9.7479212,7.31225 q 0,0.1153692 -0.032999,0.216754 -0.032999,0.1013851 -0.093495,0.1782977 -0.057747,0.073417 -0.1374933,0.1188651 -0.079746,0.041953 -0.1732418,0.041953 -0.093495,0 -0.1759915,-0.041953 Q 9.0549556,7.7807188 8.9944576,7.7073017 8.9367106,7.6303887 8.9037116,7.529004 8.8707126,7.4276192 8.8707126,7.31225 q 0,-0.1153691 0.032999,-0.216754 0.032999,-0.1013849 0.090746,-0.1782977 0.060497,-0.076913 0.1402432,-0.1188651 0.082497,-0.045448 0.1759915,-0.045448 0.093495,0 0.1732418,0.045448 0.079745,0.041952 0.1374933,0.1188651 0.060497,0.076913 0.093495,0.1782977 0.032999,0.1013849 0.032999,0.216754 z M 9.0054569,8.9483933 H 8.2162448 V 8.2841471 h 1.476679 v 2.8877239 h 0.8057112 v 0.664246 H 8.1199994 v -0.664246 h 0.8854575 z m 4.4987841,2.8527637 q -0.181491,0.05244 -0.365732,0.0839 -0.184241,0.03146 -0.349234,0.03146 -0.274986,0 -0.475727,-0.07342 -0.19799,-0.07342 -0.329984,-0.223747 -0.129244,-0.150329 -0.192491,-0.381068 -0.0605,-0.234234 -0.0605,-0.555869 V 8.9483933 H 10.979862 V 8.2841471 h 0.750714 V 7.3751786 l 0.687467,-0.2272421 v 1.1362106 h 1.086198 v 0.6642462 h -1.086198 v 1.6711037 q 0,0.304155 0.109995,0.461477 0.109994,0.153826 0.368482,0.153826 0.164993,0 0.321734,-0.03496 0.156743,-0.03496 0.285987,-0.08041 z M 3.0932408,16.434796 v -0.709695 h 1.2786886 v 2.436735 q -0.2474881,0.146833 -0.5169752,0.216754 -0.2694871,0.06992 -0.5857218,0.06992 -0.3739821,0 -0.6737177,-0.146833 Q 2.298529,18.154844 2.089539,17.864673 1.8805491,17.574503 1.7678045,17.14449 1.6578098,16.714479 1.6578098,16.148121 q 0,-0.569853 0.1154939,-1.020841 0.1182448,-0.450989 0.3409836,-0.762135 0.2254892,-0.314643 0.5499736,-0.478957 0.3272342,-0.164313 0.7452142,-0.164313 0.2474881,0 0.4812268,0.05594 0.2364887,0.05244 0.4702276,0.143337 v 0.849536 q -0.2034898,-0.122361 -0.4509779,-0.199274 -0.2447382,-0.08041 -0.4949763,-0.08041 -0.2529878,0 -0.4482285,0.111873 -0.1924907,0.111873 -0.3244844,0.318139 -0.1292435,0.206266 -0.1979904,0.506925 -0.065997,0.300659 -0.065997,0.67823 0,0.363587 0.052248,0.657254 0.052248,0.290171 0.167742,0.496437 0.1182449,0.20277 0.3024855,0.311147 0.1842411,0.108377 0.4482284,0.108377 0.063248,0 0.1099945,-0.0035 0.046748,-0.007 0.087996,-0.01748 0.041248,-0.01049 0.076996,-0.02447 0.038498,-0.01399 0.079746,-0.03146 v -1.167679 z m 3.6655739,1.933306 -0.016499,-0.464972 q -0.087996,0.118864 -0.184241,0.22025 -0.096245,0.09789 -0.21174,0.171305 -0.1154939,0.07342 -0.2529878,0.111874 -0.1347435,0.04195 -0.2969857,0.04195 -0.2144897,0 -0.3767319,-0.08041 -0.1622423,-0.08041 -0.272237,-0.223746 -0.1099946,-0.143337 -0.1677418,-0.346107 -0.054997,-0.20277 -0.054997,-0.447493 0,-0.251714 0.082497,-0.464972 0.085245,-0.213258 0.2557371,-0.367083 0.1732418,-0.153826 0.4289796,-0.241227 0.2584875,-0.0874 0.6049709,-0.0874 h 0.3657324 v -0.213258 q 0,-0.136346 -0.030249,-0.244723 -0.030249,-0.111873 -0.098996,-0.188786 -0.065997,-0.07691 -0.1732418,-0.118864 -0.1072448,-0.04195 -0.2639873,-0.04195 -0.2474881,0 -0.4894765,0.07342 -0.2392384,0.06992 -0.4647276,0.199274 v -0.681726 q 0.2007403,-0.101384 0.4619778,-0.167809 0.2639873,-0.06643 0.5472237,-0.06643 0.3107351,0 0.5334744,0.07691 0.2227393,0.07342 0.3657324,0.223746 0.145743,0.15033 0.2144898,0.377572 0.068747,0.223746 0.068747,0.524405 v 2.426247 z M 6.6625694,16.798383 H 6.252839 q -0.1704918,0 -0.2887361,0.04195 -0.1182449,0.04195 -0.1924907,0.115369 -0.074246,0.07342 -0.1099946,0.171306 -0.032999,0.09439 -0.032999,0.202769 0,0.216754 0.1099945,0.332123 0.1099946,0.111874 0.2997356,0.111874 0.1402433,0 0.291486,-0.129354 0.1512428,-0.129354 0.3327341,-0.37058 z m 3.7453206,1.534759 q -0.181492,0.05244 -0.365733,0.08391 -0.1842411,0.03146 -0.3492332,0.03146 -0.2749867,0 -0.4757271,-0.07342 Q 9.0192063,18.301677 8.8872125,18.151348 8.7579688,18.001019 8.6947218,17.77028 8.6342247,17.536046 8.6342247,17.214411 V 15.480379 H 7.8835108 v -0.664246 h 0.7507139 v -0.908969 l 0.6874669,-0.227242 v 1.136211 H 10.40789 v 0.664246 H 9.3216916 v 1.671104 q 0,0.304154 0.1099946,0.461476 0.1099945,0.153826 0.3684822,0.153826 0.1649921,0 0.3217346,-0.03496 0.156742,-0.03496 0.285986,-0.08041 z m 3.225596,-2.013715 q 0,0.0874 -0.0055,0.227242 -0.0028,0.139841 -0.01104,0.262202 h -1.83685 q 0,0.234235 0.055,0.412532 0.05775,0.178298 0.159493,0.300659 0.104495,0.118865 0.247488,0.181794 0.145743,0.06293 0.321734,0.06293 0.20349,0 0.434479,-0.03846 0.233739,-0.04195 0.483977,-0.13285 v 0.678231 q -0.10724,0.03846 -0.233739,0.06992 -0.126495,0.03146 -0.258487,0.05594 -0.131994,0.02447 -0.266738,0.03496 -0.134743,0.01399 -0.261237,0.01399 -0.318985,0 -0.571972,-0.115369 -0.252988,-0.115372 -0.42898,-0.339119 -0.175991,-0.227242 -0.269487,-0.559365 -0.09349,-0.332123 -0.09349,-0.769127 0,-0.433508 0.09349,-0.786607 0.0935,-0.356596 0.263987,-0.60831 0.170492,-0.25521 0.41248,-0.391556 0.244739,-0.139841 0.544474,-0.139841 0.296986,0 0.525225,0.118865 0.228238,0.115369 0.382232,0.325131 0.153993,0.209762 0.233738,0.499933 0.07974,0.29017 0.07974,0.636278 z m -0.681968,-0.122361 q 0.0028,-0.209762 -0.04124,-0.363587 -0.04399,-0.157322 -0.121001,-0.258707 -0.07425,-0.101384 -0.175991,-0.15033 -0.099,-0.04894 -0.214489,-0.04894 -0.252988,0 -0.41523,0.216754 -0.162243,0.213258 -0.192491,0.604814 z"
       id="text1"
       aria-label="Wait&#10;Gate" />
    <rect
       style="fill:#000000;fill-opacity:1;stroke-width:0.112632"
       id="rect2"
       width="13.619499"
       height="0.66399997"
       x="0.81025028"
       y="86.505302"
       ry="0.27390954" />
    <rect
       style="fill:#000000;fill-opacity:1;stroke-width:0.112632"
       id="rect2-2"
       width="13.619499"
       height="0.66399997"
       x="0.81025028"
       y="77.934311"
       ry="0.27390954" />
    <rect
       style="fill:#ff63e9;fill-opacity:1;stroke-width:0.302914"
       id="rect4"
       width="10.776912"
       height="13.189312"
       x="2.231544"
       y="103.72562"
       ry="1.4404136" />
    <path
       style="font-size:3.52777px;line-height:0.9;font-family:Arial;-inkscape-font-specification:Arial;text-align:center;text-anchor:middle;stroke-width:0.264583"
       d="m 3.6637112,33.425736 v -2.530417 h 0.2824972 v 0.237711 q 0.099908,-0.139526 0.2256533,-0.208428 0.1257457,-0.07062 0.3048903,-0.07062 0.234266,0 0.4134105,0.120578 0.1791446,0.120578 0.2704394,0.341063 0.091295,0.218763 0.091295,0.48059 0,0.280775 -0.1016301,0.506428 -0.099908,0.223931 -0.2928325,0.344509 -0.1912024,0.118855 -0.4030753,0.118855 -0.155029,0 -0.2790521,-0.06546 -0.1223006,-0.06546 -0.2015377,-0.165364 v 0.890555 z m 0.2807747,-1.605411 q 0,0.353121 0.1429711,0.521931 0.1429712,0.168809 0.3462314,0.168809 0.2067053,0 0.3531215,-0.173977 0.1481388,-0.1757 0.1481388,-0.542601 0,-0.349677 -0.1446937,-0.523654 -0.1429712,-0.173977 -0.3427863,-0.173977 -0.1980925,0 -0.3513989,0.186035 -0.1515839,0.184312 -0.1515839,0.537434 z m 2.8800935,0.904335 v -0.268717 q -0.2135954,0.310058 -0.5804973,0.310058 -0.1619191,0 -0.3031677,-0.06201 -0.1395261,-0.06201 -0.2084278,-0.155029 -0.067179,-0.09474 -0.09474,-0.230821 -0.018948,-0.09129 -0.018948,-0.289387 V 30.89532 h 0.310058 v 1.014578 q 0,0.242879 0.018948,0.327283 0.029283,0.122301 0.1240232,0.192925 0.09474,0.0689 0.234266,0.0689 0.1395261,0 0.2618267,-0.07062 0.1223006,-0.07235 0.1722544,-0.194648 0.051676,-0.124023 0.051676,-0.358289 v -0.98013 H 7.101909 v 1.829341 z m 0.7561969,0 v -2.525249 h 0.3100579 v 2.525249 z m 0.6666244,-0.546046 0.3066128,-0.04823 q 0.025838,0.184312 0.1429712,0.282497 0.1188555,0.09818 0.3307284,0.09818 0.2135955,0 0.3169481,-0.08613 0.1033527,-0.08785 0.1033527,-0.204983 0,-0.105075 -0.091295,-0.165364 -0.063734,-0.04133 -0.316948,-0.105068 Q 8.6987072,31.863386 8.5660713,31.801377 8.435158,31.737647 8.3662562,31.6274 q -0.067179,-0.111966 -0.067179,-0.246324 0,-0.122301 0.055121,-0.225653 0.056844,-0.105075 0.1533064,-0.173977 0.072347,-0.0534 0.1963701,-0.08957 0.1257457,-0.0379 0.2687168,-0.0379 0.215318,0 0.3772371,0.06201 0.1636417,0.06201 0.2411562,0.168809 0.077514,0.105076 0.1067977,0.282498 l -0.3031677,0.04134 q -0.02067,-0.141249 -0.1205781,-0.220486 -0.098185,-0.07924 -0.2790521,-0.07924 -0.2135955,0 -0.3048903,0.07062 -0.091295,0.07062 -0.091295,0.165365 0,0.06029 0.037896,0.10852 0.037896,0.04995 0.1188556,0.08268 0.046509,0.01722 0.2738845,0.07924 0.3290059,0.08785 0.4581967,0.144694 0.1309133,0.05512 0.2049827,0.161919 0.074069,0.106798 0.074069,0.265272 0,0.155029 -0.091295,0.292832 -0.089572,0.136081 -0.2601042,0.211873 -0.1705318,0.07407 -0.3858498,0.07407 -0.3565666,0 -0.5443239,-0.148138 -0.1860337,-0.14813 -0.2377102,-0.43924 z m 3.1401973,-0.04306 0.320394,0.03962 q -0.07579,0.280774 -0.280775,0.435803 -0.204983,0.155029 -0.523653,0.155029 -0.401353,0 -0.637342,-0.246323 -0.234266,-0.248047 -0.234266,-0.694186 0,-0.461641 0.237711,-0.716578 0.237711,-0.254936 0.616671,-0.254936 0.366902,0 0.599445,0.249768 0.232544,0.249769 0.232544,0.702798 0,0.02756 -0.0017,0.08268 h -1.364255 q 0.01723,0.301445 0.170532,0.461641 0.153307,0.160197 0.382405,0.160197 0.170532,0 0.29111,-0.08957 0.120578,-0.08957 0.191202,-0.285943 z m -1.018023,-0.50126 h 1.021468 q -0.02067,-0.230821 -0.117133,-0.346231 -0.148138,-0.179145 -0.384127,-0.179145 -0.213595,0 -0.360012,0.142971 -0.144693,0.142971 -0.160196,0.382405 z"
       id="text4"
       aria-label="pulse" />
    <path
       style="font-size:3.52777px;line-height:0.9;font-family:Arial;-inkscape-font-specification:Arial;text-align:center;text-anchor:middle;stroke-width:0.264583"
       d="m 6.4915859,56.440345 v -0.356567 h 0.310058 v 0.356567 z m 0,2.168683 v -1.829342 h 0.310058 v 1.829342 z m 0.782035,0 V 56.779686 H 7.552673 v 0.260104 q 0.2015377,-0.301445 0.5822199,-0.301445 0.1653642,0 0.3031677,0.06029 0.1395261,0.05857 0.2084279,0.155029 0.068902,0.09646 0.096462,0.229098 0.017226,0.08613 0.017226,0.301446 v 1.124821 h -0.310058 v -1.112764 q 0,-0.189479 -0.036173,-0.282497 -0.036173,-0.09474 -0.1291908,-0.149861 -0.091295,-0.05684 -0.215318,-0.05684 -0.1980925,0 -0.3427862,0.125746 -0.1429712,0.125745 -0.1429712,0.477144 v 0.999076 z"
       id="text4-3-1"
       aria-label="in" />
    <path
       style="font-size:3.52777px;line-height:0.9;font-family:Arial;-inkscape-font-specification:Arial;text-align:center;text-anchor:middle;stroke-width:0.264583"
       d="M 4.9581774,73.109459 4.3983506,71.280117 h 0.3203932 l 0.2911099,1.055919 0.1085203,0.39274 q 0.00689,-0.02928 0.09474,-0.377237 l 0.2911099,-1.071422 h 0.3186706 l 0.2738845,1.061087 0.091295,0.349676 0.1050751,-0.353121 0.313503,-1.057642 h 0.301445 L 6.3362125,73.109459 H 6.0140968 L 5.7229869,72.013921 5.6523629,71.70214 5.2820159,73.109459 Z m 3.4037468,-0.225654 q -0.1722544,0.146417 -0.332451,0.206706 -0.158474,0.06029 -0.3410637,0.06029 -0.3014452,0 -0.4633643,-0.146417 -0.1619192,-0.148138 -0.1619192,-0.377237 0,-0.134358 0.060289,-0.244601 0.062012,-0.111965 0.1601966,-0.179145 0.099908,-0.06718 0.2239307,-0.10163 0.091295,-0.02411 0.275607,-0.04651 0.3755146,-0.04479 0.5529366,-0.106798 0.00172,-0.06373 0.00172,-0.08096 0,-0.189479 -0.08785,-0.266994 -0.1188555,-0.105075 -0.3531215,-0.105075 -0.2187631,0 -0.3238382,0.07751 -0.1033527,0.07579 -0.1533065,0.27044 L 7.116522,71.802044 q 0.041341,-0.194648 0.136081,-0.313503 0.09474,-0.120578 0.2738845,-0.184313 0.1791445,-0.06546 0.4151331,-0.06546 0.2342659,0 0.3806822,0.05512 0.1464162,0.05512 0.215318,0.139526 0.068902,0.08268 0.096462,0.210151 0.015503,0.07924 0.015503,0.285942 v 0.413411 q 0,0.432358 0.018948,0.547768 0.02067,0.113688 0.079237,0.218764 H 8.4239358 Q 8.3757048,73.01299 8.3619238,72.883796 Z M 8.336086,72.191343 q -0.1688093,0.0689 -0.5064279,0.117133 -0.1912024,0.02756 -0.2704394,0.06201 -0.079237,0.03445 -0.1223006,0.10163 -0.043064,0.06546 -0.043064,0.146417 0,0.124023 0.093017,0.206705 0.09474,0.08268 0.275607,0.08268 0.1791446,0 0.3186706,-0.07752 0.1395261,-0.07924 0.2049828,-0.215318 0.049954,-0.105075 0.049954,-0.310057 z m 0.7958155,-1.250567 v -0.356567 h 0.3100579 v 0.356567 z m 0,2.168683 v -1.829342 h 0.3100579 v 1.829342 z m 1.4589945,-0.27733 0.04479,0.273884 q -0.130913,0.02756 -0.234266,0.02756 -0.168809,0 -0.261827,-0.0534 -0.09302,-0.0534 -0.130913,-0.139526 -0.037896,-0.08785 -0.037896,-0.366902 V 71.521273 H 9.7434043 v -0.241156 h 0.2273758 v -0.453029 l 0.3083349,-0.186035 v 0.639064 h 0.311781 v 0.241156 h -0.311781 v 1.0697 q 0,0.132636 0.0155,0.170532 0.01723,0.0379 0.0534,0.06029 0.0379,0.02239 0.106798,0.02239 0.05168,0 0.136081,-0.01206 z"
       id="text4-3-1-5"
       aria-label="wait" />
    <path
       style="font-size:3.52777px;line-height:0.9;font-family:Arial;-inkscape-font-specification:Arial;text-align:center;text-anchor:middle;stroke-width:0.264583"
       d="m 4.9517792,102.15384 -0.5598268,-1.82935 h 0.3203932 l 0.2911099,1.05592 0.1085203,0.39274 q 0.00689,-0.0293 0.09474,-0.37724 l 0.2911099,-1.07142 h 0.3186706 l 0.2738845,1.06109 0.091295,0.34968 0.1050751,-0.35313 0.313503,-1.05764 h 0.301445 l -0.5718846,1.82935 H 6.0076986 l -0.2911099,-1.09555 -0.070624,-0.31178 -0.370347,1.40733 z m 3.4037468,-0.22566 q -0.1722544,0.14642 -0.332451,0.20671 -0.158474,0.0603 -0.3410637,0.0603 -0.3014452,0 -0.4633643,-0.14642 -0.1619192,-0.14814 -0.1619192,-0.37723 0,-0.13437 0.060289,-0.24461 0.062012,-0.11196 0.1601966,-0.17914 0.099907,-0.0672 0.2239307,-0.10163 0.091295,-0.0241 0.275607,-0.0465 0.3755146,-0.0448 0.5529366,-0.1068 0.00172,-0.0637 0.00172,-0.081 0,-0.18948 -0.08785,-0.267 -0.1188555,-0.10507 -0.3531215,-0.10507 -0.2187631,0 -0.3238383,0.0775 -0.1033526,0.0758 -0.1533064,0.27043 l -0.3031677,-0.0413 q 0.041341,-0.19464 0.136081,-0.3135 0.09474,-0.12058 0.2738845,-0.18431 0.1791445,-0.0655 0.4151331,-0.0655 0.2342659,0 0.3806822,0.0551 0.1464162,0.0551 0.215318,0.13952 0.068902,0.0827 0.096462,0.21016 0.015503,0.0792 0.015503,0.28594 v 0.41341 q 0,0.43236 0.018948,0.54777 0.020671,0.11369 0.079237,0.21877 h -0.323835 q -0.048231,-0.0965 -0.062012,-0.22567 z m -0.025838,-0.69246 q -0.1688093,0.0689 -0.5064279,0.11713 -0.1912024,0.0276 -0.2704394,0.062 -0.079237,0.0344 -0.1223006,0.10163 -0.043064,0.0655 -0.043064,0.14642 0,0.12402 0.093017,0.2067 0.09474,0.0827 0.275607,0.0827 0.1791446,0 0.3186706,-0.0775 0.1395261,-0.0792 0.2049828,-0.21531 0.049954,-0.10508 0.049954,-0.31006 z m 0.7958155,-1.250577 v -0.35656 h 0.3100579 v 0.35656 z m 0,2.168697 v -1.82935 h 0.3100579 v 1.82935 z m 1.4589945,-0.27733 0.04479,0.27388 q -0.130913,0.0276 -0.234266,0.0276 -0.168809,0 -0.261827,-0.0534 -0.09302,-0.0534 -0.130913,-0.13952 -0.037896,-0.0879 -0.037896,-0.36691 v -1.05252 H 9.7370061 v -0.24115 h 0.2273758 v -0.453037 l 0.3083351,-0.18603 v 0.639067 h 0.311781 v 0.24115 h -0.311781 v 1.06971 q 0,0.13264 0.0155,0.17053 0.01723,0.0379 0.0534,0.0603 0.0379,0.0224 0.106798,0.0224 0.05168,0 0.136081,-0.0121 z"
       id="text4-3-1-5-5"
       aria-label="wait" />
    <path
       style="font-size:3.52777px;line-height:0.9;font-family:Arial;-inkscape-font-specification:Arial;text-align:center;text-anchor:middle;stroke-width:0.264583"
       d="m 5.1834613,114.66268 q 0,-0.50815 0.2824972,-0.75275 0.2359886,-0.20326 0.5753297,-0.20326 0.3772372,0 0.6166708,0.24804 0.2394336,0.24633 0.2394336,0.68213 0,0.35312 -0.1067978,0.55638 -0.1050751,0.20154 -0.3083353,0.31351 -0.2015377,0.11196 -0.4409713,0.11196 -0.3841273,0 -0.6218383,-0.24632 -0.2359886,-0.24633 -0.2359886,-0.70969 z m 0.3186707,0 q 0,0.3514 0.1533064,0.5271 0.1533064,0.17397 0.3858498,0.17397 0.2308209,0 0.3841273,-0.1757 0.1533064,-0.17569 0.1533064,-0.53571 0,-0.33934 -0.1550289,-0.51331 -0.1533064,-0.1757 -0.3824048,-0.1757 -0.2325434,0 -0.3858498,0.17397 -0.1533064,0.17398 -0.1533064,0.52538 z m 2.957608,0.91467 v -0.26872 q -0.2135955,0.31006 -0.5804973,0.31006 -0.1619192,0 -0.3031678,-0.062 -0.139526,-0.062 -0.2084278,-0.15503 -0.067179,-0.0947 -0.09474,-0.23082 -0.018948,-0.0913 -0.018948,-0.28939 v -1.13343 H 7.564017 v 1.01458 q 0,0.24288 0.018948,0.32728 0.029283,0.1223 0.1240232,0.19292 0.09474,0.0689 0.2342659,0.0689 0.1395261,0 0.2618267,-0.0706 0.1223006,-0.0723 0.1722544,-0.19465 0.051676,-0.12402 0.051676,-0.35828 v -0.98013 h 0.310058 v 1.82934 z m 1.4400468,-0.27733 0.044786,0.27388 q -0.1309133,0.0276 -0.234266,0.0276 -0.1688093,0 -0.2618267,-0.0534 -0.093017,-0.0534 -0.1309133,-0.13953 -0.037896,-0.0879 -0.037896,-0.3669 v -1.05248 H 9.0522951 v -0.24115 h 0.2273758 v -0.45303 l 0.3083354,-0.18604 v 0.63907 h 0.3117805 v 0.24115 H 9.5880063 v 1.0697 q 0,0.13264 0.015503,0.17054 0.017225,0.0379 0.053399,0.0603 0.037896,0.0224 0.1067977,0.0224 0.051676,0 0.136081,-0.0121 z"
       id="text4-3-1-5-5-5"
       aria-label="out" />
    <path
       d="m 39.52899,447.27538 q 0,1.15885 -0.273436,1.99869 -0.266927,0.83984 -0.742186,1.38021 -0.468749,0.54036 -1.106768,0.80077 -0.631509,0.26042 -1.354163,0.26042 -1.679683,0 -2.526036,-1.11328 -0.846352,-1.11979 -0.846352,-3.24869 0,-1.15885 0.266927,-1.99869 0.273437,-0.83984 0.742185,-1.3802 0.47526,-0.54037 1.106769,-0.80078 0.638019,-0.26042 1.360673,-0.26042 1.679683,0 2.526035,1.11328 0.846352,1.11328 0.846352,3.24869 z m -1.692704,0.0781 q 0,-1.51041 -0.403644,-2.2526 -0.403645,-0.74218 -1.328122,-0.74218 -0.462238,0 -0.787758,0.19531 -0.32552,0.1888 -0.540364,0.5599 -0.208332,0.37109 -0.305988,0.91796 -0.09766,0.54036 -0.09766,1.24349 0,1.51041 0.403644,2.2526 0.410156,0.74218 1.328122,0.74218 0.462238,0 0.787758,-0.1888 0.332031,-0.19531 0.540364,-0.5664 0.208332,-0.3711 0.305988,-0.91146 0.09766,-0.54687 0.09766,-1.25 z m 8.78904,0.78776 q 0,0.91146 -0.260416,1.57552 -0.253905,0.66406 -0.716144,1.10677 -0.455728,0.43619 -1.080726,0.65104 -0.624998,0.20833 -1.360674,0.20833 -0.247395,0 -0.49479,-0.0326 -0.247395,-0.0326 -0.449218,-0.0846 v 2.58463 h -1.588537 v -9.19919 h 1.373694 l 0.03906,0.97656 q 0.201822,-0.25391 0.416665,-0.46224 0.221354,-0.20834 0.475259,-0.35156 0.253906,-0.14974 0.546874,-0.22787 0.292968,-0.0781 0.65755,-0.0781 0.585936,0 1.041664,0.23437 0.455728,0.23438 0.761717,0.67057 0.312499,0.42969 0.475259,1.04818 0.16276,0.61197 0.16276,1.3802 z m -1.666662,0.0651 q 0,-0.54688 -0.07813,-0.93099 -0.07813,-0.38412 -0.227864,-0.63151 -0.143229,-0.2474 -0.358072,-0.35807 -0.208333,-0.11719 -0.481769,-0.11719 -0.403645,0 -0.774738,0.32552 -0.364582,0.32552 -0.774738,0.88541 v 2.89062 q 0.188802,0.0716 0.462239,0.11719 0.279947,0.0456 0.566405,0.0456 0.377603,0 0.683592,-0.15625 0.312499,-0.15625 0.527342,-0.4427 0.221354,-0.28646 0.338541,-0.69662 0.117187,-0.41666 0.117187,-0.93098 z m 8.808571,-0.45573 q 0,0.16276 -0.01302,0.42317 -0.0065,0.26042 -0.02604,0.48828 h -4.348947 q 0,0.4362 0.130208,0.76823 0.136718,0.33203 0.377603,0.55989 0.247395,0.22136 0.585936,0.33855 0.345051,0.11718 0.761717,0.11718 0.481769,0 1.028643,-0.0716 0.553384,-0.0781 1.14583,-0.2474 v 1.26302 q -0.253905,0.0716 -0.553384,0.13021 -0.299478,0.0586 -0.611977,0.10417 -0.3125,0.0456 -0.631509,0.0651 -0.31901,0.026 -0.618488,0.026 -0.755207,0 -1.354163,-0.21484 -0.598957,-0.21485 -1.015623,-0.63151 -0.416665,-0.42318 -0.638019,-1.04167 -0.221354,-0.61848 -0.221354,-1.43228 0,-0.80729 0.221354,-1.46484 0.221354,-0.66406 0.624998,-1.13281 0.403645,-0.47526 0.97656,-0.72917 0.579426,-0.26041 1.28906,-0.26041 0.703123,0 1.243486,0.22135 0.540363,0.21484 0.904946,0.60547 0.364582,0.39062 0.553384,0.93098 0.188801,0.54037 0.188801,1.1849 z m -1.614579,-0.22787 q 0.0065,-0.39062 -0.09766,-0.67708 -0.104166,-0.29297 -0.286458,-0.48177 -0.17578,-0.1888 -0.416665,-0.27995 -0.234375,-0.0911 -0.507811,-0.0911 -0.598957,0 -0.983071,0.40364 -0.384113,0.39714 -0.455728,1.1263 z m 7.128887,4.04296 v -4.30988 q 0,-1.08724 -0.80729,-1.08724 -0.403644,0 -0.774737,0.32552 -0.364583,0.32552 -0.774738,0.88541 v 4.18619 h -1.588537 v -6.61456 h 1.373694 l 0.03906,0.97656 q 0.201823,-0.25391 0.416666,-0.46224 0.221354,-0.20834 0.475259,-0.35156 0.253906,-0.14974 0.546874,-0.22787 0.292968,-0.0781 0.65755,-0.0781 0.507811,0 0.885415,0.16927 0.377603,0.16276 0.631509,0.46875 0.253905,0.29947 0.377603,0.72916 0.130208,0.42318 0.130208,0.95052 v 4.44009 z"
       id="text5-2"
       style="font-weight:bold;font-size:13.3333px;line-height:0.9;font-family:Consolas;-inkscape-font-specification:'Consolas Bold';text-align:center;white-space:pre"
       transform="matrix(0.26458333,0,0,0.26458333,-4.7559026,-34.178196)"
       aria-label="Open" />
    <path
       d="m 31.644896,451.2337 q -0.566405,0.22787 -1.100258,0.33854 -0.527342,0.11068 -1.100257,0.11068 -0.917967,0 -1.6276,-0.26693 -0.703124,-0.27343 -1.191404,-0.80729 -0.481769,-0.53385 -0.735675,-1.32161 -0.247395,-0.79427 -0.247395,-1.84244 0,-1.07422 0.273437,-1.90755 0.273436,-0.83984 0.781248,-1.41276 0.507811,-0.57942 1.230465,-0.8789 0.729165,-0.30599 1.634111,-0.30599 0.292968,0 0.546873,0.013 0.260416,0.013 0.507812,0.0521 0.247395,0.0325 0.5013,0.0911 0.253906,0.0586 0.527343,0.14974 v 1.58854 q -0.553384,-0.26042 -1.054685,-0.37109 -0.501301,-0.11068 -0.911456,-0.11068 -0.605467,0 -1.035154,0.22135 -0.429686,0.21485 -0.709633,0.61198 -0.273437,0.39062 -0.403645,0.9375 -0.130208,0.54036 -0.130208,1.1914 0,0.6901 0.130208,1.23698 0.136718,0.54036 0.416666,0.91796 0.279947,0.37761 0.716144,0.57943 0.436196,0.19531 1.035153,0.19531 0.214843,0 0.462239,-0.0391 0.253905,-0.0456 0.507811,-0.11068 0.260416,-0.0716 0.507811,-0.16276 0.253906,-0.0976 0.468749,-0.19531 z m 3.834625,-7.63019 h -1.868485 v -1.23697 h 3.496085 v 7.96222 h 1.907548 v 1.23697 h -5.631497 v -1.23697 h 2.096349 z m 11.152316,4.60286 q 0,0.78124 -0.221354,1.43228 -0.221354,0.64453 -0.638019,1.10677 -0.416666,0.46224 -1.022133,0.71615 -0.605467,0.2539 -1.380205,0.2539 -0.735675,0 -1.315101,-0.21484 -0.579425,-0.21485 -0.98307,-0.63802 -0.403645,-0.42969 -0.618488,-1.06771 -0.214843,-0.64453 -0.214843,-1.49739 0,-0.78776 0.221353,-1.43229 0.227864,-0.64453 0.64453,-1.10025 0.423176,-0.45573 1.028643,-0.70313 0.605467,-0.2539 1.367184,-0.2539 0.742186,0 1.321611,0.22135 0.579426,0.21484 0.983071,0.64453 0.403645,0.42969 0.611977,1.06771 0.214844,0.6315 0.214844,1.46484 z m -1.653642,0.0391 q 0,-1.02865 -0.390624,-1.54297 -0.384114,-0.52083 -1.13932,-0.52083 -0.416666,0 -0.709634,0.16276 -0.292968,0.16276 -0.481769,0.44922 -0.188802,0.27995 -0.279947,0.65755 -0.08464,0.3776 -0.08464,0.80729 0,1.03515 0.416666,1.56249 0.416666,0.52084 1.13932,0.52084 0.397134,0 0.690102,-0.15625 0.292968,-0.16276 0.47526,-0.44271 0.182291,-0.28646 0.273436,-0.67057 0.09115,-0.38412 0.09115,-0.82682 z m 8.48305,1.37369 q 0,0.56641 -0.253905,0.97005 -0.247396,0.39714 -0.664061,0.65104 -0.410155,0.2474 -0.937498,0.35807 -0.520832,0.11719 -1.067705,0.11719 -0.729165,0 -1.315101,-0.0716 -0.585936,-0.0651 -1.106768,-0.19532 v -1.43228 q 0.611977,0.2539 1.217445,0.37109 0.611977,0.11068 1.15234,0.11068 0.624999,0 0.930988,-0.19532 0.312499,-0.20182 0.312499,-0.52083 0,-0.14974 -0.0651,-0.27343 -0.0651,-0.1237 -0.247395,-0.23438 -0.175781,-0.11719 -0.501301,-0.23437 -0.32552,-0.1237 -0.852863,-0.27344 -0.48828,-0.13672 -0.859372,-0.30599 -0.364583,-0.17578 -0.605468,-0.41015 -0.240884,-0.23438 -0.364582,-0.54037 -0.117187,-0.3125 -0.117187,-0.72916 0,-0.40365 0.182291,-0.76172 0.182291,-0.35807 0.540363,-0.625 0.364583,-0.27343 0.904946,-0.42968 0.540363,-0.15625 1.263017,-0.15625 0.624999,0 1.106768,0.0651 0.48177,0.0651 0.852863,0.14323 v 1.29557 q -0.566405,-0.18229 -1.067706,-0.25391 -0.49479,-0.0781 -0.98307,-0.0781 -0.48828,0 -0.787759,0.17578 -0.292968,0.17578 -0.292968,0.48828 0,0.14974 0.05859,0.26693 0.05859,0.11718 0.227864,0.22786 0.175781,0.11068 0.48177,0.23437 0.312499,0.11719 0.82031,0.26042 0.572915,0.16276 0.963539,0.35156 0.390624,0.18229 0.624999,0.41667 0.240884,0.23437 0.345051,0.53385 0.104166,0.29948 0.104166,0.68359 z m 7.6367,-1.86848 q 0,0.16276 -0.01302,0.42317 -0.0065,0.26042 -0.02604,0.48828 h -4.348947 q 0,0.4362 0.130208,0.76823 0.136718,0.33203 0.377603,0.55989 0.247395,0.22136 0.585936,0.33855 0.345051,0.11718 0.761717,0.11718 0.481769,0 1.028643,-0.0716 0.553384,-0.0781 1.14583,-0.2474 v 1.26302 q -0.253905,0.0716 -0.553384,0.13021 -0.299478,0.0586 -0.611977,0.10417 -0.312499,0.0456 -0.631509,0.0651 -0.31901,0.026 -0.618488,0.026 -0.755206,0 -1.354163,-0.21484 -0.598957,-0.21485 -1.015623,-0.63151 -0.416665,-0.42318 -0.638019,-1.04167 -0.221354,-0.61848 -0.221354,-1.43228 0,-0.80729 0.221354,-1.46484 0.221354,-0.66406 0.624999,-1.13281 0.403644,-0.47526 0.97656,-0.72917 0.579425,-0.26041 1.289059,-0.26041 0.703123,0 1.243486,0.22135 0.540363,0.21484 0.904946,0.60547 0.364582,0.39062 0.553384,0.93098 0.188801,0.54037 0.188801,1.1849 z m -1.614579,-0.22787 q 0.0065,-0.39062 -0.09766,-0.67708 -0.104166,-0.29297 -0.286457,-0.48177 -0.175781,-0.1888 -0.416666,-0.27995 -0.234374,-0.0911 -0.507811,-0.0911 -0.598957,0 -0.983071,0.40364 -0.384113,0.39714 -0.455728,1.1263 z m 7.343732,4.04296 -0.03906,-0.97656 q -0.208333,0.25391 -0.429686,0.46224 -0.221354,0.20833 -0.47526,0.35807 -0.253905,0.14323 -0.546873,0.22136 -0.286458,0.0846 -0.638019,0.0846 -0.585936,0 -1.041665,-0.23437 -0.455728,-0.23438 -0.768227,-0.66406 -0.305989,-0.4362 -0.468749,-1.05469 -0.16276,-0.61849 -0.16276,-1.3802 0,-0.91146 0.253906,-1.57552 0.260416,-0.67057 0.716144,-1.10677 0.455728,-0.44271 1.080727,-0.65104 0.624998,-0.21484 1.360673,-0.21484 0.247395,0 0.494791,0.0326 0.253905,0.0326 0.449217,0.0846 v -2.58463 h 1.588538 v 9.19919 z m -2.903638,-3.2552 q 0,0.54688 0.07161,0.9375 0.07813,0.38411 0.221354,0.63151 0.149739,0.24739 0.364582,0.36458 0.214844,0.11068 0.48828,0.11068 0.403645,0 0.768228,-0.32552 0.364582,-0.32552 0.774737,-0.89193 v -2.89062 q -0.188801,-0.0716 -0.468749,-0.11718 -0.273436,-0.0456 -0.553384,-0.0456 -0.384113,0 -0.690102,0.15625 -0.305989,0.15625 -0.527342,0.44271 -0.214844,0.28646 -0.332031,0.70312 -0.117187,0.41016 -0.117187,0.92448 z"
       id="text5-2-0"
       style="font-weight:bold;font-size:13.3333px;line-height:0.9;font-family:Consolas;-inkscape-font-specification:'Consolas Bold';text-align:center;white-space:pre"
       transform="matrix(0.26458333,0,0,0.26458333,-4.7559023,-76.003489)"
       aria-label="Closed" />
    <rect
       style="display:inline;fill:#000000;fill-opacity:1;stroke-width:0.112632"
       id="rect2-6"
       width="13.619499"
       height="0.66399997"
       x="0.81025028"
       y="44.680008"
       ry="0.27390954" />
    <rect
       style="display:inline;fill:#000000;fill-opacity:1;stroke-width:0.112632"
       id="rect2-2-1"
       width="13.619499"
       height="0.66399997"
       x="0.81025028"
       y="36.109016"
       ry="0.27390954" />
    <path
       d="m 6.9619877,122.70896 -0.3169481,-0.72347 q -0.044786,-0.10335 -0.1257457,-0.15503 -0.079237,-0.0534 -0.1877573,-0.0534 h -0.080959 v 0.93189 H 5.8268312 v -2.25136 h 0.6562893 q 0.1860347,0 0.3376186,0.0327 0.1515839,0.031 0.2583816,0.10508 0.1067977,0.0741 0.1636417,0.19292 0.058566,0.11886 0.058566,0.29111 0,0.12403 -0.036173,0.22049 -0.036173,0.0965 -0.1016301,0.16709 -0.065457,0.0689 -0.1567515,0.11196 -0.089572,0.0431 -0.1963701,0.0603 0.082682,0.0172 0.1515839,0.0947 0.068902,0.0758 0.1378035,0.22049 l 0.3600117,0.75447 z m -0.1050752,-1.58818 q 0,-0.16537 -0.1050752,-0.23772 -0.1050751,-0.0723 -0.3152255,-0.0723 H 6.2505771 v 0.63562 h 0.1722544 q 0.098185,0 0.177422,-0.0207 0.080959,-0.0207 0.1378035,-0.062 0.056844,-0.0413 0.08785,-0.10163 0.031006,-0.062 0.031006,-0.14124 z m 2.4442899,0.90778 q 0,0.18431 -0.068902,0.32039 -0.067179,0.13608 -0.1894798,0.22565 -0.1223006,0.0879 -0.2911099,0.13092 -0.1688093,0.0431 -0.3686244,0.0431 -0.1774221,0 -0.3427863,-0.0207 -0.1653642,-0.0207 -0.3272833,-0.0689 v -0.41858 q 0.079237,0.0276 0.1653642,0.0517 0.086127,0.0241 0.1722544,0.0431 0.08785,0.0172 0.1739769,0.0276 0.086127,0.0103 0.1670868,0.0103 0.1205781,0 0.2049827,-0.0207 0.084405,-0.0207 0.1378035,-0.0568 0.053399,-0.0362 0.077514,-0.0861 0.024116,-0.0499 0.024116,-0.11024 0,-0.0827 -0.048231,-0.1378 -0.046509,-0.0569 -0.1240232,-0.0999 -0.077514,-0.0431 -0.177422,-0.0775 -0.098185,-0.0345 -0.2015376,-0.0741 -0.1016301,-0.0396 -0.2015377,-0.0896 -0.098185,-0.05 -0.1756995,-0.12402 -0.077514,-0.0741 -0.1257457,-0.1757 -0.046509,-0.10335 -0.046509,-0.24805 0,-0.13263 0.048231,-0.25149 0.048231,-0.11885 0.1515838,-0.2067 0.1033527,-0.0896 0.2652718,-0.14125 0.1619191,-0.0534 0.3910175,-0.0534 0.067179,0 0.1395261,0.007 0.074069,0.005 0.1446936,0.0155 0.072347,0.009 0.1378036,0.0224 0.067179,0.0121 0.1223006,0.0258 v 0.38758 q -0.055121,-0.0207 -0.1205781,-0.0379 -0.065457,-0.0172 -0.136081,-0.0293 -0.068902,-0.0138 -0.139526,-0.0207 -0.070624,-0.007 -0.1343585,-0.007 -0.1119653,0 -0.1894798,0.019 -0.077514,0.0172 -0.1274682,0.0499 -0.049954,0.031 -0.072347,0.0775 -0.022393,0.0465 -0.022393,0.10336 0,0.0706 0.046509,0.1223 0.048231,0.0499 0.1257457,0.0913 0.079237,0.0396 0.1774221,0.0758 0.099908,0.0344 0.2032601,0.0758 0.1050752,0.0396 0.2032602,0.0913 0.099908,0.0517 0.1774221,0.12575 0.079237,0.0741 0.1257457,0.1757 0.048231,0.0999 0.048231,0.23771 z"
       id="text5"
       style="font-weight:bold;font-size:3.52777px;line-height:0.9;font-family:Consolas;-inkscape-font-specification:'Consolas Bold';text-align:center;text-anchor:middle;stroke-width:0.264583"
       aria-label="RS" />
  </g>
  <g
     inkscape:groupmode="layer"
     id="layer2"
     inkscape:label="components"
     style="display:none">
    <circle
       style="fill:#00ff00;fill-opacity:1;stroke-width:0.256914"
       id="path2"
       cx="7.6263981"
       cy="24.847349"
       r="3.1535001"
       inkscape:label="pulse" />
    <circle
       style="fill:#00ff00;fill-opacity:1;stroke-width:0.256914"
       id="path2-6"
       cx="7.6263981"
       cy="50.803867"
       r="3.1535001"
       inkscape:label="signal" />
    <circle
       style="fill:#0000ff;fill-opacity:1;stroke-width:0.256914"
       id="path2-6-1"
       cx="7.6199999"
       cy="108.25539"
       r="3.1535001"
       inkscape:label="signal" />
    <circle
       style="fill:#ff0000;fill-opacity:1;stroke-width:0.256914"
       id="path2-6-8"
       cx="7.6263981"
       cy="64.589539"
       r="3.1535001"
       inkscape:label="closedWait" />
    <circle
       style="fill:#ff0000;fill-opacity:1;stroke-width:0.256914"
       id="path2-6-8-4"
       cx="7.6199999"
       cy="93.524513"
       r="3.1535001"
       inkscape:label="openWait" />
    <circle
       style="fill:#ff00ff;fill-opacity:1;stroke-width:0.0939752"
       id="path2-6-8-3"
       cx="7.6199999"
       cy="80.80381"
       inkscape:label="open"
       r="1.1535" />
    <circle
       style="display:inline;fill:#ff00ff;fill-opacity:1;stroke-width:0.0939752"
       id="path2-6-8-3-0"
       cx="7.6199999"
       cy="38.978516"
       r="1.1535"
       inkscape:label="closed" />
  </g>
</svg>
